<svg xmlns="http://www.w3.org/2000/svg" xmlns:xlink="http://www.w3.org/1999/xlink" width="500" zoomAndPan="magnify" viewBox="0 0 375 374.999991" height="500" preserveAspectRatio="xMidYMid meet" version="1.0"><defs><g/><clipPath id="58bfef46d0"><path d="M 108.109375 36 L 267.109375 36 L 267.109375 187 L 108.109375 187 Z M 108.109375 36 " clip-rule="nonzero"/></clipPath><clipPath id="285df3f85f"><path d="M 192.929688 122.9375 L 192.929688 55.226562 C 192.929688 52.601562 195.433594 50.699219 197.964844 51.410156 L 264.210938 70 C 265.921875 70.480469 267.105469 72.039062 267.105469 73.816406 L 267.105469 141.527344 C 267.105469 144.152344 264.597656 146.054688 262.070312 145.34375 L 195.820312 126.753906 C 194.109375 126.273438 192.929688 124.714844 192.929688 122.9375 Z M 142.921875 78.957031 L 177.03125 88.53125 C 179.5625 89.238281 182.066406 87.339844 182.066406 84.710938 L 182.066406 49.90625 C 182.066406 48.128906 180.886719 46.570312 179.175781 46.089844 L 145.0625 36.515625 C 142.535156 35.808594 140.027344 37.707031 140.027344 40.335938 L 140.027344 75.140625 C 140.027344 76.917969 141.210938 78.476562 142.921875 78.957031 Z M 179.175781 96.570312 L 112.925781 77.980469 C 110.398438 77.273438 107.890625 79.171875 107.890625 81.800781 L 107.890625 149.511719 C 107.890625 151.289062 109.074219 152.847656 110.785156 153.328125 L 177.03125 171.917969 C 179.5625 172.625 182.066406 170.726562 182.066406 168.097656 L 182.066406 100.386719 C 182.066406 98.613281 180.886719 97.050781 179.175781 96.570312 Z M 232.074219 144.367188 L 197.964844 134.796875 C 195.433594 134.085938 192.929688 135.988281 192.929688 138.613281 L 192.929688 173.421875 C 192.929688 175.195312 194.109375 176.757812 195.820312 177.238281 L 229.933594 186.808594 C 232.460938 187.519531 234.96875 185.617188 234.96875 182.992188 L 234.96875 148.183594 C 234.96875 146.40625 233.785156 144.847656 232.074219 144.367188 Z M 232.074219 144.367188 " clip-rule="nonzero"/></clipPath><linearGradient x1="114.296472" gradientTransform="matrix(0, 0.318428, -0.318428, 0, 267.104858, 36.367619)" y1="-47.633897" x2="358.279758" gradientUnits="userSpaceOnUse" y2="546.800554" id="40a69e1877"><stop stop-opacity="1" stop-color="rgb(77.598572%, 30.999756%, 100%)" offset="0"/><stop stop-opacity="1" stop-color="rgb(77.598572%, 30.999756%, 100%)" offset="0.0625"/><stop stop-opacity="1" stop-color="rgb(77.54364%, 30.987549%, 100%)" offset="0.09375"/><stop stop-opacity="1" stop-color="rgb(77.334595%, 30.941772%, 100%)" offset="0.101562"/><stop stop-opacity="1" stop-color="rgb(77.024841%, 30.87616%, 100%)" offset="0.109375"/><stop stop-opacity="1" stop-color="rgb(76.715088%, 30.809021%, 100%)" offset="0.117187"/><stop stop-opacity="1" stop-color="rgb(76.405334%, 30.743408%, 100%)" offset="0.125"/><stop stop-opacity="1" stop-color="rgb(76.097107%, 30.67627%, 100%)" offset="0.132812"/><stop stop-opacity="1" stop-color="rgb(75.787354%, 30.610657%, 100%)" offset="0.140625"/><stop stop-opacity="1" stop-color="rgb(75.4776%, 30.545044%, 100%)" offset="0.148438"/><stop stop-opacity="1" stop-color="rgb(75.167847%, 30.477905%, 100%)" offset="0.15625"/><stop stop-opacity="1" stop-color="rgb(74.858093%, 30.412292%, 100%)" offset="0.164062"/><stop stop-opacity="1" stop-color="rgb(74.549866%, 30.345154%, 100%)" offset="0.171875"/><stop stop-opacity="1" stop-color="rgb(74.240112%, 30.279541%, 100%)" offset="0.179687"/><stop stop-opacity="1" stop-color="rgb(73.930359%, 30.212402%, 100%)" offset="0.1875"/><stop stop-opacity="1" stop-color="rgb(73.620605%, 30.14679%, 100%)" offset="0.195312"/><stop stop-opacity="1" stop-color="rgb(73.310852%, 30.079651%, 100%)" offset="0.203125"/><stop stop-opacity="1" stop-color="rgb(73.002625%, 30.014038%, 100%)" offset="0.210937"/><stop stop-opacity="1" stop-color="rgb(72.692871%, 29.946899%, 100%)" offset="0.21875"/><stop stop-opacity="1" stop-color="rgb(72.383118%, 29.881287%, 100%)" offset="0.226562"/><stop stop-opacity="1" stop-color="rgb(72.073364%, 29.814148%, 100%)" offset="0.234375"/><stop stop-opacity="1" stop-color="rgb(71.763611%, 29.748535%, 100%)" offset="0.242187"/><stop stop-opacity="1" stop-color="rgb(71.455383%, 29.682922%, 100%)" offset="0.25"/><stop stop-opacity="1" stop-color="rgb(71.14563%, 29.615784%, 100%)" offset="0.257812"/><stop stop-opacity="1" stop-color="rgb(70.835876%, 29.550171%, 100%)" offset="0.265625"/><stop stop-opacity="1" stop-color="rgb(70.526123%, 29.483032%, 100%)" offset="0.273437"/><stop stop-opacity="1" stop-color="rgb(70.21637%, 29.417419%, 100%)" offset="0.281124"/><stop stop-opacity="1" stop-color="rgb(70.062256%, 29.38385%, 100%)" offset="0.28125"/><stop stop-opacity="1" stop-color="rgb(69.908142%, 29.350281%, 100%)" offset="0.289062"/><stop stop-opacity="1" stop-color="rgb(69.598389%, 29.284668%, 100%)" offset="0.296875"/><stop stop-opacity="1" stop-color="rgb(69.288635%, 29.217529%, 100%)" offset="0.304687"/><stop stop-opacity="1" stop-color="rgb(68.978882%, 29.151917%, 100%)" offset="0.3125"/><stop stop-opacity="1" stop-color="rgb(68.669128%, 29.084778%, 100%)" offset="0.320312"/><stop stop-opacity="1" stop-color="rgb(68.359375%, 29.019165%, 100%)" offset="0.328125"/><stop stop-opacity="1" stop-color="rgb(68.051147%, 28.953552%, 100%)" offset="0.335937"/><stop stop-opacity="1" stop-color="rgb(67.741394%, 28.886414%, 100%)" offset="0.34375"/><stop stop-opacity="1" stop-color="rgb(67.431641%, 28.820801%, 100%)" offset="0.351562"/><stop stop-opacity="1" stop-color="rgb(67.121887%, 28.753662%, 100%)" offset="0.359375"/><stop stop-opacity="1" stop-color="rgb(66.812134%, 28.688049%, 100%)" offset="0.367187"/><stop stop-opacity="1" stop-color="rgb(66.503906%, 28.620911%, 100%)" offset="0.375"/><stop stop-opacity="1" stop-color="rgb(66.194153%, 28.555298%, 100%)" offset="0.382812"/><stop stop-opacity="1" stop-color="rgb(65.884399%, 28.488159%, 100%)" offset="0.390625"/><stop stop-opacity="1" stop-color="rgb(65.574646%, 28.422546%, 100%)" offset="0.398438"/><stop stop-opacity="1" stop-color="rgb(65.264893%, 28.355408%, 100%)" offset="0.40625"/><stop stop-opacity="1" stop-color="rgb(64.956665%, 28.289795%, 100%)" offset="0.414062"/><stop stop-opacity="1" stop-color="rgb(64.646912%, 28.222656%, 100%)" offset="0.421875"/><stop stop-opacity="1" stop-color="rgb(64.337158%, 28.157043%, 100%)" offset="0.429687"/><stop stop-opacity="1" stop-color="rgb(64.027405%, 28.091431%, 100%)" offset="0.4375"/><stop stop-opacity="1" stop-color="rgb(63.717651%, 28.024292%, 100%)" offset="0.445312"/><stop stop-opacity="1" stop-color="rgb(63.409424%, 27.958679%, 100%)" offset="0.453125"/><stop stop-opacity="1" stop-color="rgb(63.09967%, 27.891541%, 100%)" offset="0.460937"/><stop stop-opacity="1" stop-color="rgb(62.789917%, 27.825928%, 100%)" offset="0.46875"/><stop stop-opacity="1" stop-color="rgb(62.480164%, 27.758789%, 100%)" offset="0.476562"/><stop stop-opacity="1" stop-color="rgb(62.17041%, 27.693176%, 100%)" offset="0.484375"/><stop stop-opacity="1" stop-color="rgb(61.862183%, 27.626038%, 100%)" offset="0.492187"/><stop stop-opacity="1" stop-color="rgb(61.552429%, 27.560425%, 100%)" offset="0.5"/><stop stop-opacity="1" stop-color="rgb(61.242676%, 27.493286%, 100%)" offset="0.507812"/><stop stop-opacity="1" stop-color="rgb(60.932922%, 27.427673%, 100%)" offset="0.515625"/><stop stop-opacity="1" stop-color="rgb(60.623169%, 27.362061%, 100%)" offset="0.523437"/><stop stop-opacity="1" stop-color="rgb(60.314941%, 27.294922%, 100%)" offset="0.53125"/><stop stop-opacity="1" stop-color="rgb(60.005188%, 27.229309%, 100%)" offset="0.539062"/><stop stop-opacity="1" stop-color="rgb(59.695435%, 27.16217%, 100%)" offset="0.546875"/><stop stop-opacity="1" stop-color="rgb(59.385681%, 27.096558%, 100%)" offset="0.554687"/><stop stop-opacity="1" stop-color="rgb(59.075928%, 27.029419%, 100%)" offset="0.5625"/><stop stop-opacity="1" stop-color="rgb(58.7677%, 26.963806%, 100%)" offset="0.570312"/><stop stop-opacity="1" stop-color="rgb(58.457947%, 26.896667%, 100%)" offset="0.578125"/><stop stop-opacity="1" stop-color="rgb(58.148193%, 26.831055%, 100%)" offset="0.585937"/><stop stop-opacity="1" stop-color="rgb(57.83844%, 26.763916%, 100%)" offset="0.59375"/><stop stop-opacity="1" stop-color="rgb(57.528687%, 26.698303%, 100%)" offset="0.601562"/><stop stop-opacity="1" stop-color="rgb(57.220459%, 26.631165%, 100%)" offset="0.609375"/><stop stop-opacity="1" stop-color="rgb(56.910706%, 26.565552%, 100%)" offset="0.617187"/><stop stop-opacity="1" stop-color="rgb(56.600952%, 26.499939%, 100%)" offset="0.625"/><stop stop-opacity="1" stop-color="rgb(56.291199%, 26.4328%, 100%)" offset="0.632812"/><stop stop-opacity="1" stop-color="rgb(55.981445%, 26.367188%, 100%)" offset="0.640625"/><stop stop-opacity="1" stop-color="rgb(55.673218%, 26.300049%, 100%)" offset="0.648438"/><stop stop-opacity="1" stop-color="rgb(55.363464%, 26.234436%, 100%)" offset="0.65625"/><stop stop-opacity="1" stop-color="rgb(55.053711%, 26.167297%, 100%)" offset="0.664062"/><stop stop-opacity="1" stop-color="rgb(54.743958%, 26.101685%, 100%)" offset="0.671875"/><stop stop-opacity="1" stop-color="rgb(54.434204%, 26.034546%, 100%)" offset="0.679688"/><stop stop-opacity="1" stop-color="rgb(54.124451%, 25.968933%, 100%)" offset="0.6875"/><stop stop-opacity="1" stop-color="rgb(53.816223%, 25.901794%, 100%)" offset="0.695312"/><stop stop-opacity="1" stop-color="rgb(53.50647%, 25.836182%, 100%)" offset="0.703125"/><stop stop-opacity="1" stop-color="rgb(53.196716%, 25.770569%, 100%)" offset="0.710938"/><stop stop-opacity="1" stop-color="rgb(52.886963%, 25.70343%, 100%)" offset="0.71875"/><stop stop-opacity="1" stop-color="rgb(52.577209%, 25.637817%, 100%)" offset="0.718876"/><stop stop-opacity="1" stop-color="rgb(52.423096%, 25.604248%, 100%)" offset="0.726562"/><stop stop-opacity="1" stop-color="rgb(52.268982%, 25.570679%, 100%)" offset="0.734375"/><stop stop-opacity="1" stop-color="rgb(51.959229%, 25.505066%, 100%)" offset="0.742188"/><stop stop-opacity="1" stop-color="rgb(51.649475%, 25.437927%, 100%)" offset="0.75"/><stop stop-opacity="1" stop-color="rgb(51.339722%, 25.372314%, 100%)" offset="0.757812"/><stop stop-opacity="1" stop-color="rgb(51.029968%, 25.305176%, 100%)" offset="0.765625"/><stop stop-opacity="1" stop-color="rgb(50.721741%, 25.239563%, 100%)" offset="0.773438"/><stop stop-opacity="1" stop-color="rgb(50.411987%, 25.172424%, 100%)" offset="0.78125"/><stop stop-opacity="1" stop-color="rgb(50.102234%, 25.106812%, 100%)" offset="0.789062"/><stop stop-opacity="1" stop-color="rgb(49.79248%, 25.041199%, 100%)" offset="0.796875"/><stop stop-opacity="1" stop-color="rgb(49.482727%, 24.97406%, 100%)" offset="0.804687"/><stop stop-opacity="1" stop-color="rgb(49.1745%, 24.908447%, 100%)" offset="0.8125"/><stop stop-opacity="1" stop-color="rgb(48.864746%, 24.841309%, 100%)" offset="0.820312"/><stop stop-opacity="1" stop-color="rgb(48.554993%, 24.775696%, 100%)" offset="0.828125"/><stop stop-opacity="1" stop-color="rgb(48.300171%, 24.720764%, 100%)" offset="0.84375"/><stop stop-opacity="1" stop-color="rgb(48.199463%, 24.699402%, 100%)" offset="0.875"/><stop stop-opacity="1" stop-color="rgb(48.199463%, 24.699402%, 100%)" offset="1"/></linearGradient></defs><g clip-path="url(#58bfef46d0)"><g clip-path="url(#285df3f85f)"><path fill="url(#40a69e1877)" d="M 267.105469 35.808594 L 108.109375 35.808594 L 108.109375 187.292969 L 267.105469 187.292969 Z M 267.105469 35.808594 " fill-rule="nonzero"/></g></g><g fill="#0a0019" fill-opacity="1"><g transform="translate(39.831767, 282.545363)"><g><path d="M 42.828125 -49.984375 C 41.285156 -51.765625 39.476562 -53.15625 37.40625 -54.15625 C 35.332031 -55.164062 32.6875 -55.671875 29.46875 -55.671875 C 25.675781 -55.671875 22.757812 -54.9375 20.71875 -53.46875 C 18.6875 -52.007812 17.671875 -50.015625 17.671875 -47.484375 C 17.671875 -43.984375 20.226562 -41.425781 25.34375 -39.8125 L 38.609375 -35.859375 C 48.546875 -32.867188 53.515625 -26.976562 53.515625 -18.1875 C 53.515625 -14.332031 52.507812 -10.96875 50.5 -8.09375 C 48.488281 -5.226562 45.628906 -3.019531 41.921875 -1.46875 C 38.222656 0.0820312 33.84375 0.859375 28.78125 0.859375 C 23.15625 0.859375 18.128906 -0.0976562 13.703125 -2.015625 C 9.273438 -3.941406 5.914062 -6.660156 3.625 -10.171875 C 3.394531 -10.742188 3.28125 -11.085938 3.28125 -11.203125 C 3.28125 -11.660156 3.566406 -12.09375 4.140625 -12.5 L 9.5625 -16.296875 C 10.195312 -16.640625 10.6875 -16.8125 11.03125 -16.8125 C 11.488281 -16.8125 11.863281 -16.609375 12.15625 -16.203125 C 14.394531 -13.273438 16.648438 -11.207031 18.921875 -10 C 21.191406 -8.789062 24.222656 -8.1875 28.015625 -8.1875 C 32.148438 -8.1875 35.394531 -8.875 37.75 -10.25 C 40.101562 -11.632812 41.28125 -13.734375 41.28125 -16.546875 C 41.28125 -18.390625 40.691406 -19.941406 39.515625 -21.203125 C 38.335938 -22.460938 36.253906 -23.582031 33.265625 -24.5625 L 20.25 -28.53125 C 15.476562 -29.96875 11.828125 -32.25 9.296875 -35.375 C 6.773438 -38.507812 5.515625 -42.03125 5.515625 -45.9375 C 5.515625 -49.613281 6.488281 -52.875 8.4375 -55.71875 C 10.394531 -58.5625 13.171875 -60.785156 16.765625 -62.390625 C 20.359375 -64.003906 24.507812 -64.8125 29.21875 -64.8125 C 33.757812 -64.8125 37.9375 -64.019531 41.75 -62.4375 C 45.570312 -60.863281 48.601562 -58.695312 50.84375 -55.9375 C 51.195312 -55.476562 51.375 -55.101562 51.375 -54.8125 C 51.375 -54.53125 51.195312 -54.242188 50.84375 -53.953125 L 44.734375 -49.390625 C 44.503906 -49.210938 44.273438 -49.125 44.046875 -49.125 C 43.753906 -49.125 43.347656 -49.410156 42.828125 -49.984375 Z M 42.828125 -49.984375 "/></g></g></g><g fill="#0a0019" fill-opacity="1"><g transform="translate(97.146779, 282.545363)"><g><path d="M 25.765625 0.859375 C 21.347656 0.859375 17.414062 -0.128906 13.96875 -2.109375 C 10.519531 -4.085938 7.847656 -6.859375 5.953125 -10.421875 C 4.054688 -13.984375 3.109375 -18.035156 3.109375 -22.578125 C 3.109375 -27.234375 4.082031 -31.382812 6.03125 -35.03125 C 7.988281 -38.6875 10.691406 -41.519531 14.140625 -43.53125 C 17.585938 -45.539062 21.492188 -46.546875 25.859375 -46.546875 C 30.285156 -46.546875 34.21875 -45.523438 37.65625 -43.484375 C 41.101562 -41.441406 43.773438 -38.609375 45.671875 -34.984375 C 47.578125 -31.367188 48.53125 -27.265625 48.53125 -22.671875 C 48.53125 -18.128906 47.566406 -14.078125 45.640625 -10.515625 C 43.710938 -6.953125 41.023438 -4.164062 37.578125 -2.15625 C 34.128906 -0.144531 30.191406 0.859375 25.765625 0.859375 Z M 25.859375 -6.8125 C 29.535156 -6.8125 32.332031 -8.1875 34.25 -10.9375 C 36.175781 -13.695312 37.140625 -17.664062 37.140625 -22.84375 C 37.140625 -28.070312 36.160156 -32.09375 34.203125 -34.90625 C 32.253906 -37.71875 29.472656 -39.125 25.859375 -39.125 C 22.234375 -39.125 19.429688 -37.71875 17.453125 -34.90625 C 15.472656 -32.09375 14.484375 -28.070312 14.484375 -22.84375 C 14.484375 -17.664062 15.472656 -13.695312 17.453125 -10.9375 C 19.429688 -8.1875 22.234375 -6.8125 25.859375 -6.8125 Z M 25.859375 -6.8125 "/></g></g></g><g fill="#0a0019" fill-opacity="1"><g transform="translate(148.773388, 282.545363)"><g><path d="M 8.453125 -63.953125 C 16.660156 -63.953125 22.429688 -63.921875 25.765625 -63.859375 C 48.234375 -63.347656 59.46875 -52.804688 59.46875 -32.234375 C 59.46875 -21.953125 56.578125 -14.007812 50.796875 -8.40625 C 45.023438 -2.800781 36.484375 0 25.171875 0 L 8.53125 0 C 7.382812 0 6.8125 -0.601562 6.8125 -1.8125 L 6.8125 -62.40625 C 6.8125 -62.976562 6.925781 -63.378906 7.15625 -63.609375 C 7.382812 -63.835938 7.816406 -63.953125 8.453125 -63.953125 Z M 20.34375 -54.8125 C 19.820312 -54.8125 19.5625 -54.410156 19.5625 -53.609375 L 19.5625 -10.171875 C 19.5625 -9.765625 19.644531 -9.488281 19.8125 -9.34375 C 19.988281 -9.207031 20.28125 -9.140625 20.6875 -9.140625 L 22.84375 -9.140625 C 30.9375 -9.140625 36.835938 -10.921875 40.546875 -14.484375 C 44.253906 -18.046875 46.109375 -23.960938 46.109375 -32.234375 C 46.109375 -37.578125 45.359375 -41.84375 43.859375 -45.03125 C 42.367188 -48.21875 40.144531 -50.554688 37.1875 -52.046875 C 34.226562 -53.546875 30.363281 -54.410156 25.59375 -54.640625 Z M 20.34375 -54.8125 "/></g></g></g><g fill="#0a0019" fill-opacity="1"><g transform="translate(212.638686, 282.545363)"><g><path d="M 4.3125 0 C 3.5625 0 3.1875 -0.398438 3.1875 -1.203125 C 3.1875 -1.378906 3.242188 -1.695312 3.359375 -2.15625 L 25.078125 -62.40625 C 25.304688 -62.976562 25.5625 -63.378906 25.84375 -63.609375 C 26.132812 -63.835938 26.570312 -63.953125 27.15625 -63.953125 L 37.921875 -63.953125 C 39.179688 -63.953125 39.984375 -63.378906 40.328125 -62.234375 L 61.875 -2.0625 C 62 -1.71875 62.0625 -1.460938 62.0625 -1.296875 C 62.0625 -0.953125 61.957031 -0.648438 61.75 -0.390625 C 61.550781 -0.128906 61.28125 0 60.9375 0 L 50.5 0 C 49.695312 0 49.179688 -0.375 48.953125 -1.125 L 43.953125 -15.078125 C 43.835938 -15.367188 43.722656 -15.582031 43.609375 -15.71875 C 43.492188 -15.863281 43.265625 -15.9375 42.921875 -15.9375 L 20.421875 -15.9375 C 19.910156 -15.9375 19.566406 -15.679688 19.390625 -15.171875 L 14.21875 -1.03125 C 14.050781 -0.34375 13.535156 0 12.671875 0 Z M 39.8125 -25.6875 C 40.332031 -25.6875 40.59375 -25.914062 40.59375 -26.375 C 40.59375 -26.65625 40.566406 -26.882812 40.515625 -27.0625 L 32.234375 -50.078125 C 32.054688 -50.472656 31.851562 -50.671875 31.625 -50.671875 C 31.394531 -50.671875 31.195312 -50.441406 31.03125 -49.984375 L 22.671875 -27.0625 C 22.554688 -26.71875 22.5 -26.457031 22.5 -26.28125 C 22.5 -25.882812 22.785156 -25.6875 23.359375 -25.6875 Z M 39.8125 -25.6875 "/></g></g></g><g fill="#0a0019" fill-opacity="1"><g transform="translate(277.796818, 282.545363)"><g><path d="M 42.828125 -49.984375 C 41.285156 -51.765625 39.476562 -53.15625 37.40625 -54.15625 C 35.332031 -55.164062 32.6875 -55.671875 29.46875 -55.671875 C 25.675781 -55.671875 22.757812 -54.9375 20.71875 -53.46875 C 18.6875 -52.007812 17.671875 -50.015625 17.671875 -47.484375 C 17.671875 -43.984375 20.226562 -41.425781 25.34375 -39.8125 L 38.609375 -35.859375 C 48.546875 -32.867188 53.515625 -26.976562 53.515625 -18.1875 C 53.515625 -14.332031 52.507812 -10.96875 50.5 -8.09375 C 48.488281 -5.226562 45.628906 -3.019531 41.921875 -1.46875 C 38.222656 0.0820312 33.84375 0.859375 28.78125 0.859375 C 23.15625 0.859375 18.128906 -0.0976562 13.703125 -2.015625 C 9.273438 -3.941406 5.914062 -6.660156 3.625 -10.171875 C 3.394531 -10.742188 3.28125 -11.085938 3.28125 -11.203125 C 3.28125 -11.660156 3.566406 -12.09375 4.140625 -12.5 L 9.5625 -16.296875 C 10.195312 -16.640625 10.6875 -16.8125 11.03125 -16.8125 C 11.488281 -16.8125 11.863281 -16.609375 12.15625 -16.203125 C 14.394531 -13.273438 16.648438 -11.207031 18.921875 -10 C 21.191406 -8.789062 24.222656 -8.1875 28.015625 -8.1875 C 32.148438 -8.1875 35.394531 -8.875 37.75 -10.25 C 40.101562 -11.632812 41.28125 -13.734375 41.28125 -16.546875 C 41.28125 -18.390625 40.691406 -19.941406 39.515625 -21.203125 C 38.335938 -22.460938 36.253906 -23.582031 33.265625 -24.5625 L 20.25 -28.53125 C 15.476562 -29.96875 11.828125 -32.25 9.296875 -35.375 C 6.773438 -38.507812 5.515625 -42.03125 5.515625 -45.9375 C 5.515625 -49.613281 6.488281 -52.875 8.4375 -55.71875 C 10.394531 -58.5625 13.171875 -60.785156 16.765625 -62.390625 C 20.359375 -64.003906 24.507812 -64.8125 29.21875 -64.8125 C 33.757812 -64.8125 37.9375 -64.019531 41.75 -62.4375 C 45.570312 -60.863281 48.601562 -58.695312 50.84375 -55.9375 C 51.195312 -55.476562 51.375 -55.101562 51.375 -54.8125 C 51.375 -54.53125 51.195312 -54.242188 50.84375 -53.953125 L 44.734375 -49.390625 C 44.503906 -49.210938 44.273438 -49.125 44.046875 -49.125 C 43.753906 -49.125 43.347656 -49.410156 42.828125 -49.984375 Z M 42.828125 -49.984375 "/></g></g></g></svg>