<svg xmlns="http://www.w3.org/2000/svg" xmlns:xlink="http://www.w3.org/1999/xlink" width="1000" zoomAndPan="magnify" viewBox="0 0 750 749.999995" height="1000" preserveAspectRatio="xMidYMid meet" version="1.0"><defs><g/><clipPath id="b65c6a3e2a"><path d="M 215.472656 139 L 534.222656 139 L 534.222656 441 L 215.472656 441 Z M 215.472656 139 " clip-rule="nonzero"/></clipPath><clipPath id="ffc7ee6871"><path d="M 385.855469 312.246094 L 385.855469 176.824219 C 385.855469 171.570312 390.871094 167.769531 395.925781 169.191406 L 528.421875 206.367188 C 531.84375 207.328125 534.210938 210.449219 534.210938 214.003906 L 534.210938 349.425781 C 534.210938 354.675781 529.195312 358.476562 524.140625 357.058594 L 391.644531 319.878906 C 388.222656 318.917969 385.855469 315.800781 385.855469 312.246094 Z M 285.84375 224.289062 L 354.066406 243.429688 C 359.121094 244.847656 364.136719 241.046875 364.136719 235.796875 L 364.136719 166.183594 C 364.136719 162.628906 361.769531 159.507812 358.347656 158.546875 L 290.128906 139.40625 C 285.070312 137.988281 280.058594 141.789062 280.058594 147.039062 L 280.058594 216.652344 C 280.058594 220.207031 282.421875 223.328125 285.84375 224.289062 Z M 358.347656 259.515625 L 225.851562 222.335938 C 220.796875 220.917969 215.78125 224.71875 215.78125 229.96875 L 215.78125 365.390625 C 215.78125 368.945312 218.144531 372.066406 221.566406 373.027344 L 354.066406 410.203125 C 359.121094 411.621094 364.136719 407.824219 364.136719 402.570312 L 364.136719 267.148438 C 364.136719 263.59375 361.769531 260.476562 358.347656 259.515625 Z M 464.148438 355.105469 L 395.925781 335.964844 C 390.871094 334.546875 385.855469 338.347656 385.855469 343.597656 L 385.855469 413.210938 C 385.855469 416.765625 388.222656 419.886719 391.644531 420.84375 L 459.863281 439.988281 C 464.921875 441.40625 469.933594 437.605469 469.933594 432.355469 L 469.933594 362.742188 C 469.933594 359.1875 467.570312 356.066406 464.148438 355.105469 Z M 464.148438 355.105469 " clip-rule="nonzero"/></clipPath><linearGradient x1="114.296473" gradientTransform="matrix(0, 0.636856, -0.636856, 0, 534.209779, 139.106519)" y1="-47.633895" x2="358.621857" gradientUnits="userSpaceOnUse" y2="547.634036" id="64ff4fa613"><stop stop-opacity="1" stop-color="rgb(77.598572%, 30.999756%, 100%)" offset="0"/><stop stop-opacity="1" stop-color="rgb(77.598572%, 30.999756%, 100%)" offset="0.0625"/><stop stop-opacity="1" stop-color="rgb(77.540588%, 30.987549%, 100%)" offset="0.09375"/><stop stop-opacity="1" stop-color="rgb(77.328491%, 30.941772%, 100%)" offset="0.101563"/><stop stop-opacity="1" stop-color="rgb(77.018738%, 30.874634%, 100%)" offset="0.109375"/><stop stop-opacity="1" stop-color="rgb(76.708984%, 30.809021%, 100%)" offset="0.117188"/><stop stop-opacity="1" stop-color="rgb(76.399231%, 30.741882%, 100%)" offset="0.125"/><stop stop-opacity="1" stop-color="rgb(76.089478%, 30.674744%, 100%)" offset="0.132813"/><stop stop-opacity="1" stop-color="rgb(75.779724%, 30.609131%, 100%)" offset="0.140625"/><stop stop-opacity="1" stop-color="rgb(75.469971%, 30.541992%, 100%)" offset="0.148438"/><stop stop-opacity="1" stop-color="rgb(75.160217%, 30.476379%, 100%)" offset="0.15625"/><stop stop-opacity="1" stop-color="rgb(74.850464%, 30.409241%, 100%)" offset="0.164063"/><stop stop-opacity="1" stop-color="rgb(74.539185%, 30.343628%, 100%)" offset="0.171875"/><stop stop-opacity="1" stop-color="rgb(74.229431%, 30.276489%, 100%)" offset="0.179688"/><stop stop-opacity="1" stop-color="rgb(73.919678%, 30.210876%, 100%)" offset="0.1875"/><stop stop-opacity="1" stop-color="rgb(73.609924%, 30.143738%, 100%)" offset="0.195313"/><stop stop-opacity="1" stop-color="rgb(73.300171%, 30.078125%, 100%)" offset="0.203125"/><stop stop-opacity="1" stop-color="rgb(72.990417%, 30.010986%, 100%)" offset="0.210938"/><stop stop-opacity="1" stop-color="rgb(72.680664%, 29.945374%, 100%)" offset="0.21875"/><stop stop-opacity="1" stop-color="rgb(72.370911%, 29.878235%, 100%)" offset="0.226563"/><stop stop-opacity="1" stop-color="rgb(72.061157%, 29.812622%, 100%)" offset="0.234375"/><stop stop-opacity="1" stop-color="rgb(71.751404%, 29.745483%, 100%)" offset="0.242188"/><stop stop-opacity="1" stop-color="rgb(71.44165%, 29.679871%, 100%)" offset="0.25"/><stop stop-opacity="1" stop-color="rgb(71.130371%, 29.612732%, 100%)" offset="0.257812"/><stop stop-opacity="1" stop-color="rgb(70.820618%, 29.547119%, 100%)" offset="0.265625"/><stop stop-opacity="1" stop-color="rgb(70.510864%, 29.47998%, 100%)" offset="0.273438"/><stop stop-opacity="1" stop-color="rgb(70.201111%, 29.414368%, 100%)" offset="0.281145"/><stop stop-opacity="1" stop-color="rgb(70.046997%, 29.380798%, 100%)" offset="0.28125"/><stop stop-opacity="1" stop-color="rgb(69.891357%, 29.347229%, 100%)" offset="0.289063"/><stop stop-opacity="1" stop-color="rgb(69.581604%, 29.281616%, 100%)" offset="0.296875"/><stop stop-opacity="1" stop-color="rgb(69.271851%, 29.214478%, 100%)" offset="0.304688"/><stop stop-opacity="1" stop-color="rgb(68.962097%, 29.148865%, 100%)" offset="0.3125"/><stop stop-opacity="1" stop-color="rgb(68.652344%, 29.081726%, 100%)" offset="0.320313"/><stop stop-opacity="1" stop-color="rgb(68.34259%, 29.014587%, 100%)" offset="0.328125"/><stop stop-opacity="1" stop-color="rgb(68.032837%, 28.948975%, 100%)" offset="0.335938"/><stop stop-opacity="1" stop-color="rgb(67.721558%, 28.881836%, 100%)" offset="0.34375"/><stop stop-opacity="1" stop-color="rgb(67.411804%, 28.816223%, 100%)" offset="0.351563"/><stop stop-opacity="1" stop-color="rgb(67.102051%, 28.749084%, 100%)" offset="0.359375"/><stop stop-opacity="1" stop-color="rgb(66.792297%, 28.683472%, 100%)" offset="0.367188"/><stop stop-opacity="1" stop-color="rgb(66.482544%, 28.616333%, 100%)" offset="0.375"/><stop stop-opacity="1" stop-color="rgb(66.172791%, 28.55072%, 100%)" offset="0.382813"/><stop stop-opacity="1" stop-color="rgb(65.863037%, 28.483582%, 100%)" offset="0.390625"/><stop stop-opacity="1" stop-color="rgb(65.553284%, 28.417969%, 100%)" offset="0.398438"/><stop stop-opacity="1" stop-color="rgb(65.24353%, 28.35083%, 100%)" offset="0.40625"/><stop stop-opacity="1" stop-color="rgb(64.933777%, 28.285217%, 100%)" offset="0.414063"/><stop stop-opacity="1" stop-color="rgb(64.624023%, 28.218079%, 100%)" offset="0.421875"/><stop stop-opacity="1" stop-color="rgb(64.312744%, 28.152466%, 100%)" offset="0.429688"/><stop stop-opacity="1" stop-color="rgb(64.002991%, 28.085327%, 100%)" offset="0.4375"/><stop stop-opacity="1" stop-color="rgb(63.693237%, 28.019714%, 100%)" offset="0.445313"/><stop stop-opacity="1" stop-color="rgb(63.383484%, 27.952576%, 100%)" offset="0.453125"/><stop stop-opacity="1" stop-color="rgb(63.07373%, 27.886963%, 100%)" offset="0.460938"/><stop stop-opacity="1" stop-color="rgb(62.763977%, 27.819824%, 100%)" offset="0.46875"/><stop stop-opacity="1" stop-color="rgb(62.454224%, 27.754211%, 100%)" offset="0.476563"/><stop stop-opacity="1" stop-color="rgb(62.14447%, 27.687073%, 100%)" offset="0.484375"/><stop stop-opacity="1" stop-color="rgb(61.834717%, 27.62146%, 100%)" offset="0.492188"/><stop stop-opacity="1" stop-color="rgb(61.524963%, 27.554321%, 100%)" offset="0.5"/><stop stop-opacity="1" stop-color="rgb(61.21521%, 27.488708%, 100%)" offset="0.507813"/><stop stop-opacity="1" stop-color="rgb(60.905457%, 27.42157%, 100%)" offset="0.515625"/><stop stop-opacity="1" stop-color="rgb(60.594177%, 27.355957%, 100%)" offset="0.523438"/><stop stop-opacity="1" stop-color="rgb(60.284424%, 27.288818%, 100%)" offset="0.53125"/><stop stop-opacity="1" stop-color="rgb(59.97467%, 27.22168%, 100%)" offset="0.539062"/><stop stop-opacity="1" stop-color="rgb(59.664917%, 27.156067%, 100%)" offset="0.546875"/><stop stop-opacity="1" stop-color="rgb(59.355164%, 27.088928%, 100%)" offset="0.554688"/><stop stop-opacity="1" stop-color="rgb(59.04541%, 27.023315%, 100%)" offset="0.5625"/><stop stop-opacity="1" stop-color="rgb(58.735657%, 26.956177%, 100%)" offset="0.570313"/><stop stop-opacity="1" stop-color="rgb(58.425903%, 26.890564%, 100%)" offset="0.578125"/><stop stop-opacity="1" stop-color="rgb(58.11615%, 26.823425%, 100%)" offset="0.585938"/><stop stop-opacity="1" stop-color="rgb(57.806396%, 26.757812%, 100%)" offset="0.59375"/><stop stop-opacity="1" stop-color="rgb(57.496643%, 26.690674%, 100%)" offset="0.601562"/><stop stop-opacity="1" stop-color="rgb(57.185364%, 26.625061%, 100%)" offset="0.609375"/><stop stop-opacity="1" stop-color="rgb(56.87561%, 26.557922%, 100%)" offset="0.617188"/><stop stop-opacity="1" stop-color="rgb(56.565857%, 26.49231%, 100%)" offset="0.625"/><stop stop-opacity="1" stop-color="rgb(56.256104%, 26.425171%, 100%)" offset="0.632813"/><stop stop-opacity="1" stop-color="rgb(55.94635%, 26.359558%, 100%)" offset="0.640625"/><stop stop-opacity="1" stop-color="rgb(55.636597%, 26.292419%, 100%)" offset="0.648438"/><stop stop-opacity="1" stop-color="rgb(55.326843%, 26.226807%, 100%)" offset="0.65625"/><stop stop-opacity="1" stop-color="rgb(55.01709%, 26.159668%, 100%)" offset="0.664062"/><stop stop-opacity="1" stop-color="rgb(54.707336%, 26.094055%, 100%)" offset="0.671875"/><stop stop-opacity="1" stop-color="rgb(54.397583%, 26.026917%, 100%)" offset="0.679688"/><stop stop-opacity="1" stop-color="rgb(54.08783%, 25.961304%, 100%)" offset="0.6875"/><stop stop-opacity="1" stop-color="rgb(53.77655%, 25.894165%, 100%)" offset="0.695312"/><stop stop-opacity="1" stop-color="rgb(53.466797%, 25.828552%, 100%)" offset="0.703125"/><stop stop-opacity="1" stop-color="rgb(53.157043%, 25.761414%, 100%)" offset="0.710938"/><stop stop-opacity="1" stop-color="rgb(52.84729%, 25.695801%, 100%)" offset="0.71875"/><stop stop-opacity="1" stop-color="rgb(52.537537%, 25.628662%, 100%)" offset="0.718855"/><stop stop-opacity="1" stop-color="rgb(52.383423%, 25.595093%, 100%)" offset="0.726563"/><stop stop-opacity="1" stop-color="rgb(52.227783%, 25.561523%, 100%)" offset="0.734375"/><stop stop-opacity="1" stop-color="rgb(51.91803%, 25.495911%, 100%)" offset="0.742188"/><stop stop-opacity="1" stop-color="rgb(51.608276%, 25.428772%, 100%)" offset="0.75"/><stop stop-opacity="1" stop-color="rgb(51.298523%, 25.363159%, 100%)" offset="0.757812"/><stop stop-opacity="1" stop-color="rgb(50.98877%, 25.296021%, 100%)" offset="0.765625"/><stop stop-opacity="1" stop-color="rgb(50.679016%, 25.230408%, 100%)" offset="0.773438"/><stop stop-opacity="1" stop-color="rgb(50.367737%, 25.163269%, 100%)" offset="0.78125"/><stop stop-opacity="1" stop-color="rgb(50.057983%, 25.097656%, 100%)" offset="0.789062"/><stop stop-opacity="1" stop-color="rgb(49.74823%, 25.030518%, 100%)" offset="0.796875"/><stop stop-opacity="1" stop-color="rgb(49.438477%, 24.964905%, 100%)" offset="0.804688"/><stop stop-opacity="1" stop-color="rgb(49.128723%, 24.897766%, 100%)" offset="0.8125"/><stop stop-opacity="1" stop-color="rgb(48.81897%, 24.832153%, 100%)" offset="0.820313"/><stop stop-opacity="1" stop-color="rgb(48.509216%, 24.765015%, 100%)" offset="0.828125"/><stop stop-opacity="1" stop-color="rgb(48.277283%, 24.716187%, 100%)" offset="0.84375"/><stop stop-opacity="1" stop-color="rgb(48.199463%, 24.699402%, 100%)" offset="0.875"/><stop stop-opacity="1" stop-color="rgb(48.199463%, 24.699402%, 100%)" offset="1"/></linearGradient></defs><g clip-path="url(#b65c6a3e2a)"><g clip-path="url(#ffc7ee6871)"><path fill="url(#64ff4fa613)" d="M 534.210938 137.988281 L 215.78125 137.988281 L 215.78125 441.40625 L 534.210938 441.40625 Z M 534.210938 137.988281 " fill-rule="nonzero"/></g></g><g fill="#0a0019" fill-opacity="1"><g transform="translate(79.663529, 603.388561)"><g><path d="M 85.671875 -99.984375 C 82.578125 -103.546875 78.957031 -106.332031 74.8125 -108.34375 C 70.675781 -110.351562 65.390625 -111.359375 58.953125 -111.359375 C 51.367188 -111.359375 45.535156 -109.894531 41.453125 -106.96875 C 37.378906 -104.039062 35.34375 -100.046875 35.34375 -94.984375 C 35.34375 -87.972656 40.457031 -82.859375 50.6875 -79.640625 L 77.234375 -71.71875 C 97.109375 -65.738281 107.046875 -53.957031 107.046875 -36.375 C 107.046875 -28.675781 105.035156 -21.953125 101.015625 -16.203125 C 96.992188 -10.453125 91.273438 -6.023438 83.859375 -2.921875 C 76.453125 0.171875 67.691406 1.71875 57.578125 1.71875 C 46.316406 1.71875 36.257812 -0.203125 27.40625 -4.046875 C 18.5625 -7.898438 11.835938 -13.332031 7.234375 -20.34375 C 6.773438 -21.488281 6.546875 -22.175781 6.546875 -22.40625 C 6.546875 -23.332031 7.125 -24.195312 8.28125 -25 L 19.140625 -32.578125 C 20.398438 -33.265625 21.375 -33.609375 22.0625 -33.609375 C 22.976562 -33.609375 23.726562 -33.207031 24.3125 -32.40625 C 28.789062 -26.550781 33.300781 -22.414062 37.84375 -20 C 42.382812 -17.582031 48.445312 -16.375 56.03125 -16.375 C 64.300781 -16.375 70.789062 -17.753906 75.5 -20.515625 C 80.21875 -23.273438 82.578125 -27.46875 82.578125 -33.09375 C 82.578125 -36.769531 81.394531 -39.875 79.03125 -42.40625 C 76.675781 -44.9375 72.515625 -47.175781 66.546875 -49.125 L 40.515625 -57.0625 C 30.972656 -59.9375 23.671875 -64.503906 18.609375 -70.765625 C 13.554688 -77.023438 11.03125 -84.066406 11.03125 -91.890625 C 11.03125 -99.242188 12.984375 -105.765625 16.890625 -111.453125 C 20.796875 -117.140625 26.335938 -121.59375 33.515625 -124.8125 C 40.703125 -128.03125 49.007812 -129.640625 58.4375 -129.640625 C 67.519531 -129.640625 75.878906 -128.054688 83.515625 -124.890625 C 91.160156 -121.734375 97.222656 -117.394531 101.703125 -111.875 C 102.398438 -110.957031 102.75 -110.210938 102.75 -109.640625 C 102.75 -109.066406 102.398438 -108.492188 101.703125 -107.921875 L 89.46875 -98.78125 C 89.007812 -98.4375 88.550781 -98.265625 88.09375 -98.265625 C 87.519531 -98.265625 86.710938 -98.835938 85.671875 -99.984375 Z M 85.671875 -99.984375 "/></g></g></g><g fill="#0a0019" fill-opacity="1"><g transform="translate(194.293556, 603.388561)"><g><path d="M 51.546875 1.71875 C 42.691406 1.71875 34.816406 -0.257812 27.921875 -4.21875 C 21.023438 -8.1875 15.679688 -13.734375 11.890625 -20.859375 C 8.097656 -27.984375 6.203125 -36.085938 6.203125 -45.171875 C 6.203125 -54.472656 8.15625 -62.773438 12.0625 -70.078125 C 15.96875 -77.378906 21.367188 -83.039062 28.265625 -87.0625 C 35.160156 -91.082031 42.976562 -93.09375 51.71875 -93.09375 C 60.5625 -93.09375 68.429688 -91.050781 75.328125 -86.96875 C 82.222656 -82.882812 87.566406 -77.222656 91.359375 -69.984375 C 95.160156 -62.742188 97.0625 -54.53125 97.0625 -45.34375 C 97.0625 -36.257812 95.132812 -28.15625 91.28125 -21.03125 C 87.425781 -13.90625 82.050781 -8.332031 75.15625 -4.3125 C 68.257812 -0.289062 60.390625 1.71875 51.546875 1.71875 Z M 51.71875 -13.625 C 59.070312 -13.625 64.671875 -16.378906 68.515625 -21.890625 C 72.367188 -27.410156 74.296875 -35.34375 74.296875 -45.6875 C 74.296875 -56.144531 72.34375 -64.1875 68.4375 -69.8125 C 64.53125 -75.445312 58.957031 -78.265625 51.71875 -78.265625 C 44.476562 -78.265625 38.875 -75.445312 34.90625 -69.8125 C 30.945312 -64.1875 28.96875 -56.144531 28.96875 -45.6875 C 28.96875 -35.34375 30.945312 -27.410156 34.90625 -21.890625 C 38.875 -16.378906 44.476562 -13.625 51.71875 -13.625 Z M 51.71875 -13.625 "/></g></g></g><g fill="#0a0019" fill-opacity="1"><g transform="translate(297.546775, 603.388561)"><g><path d="M 16.890625 -127.90625 C 33.328125 -127.90625 44.878906 -127.847656 51.546875 -127.734375 C 96.484375 -126.703125 118.953125 -105.613281 118.953125 -64.46875 C 118.953125 -43.894531 113.175781 -28.003906 101.625 -16.796875 C 90.070312 -5.597656 72.976562 0 50.34375 0 L 17.0625 0 C 14.769531 0 13.625 -1.207031 13.625 -3.625 L 13.625 -124.8125 C 13.625 -125.957031 13.851562 -126.757812 14.3125 -127.21875 C 14.769531 -127.675781 15.628906 -127.90625 16.890625 -127.90625 Z M 40.6875 -109.640625 C 39.644531 -109.640625 39.125 -108.835938 39.125 -107.234375 L 39.125 -20.34375 C 39.125 -19.539062 39.296875 -18.992188 39.640625 -18.703125 C 39.992188 -18.410156 40.570312 -18.265625 41.375 -18.265625 L 45.6875 -18.265625 C 61.882812 -18.265625 73.691406 -21.828125 81.109375 -28.953125 C 88.523438 -36.085938 92.234375 -47.925781 92.234375 -64.46875 C 92.234375 -75.15625 90.738281 -83.6875 87.75 -90.0625 C 84.757812 -96.445312 80.304688 -101.132812 74.390625 -104.125 C 68.472656 -107.113281 60.742188 -108.835938 51.203125 -109.296875 Z M 40.6875 -109.640625 "/></g></g></g><g fill="#0a0019" fill-opacity="1"><g transform="translate(425.277374, 603.388561)"><g><path d="M 8.625 0 C 7.125 0 6.375 -0.800781 6.375 -2.40625 C 6.375 -2.757812 6.488281 -3.394531 6.71875 -4.3125 L 50.171875 -124.8125 C 50.628906 -125.957031 51.144531 -126.757812 51.71875 -127.21875 C 52.289062 -127.675781 53.148438 -127.90625 54.296875 -127.90625 L 75.859375 -127.90625 C 78.378906 -127.90625 79.984375 -126.757812 80.671875 -124.46875 L 123.78125 -4.140625 C 124.007812 -3.453125 124.125 -2.929688 124.125 -2.578125 C 124.125 -1.890625 123.921875 -1.285156 123.515625 -0.765625 C 123.117188 -0.253906 122.570312 0 121.875 0 L 101.015625 0 C 99.410156 0 98.378906 -0.742188 97.921875 -2.234375 L 87.921875 -30.171875 C 87.691406 -30.742188 87.460938 -31.171875 87.234375 -31.453125 C 87.003906 -31.742188 86.539062 -31.890625 85.84375 -31.890625 L 40.859375 -31.890625 C 39.828125 -31.890625 39.132812 -31.375 38.78125 -30.34375 L 28.4375 -2.0625 C 28.09375 -0.6875 27.0625 0 25.34375 0 Z M 79.640625 -51.375 C 80.679688 -51.375 81.203125 -51.832031 81.203125 -52.75 C 81.203125 -53.320312 81.144531 -53.78125 81.03125 -54.125 L 64.46875 -100.15625 C 64.125 -100.957031 63.722656 -101.359375 63.265625 -101.359375 C 62.804688 -101.359375 62.40625 -100.898438 62.0625 -99.984375 L 45.34375 -54.125 C 45.113281 -53.4375 45 -52.921875 45 -52.578125 C 45 -51.773438 45.570312 -51.375 46.71875 -51.375 Z M 79.640625 -51.375 "/></g></g></g><g fill="#0a0019" fill-opacity="1"><g transform="translate(555.593639, 603.388561)"><g><path d="M 85.671875 -99.984375 C 82.578125 -103.546875 78.957031 -106.332031 74.8125 -108.34375 C 70.675781 -110.351562 65.390625 -111.359375 58.953125 -111.359375 C 51.367188 -111.359375 45.535156 -109.894531 41.453125 -106.96875 C 37.378906 -104.039062 35.34375 -100.046875 35.34375 -94.984375 C 35.34375 -87.972656 40.457031 -82.859375 50.6875 -79.640625 L 77.234375 -71.71875 C 97.109375 -65.738281 107.046875 -53.957031 107.046875 -36.375 C 107.046875 -28.675781 105.035156 -21.953125 101.015625 -16.203125 C 96.992188 -10.453125 91.273438 -6.023438 83.859375 -2.921875 C 76.453125 0.171875 67.691406 1.71875 57.578125 1.71875 C 46.316406 1.71875 36.257812 -0.203125 27.40625 -4.046875 C 18.5625 -7.898438 11.835938 -13.332031 7.234375 -20.34375 C 6.773438 -21.488281 6.546875 -22.175781 6.546875 -22.40625 C 6.546875 -23.332031 7.125 -24.195312 8.28125 -25 L 19.140625 -32.578125 C 20.398438 -33.265625 21.375 -33.609375 22.0625 -33.609375 C 22.976562 -33.609375 23.726562 -33.207031 24.3125 -32.40625 C 28.789062 -26.550781 33.300781 -22.414062 37.84375 -20 C 42.382812 -17.582031 48.445312 -16.375 56.03125 -16.375 C 64.300781 -16.375 70.789062 -17.753906 75.5 -20.515625 C 80.21875 -23.273438 82.578125 -27.46875 82.578125 -33.09375 C 82.578125 -36.769531 81.394531 -39.875 79.03125 -42.40625 C 76.675781 -44.9375 72.515625 -47.175781 66.546875 -49.125 L 40.515625 -57.0625 C 30.972656 -59.9375 23.671875 -64.503906 18.609375 -70.765625 C 13.554688 -77.023438 11.03125 -84.066406 11.03125 -91.890625 C 11.03125 -99.242188 12.984375 -105.765625 16.890625 -111.453125 C 20.796875 -117.140625 26.335938 -121.59375 33.515625 -124.8125 C 40.703125 -128.03125 49.007812 -129.640625 58.4375 -129.640625 C 67.519531 -129.640625 75.878906 -128.054688 83.515625 -124.890625 C 91.160156 -121.734375 97.222656 -117.394531 101.703125 -111.875 C 102.398438 -110.957031 102.75 -110.210938 102.75 -109.640625 C 102.75 -109.066406 102.398438 -108.492188 101.703125 -107.921875 L 89.46875 -98.78125 C 89.007812 -98.4375 88.550781 -98.265625 88.09375 -98.265625 C 87.519531 -98.265625 86.710938 -98.835938 85.671875 -99.984375 Z M 85.671875 -99.984375 "/></g></g></g></svg>