<svg xmlns="http://www.w3.org/2000/svg" xmlns:xlink="http://www.w3.org/1999/xlink" width="1000" zoomAndPan="magnify" viewBox="0 0 750 749.999995" height="1000" preserveAspectRatio="xMidYMid meet" version="1.0"><defs><g/><clipPath id="11f9f947c5"><path d="M 215.472656 72 L 534.222656 72 L 534.222656 374 L 215.472656 374 Z M 215.472656 72 " clip-rule="nonzero"/></clipPath><clipPath id="0fcbf9de58"><path d="M 385.855469 245.878906 L 385.855469 110.457031 C 385.855469 105.207031 390.871094 101.40625 395.925781 102.824219 L 528.421875 140.003906 C 531.84375 140.964844 534.210938 144.082031 534.210938 147.636719 L 534.210938 283.058594 C 534.210938 288.3125 529.195312 292.113281 524.140625 290.691406 L 391.644531 253.515625 C 388.222656 252.554688 385.855469 249.433594 385.855469 245.878906 Z M 285.84375 157.921875 L 354.066406 177.066406 C 359.121094 178.484375 364.136719 174.683594 364.136719 169.429688 L 364.136719 99.816406 C 364.136719 96.261719 361.769531 93.144531 358.347656 92.183594 L 290.128906 73.039062 C 285.070312 71.621094 280.058594 75.421875 280.058594 80.675781 L 280.058594 150.289062 C 280.058594 153.84375 282.421875 156.960938 285.84375 157.921875 Z M 358.347656 193.148438 L 225.851562 155.972656 C 220.796875 154.550781 215.78125 158.351562 215.78125 163.605469 L 215.78125 299.027344 C 215.78125 302.582031 218.144531 305.699219 221.566406 306.660156 L 354.066406 343.839844 C 359.121094 345.257812 364.136719 341.457031 364.136719 336.203125 L 364.136719 200.78125 C 364.136719 197.230469 361.769531 194.109375 358.347656 193.148438 Z M 464.148438 288.742188 L 395.925781 269.597656 C 390.871094 268.179688 385.855469 271.980469 385.855469 277.234375 L 385.855469 346.847656 C 385.855469 350.398438 388.222656 353.519531 391.644531 354.480469 L 459.863281 373.621094 C 464.921875 375.042969 469.933594 371.242188 469.933594 365.988281 L 469.933594 296.375 C 469.933594 292.820312 467.570312 289.703125 464.148438 288.742188 Z M 464.148438 288.742188 " clip-rule="nonzero"/></clipPath><linearGradient x1="114.296472" gradientTransform="matrix(0, 0.636856, -0.636856, 0, 534.209779, 72.741229)" y1="-47.633896" x2="358.621857" gradientUnits="userSpaceOnUse" y2="547.634035" id="15f5e0df9e"><stop stop-opacity="1" stop-color="rgb(77.598572%, 30.999756%, 100%)" offset="0"/><stop stop-opacity="1" stop-color="rgb(77.598572%, 30.999756%, 100%)" offset="0.0625"/><stop stop-opacity="1" stop-color="rgb(77.540588%, 30.987549%, 100%)" offset="0.09375"/><stop stop-opacity="1" stop-color="rgb(77.328491%, 30.941772%, 100%)" offset="0.101563"/><stop stop-opacity="1" stop-color="rgb(77.018738%, 30.874634%, 100%)" offset="0.109375"/><stop stop-opacity="1" stop-color="rgb(76.708984%, 30.809021%, 100%)" offset="0.117188"/><stop stop-opacity="1" stop-color="rgb(76.399231%, 30.741882%, 100%)" offset="0.125"/><stop stop-opacity="1" stop-color="rgb(76.089478%, 30.674744%, 100%)" offset="0.132813"/><stop stop-opacity="1" stop-color="rgb(75.779724%, 30.609131%, 100%)" offset="0.140625"/><stop stop-opacity="1" stop-color="rgb(75.469971%, 30.541992%, 100%)" offset="0.148438"/><stop stop-opacity="1" stop-color="rgb(75.160217%, 30.476379%, 100%)" offset="0.15625"/><stop stop-opacity="1" stop-color="rgb(74.850464%, 30.409241%, 100%)" offset="0.164062"/><stop stop-opacity="1" stop-color="rgb(74.539185%, 30.343628%, 100%)" offset="0.171875"/><stop stop-opacity="1" stop-color="rgb(74.229431%, 30.276489%, 100%)" offset="0.179688"/><stop stop-opacity="1" stop-color="rgb(73.919678%, 30.210876%, 100%)" offset="0.1875"/><stop stop-opacity="1" stop-color="rgb(73.609924%, 30.143738%, 100%)" offset="0.195313"/><stop stop-opacity="1" stop-color="rgb(73.300171%, 30.078125%, 100%)" offset="0.203125"/><stop stop-opacity="1" stop-color="rgb(72.990417%, 30.010986%, 100%)" offset="0.210938"/><stop stop-opacity="1" stop-color="rgb(72.680664%, 29.945374%, 100%)" offset="0.21875"/><stop stop-opacity="1" stop-color="rgb(72.370911%, 29.878235%, 100%)" offset="0.226563"/><stop stop-opacity="1" stop-color="rgb(72.061157%, 29.812622%, 100%)" offset="0.234375"/><stop stop-opacity="1" stop-color="rgb(71.751404%, 29.745483%, 100%)" offset="0.242188"/><stop stop-opacity="1" stop-color="rgb(71.44165%, 29.679871%, 100%)" offset="0.25"/><stop stop-opacity="1" stop-color="rgb(71.130371%, 29.612732%, 100%)" offset="0.257812"/><stop stop-opacity="1" stop-color="rgb(70.820618%, 29.547119%, 100%)" offset="0.265625"/><stop stop-opacity="1" stop-color="rgb(70.510864%, 29.47998%, 100%)" offset="0.273438"/><stop stop-opacity="1" stop-color="rgb(70.201111%, 29.414368%, 100%)" offset="0.281145"/><stop stop-opacity="1" stop-color="rgb(70.046997%, 29.380798%, 100%)" offset="0.28125"/><stop stop-opacity="1" stop-color="rgb(69.891357%, 29.347229%, 100%)" offset="0.289063"/><stop stop-opacity="1" stop-color="rgb(69.581604%, 29.281616%, 100%)" offset="0.296875"/><stop stop-opacity="1" stop-color="rgb(69.271851%, 29.214478%, 100%)" offset="0.304688"/><stop stop-opacity="1" stop-color="rgb(68.962097%, 29.148865%, 100%)" offset="0.3125"/><stop stop-opacity="1" stop-color="rgb(68.652344%, 29.081726%, 100%)" offset="0.320313"/><stop stop-opacity="1" stop-color="rgb(68.34259%, 29.014587%, 100%)" offset="0.328125"/><stop stop-opacity="1" stop-color="rgb(68.032837%, 28.948975%, 100%)" offset="0.335938"/><stop stop-opacity="1" stop-color="rgb(67.721558%, 28.881836%, 100%)" offset="0.34375"/><stop stop-opacity="1" stop-color="rgb(67.411804%, 28.816223%, 100%)" offset="0.351563"/><stop stop-opacity="1" stop-color="rgb(67.102051%, 28.749084%, 100%)" offset="0.359375"/><stop stop-opacity="1" stop-color="rgb(66.792297%, 28.683472%, 100%)" offset="0.367188"/><stop stop-opacity="1" stop-color="rgb(66.482544%, 28.616333%, 100%)" offset="0.375"/><stop stop-opacity="1" stop-color="rgb(66.172791%, 28.55072%, 100%)" offset="0.382812"/><stop stop-opacity="1" stop-color="rgb(65.863037%, 28.483582%, 100%)" offset="0.390625"/><stop stop-opacity="1" stop-color="rgb(65.553284%, 28.417969%, 100%)" offset="0.398438"/><stop stop-opacity="1" stop-color="rgb(65.24353%, 28.35083%, 100%)" offset="0.40625"/><stop stop-opacity="1" stop-color="rgb(64.933777%, 28.285217%, 100%)" offset="0.414063"/><stop stop-opacity="1" stop-color="rgb(64.624023%, 28.218079%, 100%)" offset="0.421875"/><stop stop-opacity="1" stop-color="rgb(64.312744%, 28.152466%, 100%)" offset="0.429688"/><stop stop-opacity="1" stop-color="rgb(64.002991%, 28.085327%, 100%)" offset="0.4375"/><stop stop-opacity="1" stop-color="rgb(63.693237%, 28.019714%, 100%)" offset="0.445313"/><stop stop-opacity="1" stop-color="rgb(63.383484%, 27.952576%, 100%)" offset="0.453125"/><stop stop-opacity="1" stop-color="rgb(63.07373%, 27.886963%, 100%)" offset="0.460938"/><stop stop-opacity="1" stop-color="rgb(62.763977%, 27.819824%, 100%)" offset="0.46875"/><stop stop-opacity="1" stop-color="rgb(62.454224%, 27.754211%, 100%)" offset="0.476563"/><stop stop-opacity="1" stop-color="rgb(62.14447%, 27.687073%, 100%)" offset="0.484375"/><stop stop-opacity="1" stop-color="rgb(61.834717%, 27.62146%, 100%)" offset="0.492188"/><stop stop-opacity="1" stop-color="rgb(61.524963%, 27.554321%, 100%)" offset="0.5"/><stop stop-opacity="1" stop-color="rgb(61.21521%, 27.488708%, 100%)" offset="0.507813"/><stop stop-opacity="1" stop-color="rgb(60.905457%, 27.42157%, 100%)" offset="0.515625"/><stop stop-opacity="1" stop-color="rgb(60.594177%, 27.355957%, 100%)" offset="0.523438"/><stop stop-opacity="1" stop-color="rgb(60.284424%, 27.288818%, 100%)" offset="0.53125"/><stop stop-opacity="1" stop-color="rgb(59.97467%, 27.22168%, 100%)" offset="0.539062"/><stop stop-opacity="1" stop-color="rgb(59.664917%, 27.156067%, 100%)" offset="0.546875"/><stop stop-opacity="1" stop-color="rgb(59.355164%, 27.088928%, 100%)" offset="0.554688"/><stop stop-opacity="1" stop-color="rgb(59.04541%, 27.023315%, 100%)" offset="0.5625"/><stop stop-opacity="1" stop-color="rgb(58.735657%, 26.956177%, 100%)" offset="0.570313"/><stop stop-opacity="1" stop-color="rgb(58.425903%, 26.890564%, 100%)" offset="0.578125"/><stop stop-opacity="1" stop-color="rgb(58.11615%, 26.823425%, 100%)" offset="0.585938"/><stop stop-opacity="1" stop-color="rgb(57.806396%, 26.757812%, 100%)" offset="0.59375"/><stop stop-opacity="1" stop-color="rgb(57.496643%, 26.690674%, 100%)" offset="0.601562"/><stop stop-opacity="1" stop-color="rgb(57.185364%, 26.625061%, 100%)" offset="0.609375"/><stop stop-opacity="1" stop-color="rgb(56.87561%, 26.557922%, 100%)" offset="0.617188"/><stop stop-opacity="1" stop-color="rgb(56.565857%, 26.49231%, 100%)" offset="0.625"/><stop stop-opacity="1" stop-color="rgb(56.256104%, 26.425171%, 100%)" offset="0.632813"/><stop stop-opacity="1" stop-color="rgb(55.94635%, 26.359558%, 100%)" offset="0.640625"/><stop stop-opacity="1" stop-color="rgb(55.636597%, 26.292419%, 100%)" offset="0.648438"/><stop stop-opacity="1" stop-color="rgb(55.326843%, 26.226807%, 100%)" offset="0.65625"/><stop stop-opacity="1" stop-color="rgb(55.01709%, 26.159668%, 100%)" offset="0.664062"/><stop stop-opacity="1" stop-color="rgb(54.707336%, 26.094055%, 100%)" offset="0.671875"/><stop stop-opacity="1" stop-color="rgb(54.397583%, 26.026917%, 100%)" offset="0.679688"/><stop stop-opacity="1" stop-color="rgb(54.08783%, 25.961304%, 100%)" offset="0.6875"/><stop stop-opacity="1" stop-color="rgb(53.77655%, 25.894165%, 100%)" offset="0.695312"/><stop stop-opacity="1" stop-color="rgb(53.466797%, 25.828552%, 100%)" offset="0.703125"/><stop stop-opacity="1" stop-color="rgb(53.157043%, 25.761414%, 100%)" offset="0.710938"/><stop stop-opacity="1" stop-color="rgb(52.84729%, 25.695801%, 100%)" offset="0.71875"/><stop stop-opacity="1" stop-color="rgb(52.537537%, 25.628662%, 100%)" offset="0.718855"/><stop stop-opacity="1" stop-color="rgb(52.383423%, 25.595093%, 100%)" offset="0.726563"/><stop stop-opacity="1" stop-color="rgb(52.227783%, 25.561523%, 100%)" offset="0.734375"/><stop stop-opacity="1" stop-color="rgb(51.91803%, 25.495911%, 100%)" offset="0.742188"/><stop stop-opacity="1" stop-color="rgb(51.608276%, 25.428772%, 100%)" offset="0.75"/><stop stop-opacity="1" stop-color="rgb(51.298523%, 25.363159%, 100%)" offset="0.757812"/><stop stop-opacity="1" stop-color="rgb(50.98877%, 25.296021%, 100%)" offset="0.765625"/><stop stop-opacity="1" stop-color="rgb(50.679016%, 25.230408%, 100%)" offset="0.773438"/><stop stop-opacity="1" stop-color="rgb(50.367737%, 25.163269%, 100%)" offset="0.78125"/><stop stop-opacity="1" stop-color="rgb(50.057983%, 25.097656%, 100%)" offset="0.789062"/><stop stop-opacity="1" stop-color="rgb(49.74823%, 25.030518%, 100%)" offset="0.796875"/><stop stop-opacity="1" stop-color="rgb(49.438477%, 24.964905%, 100%)" offset="0.804688"/><stop stop-opacity="1" stop-color="rgb(49.128723%, 24.897766%, 100%)" offset="0.8125"/><stop stop-opacity="1" stop-color="rgb(48.81897%, 24.832153%, 100%)" offset="0.820313"/><stop stop-opacity="1" stop-color="rgb(48.509216%, 24.765015%, 100%)" offset="0.828125"/><stop stop-opacity="1" stop-color="rgb(48.277283%, 24.716187%, 100%)" offset="0.84375"/><stop stop-opacity="1" stop-color="rgb(48.199463%, 24.699402%, 100%)" offset="0.875"/><stop stop-opacity="1" stop-color="rgb(48.199463%, 24.699402%, 100%)" offset="1"/></linearGradient></defs><g clip-path="url(#11f9f947c5)"><g clip-path="url(#0fcbf9de58)"><path fill="url(#15f5e0df9e)" d="M 534.210938 71.621094 L 215.78125 71.621094 L 215.78125 375.042969 L 534.210938 375.042969 Z M 534.210938 71.621094 " fill-rule="nonzero"/></g></g><g fill="#ffffff" fill-opacity="1"><g transform="translate(79.663529, 565.090697)"><g><path d="M 85.671875 -99.984375 C 82.578125 -103.546875 78.957031 -106.332031 74.8125 -108.34375 C 70.675781 -110.351562 65.390625 -111.359375 58.953125 -111.359375 C 51.367188 -111.359375 45.535156 -109.894531 41.453125 -106.96875 C 37.378906 -104.039062 35.34375 -100.046875 35.34375 -94.984375 C 35.34375 -87.972656 40.457031 -82.859375 50.6875 -79.640625 L 77.234375 -71.71875 C 97.109375 -65.738281 107.046875 -53.957031 107.046875 -36.375 C 107.046875 -28.675781 105.035156 -21.953125 101.015625 -16.203125 C 96.992188 -10.453125 91.273438 -6.023438 83.859375 -2.921875 C 76.453125 0.171875 67.691406 1.71875 57.578125 1.71875 C 46.316406 1.71875 36.257812 -0.203125 27.40625 -4.046875 C 18.5625 -7.898438 11.835938 -13.332031 7.234375 -20.34375 C 6.773438 -21.488281 6.546875 -22.175781 6.546875 -22.40625 C 6.546875 -23.332031 7.125 -24.195312 8.28125 -25 L 19.140625 -32.578125 C 20.398438 -33.265625 21.375 -33.609375 22.0625 -33.609375 C 22.976562 -33.609375 23.726562 -33.207031 24.3125 -32.40625 C 28.789062 -26.550781 33.300781 -22.414062 37.84375 -20 C 42.382812 -17.582031 48.445312 -16.375 56.03125 -16.375 C 64.300781 -16.375 70.789062 -17.753906 75.5 -20.515625 C 80.21875 -23.273438 82.578125 -27.46875 82.578125 -33.09375 C 82.578125 -36.769531 81.394531 -39.875 79.03125 -42.40625 C 76.675781 -44.9375 72.515625 -47.175781 66.546875 -49.125 L 40.515625 -57.0625 C 30.972656 -59.9375 23.671875 -64.503906 18.609375 -70.765625 C 13.554688 -77.023438 11.03125 -84.066406 11.03125 -91.890625 C 11.03125 -99.242188 12.984375 -105.765625 16.890625 -111.453125 C 20.796875 -117.140625 26.335938 -121.59375 33.515625 -124.8125 C 40.703125 -128.03125 49.007812 -129.640625 58.4375 -129.640625 C 67.519531 -129.640625 75.878906 -128.054688 83.515625 -124.890625 C 91.160156 -121.734375 97.222656 -117.394531 101.703125 -111.875 C 102.398438 -110.957031 102.75 -110.210938 102.75 -109.640625 C 102.75 -109.066406 102.398438 -108.492188 101.703125 -107.921875 L 89.46875 -98.78125 C 89.007812 -98.4375 88.550781 -98.265625 88.09375 -98.265625 C 87.519531 -98.265625 86.710938 -98.835938 85.671875 -99.984375 Z M 85.671875 -99.984375 "/></g></g></g><g fill="#ffffff" fill-opacity="1"><g transform="translate(194.293556, 565.090697)"><g><path d="M 51.546875 1.71875 C 42.691406 1.71875 34.816406 -0.257812 27.921875 -4.21875 C 21.023438 -8.1875 15.679688 -13.734375 11.890625 -20.859375 C 8.097656 -27.984375 6.203125 -36.085938 6.203125 -45.171875 C 6.203125 -54.472656 8.15625 -62.773438 12.0625 -70.078125 C 15.96875 -77.378906 21.367188 -83.039062 28.265625 -87.0625 C 35.160156 -91.082031 42.976562 -93.09375 51.71875 -93.09375 C 60.5625 -93.09375 68.429688 -91.050781 75.328125 -86.96875 C 82.222656 -82.882812 87.566406 -77.222656 91.359375 -69.984375 C 95.160156 -62.742188 97.0625 -54.53125 97.0625 -45.34375 C 97.0625 -36.257812 95.132812 -28.15625 91.28125 -21.03125 C 87.425781 -13.90625 82.050781 -8.332031 75.15625 -4.3125 C 68.257812 -0.289062 60.390625 1.71875 51.546875 1.71875 Z M 51.71875 -13.625 C 59.070312 -13.625 64.671875 -16.378906 68.515625 -21.890625 C 72.367188 -27.410156 74.296875 -35.34375 74.296875 -45.6875 C 74.296875 -56.144531 72.34375 -64.1875 68.4375 -69.8125 C 64.53125 -75.445312 58.957031 -78.265625 51.71875 -78.265625 C 44.476562 -78.265625 38.875 -75.445312 34.90625 -69.8125 C 30.945312 -64.1875 28.96875 -56.144531 28.96875 -45.6875 C 28.96875 -35.34375 30.945312 -27.410156 34.90625 -21.890625 C 38.875 -16.378906 44.476562 -13.625 51.71875 -13.625 Z M 51.71875 -13.625 "/></g></g></g><g fill="#ffffff" fill-opacity="1"><g transform="translate(297.546775, 565.090697)"><g><path d="M 16.890625 -127.90625 C 33.328125 -127.90625 44.878906 -127.847656 51.546875 -127.734375 C 96.484375 -126.703125 118.953125 -105.613281 118.953125 -64.46875 C 118.953125 -43.894531 113.175781 -28.003906 101.625 -16.796875 C 90.070312 -5.597656 72.976562 0 50.34375 0 L 17.0625 0 C 14.769531 0 13.625 -1.207031 13.625 -3.625 L 13.625 -124.8125 C 13.625 -125.957031 13.851562 -126.757812 14.3125 -127.21875 C 14.769531 -127.675781 15.628906 -127.90625 16.890625 -127.90625 Z M 40.6875 -109.640625 C 39.644531 -109.640625 39.125 -108.835938 39.125 -107.234375 L 39.125 -20.34375 C 39.125 -19.539062 39.296875 -18.992188 39.640625 -18.703125 C 39.992188 -18.410156 40.570312 -18.265625 41.375 -18.265625 L 45.6875 -18.265625 C 61.882812 -18.265625 73.691406 -21.828125 81.109375 -28.953125 C 88.523438 -36.085938 92.234375 -47.925781 92.234375 -64.46875 C 92.234375 -75.15625 90.738281 -83.6875 87.75 -90.0625 C 84.757812 -96.445312 80.304688 -101.132812 74.390625 -104.125 C 68.472656 -107.113281 60.742188 -108.835938 51.203125 -109.296875 Z M 40.6875 -109.640625 "/></g></g></g><g fill="#ffffff" fill-opacity="1"><g transform="translate(425.277374, 565.090697)"><g><path d="M 8.625 0 C 7.125 0 6.375 -0.800781 6.375 -2.40625 C 6.375 -2.757812 6.488281 -3.394531 6.71875 -4.3125 L 50.171875 -124.8125 C 50.628906 -125.957031 51.144531 -126.757812 51.71875 -127.21875 C 52.289062 -127.675781 53.148438 -127.90625 54.296875 -127.90625 L 75.859375 -127.90625 C 78.378906 -127.90625 79.984375 -126.757812 80.671875 -124.46875 L 123.78125 -4.140625 C 124.007812 -3.453125 124.125 -2.929688 124.125 -2.578125 C 124.125 -1.890625 123.921875 -1.285156 123.515625 -0.765625 C 123.117188 -0.253906 122.570312 0 121.875 0 L 101.015625 0 C 99.410156 0 98.378906 -0.742188 97.921875 -2.234375 L 87.921875 -30.171875 C 87.691406 -30.742188 87.460938 -31.171875 87.234375 -31.453125 C 87.003906 -31.742188 86.539062 -31.890625 85.84375 -31.890625 L 40.859375 -31.890625 C 39.828125 -31.890625 39.132812 -31.375 38.78125 -30.34375 L 28.4375 -2.0625 C 28.09375 -0.6875 27.0625 0 25.34375 0 Z M 79.640625 -51.375 C 80.679688 -51.375 81.203125 -51.832031 81.203125 -52.75 C 81.203125 -53.320312 81.144531 -53.78125 81.03125 -54.125 L 64.46875 -100.15625 C 64.125 -100.957031 63.722656 -101.359375 63.265625 -101.359375 C 62.804688 -101.359375 62.40625 -100.898438 62.0625 -99.984375 L 45.34375 -54.125 C 45.113281 -53.4375 45 -52.921875 45 -52.578125 C 45 -51.773438 45.570312 -51.375 46.71875 -51.375 Z M 79.640625 -51.375 "/></g></g></g><g fill="#ffffff" fill-opacity="1"><g transform="translate(555.593639, 565.090697)"><g><path d="M 85.671875 -99.984375 C 82.578125 -103.546875 78.957031 -106.332031 74.8125 -108.34375 C 70.675781 -110.351562 65.390625 -111.359375 58.953125 -111.359375 C 51.367188 -111.359375 45.535156 -109.894531 41.453125 -106.96875 C 37.378906 -104.039062 35.34375 -100.046875 35.34375 -94.984375 C 35.34375 -87.972656 40.457031 -82.859375 50.6875 -79.640625 L 77.234375 -71.71875 C 97.109375 -65.738281 107.046875 -53.957031 107.046875 -36.375 C 107.046875 -28.675781 105.035156 -21.953125 101.015625 -16.203125 C 96.992188 -10.453125 91.273438 -6.023438 83.859375 -2.921875 C 76.453125 0.171875 67.691406 1.71875 57.578125 1.71875 C 46.316406 1.71875 36.257812 -0.203125 27.40625 -4.046875 C 18.5625 -7.898438 11.835938 -13.332031 7.234375 -20.34375 C 6.773438 -21.488281 6.546875 -22.175781 6.546875 -22.40625 C 6.546875 -23.332031 7.125 -24.195312 8.28125 -25 L 19.140625 -32.578125 C 20.398438 -33.265625 21.375 -33.609375 22.0625 -33.609375 C 22.976562 -33.609375 23.726562 -33.207031 24.3125 -32.40625 C 28.789062 -26.550781 33.300781 -22.414062 37.84375 -20 C 42.382812 -17.582031 48.445312 -16.375 56.03125 -16.375 C 64.300781 -16.375 70.789062 -17.753906 75.5 -20.515625 C 80.21875 -23.273438 82.578125 -27.46875 82.578125 -33.09375 C 82.578125 -36.769531 81.394531 -39.875 79.03125 -42.40625 C 76.675781 -44.9375 72.515625 -47.175781 66.546875 -49.125 L 40.515625 -57.0625 C 30.972656 -59.9375 23.671875 -64.503906 18.609375 -70.765625 C 13.554688 -77.023438 11.03125 -84.066406 11.03125 -91.890625 C 11.03125 -99.242188 12.984375 -105.765625 16.890625 -111.453125 C 20.796875 -117.140625 26.335938 -121.59375 33.515625 -124.8125 C 40.703125 -128.03125 49.007812 -129.640625 58.4375 -129.640625 C 67.519531 -129.640625 75.878906 -128.054688 83.515625 -124.890625 C 91.160156 -121.734375 97.222656 -117.394531 101.703125 -111.875 C 102.398438 -110.957031 102.75 -110.210938 102.75 -109.640625 C 102.75 -109.066406 102.398438 -108.492188 101.703125 -107.921875 L 89.46875 -98.78125 C 89.007812 -98.4375 88.550781 -98.265625 88.09375 -98.265625 C 87.519531 -98.265625 86.710938 -98.835938 85.671875 -99.984375 Z M 85.671875 -99.984375 "/></g></g></g><g fill="#ffffff" fill-opacity="1"><g transform="translate(44.306683, 659.914385)"><g><path d="M 17.109375 0.4375 C 14.367188 0.4375 11.742188 0.0234375 9.234375 -0.796875 C 6.734375 -1.617188 4.734375 -2.722656 3.234375 -4.109375 C 2.679688 -4.617188 2.40625 -5.257812 2.40625 -6.03125 C 2.40625 -6.539062 2.550781 -6.988281 2.84375 -7.375 C 3.144531 -7.757812 3.492188 -7.953125 3.890625 -7.953125 C 4.367188 -7.953125 4.878906 -7.75 5.421875 -7.34375 C 8.828125 -4.71875 12.707031 -3.40625 17.0625 -3.40625 C 20.195312 -3.40625 22.601562 -4.003906 24.28125 -5.203125 C 25.96875 -6.410156 26.8125 -8.128906 26.8125 -10.359375 C 26.8125 -11.640625 26.410156 -12.671875 25.609375 -13.453125 C 24.804688 -14.242188 23.742188 -14.875 22.421875 -15.34375 C 21.109375 -15.820312 19.335938 -16.320312 17.109375 -16.84375 C 14.109375 -17.53125 11.648438 -18.257812 9.734375 -19.03125 C 7.816406 -19.800781 6.265625 -20.894531 5.078125 -22.3125 C 3.890625 -23.738281 3.296875 -25.609375 3.296875 -27.921875 C 3.296875 -30.109375 3.890625 -32.050781 5.078125 -33.75 C 6.265625 -35.457031 7.925781 -36.773438 10.0625 -37.703125 C 12.195312 -38.640625 14.640625 -39.109375 17.390625 -39.109375 C 19.941406 -39.109375 22.320312 -38.710938 24.53125 -37.921875 C 26.75 -37.140625 28.609375 -36.015625 30.109375 -34.546875 C 30.691406 -33.960938 30.984375 -33.320312 30.984375 -32.625 C 30.984375 -32.113281 30.835938 -31.664062 30.546875 -31.28125 C 30.253906 -30.90625 29.90625 -30.71875 29.5 -30.71875 C 29.101562 -30.71875 28.578125 -30.914062 27.921875 -31.3125 C 26.128906 -32.78125 24.460938 -33.804688 22.921875 -34.390625 C 21.390625 -34.972656 19.546875 -35.265625 17.390625 -35.265625 C 14.347656 -35.265625 11.984375 -34.632812 10.296875 -33.375 C 8.617188 -32.113281 7.78125 -30.347656 7.78125 -28.078125 C 7.78125 -26.140625 8.519531 -24.6875 10 -23.71875 C 11.488281 -22.75 13.769531 -21.898438 16.84375 -21.171875 C 20.164062 -20.367188 22.773438 -19.628906 24.671875 -18.953125 C 26.578125 -18.273438 28.160156 -17.257812 29.421875 -15.90625 C 30.679688 -14.550781 31.3125 -12.738281 31.3125 -10.46875 C 31.3125 -8.3125 30.71875 -6.410156 29.53125 -4.765625 C 28.34375 -3.117188 26.671875 -1.835938 24.515625 -0.921875 C 22.359375 -0.015625 19.890625 0.4375 17.109375 0.4375 Z M 17.109375 0.4375 "/></g></g></g><g fill="#ffffff" fill-opacity="1"><g transform="translate(78.13438, 659.914385)"><g><path d="M 15.1875 0.390625 C 12.664062 0.390625 10.445312 -0.175781 8.53125 -1.3125 C 6.613281 -2.445312 5.128906 -4.066406 4.078125 -6.171875 C 3.035156 -8.273438 2.515625 -10.710938 2.515625 -13.484375 C 2.515625 -16.265625 3.035156 -18.707031 4.078125 -20.8125 C 5.128906 -22.914062 6.613281 -24.53125 8.53125 -25.65625 C 10.445312 -26.789062 12.664062 -27.359375 15.1875 -27.359375 C 17.707031 -27.359375 19.9375 -26.789062 21.875 -25.65625 C 23.820312 -24.53125 25.316406 -22.914062 26.359375 -20.8125 C 27.398438 -18.707031 27.921875 -16.265625 27.921875 -13.484375 C 27.921875 -10.710938 27.398438 -8.273438 26.359375 -6.171875 C 25.316406 -4.066406 23.820312 -2.445312 21.875 -1.3125 C 19.9375 -0.175781 17.707031 0.390625 15.1875 0.390625 Z M 15.1875 -3.296875 C 17.820312 -3.296875 19.84375 -4.160156 21.25 -5.890625 C 22.65625 -7.628906 23.359375 -10.160156 23.359375 -13.484375 C 23.359375 -16.742188 22.644531 -19.257812 21.21875 -21.03125 C 19.789062 -22.800781 17.78125 -23.6875 15.1875 -23.6875 C 12.59375 -23.6875 10.582031 -22.800781 9.15625 -21.03125 C 7.726562 -19.257812 7.015625 -16.742188 7.015625 -13.484375 C 7.015625 -10.203125 7.71875 -7.679688 9.125 -5.921875 C 10.539062 -4.171875 12.5625 -3.296875 15.1875 -3.296875 Z M 15.1875 -3.296875 "/></g></g></g><g fill="#ffffff" fill-opacity="1"><g transform="translate(108.562845, 659.914385)"><g><path d="M 6.359375 0.28125 C 5.703125 0.28125 5.160156 0.0859375 4.734375 -0.296875 C 4.316406 -0.679688 4.109375 -1.222656 4.109375 -1.921875 L 4.109375 -36.75 C 4.109375 -37.4375 4.316406 -37.972656 4.734375 -38.359375 C 5.160156 -38.742188 5.703125 -38.9375 6.359375 -38.9375 C 6.984375 -38.9375 7.503906 -38.742188 7.921875 -38.359375 C 8.347656 -37.972656 8.5625 -37.4375 8.5625 -36.75 L 8.5625 -1.921875 C 8.5625 -1.222656 8.347656 -0.679688 7.921875 -0.296875 C 7.503906 0.0859375 6.984375 0.28125 6.359375 0.28125 Z M 6.359375 0.28125 "/></g></g></g><g fill="#ffffff" fill-opacity="1"><g transform="translate(121.282485, 659.914385)"><g><path d="M 15.03125 -27.359375 C 21.71875 -27.359375 25.0625 -23.851562 25.0625 -16.84375 L 25.0625 -1.921875 C 25.0625 -1.265625 24.867188 -0.734375 24.484375 -0.328125 C 24.097656 0.078125 23.578125 0.28125 22.921875 0.28125 C 22.265625 0.28125 21.734375 0.078125 21.328125 -0.328125 C 20.929688 -0.734375 20.734375 -1.265625 20.734375 -1.921875 L 20.734375 -4.546875 C 20.035156 -2.972656 18.972656 -1.753906 17.546875 -0.890625 C 16.117188 -0.0351562 14.472656 0.390625 12.609375 0.390625 C 10.890625 0.390625 9.304688 0.0390625 7.859375 -0.65625 C 6.421875 -1.351562 5.28125 -2.320312 4.4375 -3.5625 C 3.601562 -4.800781 3.1875 -6.171875 3.1875 -7.671875 C 3.1875 -9.679688 3.695312 -11.242188 4.71875 -12.359375 C 5.738281 -13.484375 7.414062 -14.289062 9.75 -14.78125 C 12.09375 -15.269531 15.351562 -15.515625 19.53125 -15.515625 L 20.734375 -15.515625 L 20.734375 -17.328125 C 20.734375 -19.523438 20.285156 -21.132812 19.390625 -22.15625 C 18.492188 -23.175781 17.039062 -23.6875 15.03125 -23.6875 C 12.539062 -23.6875 10.015625 -23.007812 7.453125 -21.65625 C 6.472656 -21.039062 5.78125 -20.734375 5.375 -20.734375 C 4.9375 -20.734375 4.570312 -20.894531 4.28125 -21.21875 C 3.988281 -21.550781 3.84375 -21.972656 3.84375 -22.484375 C 3.84375 -22.992188 3.992188 -23.441406 4.296875 -23.828125 C 4.609375 -24.210938 5.113281 -24.609375 5.8125 -25.015625 C 7.09375 -25.742188 8.546875 -26.316406 10.171875 -26.734375 C 11.796875 -27.148438 13.414062 -27.359375 15.03125 -27.359375 Z M 13.21875 -3.125 C 15.414062 -3.125 17.21875 -3.863281 18.625 -5.34375 C 20.03125 -6.820312 20.734375 -8.734375 20.734375 -11.078125 L 20.734375 -12.671875 L 19.75 -12.671875 C 16.53125 -12.671875 14.078125 -12.53125 12.390625 -12.25 C 10.710938 -11.976562 9.515625 -11.519531 8.796875 -10.875 C 8.085938 -10.238281 7.734375 -9.300781 7.734375 -8.0625 C 7.734375 -6.632812 8.253906 -5.453125 9.296875 -4.515625 C 10.335938 -3.585938 11.644531 -3.125 13.21875 -3.125 Z M 13.21875 -3.125 "/></g></g></g><g fill="#ffffff" fill-opacity="1"><g transform="translate(150.340317, 659.914385)"><g><path d="M 17.546875 -27.359375 C 23.941406 -27.359375 27.140625 -23.832031 27.140625 -16.78125 L 27.140625 -1.921875 C 27.140625 -1.222656 26.945312 -0.679688 26.5625 -0.296875 C 26.1875 0.0859375 25.648438 0.28125 24.953125 0.28125 C 24.253906 0.28125 23.703125 0.0859375 23.296875 -0.296875 C 22.898438 -0.679688 22.703125 -1.222656 22.703125 -1.921875 L 22.703125 -16.515625 C 22.703125 -18.992188 22.21875 -20.800781 21.25 -21.9375 C 20.28125 -23.070312 18.738281 -23.640625 16.625 -23.640625 C 14.164062 -23.640625 12.207031 -22.890625 10.75 -21.390625 C 9.289062 -19.890625 8.5625 -17.859375 8.5625 -15.296875 L 8.5625 -1.921875 C 8.5625 -1.222656 8.367188 -0.679688 7.984375 -0.296875 C 7.597656 0.0859375 7.054688 0.28125 6.359375 0.28125 C 5.660156 0.28125 5.109375 0.0859375 4.703125 -0.296875 C 4.304688 -0.679688 4.109375 -1.222656 4.109375 -1.921875 L 4.109375 -25.0625 C 4.109375 -25.71875 4.304688 -26.242188 4.703125 -26.640625 C 5.109375 -27.046875 5.660156 -27.25 6.359375 -27.25 C 7.015625 -27.25 7.535156 -27.046875 7.921875 -26.640625 C 8.304688 -26.242188 8.5 -25.738281 8.5 -25.125 L 8.5 -22.328125 C 9.375 -23.972656 10.597656 -25.222656 12.171875 -26.078125 C 13.742188 -26.929688 15.535156 -27.359375 17.546875 -27.359375 Z M 17.546875 -27.359375 "/></g></g></g><g fill="#ffffff" fill-opacity="1"><g transform="translate(181.481542, 659.914385)"><g><path d="M 15.03125 -27.359375 C 21.71875 -27.359375 25.0625 -23.851562 25.0625 -16.84375 L 25.0625 -1.921875 C 25.0625 -1.265625 24.867188 -0.734375 24.484375 -0.328125 C 24.097656 0.078125 23.578125 0.28125 22.921875 0.28125 C 22.265625 0.28125 21.734375 0.078125 21.328125 -0.328125 C 20.929688 -0.734375 20.734375 -1.265625 20.734375 -1.921875 L 20.734375 -4.546875 C 20.035156 -2.972656 18.972656 -1.753906 17.546875 -0.890625 C 16.117188 -0.0351562 14.472656 0.390625 12.609375 0.390625 C 10.890625 0.390625 9.304688 0.0390625 7.859375 -0.65625 C 6.421875 -1.351562 5.28125 -2.320312 4.4375 -3.5625 C 3.601562 -4.800781 3.1875 -6.171875 3.1875 -7.671875 C 3.1875 -9.679688 3.695312 -11.242188 4.71875 -12.359375 C 5.738281 -13.484375 7.414062 -14.289062 9.75 -14.78125 C 12.09375 -15.269531 15.351562 -15.515625 19.53125 -15.515625 L 20.734375 -15.515625 L 20.734375 -17.328125 C 20.734375 -19.523438 20.285156 -21.132812 19.390625 -22.15625 C 18.492188 -23.175781 17.039062 -23.6875 15.03125 -23.6875 C 12.539062 -23.6875 10.015625 -23.007812 7.453125 -21.65625 C 6.472656 -21.039062 5.78125 -20.734375 5.375 -20.734375 C 4.9375 -20.734375 4.570312 -20.894531 4.28125 -21.21875 C 3.988281 -21.550781 3.84375 -21.972656 3.84375 -22.484375 C 3.84375 -22.992188 3.992188 -23.441406 4.296875 -23.828125 C 4.609375 -24.210938 5.113281 -24.609375 5.8125 -25.015625 C 7.09375 -25.742188 8.546875 -26.316406 10.171875 -26.734375 C 11.796875 -27.148438 13.414062 -27.359375 15.03125 -27.359375 Z M 13.21875 -3.125 C 15.414062 -3.125 17.21875 -3.863281 18.625 -5.34375 C 20.03125 -6.820312 20.734375 -8.734375 20.734375 -11.078125 L 20.734375 -12.671875 L 19.75 -12.671875 C 16.53125 -12.671875 14.078125 -12.53125 12.390625 -12.25 C 10.710938 -11.976562 9.515625 -11.519531 8.796875 -10.875 C 8.085938 -10.238281 7.734375 -9.300781 7.734375 -8.0625 C 7.734375 -6.632812 8.253906 -5.453125 9.296875 -4.515625 C 10.335938 -3.585938 11.644531 -3.125 13.21875 -3.125 Z M 13.21875 -3.125 "/></g></g></g><g fill="#ffffff" fill-opacity="1"><g transform="translate(210.539374, 659.914385)"><g/></g></g><g fill="#ffffff" fill-opacity="1"><g transform="translate(224.684489, 659.914385)"><g><path d="M 7.078125 0 C 6.378906 0 5.816406 -0.195312 5.390625 -0.59375 C 4.972656 -1 4.765625 -1.53125 4.765625 -2.1875 L 4.765625 -36.46875 C 4.765625 -37.125 4.972656 -37.65625 5.390625 -38.0625 C 5.816406 -38.46875 6.378906 -38.671875 7.078125 -38.671875 L 17.765625 -38.671875 C 23.941406 -38.671875 28.722656 -36.992188 32.109375 -33.640625 C 35.492188 -30.296875 37.1875 -25.535156 37.1875 -19.359375 C 37.1875 -13.179688 35.484375 -8.410156 32.078125 -5.046875 C 28.679688 -1.679688 23.910156 0 17.765625 0 Z M 17.5 -3.84375 C 27.507812 -3.84375 32.515625 -9.015625 32.515625 -19.359375 C 32.515625 -29.671875 27.507812 -34.828125 17.5 -34.828125 L 9.265625 -34.828125 L 9.265625 -3.84375 Z M 17.5 -3.84375 "/></g></g></g><g fill="#ffffff" fill-opacity="1"><g transform="translate(265.200965, 659.914385)"><g><path d="M 24.796875 -6.203125 C 25.191406 -6.203125 25.535156 -6.035156 25.828125 -5.703125 C 26.117188 -5.367188 26.265625 -4.945312 26.265625 -4.4375 C 26.265625 -3.53125 25.625 -2.691406 24.34375 -1.921875 C 23.03125 -1.148438 21.640625 -0.570312 20.171875 -0.1875 C 18.710938 0.195312 17.289062 0.390625 15.90625 0.390625 C 11.769531 0.390625 8.503906 -0.832031 6.109375 -3.28125 C 3.710938 -5.738281 2.515625 -9.125 2.515625 -13.4375 C 2.515625 -16.175781 3.046875 -18.597656 4.109375 -20.703125 C 5.171875 -22.804688 6.660156 -24.441406 8.578125 -25.609375 C 10.503906 -26.773438 12.691406 -27.359375 15.140625 -27.359375 C 18.609375 -27.359375 21.363281 -26.222656 23.40625 -23.953125 C 25.457031 -21.691406 26.484375 -18.625 26.484375 -14.75 C 26.484375 -14.019531 26.335938 -13.488281 26.046875 -13.15625 C 25.753906 -12.832031 25.28125 -12.671875 24.625 -12.671875 L 6.96875 -12.671875 C 7.289062 -6.378906 10.269531 -3.234375 15.90625 -3.234375 C 17.332031 -3.234375 18.554688 -3.425781 19.578125 -3.8125 C 20.597656 -4.195312 21.695312 -4.71875 22.875 -5.375 C 23.820312 -5.925781 24.460938 -6.203125 24.796875 -6.203125 Z M 15.1875 -23.90625 C 12.851562 -23.90625 10.976562 -23.175781 9.5625 -21.71875 C 8.15625 -20.257812 7.328125 -18.191406 7.078125 -15.515625 L 22.59375 -15.515625 C 22.519531 -18.222656 21.84375 -20.296875 20.5625 -21.734375 C 19.28125 -23.179688 17.488281 -23.90625 15.1875 -23.90625 Z M 15.1875 -23.90625 "/></g></g></g><g fill="#ffffff" fill-opacity="1"><g transform="translate(294.094317, 659.914385)"><g><path d="M 7.015625 0.28125 C 6.328125 0.28125 5.78125 0.0703125 5.375 -0.34375 C 4.96875 -0.769531 4.765625 -1.332031 4.765625 -2.03125 L 4.765625 -36.46875 C 4.765625 -37.125 4.972656 -37.65625 5.390625 -38.0625 C 5.816406 -38.46875 6.378906 -38.671875 7.078125 -38.671875 L 27.03125 -38.671875 C 27.695312 -38.671875 28.210938 -38.503906 28.578125 -38.171875 C 28.941406 -37.835938 29.125 -37.363281 29.125 -36.75 C 29.125 -36.164062 28.941406 -35.707031 28.578125 -35.375 C 28.210938 -35.039062 27.695312 -34.875 27.03125 -34.875 L 9.21875 -34.875 L 9.21875 -21.546875 L 25.9375 -21.546875 C 26.59375 -21.546875 27.101562 -21.378906 27.46875 -21.046875 C 27.84375 -20.722656 28.03125 -20.253906 28.03125 -19.640625 C 28.03125 -19.046875 27.84375 -18.582031 27.46875 -18.25 C 27.101562 -17.925781 26.59375 -17.765625 25.9375 -17.765625 L 9.21875 -17.765625 L 9.21875 -2.03125 C 9.21875 -1.332031 9.023438 -0.769531 8.640625 -0.34375 C 8.253906 0.0703125 7.710938 0.28125 7.015625 0.28125 Z M 7.015625 0.28125 "/></g></g></g><g fill="#ffffff" fill-opacity="1"><g transform="translate(324.632465, 659.914385)"><g><path d="M 6.359375 0.28125 C 5.703125 0.28125 5.160156 0.0859375 4.734375 -0.296875 C 4.316406 -0.679688 4.109375 -1.222656 4.109375 -1.921875 L 4.109375 -25.0625 C 4.109375 -25.757812 4.316406 -26.296875 4.734375 -26.671875 C 5.160156 -27.054688 5.703125 -27.25 6.359375 -27.25 C 7.015625 -27.25 7.546875 -27.054688 7.953125 -26.671875 C 8.359375 -26.296875 8.5625 -25.757812 8.5625 -25.0625 L 8.5625 -1.921875 C 8.5625 -1.191406 8.359375 -0.640625 7.953125 -0.265625 C 7.546875 0.0976562 7.015625 0.28125 6.359375 0.28125 Z M 6.375 -33.015625 C 5.488281 -33.015625 4.769531 -33.269531 4.21875 -33.78125 C 3.675781 -34.289062 3.40625 -34.96875 3.40625 -35.8125 C 3.40625 -36.613281 3.675781 -37.269531 4.21875 -37.78125 C 4.769531 -38.300781 5.488281 -38.5625 6.375 -38.5625 C 7.25 -38.5625 7.957031 -38.300781 8.5 -37.78125 C 9.050781 -37.269531 9.328125 -36.613281 9.328125 -35.8125 C 9.328125 -34.96875 9.050781 -34.289062 8.5 -33.78125 C 7.957031 -33.269531 7.25 -33.015625 6.375 -33.015625 Z M 6.375 -33.015625 "/></g></g></g><g fill="#ffffff" fill-opacity="1"><g transform="translate(337.352105, 659.914385)"><g/></g></g><g fill="#ffffff" fill-opacity="1"><g transform="translate(351.49722, 659.914385)"><g><path d="M 38.0625 -2.578125 C 38.207031 -2.285156 38.28125 -1.972656 38.28125 -1.640625 C 38.28125 -1.097656 38.066406 -0.640625 37.640625 -0.265625 C 37.222656 0.0976562 36.722656 0.28125 36.140625 0.28125 C 35.222656 0.28125 34.582031 -0.160156 34.21875 -1.046875 L 30.328125 -9.921875 L 9.65625 -9.921875 L 5.703125 -1.046875 C 5.335938 -0.160156 4.695312 0.28125 3.78125 0.28125 C 3.195312 0.28125 2.6875 0.0859375 2.25 -0.296875 C 1.8125 -0.679688 1.59375 -1.148438 1.59375 -1.703125 C 1.59375 -1.992188 1.664062 -2.285156 1.8125 -2.578125 L 17.5 -37.453125 C 17.71875 -37.960938 18.046875 -38.347656 18.484375 -38.609375 C 18.921875 -38.867188 19.394531 -39 19.90625 -39 C 20.457031 -39 20.953125 -38.859375 21.390625 -38.578125 C 21.828125 -38.304688 22.15625 -37.929688 22.375 -37.453125 Z M 11.296875 -13.65625 L 28.6875 -13.65625 L 19.96875 -33.34375 Z M 11.296875 -13.65625 "/></g></g></g><g fill="#ffffff" fill-opacity="1"><g transform="translate(391.355777, 659.914385)"><g><path d="M 25.78125 -27.25 C 26.46875 -27.25 27.015625 -27.046875 27.421875 -26.640625 C 27.828125 -26.242188 28.03125 -25.71875 28.03125 -25.0625 L 28.03125 -1.8125 C 28.03125 2.175781 27.003906 5.179688 24.953125 7.203125 C 22.898438 9.234375 19.863281 10.25 15.84375 10.25 C 11.9375 10.25 8.6875 9.484375 6.09375 7.953125 C 4.769531 7.222656 4.109375 6.378906 4.109375 5.421875 C 4.109375 4.910156 4.242188 4.488281 4.515625 4.15625 C 4.796875 3.832031 5.15625 3.671875 5.59375 3.671875 C 5.957031 3.671875 6.613281 3.925781 7.5625 4.4375 C 8.84375 5.09375 10.101562 5.625 11.34375 6.03125 C 12.59375 6.4375 14.078125 6.640625 15.796875 6.640625 C 18.390625 6.640625 20.34375 5.953125 21.65625 4.578125 C 22.976562 3.203125 23.640625 1.203125 23.640625 -1.421875 L 23.640625 -6.140625 C 22.867188 -4.421875 21.6875 -3.101562 20.09375 -2.1875 C 18.507812 -1.28125 16.640625 -0.828125 14.484375 -0.828125 C 12.140625 -0.828125 10.0625 -1.375 8.25 -2.46875 C 6.445312 -3.5625 5.039062 -5.113281 4.03125 -7.125 C 3.019531 -9.132812 2.515625 -11.457031 2.515625 -14.09375 C 2.515625 -16.726562 3.019531 -19.050781 4.03125 -21.0625 C 5.039062 -23.070312 6.445312 -24.625 8.25 -25.71875 C 10.0625 -26.8125 12.140625 -27.359375 14.484375 -27.359375 C 16.597656 -27.359375 18.441406 -26.898438 20.015625 -25.984375 C 21.585938 -25.078125 22.773438 -23.785156 23.578125 -22.109375 L 23.578125 -25.0625 C 23.578125 -25.71875 23.769531 -26.242188 24.15625 -26.640625 C 24.539062 -27.046875 25.082031 -27.25 25.78125 -27.25 Z M 15.359375 -4.5 C 17.910156 -4.5 19.914062 -5.347656 21.375 -7.046875 C 22.84375 -8.742188 23.578125 -11.09375 23.578125 -14.09375 C 23.578125 -17.050781 22.851562 -19.378906 21.40625 -21.078125 C 19.96875 -22.785156 17.953125 -23.640625 15.359375 -23.640625 C 12.765625 -23.640625 10.722656 -22.785156 9.234375 -21.078125 C 7.753906 -19.378906 7.015625 -17.050781 7.015625 -14.09375 C 7.015625 -11.09375 7.753906 -8.742188 9.234375 -7.046875 C 10.722656 -5.347656 12.765625 -4.5 15.359375 -4.5 Z M 15.359375 -4.5 "/></g></g></g><g fill="#ffffff" fill-opacity="1"><g transform="translate(423.483881, 659.914385)"><g><path d="M 24.796875 -6.203125 C 25.191406 -6.203125 25.535156 -6.035156 25.828125 -5.703125 C 26.117188 -5.367188 26.265625 -4.945312 26.265625 -4.4375 C 26.265625 -3.53125 25.625 -2.691406 24.34375 -1.921875 C 23.03125 -1.148438 21.640625 -0.570312 20.171875 -0.1875 C 18.710938 0.195312 17.289062 0.390625 15.90625 0.390625 C 11.769531 0.390625 8.503906 -0.832031 6.109375 -3.28125 C 3.710938 -5.738281 2.515625 -9.125 2.515625 -13.4375 C 2.515625 -16.175781 3.046875 -18.597656 4.109375 -20.703125 C 5.171875 -22.804688 6.660156 -24.441406 8.578125 -25.609375 C 10.503906 -26.773438 12.691406 -27.359375 15.140625 -27.359375 C 18.609375 -27.359375 21.363281 -26.222656 23.40625 -23.953125 C 25.457031 -21.691406 26.484375 -18.625 26.484375 -14.75 C 26.484375 -14.019531 26.335938 -13.488281 26.046875 -13.15625 C 25.753906 -12.832031 25.28125 -12.671875 24.625 -12.671875 L 6.96875 -12.671875 C 7.289062 -6.378906 10.269531 -3.234375 15.90625 -3.234375 C 17.332031 -3.234375 18.554688 -3.425781 19.578125 -3.8125 C 20.597656 -4.195312 21.695312 -4.71875 22.875 -5.375 C 23.820312 -5.925781 24.460938 -6.203125 24.796875 -6.203125 Z M 15.1875 -23.90625 C 12.851562 -23.90625 10.976562 -23.175781 9.5625 -21.71875 C 8.15625 -20.257812 7.328125 -18.191406 7.078125 -15.515625 L 22.59375 -15.515625 C 22.519531 -18.222656 21.84375 -20.296875 20.5625 -21.734375 C 19.28125 -23.179688 17.488281 -23.90625 15.1875 -23.90625 Z M 15.1875 -23.90625 "/></g></g></g><g fill="#ffffff" fill-opacity="1"><g transform="translate(452.377233, 659.914385)"><g><path d="M 17.546875 -27.359375 C 23.941406 -27.359375 27.140625 -23.832031 27.140625 -16.78125 L 27.140625 -1.921875 C 27.140625 -1.222656 26.945312 -0.679688 26.5625 -0.296875 C 26.1875 0.0859375 25.648438 0.28125 24.953125 0.28125 C 24.253906 0.28125 23.703125 0.0859375 23.296875 -0.296875 C 22.898438 -0.679688 22.703125 -1.222656 22.703125 -1.921875 L 22.703125 -16.515625 C 22.703125 -18.992188 22.21875 -20.800781 21.25 -21.9375 C 20.28125 -23.070312 18.738281 -23.640625 16.625 -23.640625 C 14.164062 -23.640625 12.207031 -22.890625 10.75 -21.390625 C 9.289062 -19.890625 8.5625 -17.859375 8.5625 -15.296875 L 8.5625 -1.921875 C 8.5625 -1.222656 8.367188 -0.679688 7.984375 -0.296875 C 7.597656 0.0859375 7.054688 0.28125 6.359375 0.28125 C 5.660156 0.28125 5.109375 0.0859375 4.703125 -0.296875 C 4.304688 -0.679688 4.109375 -1.222656 4.109375 -1.921875 L 4.109375 -25.0625 C 4.109375 -25.71875 4.304688 -26.242188 4.703125 -26.640625 C 5.109375 -27.046875 5.660156 -27.25 6.359375 -27.25 C 7.015625 -27.25 7.535156 -27.046875 7.921875 -26.640625 C 8.304688 -26.242188 8.5 -25.738281 8.5 -25.125 L 8.5 -22.328125 C 9.375 -23.972656 10.597656 -25.222656 12.171875 -26.078125 C 13.742188 -26.929688 15.535156 -27.359375 17.546875 -27.359375 Z M 17.546875 -27.359375 "/></g></g></g><g fill="#ffffff" fill-opacity="1"><g transform="translate(483.518459, 659.914385)"><g><path d="M 16.453125 -3.234375 C 17.734375 -3.128906 18.375 -2.546875 18.375 -1.484375 C 18.375 -0.859375 18.144531 -0.390625 17.6875 -0.078125 C 17.226562 0.234375 16.539062 0.351562 15.625 0.28125 L 14.15625 0.171875 C 11.226562 -0.0546875 9.066406 -0.9375 7.671875 -2.46875 C 6.285156 -4 5.59375 -6.320312 5.59375 -9.4375 L 5.59375 -23.203125 L 1.921875 -23.203125 C 1.296875 -23.203125 0.804688 -23.351562 0.453125 -23.65625 C 0.109375 -23.96875 -0.0625 -24.382812 -0.0625 -24.90625 C -0.0625 -25.445312 0.109375 -25.878906 0.453125 -26.203125 C 0.804688 -26.535156 1.296875 -26.703125 1.921875 -26.703125 L 5.59375 -26.703125 L 5.59375 -32.90625 C 5.59375 -33.601562 5.789062 -34.140625 6.1875 -34.515625 C 6.59375 -34.898438 7.144531 -35.09375 7.84375 -35.09375 C 8.5 -35.09375 9.023438 -34.898438 9.421875 -34.515625 C 9.828125 -34.140625 10.03125 -33.601562 10.03125 -32.90625 L 10.03125 -26.703125 L 16.125 -26.703125 C 16.707031 -26.703125 17.171875 -26.535156 17.515625 -26.203125 C 17.867188 -25.878906 18.046875 -25.445312 18.046875 -24.90625 C 18.046875 -24.382812 17.867188 -23.96875 17.515625 -23.65625 C 17.171875 -23.351562 16.707031 -23.203125 16.125 -23.203125 L 10.03125 -23.203125 L 10.03125 -9.21875 C 10.03125 -7.207031 10.441406 -5.753906 11.265625 -4.859375 C 12.085938 -3.960938 13.320312 -3.457031 14.96875 -3.34375 Z M 16.453125 -3.234375 "/></g></g></g><g fill="#ffffff" fill-opacity="1"><g transform="translate(502.159321, 659.914385)"><g/></g></g><g fill="#ffffff" fill-opacity="1"><g transform="translate(516.304436, 659.914385)"><g><path d="M 17.109375 0.4375 C 14.367188 0.4375 11.742188 0.0234375 9.234375 -0.796875 C 6.734375 -1.617188 4.734375 -2.722656 3.234375 -4.109375 C 2.679688 -4.617188 2.40625 -5.257812 2.40625 -6.03125 C 2.40625 -6.539062 2.550781 -6.988281 2.84375 -7.375 C 3.144531 -7.757812 3.492188 -7.953125 3.890625 -7.953125 C 4.367188 -7.953125 4.878906 -7.75 5.421875 -7.34375 C 8.828125 -4.71875 12.707031 -3.40625 17.0625 -3.40625 C 20.195312 -3.40625 22.601562 -4.003906 24.28125 -5.203125 C 25.96875 -6.410156 26.8125 -8.128906 26.8125 -10.359375 C 26.8125 -11.640625 26.410156 -12.671875 25.609375 -13.453125 C 24.804688 -14.242188 23.742188 -14.875 22.421875 -15.34375 C 21.109375 -15.820312 19.335938 -16.320312 17.109375 -16.84375 C 14.109375 -17.53125 11.648438 -18.257812 9.734375 -19.03125 C 7.816406 -19.800781 6.265625 -20.894531 5.078125 -22.3125 C 3.890625 -23.738281 3.296875 -25.609375 3.296875 -27.921875 C 3.296875 -30.109375 3.890625 -32.050781 5.078125 -33.75 C 6.265625 -35.457031 7.925781 -36.773438 10.0625 -37.703125 C 12.195312 -38.640625 14.640625 -39.109375 17.390625 -39.109375 C 19.941406 -39.109375 22.320312 -38.710938 24.53125 -37.921875 C 26.75 -37.140625 28.609375 -36.015625 30.109375 -34.546875 C 30.691406 -33.960938 30.984375 -33.320312 30.984375 -32.625 C 30.984375 -32.113281 30.835938 -31.664062 30.546875 -31.28125 C 30.253906 -30.90625 29.90625 -30.71875 29.5 -30.71875 C 29.101562 -30.71875 28.578125 -30.914062 27.921875 -31.3125 C 26.128906 -32.78125 24.460938 -33.804688 22.921875 -34.390625 C 21.390625 -34.972656 19.546875 -35.265625 17.390625 -35.265625 C 14.347656 -35.265625 11.984375 -34.632812 10.296875 -33.375 C 8.617188 -32.113281 7.78125 -30.347656 7.78125 -28.078125 C 7.78125 -26.140625 8.519531 -24.6875 10 -23.71875 C 11.488281 -22.75 13.769531 -21.898438 16.84375 -21.171875 C 20.164062 -20.367188 22.773438 -19.628906 24.671875 -18.953125 C 26.578125 -18.273438 28.160156 -17.257812 29.421875 -15.90625 C 30.679688 -14.550781 31.3125 -12.738281 31.3125 -10.46875 C 31.3125 -8.3125 30.71875 -6.410156 29.53125 -4.765625 C 28.34375 -3.117188 26.671875 -1.835938 24.515625 -0.921875 C 22.359375 -0.015625 19.890625 0.4375 17.109375 0.4375 Z M 17.109375 0.4375 "/></g></g></g><g fill="#ffffff" fill-opacity="1"><g transform="translate(550.132132, 659.914385)"><g><path d="M 40.640625 -25.828125 C 41.003906 -26.703125 41.609375 -27.140625 42.453125 -27.140625 C 42.992188 -27.140625 43.484375 -26.957031 43.921875 -26.59375 C 44.367188 -26.226562 44.59375 -25.773438 44.59375 -25.234375 C 44.59375 -24.972656 44.535156 -24.695312 44.421875 -24.40625 L 35.3125 -1.375 C 35.09375 -0.894531 34.773438 -0.515625 34.359375 -0.234375 C 33.941406 0.0351562 33.476562 0.171875 32.96875 0.171875 C 32.488281 0.171875 32.035156 0.0351562 31.609375 -0.234375 C 31.191406 -0.515625 30.875 -0.894531 30.65625 -1.375 L 23.09375 -20.625 L 15.578125 -1.375 C 15.390625 -0.894531 15.078125 -0.515625 14.640625 -0.234375 C 14.203125 0.0351562 13.726562 0.171875 13.21875 0.171875 C 12.738281 0.171875 12.28125 0.0351562 11.84375 -0.234375 C 11.40625 -0.515625 11.078125 -0.894531 10.859375 -1.375 L 1.75 -24.34375 C 1.644531 -24.644531 1.59375 -24.90625 1.59375 -25.125 C 1.59375 -25.707031 1.835938 -26.195312 2.328125 -26.59375 C 2.828125 -27 3.367188 -27.203125 3.953125 -27.203125 C 4.828125 -27.203125 5.445312 -26.765625 5.8125 -25.890625 L 13.328125 -5.65625 L 21.0625 -25.71875 C 21.28125 -26.195312 21.582031 -26.5625 21.96875 -26.8125 C 22.351562 -27.070312 22.765625 -27.203125 23.203125 -27.203125 C 23.671875 -27.203125 24.097656 -27.070312 24.484375 -26.8125 C 24.867188 -26.5625 25.15625 -26.195312 25.34375 -25.71875 L 33.078125 -5.703125 Z M 40.640625 -25.828125 "/></g></g></g><g fill="#ffffff" fill-opacity="1"><g transform="translate(596.295713, 659.914385)"><g><path d="M 15.03125 -27.359375 C 21.71875 -27.359375 25.0625 -23.851562 25.0625 -16.84375 L 25.0625 -1.921875 C 25.0625 -1.265625 24.867188 -0.734375 24.484375 -0.328125 C 24.097656 0.078125 23.578125 0.28125 22.921875 0.28125 C 22.265625 0.28125 21.734375 0.078125 21.328125 -0.328125 C 20.929688 -0.734375 20.734375 -1.265625 20.734375 -1.921875 L 20.734375 -4.546875 C 20.035156 -2.972656 18.972656 -1.753906 17.546875 -0.890625 C 16.117188 -0.0351562 14.472656 0.390625 12.609375 0.390625 C 10.890625 0.390625 9.304688 0.0390625 7.859375 -0.65625 C 6.421875 -1.351562 5.28125 -2.320312 4.4375 -3.5625 C 3.601562 -4.800781 3.1875 -6.171875 3.1875 -7.671875 C 3.1875 -9.679688 3.695312 -11.242188 4.71875 -12.359375 C 5.738281 -13.484375 7.414062 -14.289062 9.75 -14.78125 C 12.09375 -15.269531 15.351562 -15.515625 19.53125 -15.515625 L 20.734375 -15.515625 L 20.734375 -17.328125 C 20.734375 -19.523438 20.285156 -21.132812 19.390625 -22.15625 C 18.492188 -23.175781 17.039062 -23.6875 15.03125 -23.6875 C 12.539062 -23.6875 10.015625 -23.007812 7.453125 -21.65625 C 6.472656 -21.039062 5.78125 -20.734375 5.375 -20.734375 C 4.9375 -20.734375 4.570312 -20.894531 4.28125 -21.21875 C 3.988281 -21.550781 3.84375 -21.972656 3.84375 -22.484375 C 3.84375 -22.992188 3.992188 -23.441406 4.296875 -23.828125 C 4.609375 -24.210938 5.113281 -24.609375 5.8125 -25.015625 C 7.09375 -25.742188 8.546875 -26.316406 10.171875 -26.734375 C 11.796875 -27.148438 13.414062 -27.359375 15.03125 -27.359375 Z M 13.21875 -3.125 C 15.414062 -3.125 17.21875 -3.863281 18.625 -5.34375 C 20.03125 -6.820312 20.734375 -8.734375 20.734375 -11.078125 L 20.734375 -12.671875 L 19.75 -12.671875 C 16.53125 -12.671875 14.078125 -12.53125 12.390625 -12.25 C 10.710938 -11.976562 9.515625 -11.519531 8.796875 -10.875 C 8.085938 -10.238281 7.734375 -9.300781 7.734375 -8.0625 C 7.734375 -6.632812 8.253906 -5.453125 9.296875 -4.515625 C 10.335938 -3.585938 11.644531 -3.125 13.21875 -3.125 Z M 13.21875 -3.125 "/></g></g></g><g fill="#ffffff" fill-opacity="1"><g transform="translate(625.353545, 659.914385)"><g><path d="M 17.328125 -27.25 C 18.867188 -27.363281 19.640625 -26.742188 19.640625 -25.390625 C 19.640625 -24.804688 19.472656 -24.335938 19.140625 -23.984375 C 18.804688 -23.640625 18.238281 -23.429688 17.4375 -23.359375 L 15.796875 -23.203125 C 13.347656 -22.984375 11.53125 -22.113281 10.34375 -20.59375 C 9.15625 -19.070312 8.5625 -17.289062 8.5625 -15.25 L 8.5625 -1.921875 C 8.5625 -1.191406 8.359375 -0.640625 7.953125 -0.265625 C 7.546875 0.0976562 7.015625 0.28125 6.359375 0.28125 C 5.703125 0.28125 5.160156 0.0859375 4.734375 -0.296875 C 4.316406 -0.679688 4.109375 -1.222656 4.109375 -1.921875 L 4.109375 -25.0625 C 4.109375 -25.757812 4.328125 -26.296875 4.765625 -26.671875 C 5.203125 -27.054688 5.734375 -27.25 6.359375 -27.25 C 6.941406 -27.25 7.4375 -27.054688 7.84375 -26.671875 C 8.25 -26.296875 8.453125 -25.78125 8.453125 -25.125 L 8.453125 -22.046875 C 9.210938 -23.648438 10.296875 -24.875 11.703125 -25.71875 C 13.117188 -26.5625 14.738281 -27.054688 16.5625 -27.203125 Z M 17.328125 -27.25 "/></g></g></g><g fill="#ffffff" fill-opacity="1"><g transform="translate(644.707167, 659.914385)"><g><path d="M 33.84375 -27.359375 C 39.757812 -27.359375 42.71875 -23.832031 42.71875 -16.78125 L 42.71875 -1.921875 C 42.71875 -1.222656 42.515625 -0.679688 42.109375 -0.296875 C 41.710938 0.0859375 41.1875 0.28125 40.53125 0.28125 C 39.875 0.28125 39.332031 0.0859375 38.90625 -0.296875 C 38.488281 -0.679688 38.28125 -1.222656 38.28125 -1.921875 L 38.28125 -16.671875 C 38.28125 -19.117188 37.835938 -20.890625 36.953125 -21.984375 C 36.078125 -23.085938 34.707031 -23.640625 32.84375 -23.640625 C 30.613281 -23.640625 28.859375 -22.890625 27.578125 -21.390625 C 26.304688 -19.890625 25.671875 -17.859375 25.671875 -15.296875 L 25.671875 -1.921875 C 25.671875 -1.222656 25.457031 -0.679688 25.03125 -0.296875 C 24.613281 0.0859375 24.078125 0.28125 23.421875 0.28125 C 22.765625 0.28125 22.234375 0.0859375 21.828125 -0.296875 C 21.421875 -0.679688 21.21875 -1.222656 21.21875 -1.921875 L 21.21875 -16.671875 C 21.21875 -19.117188 20.78125 -20.890625 19.90625 -21.984375 C 19.03125 -23.085938 17.640625 -23.640625 15.734375 -23.640625 C 13.546875 -23.640625 11.800781 -22.890625 10.5 -21.390625 C 9.207031 -19.890625 8.5625 -17.859375 8.5625 -15.296875 L 8.5625 -1.921875 C 8.5625 -1.222656 8.359375 -0.679688 7.953125 -0.296875 C 7.546875 0.0859375 7.015625 0.28125 6.359375 0.28125 C 5.703125 0.28125 5.160156 0.0859375 4.734375 -0.296875 C 4.316406 -0.679688 4.109375 -1.222656 4.109375 -1.921875 L 4.109375 -25.0625 C 4.109375 -25.71875 4.316406 -26.242188 4.734375 -26.640625 C 5.160156 -27.046875 5.703125 -27.25 6.359375 -27.25 C 6.984375 -27.25 7.492188 -27.054688 7.890625 -26.671875 C 8.296875 -26.296875 8.5 -25.78125 8.5 -25.125 L 8.5 -22.484375 C 9.300781 -24.054688 10.414062 -25.257812 11.84375 -26.09375 C 13.269531 -26.9375 14.914062 -27.359375 16.78125 -27.359375 C 20.945312 -27.359375 23.671875 -25.609375 24.953125 -22.109375 C 25.722656 -23.710938 26.894531 -24.988281 28.46875 -25.9375 C 30.039062 -26.882812 31.832031 -27.359375 33.84375 -27.359375 Z M 33.84375 -27.359375 "/></g></g></g><g fill="#ffffff" fill-opacity="1"><g transform="translate(691.428804, 659.914385)"><g/></g></g></svg>