<svg xmlns="http://www.w3.org/2000/svg" xmlns:xlink="http://www.w3.org/1999/xlink" width="250" zoomAndPan="magnify" viewBox="0 0 187.5 74.999997" height="100" preserveAspectRatio="xMidYMid meet" version="1.0"><defs><g/><clipPath id="07eedd0501"><path d="M 7.679688 8.503906 L 68.265625 8.503906 L 68.265625 66.847656 L 7.679688 66.847656 Z M 7.679688 8.503906 " clip-rule="nonzero"/></clipPath><clipPath id="903765db55"><path d="M 39.902344 41.816406 L 39.902344 15.929688 C 39.902344 14.925781 40.863281 14.199219 41.828125 14.472656 L 67.15625 21.578125 C 67.808594 21.761719 68.261719 22.359375 68.261719 23.039062 L 68.261719 48.921875 C 68.261719 49.925781 67.300781 50.652344 66.335938 50.382812 L 41.007812 43.277344 C 40.355469 43.09375 39.902344 42.496094 39.902344 41.816406 Z M 20.785156 25.003906 L 33.824219 28.664062 C 34.792969 28.933594 35.75 28.207031 35.75 27.203125 L 35.75 13.898438 C 35.75 13.21875 35.300781 12.621094 34.644531 12.4375 L 21.605469 8.777344 C 20.636719 8.507812 19.679688 9.234375 19.679688 10.238281 L 19.679688 23.542969 C 19.679688 24.222656 20.132812 24.820312 20.785156 25.003906 Z M 34.644531 31.738281 L 9.320312 24.632812 C 8.351562 24.359375 7.394531 25.085938 7.394531 26.089844 L 7.394531 51.976562 C 7.394531 52.65625 7.847656 53.25 8.5 53.433594 L 33.824219 60.542969 C 34.792969 60.8125 35.75 60.085938 35.75 59.082031 L 35.75 33.195312 C 35.75 32.515625 35.300781 31.921875 34.644531 31.738281 Z M 54.867188 50.007812 L 41.828125 46.351562 C 40.863281 46.078125 39.902344 46.804688 39.902344 47.808594 L 39.902344 61.117188 C 39.902344 61.796875 40.355469 62.390625 41.007812 62.574219 L 54.050781 66.234375 C 55.015625 66.503906 55.972656 65.78125 55.972656 64.777344 L 55.972656 51.46875 C 55.972656 50.789062 55.523438 50.191406 54.867188 50.007812 Z M 54.867188 50.007812 " clip-rule="nonzero"/></clipPath><linearGradient x1="114.29646" gradientTransform="matrix(0, 0.121733, -0.121733, 0, 68.260416, 8.721865)" y1="-47.633926" x2="357.798826" gradientUnits="userSpaceOnUse" y2="545.628824" id="59a20f19eb"><stop stop-opacity="1" stop-color="rgb(77.598572%, 30.999756%, 100%)" offset="0"/><stop stop-opacity="1" stop-color="rgb(77.598572%, 30.999756%, 100%)" offset="0.0625"/><stop stop-opacity="1" stop-color="rgb(77.546692%, 30.987549%, 100%)" offset="0.09375"/><stop stop-opacity="1" stop-color="rgb(77.342224%, 30.943298%, 100%)" offset="0.101563"/><stop stop-opacity="1" stop-color="rgb(77.033997%, 30.877686%, 100%)" offset="0.109375"/><stop stop-opacity="1" stop-color="rgb(76.724243%, 30.812073%, 100%)" offset="0.117188"/><stop stop-opacity="1" stop-color="rgb(76.416016%, 30.744934%, 100%)" offset="0.125"/><stop stop-opacity="1" stop-color="rgb(76.106262%, 30.679321%, 100%)" offset="0.132813"/><stop stop-opacity="1" stop-color="rgb(75.798035%, 30.612183%, 100%)" offset="0.140625"/><stop stop-opacity="1" stop-color="rgb(75.489807%, 30.54657%, 100%)" offset="0.148438"/><stop stop-opacity="1" stop-color="rgb(75.180054%, 30.480957%, 100%)" offset="0.15625"/><stop stop-opacity="1" stop-color="rgb(74.871826%, 30.413818%, 100%)" offset="0.164063"/><stop stop-opacity="1" stop-color="rgb(74.562073%, 30.348206%, 100%)" offset="0.171875"/><stop stop-opacity="1" stop-color="rgb(74.253845%, 30.282593%, 100%)" offset="0.179688"/><stop stop-opacity="1" stop-color="rgb(73.945618%, 30.215454%, 100%)" offset="0.1875"/><stop stop-opacity="1" stop-color="rgb(73.635864%, 30.149841%, 100%)" offset="0.195313"/><stop stop-opacity="1" stop-color="rgb(73.327637%, 30.082703%, 100%)" offset="0.203125"/><stop stop-opacity="1" stop-color="rgb(73.017883%, 30.01709%, 100%)" offset="0.210938"/><stop stop-opacity="1" stop-color="rgb(72.709656%, 29.951477%, 100%)" offset="0.21875"/><stop stop-opacity="1" stop-color="rgb(72.401428%, 29.884338%, 100%)" offset="0.226563"/><stop stop-opacity="1" stop-color="rgb(72.091675%, 29.818726%, 100%)" offset="0.234375"/><stop stop-opacity="1" stop-color="rgb(71.783447%, 29.753113%, 100%)" offset="0.242188"/><stop stop-opacity="1" stop-color="rgb(71.473694%, 29.685974%, 100%)" offset="0.25"/><stop stop-opacity="1" stop-color="rgb(71.165466%, 29.620361%, 100%)" offset="0.257812"/><stop stop-opacity="1" stop-color="rgb(70.857239%, 29.553223%, 100%)" offset="0.265625"/><stop stop-opacity="1" stop-color="rgb(70.547485%, 29.48761%, 100%)" offset="0.273438"/><stop stop-opacity="1" stop-color="rgb(70.239258%, 29.421997%, 100%)" offset="0.28125"/><stop stop-opacity="1" stop-color="rgb(69.929504%, 29.354858%, 100%)" offset="0.282095"/><stop stop-opacity="1" stop-color="rgb(69.775391%, 29.322815%, 100%)" offset="0.289063"/><stop stop-opacity="1" stop-color="rgb(69.621277%, 29.289246%, 100%)" offset="0.296875"/><stop stop-opacity="1" stop-color="rgb(69.311523%, 29.223633%, 100%)" offset="0.304688"/><stop stop-opacity="1" stop-color="rgb(69.003296%, 29.156494%, 100%)" offset="0.3125"/><stop stop-opacity="1" stop-color="rgb(68.695068%, 29.090881%, 100%)" offset="0.320313"/><stop stop-opacity="1" stop-color="rgb(68.385315%, 29.025269%, 100%)" offset="0.328125"/><stop stop-opacity="1" stop-color="rgb(68.077087%, 28.95813%, 100%)" offset="0.335938"/><stop stop-opacity="1" stop-color="rgb(67.767334%, 28.892517%, 100%)" offset="0.34375"/><stop stop-opacity="1" stop-color="rgb(67.459106%, 28.825378%, 100%)" offset="0.351563"/><stop stop-opacity="1" stop-color="rgb(67.150879%, 28.759766%, 100%)" offset="0.359375"/><stop stop-opacity="1" stop-color="rgb(66.841125%, 28.694153%, 100%)" offset="0.367188"/><stop stop-opacity="1" stop-color="rgb(66.532898%, 28.627014%, 100%)" offset="0.375"/><stop stop-opacity="1" stop-color="rgb(66.223145%, 28.561401%, 100%)" offset="0.382813"/><stop stop-opacity="1" stop-color="rgb(65.914917%, 28.495789%, 100%)" offset="0.390625"/><stop stop-opacity="1" stop-color="rgb(65.606689%, 28.42865%, 100%)" offset="0.398438"/><stop stop-opacity="1" stop-color="rgb(65.296936%, 28.363037%, 100%)" offset="0.40625"/><stop stop-opacity="1" stop-color="rgb(64.988708%, 28.295898%, 100%)" offset="0.414063"/><stop stop-opacity="1" stop-color="rgb(64.678955%, 28.230286%, 100%)" offset="0.421875"/><stop stop-opacity="1" stop-color="rgb(64.370728%, 28.164673%, 100%)" offset="0.429688"/><stop stop-opacity="1" stop-color="rgb(64.0625%, 28.097534%, 100%)" offset="0.4375"/><stop stop-opacity="1" stop-color="rgb(63.752747%, 28.031921%, 100%)" offset="0.445313"/><stop stop-opacity="1" stop-color="rgb(63.444519%, 27.966309%, 100%)" offset="0.453125"/><stop stop-opacity="1" stop-color="rgb(63.134766%, 27.89917%, 100%)" offset="0.460938"/><stop stop-opacity="1" stop-color="rgb(62.826538%, 27.833557%, 100%)" offset="0.46875"/><stop stop-opacity="1" stop-color="rgb(62.518311%, 27.766418%, 100%)" offset="0.476563"/><stop stop-opacity="1" stop-color="rgb(62.208557%, 27.700806%, 100%)" offset="0.484375"/><stop stop-opacity="1" stop-color="rgb(61.90033%, 27.635193%, 100%)" offset="0.492188"/><stop stop-opacity="1" stop-color="rgb(61.590576%, 27.568054%, 100%)" offset="0.5"/><stop stop-opacity="1" stop-color="rgb(61.282349%, 27.502441%, 100%)" offset="0.507813"/><stop stop-opacity="1" stop-color="rgb(60.974121%, 27.436829%, 100%)" offset="0.515625"/><stop stop-opacity="1" stop-color="rgb(60.664368%, 27.36969%, 100%)" offset="0.523438"/><stop stop-opacity="1" stop-color="rgb(60.35614%, 27.304077%, 100%)" offset="0.53125"/><stop stop-opacity="1" stop-color="rgb(60.046387%, 27.236938%, 100%)" offset="0.539063"/><stop stop-opacity="1" stop-color="rgb(59.738159%, 27.171326%, 100%)" offset="0.546875"/><stop stop-opacity="1" stop-color="rgb(59.429932%, 27.105713%, 100%)" offset="0.554688"/><stop stop-opacity="1" stop-color="rgb(59.120178%, 27.038574%, 100%)" offset="0.5625"/><stop stop-opacity="1" stop-color="rgb(58.811951%, 26.972961%, 100%)" offset="0.570313"/><stop stop-opacity="1" stop-color="rgb(58.502197%, 26.907349%, 100%)" offset="0.578125"/><stop stop-opacity="1" stop-color="rgb(58.19397%, 26.84021%, 100%)" offset="0.585938"/><stop stop-opacity="1" stop-color="rgb(57.885742%, 26.774597%, 100%)" offset="0.59375"/><stop stop-opacity="1" stop-color="rgb(57.575989%, 26.707458%, 100%)" offset="0.601563"/><stop stop-opacity="1" stop-color="rgb(57.267761%, 26.641846%, 100%)" offset="0.609375"/><stop stop-opacity="1" stop-color="rgb(56.958008%, 26.576233%, 100%)" offset="0.617188"/><stop stop-opacity="1" stop-color="rgb(56.64978%, 26.509094%, 100%)" offset="0.625"/><stop stop-opacity="1" stop-color="rgb(56.341553%, 26.443481%, 100%)" offset="0.632813"/><stop stop-opacity="1" stop-color="rgb(56.031799%, 26.377869%, 100%)" offset="0.640625"/><stop stop-opacity="1" stop-color="rgb(55.723572%, 26.31073%, 100%)" offset="0.648438"/><stop stop-opacity="1" stop-color="rgb(55.413818%, 26.245117%, 100%)" offset="0.65625"/><stop stop-opacity="1" stop-color="rgb(55.105591%, 26.177979%, 100%)" offset="0.664063"/><stop stop-opacity="1" stop-color="rgb(54.795837%, 26.112366%, 100%)" offset="0.671875"/><stop stop-opacity="1" stop-color="rgb(54.48761%, 26.046753%, 100%)" offset="0.679688"/><stop stop-opacity="1" stop-color="rgb(54.179382%, 25.979614%, 100%)" offset="0.6875"/><stop stop-opacity="1" stop-color="rgb(53.869629%, 25.914001%, 100%)" offset="0.695313"/><stop stop-opacity="1" stop-color="rgb(53.561401%, 25.848389%, 100%)" offset="0.703125"/><stop stop-opacity="1" stop-color="rgb(53.251648%, 25.78125%, 100%)" offset="0.710938"/><stop stop-opacity="1" stop-color="rgb(52.94342%, 25.715637%, 100%)" offset="0.717905"/><stop stop-opacity="1" stop-color="rgb(52.789307%, 25.683594%, 100%)" offset="0.71875"/><stop stop-opacity="1" stop-color="rgb(52.635193%, 25.650024%, 100%)" offset="0.726563"/><stop stop-opacity="1" stop-color="rgb(52.325439%, 25.582886%, 100%)" offset="0.734375"/><stop stop-opacity="1" stop-color="rgb(52.017212%, 25.517273%, 100%)" offset="0.742188"/><stop stop-opacity="1" stop-color="rgb(51.707458%, 25.450134%, 100%)" offset="0.75"/><stop stop-opacity="1" stop-color="rgb(51.399231%, 25.384521%, 100%)" offset="0.757813"/><stop stop-opacity="1" stop-color="rgb(51.091003%, 25.318909%, 100%)" offset="0.765625"/><stop stop-opacity="1" stop-color="rgb(50.78125%, 25.25177%, 100%)" offset="0.773437"/><stop stop-opacity="1" stop-color="rgb(50.473022%, 25.186157%, 100%)" offset="0.78125"/><stop stop-opacity="1" stop-color="rgb(50.163269%, 25.120544%, 100%)" offset="0.789063"/><stop stop-opacity="1" stop-color="rgb(49.855042%, 25.053406%, 100%)" offset="0.796875"/><stop stop-opacity="1" stop-color="rgb(49.546814%, 24.987793%, 100%)" offset="0.804688"/><stop stop-opacity="1" stop-color="rgb(49.237061%, 24.920654%, 100%)" offset="0.8125"/><stop stop-opacity="1" stop-color="rgb(48.928833%, 24.855042%, 100%)" offset="0.820312"/><stop stop-opacity="1" stop-color="rgb(48.61908%, 24.789429%, 100%)" offset="0.828125"/><stop stop-opacity="1" stop-color="rgb(48.332214%, 24.726868%, 100%)" offset="0.84375"/><stop stop-opacity="1" stop-color="rgb(48.199463%, 24.699402%, 100%)" offset="0.875"/><stop stop-opacity="1" stop-color="rgb(48.199463%, 24.699402%, 100%)" offset="1"/></linearGradient></defs><g clip-path="url(#07eedd0501)"><g clip-path="url(#903765db55)"><path fill="url(#59a20f19eb)" d="M 68.261719 8.507812 L 7.679688 8.507812 L 7.679688 66.503906 L 68.261719 66.503906 Z M 68.261719 8.507812 " fill-rule="nonzero"/></g></g><g fill="#0a0019" fill-opacity="1"><g transform="translate(77.220498, 44.898917)"><g><path d="M 13.546875 -15.8125 C 13.054688 -16.375 12.484375 -16.8125 11.828125 -17.125 C 11.171875 -17.445312 10.332031 -17.609375 9.3125 -17.609375 C 8.113281 -17.609375 7.191406 -17.375 6.546875 -16.90625 C 5.910156 -16.445312 5.59375 -15.816406 5.59375 -15.015625 C 5.59375 -13.910156 6.398438 -13.101562 8.015625 -12.59375 L 12.203125 -11.34375 C 15.347656 -10.394531 16.921875 -8.53125 16.921875 -5.75 C 16.921875 -4.53125 16.601562 -3.46875 15.96875 -2.5625 C 15.332031 -1.65625 14.425781 -0.957031 13.25 -0.46875 C 12.082031 0.0195312 10.695312 0.265625 9.09375 0.265625 C 7.320312 0.265625 5.734375 -0.0351562 4.328125 -0.640625 C 2.929688 -1.242188 1.867188 -2.101562 1.140625 -3.21875 C 1.066406 -3.394531 1.03125 -3.503906 1.03125 -3.546875 C 1.03125 -3.691406 1.125 -3.828125 1.3125 -3.953125 L 3.03125 -5.15625 C 3.226562 -5.257812 3.378906 -5.3125 3.484375 -5.3125 C 3.628906 -5.3125 3.75 -5.25 3.84375 -5.125 C 4.550781 -4.195312 5.265625 -3.539062 5.984375 -3.15625 C 6.703125 -2.78125 7.660156 -2.59375 8.859375 -2.59375 C 10.160156 -2.59375 11.179688 -2.804688 11.921875 -3.234375 C 12.671875 -3.671875 13.046875 -4.335938 13.046875 -5.234375 C 13.046875 -5.816406 12.859375 -6.304688 12.484375 -6.703125 C 12.117188 -7.097656 11.460938 -7.453125 10.515625 -7.765625 L 6.40625 -9.015625 C 4.894531 -9.472656 3.738281 -10.195312 2.9375 -11.1875 C 2.144531 -12.175781 1.75 -13.289062 1.75 -14.53125 C 1.75 -15.6875 2.054688 -16.710938 2.671875 -17.609375 C 3.285156 -18.515625 4.160156 -19.21875 5.296875 -19.71875 C 6.429688 -20.226562 7.742188 -20.484375 9.234375 -20.484375 C 10.671875 -20.484375 11.992188 -20.234375 13.203125 -19.734375 C 14.410156 -19.242188 15.367188 -18.5625 16.078125 -17.6875 C 16.179688 -17.539062 16.234375 -17.421875 16.234375 -17.328125 C 16.234375 -17.234375 16.179688 -17.144531 16.078125 -17.0625 L 14.140625 -15.609375 C 14.066406 -15.554688 13.992188 -15.53125 13.921875 -15.53125 C 13.828125 -15.53125 13.703125 -15.625 13.546875 -15.8125 Z M 13.546875 -15.8125 "/></g></g></g><g fill="#0a0019" fill-opacity="1"><g transform="translate(95.337177, 44.898917)"><g><path d="M 8.140625 0.265625 C 6.742188 0.265625 5.5 -0.046875 4.40625 -0.671875 C 3.320312 -1.296875 2.476562 -2.171875 1.875 -3.296875 C 1.28125 -4.421875 0.984375 -5.703125 0.984375 -7.140625 C 0.984375 -8.609375 1.289062 -9.921875 1.90625 -11.078125 C 2.519531 -12.234375 3.375 -13.128906 4.46875 -13.765625 C 5.5625 -14.398438 6.796875 -14.71875 8.171875 -14.71875 C 9.566406 -14.71875 10.8125 -14.394531 11.90625 -13.75 C 13 -13.101562 13.84375 -12.207031 14.4375 -11.0625 C 15.039062 -9.914062 15.34375 -8.617188 15.34375 -7.171875 C 15.34375 -5.734375 15.035156 -4.453125 14.421875 -3.328125 C 13.816406 -2.203125 12.96875 -1.320312 11.875 -0.6875 C 10.789062 -0.0507812 9.546875 0.265625 8.140625 0.265625 Z M 8.171875 -2.15625 C 9.335938 -2.15625 10.222656 -2.585938 10.828125 -3.453125 C 11.441406 -4.328125 11.75 -5.582031 11.75 -7.21875 C 11.75 -8.875 11.4375 -10.144531 10.8125 -11.03125 C 10.195312 -11.925781 9.316406 -12.375 8.171875 -12.375 C 7.023438 -12.375 6.140625 -11.925781 5.515625 -11.03125 C 4.890625 -10.144531 4.578125 -8.875 4.578125 -7.21875 C 4.578125 -5.582031 4.890625 -4.328125 5.515625 -3.453125 C 6.140625 -2.585938 7.023438 -2.15625 8.171875 -2.15625 Z M 8.171875 -2.15625 "/></g></g></g><g fill="#0a0019" fill-opacity="1"><g transform="translate(111.655811, 44.898917)"><g><path d="M 2.671875 -20.21875 C 5.265625 -20.21875 7.085938 -20.207031 8.140625 -20.1875 C 15.242188 -20.03125 18.796875 -16.695312 18.796875 -10.1875 C 18.796875 -6.9375 17.882812 -4.425781 16.0625 -2.65625 C 14.238281 -0.882812 11.535156 0 7.953125 0 L 2.703125 0 C 2.335938 0 2.15625 -0.191406 2.15625 -0.578125 L 2.15625 -19.734375 C 2.15625 -19.910156 2.191406 -20.035156 2.265625 -20.109375 C 2.335938 -20.179688 2.472656 -20.21875 2.671875 -20.21875 Z M 6.4375 -17.328125 C 6.269531 -17.328125 6.1875 -17.203125 6.1875 -16.953125 L 6.1875 -3.21875 C 6.1875 -3.09375 6.210938 -3.003906 6.265625 -2.953125 C 6.316406 -2.910156 6.410156 -2.890625 6.546875 -2.890625 L 7.21875 -2.890625 C 9.78125 -2.890625 11.644531 -3.453125 12.8125 -4.578125 C 13.988281 -5.703125 14.578125 -7.570312 14.578125 -10.1875 C 14.578125 -11.875 14.335938 -13.222656 13.859375 -14.234375 C 13.390625 -15.242188 12.6875 -15.984375 11.75 -16.453125 C 10.820312 -16.929688 9.601562 -17.207031 8.09375 -17.28125 Z M 6.4375 -17.328125 "/></g></g></g><g fill="#0a0019" fill-opacity="1"><g transform="translate(131.842966, 44.898917)"><g><path d="M 1.359375 0 C 1.128906 0 1.015625 -0.125 1.015625 -0.375 C 1.015625 -0.4375 1.03125 -0.539062 1.0625 -0.6875 L 7.9375 -19.734375 C 8 -19.910156 8.078125 -20.035156 8.171875 -20.109375 C 8.265625 -20.179688 8.398438 -20.21875 8.578125 -20.21875 L 11.984375 -20.21875 C 12.390625 -20.21875 12.644531 -20.035156 12.75 -19.671875 L 19.5625 -0.65625 C 19.601562 -0.539062 19.625 -0.457031 19.625 -0.40625 C 19.625 -0.300781 19.585938 -0.207031 19.515625 -0.125 C 19.453125 -0.0390625 19.367188 0 19.265625 0 L 15.96875 0 C 15.71875 0 15.554688 -0.117188 15.484375 -0.359375 L 13.890625 -4.765625 C 13.859375 -4.859375 13.820312 -4.925781 13.78125 -4.96875 C 13.75 -5.019531 13.679688 -5.046875 13.578125 -5.046875 L 6.453125 -5.046875 C 6.296875 -5.046875 6.1875 -4.960938 6.125 -4.796875 L 4.5 -0.328125 C 4.445312 -0.109375 4.28125 0 4 0 Z M 12.59375 -8.125 C 12.75 -8.125 12.828125 -8.195312 12.828125 -8.34375 C 12.828125 -8.425781 12.820312 -8.5 12.8125 -8.5625 L 10.1875 -15.828125 C 10.132812 -15.953125 10.070312 -16.015625 10 -16.015625 C 9.925781 -16.015625 9.863281 -15.945312 9.8125 -15.8125 L 7.171875 -8.5625 C 7.128906 -8.445312 7.109375 -8.363281 7.109375 -8.3125 C 7.109375 -8.1875 7.203125 -8.125 7.390625 -8.125 Z M 12.59375 -8.125 "/></g></g></g><g fill="#0a0019" fill-opacity="1"><g transform="translate(152.438773, 44.898917)"><g><path d="M 13.546875 -15.8125 C 13.054688 -16.375 12.484375 -16.8125 11.828125 -17.125 C 11.171875 -17.445312 10.332031 -17.609375 9.3125 -17.609375 C 8.113281 -17.609375 7.191406 -17.375 6.546875 -16.90625 C 5.910156 -16.445312 5.59375 -15.816406 5.59375 -15.015625 C 5.59375 -13.910156 6.398438 -13.101562 8.015625 -12.59375 L 12.203125 -11.34375 C 15.347656 -10.394531 16.921875 -8.53125 16.921875 -5.75 C 16.921875 -4.53125 16.601562 -3.46875 15.96875 -2.5625 C 15.332031 -1.65625 14.425781 -0.957031 13.25 -0.46875 C 12.082031 0.0195312 10.695312 0.265625 9.09375 0.265625 C 7.320312 0.265625 5.734375 -0.0351562 4.328125 -0.640625 C 2.929688 -1.242188 1.867188 -2.101562 1.140625 -3.21875 C 1.066406 -3.394531 1.03125 -3.503906 1.03125 -3.546875 C 1.03125 -3.691406 1.125 -3.828125 1.3125 -3.953125 L 3.03125 -5.15625 C 3.226562 -5.257812 3.378906 -5.3125 3.484375 -5.3125 C 3.628906 -5.3125 3.75 -5.25 3.84375 -5.125 C 4.550781 -4.195312 5.265625 -3.539062 5.984375 -3.15625 C 6.703125 -2.78125 7.660156 -2.59375 8.859375 -2.59375 C 10.160156 -2.59375 11.179688 -2.804688 11.921875 -3.234375 C 12.671875 -3.671875 13.046875 -4.335938 13.046875 -5.234375 C 13.046875 -5.816406 12.859375 -6.304688 12.484375 -6.703125 C 12.117188 -7.097656 11.460938 -7.453125 10.515625 -7.765625 L 6.40625 -9.015625 C 4.894531 -9.472656 3.738281 -10.195312 2.9375 -11.1875 C 2.144531 -12.175781 1.75 -13.289062 1.75 -14.53125 C 1.75 -15.6875 2.054688 -16.710938 2.671875 -17.609375 C 3.285156 -18.515625 4.160156 -19.21875 5.296875 -19.71875 C 6.429688 -20.226562 7.742188 -20.484375 9.234375 -20.484375 C 10.671875 -20.484375 11.992188 -20.234375 13.203125 -19.734375 C 14.410156 -19.242188 15.367188 -18.5625 16.078125 -17.6875 C 16.179688 -17.539062 16.234375 -17.421875 16.234375 -17.328125 C 16.234375 -17.234375 16.179688 -17.144531 16.078125 -17.0625 L 14.140625 -15.609375 C 14.066406 -15.554688 13.992188 -15.53125 13.921875 -15.53125 C 13.828125 -15.53125 13.703125 -15.625 13.546875 -15.8125 Z M 13.546875 -15.8125 "/></g></g></g><g fill="#0a0019" fill-opacity="1"><g transform="translate(71.632533, 59.885305)"><g><path d="M 2.703125 0.0625 C 2.273438 0.0625 1.859375 0 1.453125 -0.125 C 1.054688 -0.257812 0.742188 -0.4375 0.515625 -0.65625 C 0.421875 -0.726562 0.375 -0.828125 0.375 -0.953125 C 0.375 -1.035156 0.394531 -1.101562 0.4375 -1.15625 C 0.488281 -1.21875 0.546875 -1.25 0.609375 -1.25 C 0.691406 -1.25 0.773438 -1.21875 0.859375 -1.15625 C 1.398438 -0.738281 2.015625 -0.53125 2.703125 -0.53125 C 3.191406 -0.53125 3.566406 -0.625 3.828125 -0.8125 C 4.097656 -1.007812 4.234375 -1.285156 4.234375 -1.640625 C 4.234375 -1.835938 4.171875 -2 4.046875 -2.125 C 3.921875 -2.25 3.753906 -2.347656 3.546875 -2.421875 C 3.335938 -2.503906 3.054688 -2.582031 2.703125 -2.65625 C 2.234375 -2.769531 1.84375 -2.882812 1.53125 -3 C 1.226562 -3.125 0.984375 -3.300781 0.796875 -3.53125 C 0.609375 -3.757812 0.515625 -4.050781 0.515625 -4.40625 C 0.515625 -4.757812 0.609375 -5.066406 0.796875 -5.328125 C 0.984375 -5.597656 1.242188 -5.804688 1.578125 -5.953125 C 1.921875 -6.109375 2.3125 -6.1875 2.75 -6.1875 C 3.15625 -6.1875 3.53125 -6.125 3.875 -6 C 4.226562 -5.875 4.523438 -5.695312 4.765625 -5.46875 C 4.859375 -5.375 4.90625 -5.269531 4.90625 -5.15625 C 4.90625 -5.070312 4.878906 -5 4.828125 -4.9375 C 4.785156 -4.882812 4.734375 -4.859375 4.671875 -4.859375 C 4.597656 -4.859375 4.507812 -4.890625 4.40625 -4.953125 C 4.125 -5.179688 3.863281 -5.34375 3.625 -5.4375 C 3.382812 -5.53125 3.09375 -5.578125 2.75 -5.578125 C 2.269531 -5.578125 1.894531 -5.476562 1.625 -5.28125 C 1.363281 -5.082031 1.234375 -4.800781 1.234375 -4.4375 C 1.234375 -4.132812 1.347656 -3.90625 1.578125 -3.75 C 1.816406 -3.59375 2.175781 -3.457031 2.65625 -3.34375 C 3.1875 -3.21875 3.601562 -3.097656 3.90625 -2.984375 C 4.207031 -2.878906 4.457031 -2.71875 4.65625 -2.5 C 4.851562 -2.289062 4.953125 -2.007812 4.953125 -1.65625 C 4.953125 -1.3125 4.859375 -1.007812 4.671875 -0.75 C 4.484375 -0.488281 4.21875 -0.285156 3.875 -0.140625 C 3.53125 -0.00390625 3.140625 0.0625 2.703125 0.0625 Z M 2.703125 0.0625 "/></g></g></g><g fill="#0a0019" fill-opacity="1"><g transform="translate(76.978824, 59.885305)"><g><path d="M 2.40625 0.0625 C 2 0.0625 1.644531 -0.0234375 1.34375 -0.203125 C 1.039062 -0.390625 0.804688 -0.644531 0.640625 -0.96875 C 0.484375 -1.300781 0.40625 -1.691406 0.40625 -2.140625 C 0.40625 -2.578125 0.484375 -2.960938 0.640625 -3.296875 C 0.804688 -3.628906 1.039062 -3.882812 1.34375 -4.0625 C 1.644531 -4.238281 2 -4.328125 2.40625 -4.328125 C 2.800781 -4.328125 3.148438 -4.238281 3.453125 -4.0625 C 3.765625 -3.882812 4 -3.628906 4.15625 -3.296875 C 4.320312 -2.960938 4.40625 -2.578125 4.40625 -2.140625 C 4.40625 -1.691406 4.320312 -1.300781 4.15625 -0.96875 C 4 -0.644531 3.765625 -0.390625 3.453125 -0.203125 C 3.148438 -0.0234375 2.800781 0.0625 2.40625 0.0625 Z M 2.40625 -0.515625 C 2.820312 -0.515625 3.140625 -0.648438 3.359375 -0.921875 C 3.578125 -1.203125 3.6875 -1.609375 3.6875 -2.140625 C 3.6875 -2.648438 3.570312 -3.046875 3.34375 -3.328125 C 3.125 -3.609375 2.8125 -3.75 2.40625 -3.75 C 1.988281 -3.75 1.664062 -3.609375 1.4375 -3.328125 C 1.21875 -3.046875 1.109375 -2.648438 1.109375 -2.140625 C 1.109375 -1.617188 1.21875 -1.21875 1.4375 -0.9375 C 1.664062 -0.65625 1.988281 -0.515625 2.40625 -0.515625 Z M 2.40625 -0.515625 "/></g></g></g><g fill="#0a0019" fill-opacity="1"><g transform="translate(81.787884, 59.885305)"><g><path d="M 1 0.046875 C 0.894531 0.046875 0.8125 0.015625 0.75 -0.046875 C 0.6875 -0.109375 0.65625 -0.191406 0.65625 -0.296875 L 0.65625 -5.8125 C 0.65625 -5.914062 0.6875 -6 0.75 -6.0625 C 0.8125 -6.125 0.894531 -6.15625 1 -6.15625 C 1.101562 -6.15625 1.1875 -6.125 1.25 -6.0625 C 1.320312 -6 1.359375 -5.914062 1.359375 -5.8125 L 1.359375 -0.296875 C 1.359375 -0.191406 1.320312 -0.109375 1.25 -0.046875 C 1.1875 0.015625 1.101562 0.046875 1 0.046875 Z M 1 0.046875 "/></g></g></g><g fill="#0a0019" fill-opacity="1"><g transform="translate(83.798157, 59.885305)"><g><path d="M 2.375 -4.328125 C 3.4375 -4.328125 3.96875 -3.769531 3.96875 -2.65625 L 3.96875 -0.296875 C 3.96875 -0.191406 3.9375 -0.109375 3.875 -0.046875 C 3.8125 0.015625 3.726562 0.046875 3.625 0.046875 C 3.519531 0.046875 3.4375 0.015625 3.375 -0.046875 C 3.3125 -0.109375 3.28125 -0.191406 3.28125 -0.296875 L 3.28125 -0.71875 C 3.164062 -0.46875 2.992188 -0.273438 2.765625 -0.140625 C 2.546875 -0.00390625 2.289062 0.0625 2 0.0625 C 1.726562 0.0625 1.476562 0.0078125 1.25 -0.09375 C 1.019531 -0.207031 0.835938 -0.363281 0.703125 -0.5625 C 0.566406 -0.757812 0.5 -0.976562 0.5 -1.21875 C 0.5 -1.53125 0.578125 -1.773438 0.734375 -1.953125 C 0.898438 -2.128906 1.164062 -2.253906 1.53125 -2.328125 C 1.90625 -2.410156 2.425781 -2.453125 3.09375 -2.453125 L 3.28125 -2.453125 L 3.28125 -2.734375 C 3.28125 -3.085938 3.207031 -3.34375 3.0625 -3.5 C 2.925781 -3.664062 2.695312 -3.75 2.375 -3.75 C 1.976562 -3.75 1.578125 -3.640625 1.171875 -3.421875 C 1.015625 -3.328125 0.90625 -3.28125 0.84375 -3.28125 C 0.78125 -3.28125 0.722656 -3.304688 0.671875 -3.359375 C 0.628906 -3.410156 0.609375 -3.476562 0.609375 -3.5625 C 0.609375 -3.632812 0.628906 -3.703125 0.671875 -3.765625 C 0.722656 -3.828125 0.804688 -3.890625 0.921875 -3.953125 C 1.117188 -4.066406 1.347656 -4.15625 1.609375 -4.21875 C 1.867188 -4.289062 2.125 -4.328125 2.375 -4.328125 Z M 2.09375 -0.5 C 2.4375 -0.5 2.71875 -0.613281 2.9375 -0.84375 C 3.164062 -1.082031 3.28125 -1.382812 3.28125 -1.75 L 3.28125 -2 L 3.125 -2 C 2.613281 -2 2.222656 -1.976562 1.953125 -1.9375 C 1.691406 -1.894531 1.503906 -1.820312 1.390625 -1.71875 C 1.273438 -1.613281 1.21875 -1.46875 1.21875 -1.28125 C 1.21875 -1.050781 1.300781 -0.863281 1.46875 -0.71875 C 1.632812 -0.570312 1.84375 -0.5 2.09375 -0.5 Z M 2.09375 -0.5 "/></g></g></g><g fill="#0a0019" fill-opacity="1"><g transform="translate(88.390596, 59.885305)"><g><path d="M 2.78125 -4.328125 C 3.789062 -4.328125 4.296875 -3.769531 4.296875 -2.65625 L 4.296875 -0.296875 C 4.296875 -0.191406 4.265625 -0.109375 4.203125 -0.046875 C 4.140625 0.015625 4.054688 0.046875 3.953125 0.046875 C 3.835938 0.046875 3.75 0.015625 3.6875 -0.046875 C 3.625 -0.109375 3.59375 -0.191406 3.59375 -0.296875 L 3.59375 -2.609375 C 3.59375 -3.003906 3.515625 -3.289062 3.359375 -3.46875 C 3.203125 -3.644531 2.957031 -3.734375 2.625 -3.734375 C 2.238281 -3.734375 1.929688 -3.613281 1.703125 -3.375 C 1.472656 -3.144531 1.359375 -2.828125 1.359375 -2.421875 L 1.359375 -0.296875 C 1.359375 -0.191406 1.328125 -0.109375 1.265625 -0.046875 C 1.203125 0.015625 1.113281 0.046875 1 0.046875 C 0.894531 0.046875 0.8125 0.015625 0.75 -0.046875 C 0.6875 -0.109375 0.65625 -0.191406 0.65625 -0.296875 L 0.65625 -3.96875 C 0.65625 -4.070312 0.6875 -4.15625 0.75 -4.21875 C 0.8125 -4.28125 0.894531 -4.3125 1 -4.3125 C 1.101562 -4.3125 1.1875 -4.28125 1.25 -4.21875 C 1.3125 -4.15625 1.34375 -4.070312 1.34375 -3.96875 L 1.34375 -3.53125 C 1.476562 -3.789062 1.671875 -3.988281 1.921875 -4.125 C 2.171875 -4.257812 2.457031 -4.328125 2.78125 -4.328125 Z M 2.78125 -4.328125 "/></g></g></g><g fill="#0a0019" fill-opacity="1"><g transform="translate(93.312305, 59.885305)"><g><path d="M 2.375 -4.328125 C 3.4375 -4.328125 3.96875 -3.769531 3.96875 -2.65625 L 3.96875 -0.296875 C 3.96875 -0.191406 3.9375 -0.109375 3.875 -0.046875 C 3.8125 0.015625 3.726562 0.046875 3.625 0.046875 C 3.519531 0.046875 3.4375 0.015625 3.375 -0.046875 C 3.3125 -0.109375 3.28125 -0.191406 3.28125 -0.296875 L 3.28125 -0.71875 C 3.164062 -0.46875 2.992188 -0.273438 2.765625 -0.140625 C 2.546875 -0.00390625 2.289062 0.0625 2 0.0625 C 1.726562 0.0625 1.476562 0.0078125 1.25 -0.09375 C 1.019531 -0.207031 0.835938 -0.363281 0.703125 -0.5625 C 0.566406 -0.757812 0.5 -0.976562 0.5 -1.21875 C 0.5 -1.53125 0.578125 -1.773438 0.734375 -1.953125 C 0.898438 -2.128906 1.164062 -2.253906 1.53125 -2.328125 C 1.90625 -2.410156 2.425781 -2.453125 3.09375 -2.453125 L 3.28125 -2.453125 L 3.28125 -2.734375 C 3.28125 -3.085938 3.207031 -3.34375 3.0625 -3.5 C 2.925781 -3.664062 2.695312 -3.75 2.375 -3.75 C 1.976562 -3.75 1.578125 -3.640625 1.171875 -3.421875 C 1.015625 -3.328125 0.90625 -3.28125 0.84375 -3.28125 C 0.78125 -3.28125 0.722656 -3.304688 0.671875 -3.359375 C 0.628906 -3.410156 0.609375 -3.476562 0.609375 -3.5625 C 0.609375 -3.632812 0.628906 -3.703125 0.671875 -3.765625 C 0.722656 -3.828125 0.804688 -3.890625 0.921875 -3.953125 C 1.117188 -4.066406 1.347656 -4.15625 1.609375 -4.21875 C 1.867188 -4.289062 2.125 -4.328125 2.375 -4.328125 Z M 2.09375 -0.5 C 2.4375 -0.5 2.71875 -0.613281 2.9375 -0.84375 C 3.164062 -1.082031 3.28125 -1.382812 3.28125 -1.75 L 3.28125 -2 L 3.125 -2 C 2.613281 -2 2.222656 -1.976562 1.953125 -1.9375 C 1.691406 -1.894531 1.503906 -1.820312 1.390625 -1.71875 C 1.273438 -1.613281 1.21875 -1.46875 1.21875 -1.28125 C 1.21875 -1.050781 1.300781 -0.863281 1.46875 -0.71875 C 1.632812 -0.570312 1.84375 -0.5 2.09375 -0.5 Z M 2.09375 -0.5 "/></g></g></g><g fill="#0a0019" fill-opacity="1"><g transform="translate(97.904744, 59.885305)"><g/></g></g><g fill="#0a0019" fill-opacity="1"><g transform="translate(100.140306, 59.885305)"><g><path d="M 1.125 0 C 1.007812 0 0.914062 -0.03125 0.84375 -0.09375 C 0.78125 -0.15625 0.75 -0.238281 0.75 -0.34375 L 0.75 -5.765625 C 0.75 -5.867188 0.78125 -5.953125 0.84375 -6.015625 C 0.914062 -6.078125 1.007812 -6.109375 1.125 -6.109375 L 2.8125 -6.109375 C 3.789062 -6.109375 4.546875 -5.84375 5.078125 -5.3125 C 5.609375 -4.789062 5.875 -4.039062 5.875 -3.0625 C 5.875 -2.082031 5.601562 -1.328125 5.0625 -0.796875 C 4.53125 -0.265625 3.78125 0 2.8125 0 Z M 2.765625 -0.609375 C 4.347656 -0.609375 5.140625 -1.425781 5.140625 -3.0625 C 5.140625 -4.6875 4.347656 -5.5 2.765625 -5.5 L 1.46875 -5.5 L 1.46875 -0.609375 Z M 2.765625 -0.609375 "/></g></g></g><g fill="#0a0019" fill-opacity="1"><g transform="translate(106.543724, 59.885305)"><g><path d="M 3.921875 -0.984375 C 3.984375 -0.984375 4.035156 -0.957031 4.078125 -0.90625 C 4.128906 -0.851562 4.15625 -0.785156 4.15625 -0.703125 C 4.15625 -0.554688 4.050781 -0.421875 3.84375 -0.296875 C 3.632812 -0.179688 3.414062 -0.09375 3.1875 -0.03125 C 2.957031 0.03125 2.734375 0.0625 2.515625 0.0625 C 1.859375 0.0625 1.34375 -0.128906 0.96875 -0.515625 C 0.59375 -0.898438 0.40625 -1.4375 0.40625 -2.125 C 0.40625 -2.5625 0.488281 -2.941406 0.65625 -3.265625 C 0.820312 -3.597656 1.054688 -3.859375 1.359375 -4.046875 C 1.660156 -4.234375 2.003906 -4.328125 2.390625 -4.328125 C 2.941406 -4.328125 3.378906 -4.144531 3.703125 -3.78125 C 4.023438 -3.425781 4.1875 -2.941406 4.1875 -2.328125 C 4.1875 -2.210938 4.160156 -2.128906 4.109375 -2.078125 C 4.066406 -2.023438 3.992188 -2 3.890625 -2 L 1.09375 -2 C 1.144531 -1.007812 1.617188 -0.515625 2.515625 -0.515625 C 2.742188 -0.515625 2.9375 -0.539062 3.09375 -0.59375 C 3.257812 -0.65625 3.429688 -0.738281 3.609375 -0.84375 C 3.765625 -0.9375 3.867188 -0.984375 3.921875 -0.984375 Z M 2.40625 -3.78125 C 2.03125 -3.78125 1.726562 -3.664062 1.5 -3.4375 C 1.28125 -3.207031 1.15625 -2.878906 1.125 -2.453125 L 3.578125 -2.453125 C 3.566406 -2.878906 3.457031 -3.207031 3.25 -3.4375 C 3.050781 -3.664062 2.769531 -3.78125 2.40625 -3.78125 Z M 2.40625 -3.78125 "/></g></g></g><g fill="#0a0019" fill-opacity="1"><g transform="translate(111.110167, 59.885305)"><g><path d="M 1.109375 0.046875 C 0.992188 0.046875 0.90625 0.015625 0.84375 -0.046875 C 0.78125 -0.117188 0.75 -0.210938 0.75 -0.328125 L 0.75 -5.765625 C 0.75 -5.867188 0.78125 -5.953125 0.84375 -6.015625 C 0.914062 -6.078125 1.007812 -6.109375 1.125 -6.109375 L 4.28125 -6.109375 C 4.382812 -6.109375 4.460938 -6.082031 4.515625 -6.03125 C 4.578125 -5.976562 4.609375 -5.90625 4.609375 -5.8125 C 4.609375 -5.71875 4.578125 -5.644531 4.515625 -5.59375 C 4.460938 -5.539062 4.382812 -5.515625 4.28125 -5.515625 L 1.453125 -5.515625 L 1.453125 -3.40625 L 4.109375 -3.40625 C 4.210938 -3.40625 4.289062 -3.378906 4.34375 -3.328125 C 4.40625 -3.273438 4.4375 -3.203125 4.4375 -3.109375 C 4.4375 -3.015625 4.40625 -2.941406 4.34375 -2.890625 C 4.289062 -2.835938 4.210938 -2.8125 4.109375 -2.8125 L 1.453125 -2.8125 L 1.453125 -0.328125 C 1.453125 -0.210938 1.421875 -0.117188 1.359375 -0.046875 C 1.304688 0.015625 1.222656 0.046875 1.109375 0.046875 Z M 1.109375 0.046875 "/></g></g></g><g fill="#0a0019" fill-opacity="1"><g transform="translate(115.936563, 59.885305)"><g><path d="M 1 0.046875 C 0.894531 0.046875 0.8125 0.015625 0.75 -0.046875 C 0.6875 -0.109375 0.65625 -0.191406 0.65625 -0.296875 L 0.65625 -3.96875 C 0.65625 -4.070312 0.6875 -4.15625 0.75 -4.21875 C 0.8125 -4.28125 0.894531 -4.3125 1 -4.3125 C 1.101562 -4.3125 1.1875 -4.28125 1.25 -4.21875 C 1.320312 -4.15625 1.359375 -4.070312 1.359375 -3.96875 L 1.359375 -0.296875 C 1.359375 -0.179688 1.320312 -0.09375 1.25 -0.03125 C 1.1875 0.0195312 1.101562 0.046875 1 0.046875 Z M 1.015625 -5.21875 C 0.867188 -5.21875 0.753906 -5.257812 0.671875 -5.34375 C 0.585938 -5.425781 0.546875 -5.53125 0.546875 -5.65625 C 0.546875 -5.789062 0.585938 -5.894531 0.671875 -5.96875 C 0.753906 -6.050781 0.867188 -6.09375 1.015625 -6.09375 C 1.148438 -6.09375 1.257812 -6.050781 1.34375 -5.96875 C 1.4375 -5.894531 1.484375 -5.789062 1.484375 -5.65625 C 1.484375 -5.53125 1.4375 -5.425781 1.34375 -5.34375 C 1.257812 -5.257812 1.148438 -5.21875 1.015625 -5.21875 Z M 1.015625 -5.21875 "/></g></g></g><g fill="#0a0019" fill-opacity="1"><g transform="translate(117.946836, 59.885305)"><g/></g></g><g fill="#0a0019" fill-opacity="1"><g transform="translate(120.182397, 59.885305)"><g><path d="M 6.015625 -0.40625 C 6.035156 -0.363281 6.046875 -0.316406 6.046875 -0.265625 C 6.046875 -0.171875 6.015625 -0.09375 5.953125 -0.03125 C 5.890625 0.0195312 5.8125 0.046875 5.71875 0.046875 C 5.570312 0.046875 5.46875 -0.0234375 5.40625 -0.171875 L 4.796875 -1.5625 L 1.53125 -1.5625 L 0.90625 -0.171875 C 0.84375 -0.0234375 0.738281 0.046875 0.59375 0.046875 C 0.5 0.046875 0.414062 0.015625 0.34375 -0.046875 C 0.28125 -0.109375 0.25 -0.179688 0.25 -0.265625 C 0.25 -0.316406 0.257812 -0.363281 0.28125 -0.40625 L 2.765625 -5.921875 C 2.796875 -6.003906 2.847656 -6.066406 2.921875 -6.109375 C 2.992188 -6.148438 3.066406 -6.171875 3.140625 -6.171875 C 3.234375 -6.171875 3.3125 -6.144531 3.375 -6.09375 C 3.445312 -6.050781 3.5 -5.992188 3.53125 -5.921875 Z M 1.78125 -2.15625 L 4.53125 -2.15625 L 3.15625 -5.265625 Z M 1.78125 -2.15625 "/></g></g></g><g fill="#0a0019" fill-opacity="1"><g transform="translate(126.481835, 59.885305)"><g><path d="M 4.078125 -4.3125 C 4.179688 -4.3125 4.265625 -4.28125 4.328125 -4.21875 C 4.398438 -4.15625 4.4375 -4.070312 4.4375 -3.96875 L 4.4375 -0.28125 C 4.4375 0.34375 4.269531 0.816406 3.9375 1.140625 C 3.613281 1.460938 3.132812 1.625 2.5 1.625 C 1.882812 1.625 1.375 1.5 0.96875 1.25 C 0.757812 1.132812 0.65625 1.003906 0.65625 0.859375 C 0.65625 0.773438 0.675781 0.707031 0.71875 0.65625 C 0.757812 0.601562 0.816406 0.578125 0.890625 0.578125 C 0.941406 0.578125 1.046875 0.617188 1.203125 0.703125 C 1.398438 0.804688 1.597656 0.890625 1.796875 0.953125 C 1.992188 1.015625 2.226562 1.046875 2.5 1.046875 C 2.90625 1.046875 3.210938 0.9375 3.421875 0.71875 C 3.628906 0.507812 3.734375 0.195312 3.734375 -0.21875 L 3.734375 -0.96875 C 3.617188 -0.695312 3.429688 -0.488281 3.171875 -0.34375 C 2.921875 -0.195312 2.628906 -0.125 2.296875 -0.125 C 1.921875 -0.125 1.585938 -0.210938 1.296875 -0.390625 C 1.015625 -0.566406 0.796875 -0.8125 0.640625 -1.125 C 0.484375 -1.445312 0.40625 -1.816406 0.40625 -2.234375 C 0.40625 -2.648438 0.484375 -3.015625 0.640625 -3.328125 C 0.796875 -3.648438 1.015625 -3.894531 1.296875 -4.0625 C 1.585938 -4.238281 1.921875 -4.328125 2.296875 -4.328125 C 2.628906 -4.328125 2.914062 -4.253906 3.15625 -4.109375 C 3.40625 -3.960938 3.597656 -3.757812 3.734375 -3.5 L 3.734375 -3.96875 C 3.734375 -4.070312 3.757812 -4.15625 3.8125 -4.21875 C 3.875 -4.28125 3.960938 -4.3125 4.078125 -4.3125 Z M 2.421875 -0.71875 C 2.828125 -0.71875 3.144531 -0.847656 3.375 -1.109375 C 3.613281 -1.378906 3.734375 -1.753906 3.734375 -2.234375 C 3.734375 -2.703125 3.617188 -3.066406 3.390625 -3.328125 C 3.160156 -3.597656 2.835938 -3.734375 2.421875 -3.734375 C 2.015625 -3.734375 1.691406 -3.597656 1.453125 -3.328125 C 1.222656 -3.066406 1.109375 -2.703125 1.109375 -2.234375 C 1.109375 -1.753906 1.222656 -1.378906 1.453125 -1.109375 C 1.691406 -0.847656 2.015625 -0.71875 2.421875 -0.71875 Z M 2.421875 -0.71875 "/></g></g></g><g fill="#0a0019" fill-opacity="1"><g transform="translate(131.559514, 59.885305)"><g><path d="M 3.921875 -0.984375 C 3.984375 -0.984375 4.035156 -0.957031 4.078125 -0.90625 C 4.128906 -0.851562 4.15625 -0.785156 4.15625 -0.703125 C 4.15625 -0.554688 4.050781 -0.421875 3.84375 -0.296875 C 3.632812 -0.179688 3.414062 -0.09375 3.1875 -0.03125 C 2.957031 0.03125 2.734375 0.0625 2.515625 0.0625 C 1.859375 0.0625 1.34375 -0.128906 0.96875 -0.515625 C 0.59375 -0.898438 0.40625 -1.4375 0.40625 -2.125 C 0.40625 -2.5625 0.488281 -2.941406 0.65625 -3.265625 C 0.820312 -3.597656 1.054688 -3.859375 1.359375 -4.046875 C 1.660156 -4.234375 2.003906 -4.328125 2.390625 -4.328125 C 2.941406 -4.328125 3.378906 -4.144531 3.703125 -3.78125 C 4.023438 -3.425781 4.1875 -2.941406 4.1875 -2.328125 C 4.1875 -2.210938 4.160156 -2.128906 4.109375 -2.078125 C 4.066406 -2.023438 3.992188 -2 3.890625 -2 L 1.09375 -2 C 1.144531 -1.007812 1.617188 -0.515625 2.515625 -0.515625 C 2.742188 -0.515625 2.9375 -0.539062 3.09375 -0.59375 C 3.257812 -0.65625 3.429688 -0.738281 3.609375 -0.84375 C 3.765625 -0.9375 3.867188 -0.984375 3.921875 -0.984375 Z M 2.40625 -3.78125 C 2.03125 -3.78125 1.726562 -3.664062 1.5 -3.4375 C 1.28125 -3.207031 1.15625 -2.878906 1.125 -2.453125 L 3.578125 -2.453125 C 3.566406 -2.878906 3.457031 -3.207031 3.25 -3.4375 C 3.050781 -3.664062 2.769531 -3.78125 2.40625 -3.78125 Z M 2.40625 -3.78125 "/></g></g></g><g fill="#0a0019" fill-opacity="1"><g transform="translate(136.125958, 59.885305)"><g><path d="M 2.78125 -4.328125 C 3.789062 -4.328125 4.296875 -3.769531 4.296875 -2.65625 L 4.296875 -0.296875 C 4.296875 -0.191406 4.265625 -0.109375 4.203125 -0.046875 C 4.140625 0.015625 4.054688 0.046875 3.953125 0.046875 C 3.835938 0.046875 3.75 0.015625 3.6875 -0.046875 C 3.625 -0.109375 3.59375 -0.191406 3.59375 -0.296875 L 3.59375 -2.609375 C 3.59375 -3.003906 3.515625 -3.289062 3.359375 -3.46875 C 3.203125 -3.644531 2.957031 -3.734375 2.625 -3.734375 C 2.238281 -3.734375 1.929688 -3.613281 1.703125 -3.375 C 1.472656 -3.144531 1.359375 -2.828125 1.359375 -2.421875 L 1.359375 -0.296875 C 1.359375 -0.191406 1.328125 -0.109375 1.265625 -0.046875 C 1.203125 0.015625 1.113281 0.046875 1 0.046875 C 0.894531 0.046875 0.8125 0.015625 0.75 -0.046875 C 0.6875 -0.109375 0.65625 -0.191406 0.65625 -0.296875 L 0.65625 -3.96875 C 0.65625 -4.070312 0.6875 -4.15625 0.75 -4.21875 C 0.8125 -4.28125 0.894531 -4.3125 1 -4.3125 C 1.101562 -4.3125 1.1875 -4.28125 1.25 -4.21875 C 1.3125 -4.15625 1.34375 -4.070312 1.34375 -3.96875 L 1.34375 -3.53125 C 1.476562 -3.789062 1.671875 -3.988281 1.921875 -4.125 C 2.171875 -4.257812 2.457031 -4.328125 2.78125 -4.328125 Z M 2.78125 -4.328125 "/></g></g></g><g fill="#0a0019" fill-opacity="1"><g transform="translate(141.047667, 59.885305)"><g><path d="M 2.59375 -0.515625 C 2.800781 -0.492188 2.90625 -0.398438 2.90625 -0.234375 C 2.90625 -0.140625 2.867188 -0.0664062 2.796875 -0.015625 C 2.722656 0.0351562 2.613281 0.0546875 2.46875 0.046875 L 2.234375 0.03125 C 1.773438 -0.0078125 1.4375 -0.148438 1.21875 -0.390625 C 1 -0.628906 0.890625 -0.992188 0.890625 -1.484375 L 0.890625 -3.671875 L 0.296875 -3.671875 C 0.203125 -3.671875 0.125 -3.691406 0.0625 -3.734375 C 0.0078125 -3.785156 -0.015625 -3.851562 -0.015625 -3.9375 C -0.015625 -4.019531 0.0078125 -4.085938 0.0625 -4.140625 C 0.125 -4.191406 0.203125 -4.21875 0.296875 -4.21875 L 0.890625 -4.21875 L 0.890625 -5.203125 C 0.890625 -5.316406 0.921875 -5.398438 0.984375 -5.453125 C 1.046875 -5.515625 1.128906 -5.546875 1.234375 -5.546875 C 1.335938 -5.546875 1.421875 -5.515625 1.484375 -5.453125 C 1.554688 -5.398438 1.59375 -5.316406 1.59375 -5.203125 L 1.59375 -4.21875 L 2.546875 -4.21875 C 2.640625 -4.21875 2.710938 -4.191406 2.765625 -4.140625 C 2.828125 -4.085938 2.859375 -4.019531 2.859375 -3.9375 C 2.859375 -3.851562 2.828125 -3.785156 2.765625 -3.734375 C 2.710938 -3.691406 2.640625 -3.671875 2.546875 -3.671875 L 1.59375 -3.671875 L 1.59375 -1.453125 C 1.59375 -1.140625 1.65625 -0.910156 1.78125 -0.765625 C 1.914062 -0.628906 2.113281 -0.550781 2.375 -0.53125 Z M 2.59375 -0.515625 "/></g></g></g><g fill="#0a0019" fill-opacity="1"><g transform="translate(143.993758, 59.885305)"><g/></g></g><g fill="#0a0019" fill-opacity="1"><g transform="translate(146.22932, 59.885305)"><g><path d="M 2.703125 0.0625 C 2.273438 0.0625 1.859375 0 1.453125 -0.125 C 1.054688 -0.257812 0.742188 -0.4375 0.515625 -0.65625 C 0.421875 -0.726562 0.375 -0.828125 0.375 -0.953125 C 0.375 -1.035156 0.394531 -1.101562 0.4375 -1.15625 C 0.488281 -1.21875 0.546875 -1.25 0.609375 -1.25 C 0.691406 -1.25 0.773438 -1.21875 0.859375 -1.15625 C 1.398438 -0.738281 2.015625 -0.53125 2.703125 -0.53125 C 3.191406 -0.53125 3.566406 -0.625 3.828125 -0.8125 C 4.097656 -1.007812 4.234375 -1.285156 4.234375 -1.640625 C 4.234375 -1.835938 4.171875 -2 4.046875 -2.125 C 3.921875 -2.25 3.753906 -2.347656 3.546875 -2.421875 C 3.335938 -2.503906 3.054688 -2.582031 2.703125 -2.65625 C 2.234375 -2.769531 1.84375 -2.882812 1.53125 -3 C 1.226562 -3.125 0.984375 -3.300781 0.796875 -3.53125 C 0.609375 -3.757812 0.515625 -4.050781 0.515625 -4.40625 C 0.515625 -4.757812 0.609375 -5.066406 0.796875 -5.328125 C 0.984375 -5.597656 1.242188 -5.804688 1.578125 -5.953125 C 1.921875 -6.109375 2.3125 -6.1875 2.75 -6.1875 C 3.15625 -6.1875 3.53125 -6.125 3.875 -6 C 4.226562 -5.875 4.523438 -5.695312 4.765625 -5.46875 C 4.859375 -5.375 4.90625 -5.269531 4.90625 -5.15625 C 4.90625 -5.070312 4.878906 -5 4.828125 -4.9375 C 4.785156 -4.882812 4.734375 -4.859375 4.671875 -4.859375 C 4.597656 -4.859375 4.507812 -4.890625 4.40625 -4.953125 C 4.125 -5.179688 3.863281 -5.34375 3.625 -5.4375 C 3.382812 -5.53125 3.09375 -5.578125 2.75 -5.578125 C 2.269531 -5.578125 1.894531 -5.476562 1.625 -5.28125 C 1.363281 -5.082031 1.234375 -4.800781 1.234375 -4.4375 C 1.234375 -4.132812 1.347656 -3.90625 1.578125 -3.75 C 1.816406 -3.59375 2.175781 -3.457031 2.65625 -3.34375 C 3.1875 -3.21875 3.601562 -3.097656 3.90625 -2.984375 C 4.207031 -2.878906 4.457031 -2.71875 4.65625 -2.5 C 4.851562 -2.289062 4.953125 -2.007812 4.953125 -1.65625 C 4.953125 -1.3125 4.859375 -1.007812 4.671875 -0.75 C 4.484375 -0.488281 4.21875 -0.285156 3.875 -0.140625 C 3.53125 -0.00390625 3.140625 0.0625 2.703125 0.0625 Z M 2.703125 0.0625 "/></g></g></g><g fill="#0a0019" fill-opacity="1"><g transform="translate(151.575611, 59.885305)"><g><path d="M 6.421875 -4.078125 C 6.484375 -4.222656 6.582031 -4.296875 6.71875 -4.296875 C 6.800781 -4.296875 6.875 -4.265625 6.9375 -4.203125 C 7.007812 -4.148438 7.046875 -4.078125 7.046875 -3.984375 C 7.046875 -3.941406 7.039062 -3.898438 7.03125 -3.859375 L 5.578125 -0.21875 C 5.546875 -0.144531 5.492188 -0.0820312 5.421875 -0.03125 C 5.359375 0.0078125 5.289062 0.03125 5.21875 0.03125 C 5.132812 0.03125 5.0625 0.0078125 5 -0.03125 C 4.9375 -0.0820312 4.882812 -0.144531 4.84375 -0.21875 L 3.65625 -3.265625 L 2.46875 -0.21875 C 2.4375 -0.144531 2.382812 -0.0820312 2.3125 -0.03125 C 2.25 0.0078125 2.175781 0.03125 2.09375 0.03125 C 2.019531 0.03125 1.945312 0.0078125 1.875 -0.03125 C 1.800781 -0.0820312 1.75 -0.144531 1.71875 -0.21875 L 0.28125 -3.84375 C 0.257812 -3.894531 0.25 -3.9375 0.25 -3.96875 C 0.25 -4.0625 0.285156 -4.140625 0.359375 -4.203125 C 0.441406 -4.265625 0.53125 -4.296875 0.625 -4.296875 C 0.757812 -4.296875 0.859375 -4.226562 0.921875 -4.09375 L 2.109375 -0.890625 L 3.328125 -4.0625 C 3.359375 -4.144531 3.40625 -4.203125 3.46875 -4.234375 C 3.53125 -4.273438 3.597656 -4.296875 3.671875 -4.296875 C 3.742188 -4.296875 3.8125 -4.273438 3.875 -4.234375 C 3.9375 -4.203125 3.976562 -4.144531 4 -4.0625 L 5.234375 -0.90625 Z M 6.421875 -4.078125 "/></g></g></g><g fill="#0a0019" fill-opacity="1"><g transform="translate(158.871524, 59.885305)"><g><path d="M 2.375 -4.328125 C 3.4375 -4.328125 3.96875 -3.769531 3.96875 -2.65625 L 3.96875 -0.296875 C 3.96875 -0.191406 3.9375 -0.109375 3.875 -0.046875 C 3.8125 0.015625 3.726562 0.046875 3.625 0.046875 C 3.519531 0.046875 3.4375 0.015625 3.375 -0.046875 C 3.3125 -0.109375 3.28125 -0.191406 3.28125 -0.296875 L 3.28125 -0.71875 C 3.164062 -0.46875 2.992188 -0.273438 2.765625 -0.140625 C 2.546875 -0.00390625 2.289062 0.0625 2 0.0625 C 1.726562 0.0625 1.476562 0.0078125 1.25 -0.09375 C 1.019531 -0.207031 0.835938 -0.363281 0.703125 -0.5625 C 0.566406 -0.757812 0.5 -0.976562 0.5 -1.21875 C 0.5 -1.53125 0.578125 -1.773438 0.734375 -1.953125 C 0.898438 -2.128906 1.164062 -2.253906 1.53125 -2.328125 C 1.90625 -2.410156 2.425781 -2.453125 3.09375 -2.453125 L 3.28125 -2.453125 L 3.28125 -2.734375 C 3.28125 -3.085938 3.207031 -3.34375 3.0625 -3.5 C 2.925781 -3.664062 2.695312 -3.75 2.375 -3.75 C 1.976562 -3.75 1.578125 -3.640625 1.171875 -3.421875 C 1.015625 -3.328125 0.90625 -3.28125 0.84375 -3.28125 C 0.78125 -3.28125 0.722656 -3.304688 0.671875 -3.359375 C 0.628906 -3.410156 0.609375 -3.476562 0.609375 -3.5625 C 0.609375 -3.632812 0.628906 -3.703125 0.671875 -3.765625 C 0.722656 -3.828125 0.804688 -3.890625 0.921875 -3.953125 C 1.117188 -4.066406 1.347656 -4.15625 1.609375 -4.21875 C 1.867188 -4.289062 2.125 -4.328125 2.375 -4.328125 Z M 2.09375 -0.5 C 2.4375 -0.5 2.71875 -0.613281 2.9375 -0.84375 C 3.164062 -1.082031 3.28125 -1.382812 3.28125 -1.75 L 3.28125 -2 L 3.125 -2 C 2.613281 -2 2.222656 -1.976562 1.953125 -1.9375 C 1.691406 -1.894531 1.503906 -1.820312 1.390625 -1.71875 C 1.273438 -1.613281 1.21875 -1.46875 1.21875 -1.28125 C 1.21875 -1.050781 1.300781 -0.863281 1.46875 -0.71875 C 1.632812 -0.570312 1.84375 -0.5 2.09375 -0.5 Z M 2.09375 -0.5 "/></g></g></g><g fill="#0a0019" fill-opacity="1"><g transform="translate(163.463963, 59.885305)"><g><path d="M 2.734375 -4.3125 C 2.984375 -4.320312 3.109375 -4.222656 3.109375 -4.015625 C 3.109375 -3.921875 3.082031 -3.847656 3.03125 -3.796875 C 2.976562 -3.742188 2.882812 -3.707031 2.75 -3.6875 L 2.5 -3.671875 C 2.113281 -3.628906 1.828125 -3.488281 1.640625 -3.25 C 1.453125 -3.007812 1.359375 -2.726562 1.359375 -2.40625 L 1.359375 -0.296875 C 1.359375 -0.179688 1.320312 -0.09375 1.25 -0.03125 C 1.1875 0.0195312 1.101562 0.046875 1 0.046875 C 0.894531 0.046875 0.8125 0.015625 0.75 -0.046875 C 0.6875 -0.109375 0.65625 -0.191406 0.65625 -0.296875 L 0.65625 -3.96875 C 0.65625 -4.070312 0.6875 -4.15625 0.75 -4.21875 C 0.820312 -4.28125 0.90625 -4.3125 1 -4.3125 C 1.09375 -4.3125 1.171875 -4.28125 1.234375 -4.21875 C 1.296875 -4.15625 1.328125 -4.070312 1.328125 -3.96875 L 1.328125 -3.484375 C 1.453125 -3.742188 1.625 -3.9375 1.84375 -4.0625 C 2.070312 -4.195312 2.332031 -4.273438 2.625 -4.296875 Z M 2.734375 -4.3125 "/></g></g></g><g fill="#0a0019" fill-opacity="1"><g transform="translate(166.522703, 59.885305)"><g><path d="M 5.34375 -4.328125 C 6.28125 -4.328125 6.75 -3.769531 6.75 -2.65625 L 6.75 -0.296875 C 6.75 -0.191406 6.71875 -0.109375 6.65625 -0.046875 C 6.59375 0.015625 6.507812 0.046875 6.40625 0.046875 C 6.300781 0.046875 6.210938 0.015625 6.140625 -0.046875 C 6.078125 -0.109375 6.046875 -0.191406 6.046875 -0.296875 L 6.046875 -2.640625 C 6.046875 -3.023438 5.976562 -3.300781 5.84375 -3.46875 C 5.707031 -3.644531 5.488281 -3.734375 5.1875 -3.734375 C 4.84375 -3.734375 4.566406 -3.613281 4.359375 -3.375 C 4.160156 -3.144531 4.0625 -2.828125 4.0625 -2.421875 L 4.0625 -0.296875 C 4.0625 -0.191406 4.023438 -0.109375 3.953125 -0.046875 C 3.890625 0.015625 3.804688 0.046875 3.703125 0.046875 C 3.597656 0.046875 3.515625 0.015625 3.453125 -0.046875 C 3.390625 -0.109375 3.359375 -0.191406 3.359375 -0.296875 L 3.359375 -2.640625 C 3.359375 -3.023438 3.285156 -3.300781 3.140625 -3.46875 C 3.003906 -3.644531 2.785156 -3.734375 2.484375 -3.734375 C 2.140625 -3.734375 1.863281 -3.613281 1.65625 -3.375 C 1.457031 -3.144531 1.359375 -2.828125 1.359375 -2.421875 L 1.359375 -0.296875 C 1.359375 -0.191406 1.320312 -0.109375 1.25 -0.046875 C 1.1875 0.015625 1.101562 0.046875 1 0.046875 C 0.894531 0.046875 0.8125 0.015625 0.75 -0.046875 C 0.6875 -0.109375 0.65625 -0.191406 0.65625 -0.296875 L 0.65625 -3.96875 C 0.65625 -4.070312 0.6875 -4.15625 0.75 -4.21875 C 0.8125 -4.28125 0.894531 -4.3125 1 -4.3125 C 1.101562 -4.3125 1.1875 -4.28125 1.25 -4.21875 C 1.3125 -4.15625 1.34375 -4.070312 1.34375 -3.96875 L 1.34375 -3.5625 C 1.46875 -3.800781 1.644531 -3.988281 1.875 -4.125 C 2.101562 -4.257812 2.363281 -4.328125 2.65625 -4.328125 C 3.3125 -4.328125 3.742188 -4.050781 3.953125 -3.5 C 4.066406 -3.75 4.25 -3.945312 4.5 -4.09375 C 4.75 -4.25 5.03125 -4.328125 5.34375 -4.328125 Z M 5.34375 -4.328125 "/></g></g></g><g fill="#0a0019" fill-opacity="1"><g transform="translate(173.906814, 59.885305)"><g/></g></g></svg>