<svg xmlns="http://www.w3.org/2000/svg" xmlns:xlink="http://www.w3.org/1999/xlink" width="250" zoomAndPan="magnify" viewBox="0 0 187.5 74.999997" height="100" preserveAspectRatio="xMidYMid meet" version="1.0"><defs><g/><clipPath id="4ef62dfb92"><path d="M 3 7.582031 L 67.015625 7.582031 L 67.015625 68.917969 L 3 68.917969 Z M 3 7.582031 " clip-rule="nonzero"/></clipPath><clipPath id="e7de149d2e"><path d="M 37.203125 42.601562 L 37.203125 15.390625 C 37.203125 14.335938 38.210938 13.570312 39.226562 13.855469 L 65.851562 21.324219 C 66.539062 21.519531 67.011719 22.144531 67.011719 22.859375 L 67.011719 50.070312 C 67.011719 51.125 66.007812 51.890625 64.988281 51.605469 L 38.367188 44.132812 C 37.679688 43.941406 37.203125 43.3125 37.203125 42.601562 Z M 17.109375 24.925781 L 30.816406 28.773438 C 31.832031 29.058594 32.839844 28.292969 32.839844 27.238281 L 32.839844 13.25 C 32.839844 12.539062 32.363281 11.910156 31.675781 11.71875 L 17.96875 7.871094 C 16.953125 7.585938 15.945312 8.351562 15.945312 9.40625 L 15.945312 23.394531 C 15.945312 24.105469 16.421875 24.734375 17.109375 24.925781 Z M 31.675781 32.003906 L 5.054688 24.535156 C 4.039062 24.25 3.03125 25.011719 3.03125 26.066406 L 3.03125 53.277344 C 3.03125 53.992188 3.507812 54.621094 4.195312 54.8125 L 30.816406 62.28125 C 31.832031 62.566406 32.839844 61.804688 32.839844 60.75 L 32.839844 33.539062 C 32.839844 32.824219 32.363281 32.199219 31.675781 32.003906 Z M 52.9375 51.210938 L 39.226562 47.367188 C 38.210938 47.082031 37.203125 47.84375 37.203125 48.898438 L 37.203125 62.886719 C 37.203125 63.601562 37.679688 64.226562 38.367188 64.421875 L 52.074219 68.269531 C 53.089844 68.554688 54.097656 67.789062 54.097656 66.734375 L 54.097656 52.746094 C 54.097656 52.03125 53.625 51.40625 52.9375 51.210938 Z M 52.9375 51.210938 " clip-rule="nonzero"/></clipPath><linearGradient x1="114.296451" gradientTransform="matrix(0, 0.127965, -0.127965, 0, 67.013642, 7.810972)" y1="-47.633949" x2="358.621847" gradientUnits="userSpaceOnUse" y2="547.63401" id="7b7f6c769d"><stop stop-opacity="1" stop-color="rgb(77.598572%, 30.999756%, 100%)" offset="0"/><stop stop-opacity="1" stop-color="rgb(77.598572%, 30.999756%, 100%)" offset="0.0625"/><stop stop-opacity="1" stop-color="rgb(77.540588%, 30.987549%, 100%)" offset="0.09375"/><stop stop-opacity="1" stop-color="rgb(77.328491%, 30.941772%, 100%)" offset="0.101562"/><stop stop-opacity="1" stop-color="rgb(77.018738%, 30.874634%, 100%)" offset="0.109375"/><stop stop-opacity="1" stop-color="rgb(76.708984%, 30.809021%, 100%)" offset="0.117188"/><stop stop-opacity="1" stop-color="rgb(76.399231%, 30.741882%, 100%)" offset="0.125"/><stop stop-opacity="1" stop-color="rgb(76.089478%, 30.674744%, 100%)" offset="0.132812"/><stop stop-opacity="1" stop-color="rgb(75.779724%, 30.609131%, 100%)" offset="0.140625"/><stop stop-opacity="1" stop-color="rgb(75.469971%, 30.541992%, 100%)" offset="0.148438"/><stop stop-opacity="1" stop-color="rgb(75.160217%, 30.476379%, 100%)" offset="0.15625"/><stop stop-opacity="1" stop-color="rgb(74.850464%, 30.409241%, 100%)" offset="0.164063"/><stop stop-opacity="1" stop-color="rgb(74.539185%, 30.343628%, 100%)" offset="0.171875"/><stop stop-opacity="1" stop-color="rgb(74.229431%, 30.276489%, 100%)" offset="0.179688"/><stop stop-opacity="1" stop-color="rgb(73.919678%, 30.210876%, 100%)" offset="0.1875"/><stop stop-opacity="1" stop-color="rgb(73.609924%, 30.143738%, 100%)" offset="0.195312"/><stop stop-opacity="1" stop-color="rgb(73.300171%, 30.078125%, 100%)" offset="0.203125"/><stop stop-opacity="1" stop-color="rgb(72.990417%, 30.010986%, 100%)" offset="0.210938"/><stop stop-opacity="1" stop-color="rgb(72.680664%, 29.945374%, 100%)" offset="0.21875"/><stop stop-opacity="1" stop-color="rgb(72.370911%, 29.878235%, 100%)" offset="0.226562"/><stop stop-opacity="1" stop-color="rgb(72.061157%, 29.812622%, 100%)" offset="0.234375"/><stop stop-opacity="1" stop-color="rgb(71.751404%, 29.745483%, 100%)" offset="0.242188"/><stop stop-opacity="1" stop-color="rgb(71.44165%, 29.679871%, 100%)" offset="0.25"/><stop stop-opacity="1" stop-color="rgb(71.130371%, 29.612732%, 100%)" offset="0.257812"/><stop stop-opacity="1" stop-color="rgb(70.820618%, 29.547119%, 100%)" offset="0.265625"/><stop stop-opacity="1" stop-color="rgb(70.510864%, 29.47998%, 100%)" offset="0.273438"/><stop stop-opacity="1" stop-color="rgb(70.201111%, 29.414368%, 100%)" offset="0.281145"/><stop stop-opacity="1" stop-color="rgb(70.046997%, 29.380798%, 100%)" offset="0.28125"/><stop stop-opacity="1" stop-color="rgb(69.891357%, 29.347229%, 100%)" offset="0.289062"/><stop stop-opacity="1" stop-color="rgb(69.581604%, 29.281616%, 100%)" offset="0.296875"/><stop stop-opacity="1" stop-color="rgb(69.271851%, 29.214478%, 100%)" offset="0.304688"/><stop stop-opacity="1" stop-color="rgb(68.962097%, 29.148865%, 100%)" offset="0.3125"/><stop stop-opacity="1" stop-color="rgb(68.652344%, 29.081726%, 100%)" offset="0.320312"/><stop stop-opacity="1" stop-color="rgb(68.34259%, 29.014587%, 100%)" offset="0.328125"/><stop stop-opacity="1" stop-color="rgb(68.032837%, 28.948975%, 100%)" offset="0.335938"/><stop stop-opacity="1" stop-color="rgb(67.721558%, 28.881836%, 100%)" offset="0.34375"/><stop stop-opacity="1" stop-color="rgb(67.411804%, 28.816223%, 100%)" offset="0.351562"/><stop stop-opacity="1" stop-color="rgb(67.102051%, 28.749084%, 100%)" offset="0.359375"/><stop stop-opacity="1" stop-color="rgb(66.792297%, 28.683472%, 100%)" offset="0.367188"/><stop stop-opacity="1" stop-color="rgb(66.482544%, 28.616333%, 100%)" offset="0.375"/><stop stop-opacity="1" stop-color="rgb(66.172791%, 28.55072%, 100%)" offset="0.382812"/><stop stop-opacity="1" stop-color="rgb(65.863037%, 28.483582%, 100%)" offset="0.390625"/><stop stop-opacity="1" stop-color="rgb(65.553284%, 28.417969%, 100%)" offset="0.398438"/><stop stop-opacity="1" stop-color="rgb(65.24353%, 28.35083%, 100%)" offset="0.40625"/><stop stop-opacity="1" stop-color="rgb(64.933777%, 28.285217%, 100%)" offset="0.414062"/><stop stop-opacity="1" stop-color="rgb(64.624023%, 28.218079%, 100%)" offset="0.421875"/><stop stop-opacity="1" stop-color="rgb(64.312744%, 28.152466%, 100%)" offset="0.429688"/><stop stop-opacity="1" stop-color="rgb(64.002991%, 28.085327%, 100%)" offset="0.4375"/><stop stop-opacity="1" stop-color="rgb(63.693237%, 28.019714%, 100%)" offset="0.445312"/><stop stop-opacity="1" stop-color="rgb(63.383484%, 27.952576%, 100%)" offset="0.453125"/><stop stop-opacity="1" stop-color="rgb(63.07373%, 27.886963%, 100%)" offset="0.460938"/><stop stop-opacity="1" stop-color="rgb(62.763977%, 27.819824%, 100%)" offset="0.46875"/><stop stop-opacity="1" stop-color="rgb(62.454224%, 27.754211%, 100%)" offset="0.476562"/><stop stop-opacity="1" stop-color="rgb(62.14447%, 27.687073%, 100%)" offset="0.484375"/><stop stop-opacity="1" stop-color="rgb(61.834717%, 27.62146%, 100%)" offset="0.492188"/><stop stop-opacity="1" stop-color="rgb(61.524963%, 27.554321%, 100%)" offset="0.5"/><stop stop-opacity="1" stop-color="rgb(61.21521%, 27.488708%, 100%)" offset="0.507812"/><stop stop-opacity="1" stop-color="rgb(60.905457%, 27.42157%, 100%)" offset="0.515625"/><stop stop-opacity="1" stop-color="rgb(60.594177%, 27.355957%, 100%)" offset="0.523438"/><stop stop-opacity="1" stop-color="rgb(60.284424%, 27.288818%, 100%)" offset="0.53125"/><stop stop-opacity="1" stop-color="rgb(59.97467%, 27.22168%, 100%)" offset="0.539063"/><stop stop-opacity="1" stop-color="rgb(59.664917%, 27.156067%, 100%)" offset="0.546875"/><stop stop-opacity="1" stop-color="rgb(59.355164%, 27.088928%, 100%)" offset="0.554688"/><stop stop-opacity="1" stop-color="rgb(59.04541%, 27.023315%, 100%)" offset="0.5625"/><stop stop-opacity="1" stop-color="rgb(58.735657%, 26.956177%, 100%)" offset="0.570313"/><stop stop-opacity="1" stop-color="rgb(58.425903%, 26.890564%, 100%)" offset="0.578125"/><stop stop-opacity="1" stop-color="rgb(58.11615%, 26.823425%, 100%)" offset="0.585938"/><stop stop-opacity="1" stop-color="rgb(57.806396%, 26.757812%, 100%)" offset="0.59375"/><stop stop-opacity="1" stop-color="rgb(57.496643%, 26.690674%, 100%)" offset="0.601563"/><stop stop-opacity="1" stop-color="rgb(57.185364%, 26.625061%, 100%)" offset="0.609375"/><stop stop-opacity="1" stop-color="rgb(56.87561%, 26.557922%, 100%)" offset="0.617188"/><stop stop-opacity="1" stop-color="rgb(56.565857%, 26.49231%, 100%)" offset="0.625"/><stop stop-opacity="1" stop-color="rgb(56.256104%, 26.425171%, 100%)" offset="0.632813"/><stop stop-opacity="1" stop-color="rgb(55.94635%, 26.359558%, 100%)" offset="0.640625"/><stop stop-opacity="1" stop-color="rgb(55.636597%, 26.292419%, 100%)" offset="0.648438"/><stop stop-opacity="1" stop-color="rgb(55.326843%, 26.226807%, 100%)" offset="0.65625"/><stop stop-opacity="1" stop-color="rgb(55.01709%, 26.159668%, 100%)" offset="0.664063"/><stop stop-opacity="1" stop-color="rgb(54.707336%, 26.094055%, 100%)" offset="0.671875"/><stop stop-opacity="1" stop-color="rgb(54.397583%, 26.026917%, 100%)" offset="0.679688"/><stop stop-opacity="1" stop-color="rgb(54.08783%, 25.961304%, 100%)" offset="0.6875"/><stop stop-opacity="1" stop-color="rgb(53.77655%, 25.894165%, 100%)" offset="0.695312"/><stop stop-opacity="1" stop-color="rgb(53.466797%, 25.828552%, 100%)" offset="0.703125"/><stop stop-opacity="1" stop-color="rgb(53.157043%, 25.761414%, 100%)" offset="0.710938"/><stop stop-opacity="1" stop-color="rgb(52.84729%, 25.695801%, 100%)" offset="0.71875"/><stop stop-opacity="1" stop-color="rgb(52.537537%, 25.628662%, 100%)" offset="0.718855"/><stop stop-opacity="1" stop-color="rgb(52.383423%, 25.595093%, 100%)" offset="0.726562"/><stop stop-opacity="1" stop-color="rgb(52.227783%, 25.561523%, 100%)" offset="0.734375"/><stop stop-opacity="1" stop-color="rgb(51.91803%, 25.495911%, 100%)" offset="0.742188"/><stop stop-opacity="1" stop-color="rgb(51.608276%, 25.428772%, 100%)" offset="0.75"/><stop stop-opacity="1" stop-color="rgb(51.298523%, 25.363159%, 100%)" offset="0.757812"/><stop stop-opacity="1" stop-color="rgb(50.98877%, 25.296021%, 100%)" offset="0.765625"/><stop stop-opacity="1" stop-color="rgb(50.679016%, 25.230408%, 100%)" offset="0.773438"/><stop stop-opacity="1" stop-color="rgb(50.367737%, 25.163269%, 100%)" offset="0.78125"/><stop stop-opacity="1" stop-color="rgb(50.057983%, 25.097656%, 100%)" offset="0.789062"/><stop stop-opacity="1" stop-color="rgb(49.74823%, 25.030518%, 100%)" offset="0.796875"/><stop stop-opacity="1" stop-color="rgb(49.438477%, 24.964905%, 100%)" offset="0.804688"/><stop stop-opacity="1" stop-color="rgb(49.128723%, 24.897766%, 100%)" offset="0.8125"/><stop stop-opacity="1" stop-color="rgb(48.81897%, 24.832153%, 100%)" offset="0.820312"/><stop stop-opacity="1" stop-color="rgb(48.509216%, 24.765015%, 100%)" offset="0.828125"/><stop stop-opacity="1" stop-color="rgb(48.277283%, 24.716187%, 100%)" offset="0.84375"/><stop stop-opacity="1" stop-color="rgb(48.199463%, 24.699402%, 100%)" offset="0.875"/><stop stop-opacity="1" stop-color="rgb(48.199463%, 24.699402%, 100%)" offset="1"/></linearGradient></defs><g clip-path="url(#4ef62dfb92)"><g clip-path="url(#e7de149d2e)"><path fill="url(#7b7f6c769d)" d="M 67.011719 7.585938 L 3.03125 7.585938 L 3.03125 68.554688 L 67.011719 68.554688 Z M 67.011719 7.585938 " fill-rule="nonzero"/></g></g><g fill="#ffffff" fill-opacity="1"><g transform="translate(76.433569, 47.831251)"><g><path d="M 14.234375 -16.609375 C 13.722656 -17.203125 13.125 -17.664062 12.4375 -18 C 11.75 -18.332031 10.867188 -18.5 9.796875 -18.5 C 8.535156 -18.5 7.566406 -18.253906 6.890625 -17.765625 C 6.210938 -17.285156 5.875 -16.625 5.875 -15.78125 C 5.875 -14.613281 6.722656 -13.765625 8.421875 -13.234375 L 12.828125 -11.921875 C 16.128906 -10.921875 17.78125 -8.960938 17.78125 -6.046875 C 17.78125 -4.765625 17.445312 -3.644531 16.78125 -2.6875 C 16.113281 -1.738281 15.164062 -1.003906 13.9375 -0.484375 C 12.707031 0.0234375 11.25 0.28125 9.5625 0.28125 C 7.695312 0.28125 6.023438 -0.0351562 4.546875 -0.671875 C 3.078125 -1.304688 1.960938 -2.207031 1.203125 -3.375 C 1.128906 -3.570312 1.09375 -3.6875 1.09375 -3.71875 C 1.09375 -3.875 1.1875 -4.019531 1.375 -4.15625 L 3.171875 -5.40625 C 3.390625 -5.519531 3.554688 -5.578125 3.671875 -5.578125 C 3.816406 -5.578125 3.9375 -5.515625 4.03125 -5.390625 C 4.78125 -4.410156 5.53125 -3.71875 6.28125 -3.3125 C 7.039062 -2.914062 8.050781 -2.71875 9.3125 -2.71875 C 10.6875 -2.71875 11.765625 -2.945312 12.546875 -3.40625 C 13.328125 -3.863281 13.71875 -4.5625 13.71875 -5.5 C 13.71875 -6.113281 13.519531 -6.628906 13.125 -7.046875 C 12.738281 -7.460938 12.050781 -7.832031 11.0625 -8.15625 L 6.734375 -9.484375 C 5.148438 -9.960938 3.9375 -10.71875 3.09375 -11.75 C 2.25 -12.789062 1.828125 -13.960938 1.828125 -15.265625 C 1.828125 -16.484375 2.148438 -17.566406 2.796875 -18.515625 C 3.453125 -19.460938 4.375 -20.203125 5.5625 -20.734375 C 6.757812 -21.265625 8.140625 -21.53125 9.703125 -21.53125 C 11.210938 -21.53125 12.601562 -21.269531 13.875 -20.75 C 15.144531 -20.226562 16.148438 -19.507812 16.890625 -18.59375 C 17.003906 -18.4375 17.0625 -18.3125 17.0625 -18.21875 C 17.0625 -18.125 17.003906 -18.023438 16.890625 -17.921875 L 14.859375 -16.40625 C 14.785156 -16.351562 14.710938 -16.328125 14.640625 -16.328125 C 14.535156 -16.328125 14.398438 -16.421875 14.234375 -16.609375 Z M 14.234375 -16.609375 "/></g></g></g><g fill="#ffffff" fill-opacity="1"><g transform="translate(95.477938, 47.831251)"><g><path d="M 8.5625 0.28125 C 7.09375 0.28125 5.785156 -0.046875 4.640625 -0.703125 C 3.492188 -1.359375 2.601562 -2.273438 1.96875 -3.453125 C 1.34375 -4.640625 1.03125 -5.988281 1.03125 -7.5 C 1.03125 -9.050781 1.351562 -10.429688 2 -11.640625 C 2.65625 -12.859375 3.554688 -13.800781 4.703125 -14.46875 C 5.847656 -15.132812 7.144531 -15.46875 8.59375 -15.46875 C 10.0625 -15.46875 11.367188 -15.128906 12.515625 -14.453125 C 13.660156 -13.773438 14.546875 -12.832031 15.171875 -11.625 C 15.804688 -10.425781 16.125 -9.0625 16.125 -7.53125 C 16.125 -6.019531 15.800781 -4.671875 15.15625 -3.484375 C 14.519531 -2.304688 13.628906 -1.382812 12.484375 -0.71875 C 11.335938 -0.0507812 10.03125 0.28125 8.5625 0.28125 Z M 8.59375 -2.265625 C 9.8125 -2.265625 10.738281 -2.722656 11.375 -3.640625 C 12.019531 -4.554688 12.34375 -5.875 12.34375 -7.59375 C 12.34375 -9.332031 12.015625 -10.664062 11.359375 -11.59375 C 10.710938 -12.53125 9.789062 -13 8.59375 -13 C 7.382812 -13 6.453125 -12.53125 5.796875 -11.59375 C 5.140625 -10.664062 4.8125 -9.332031 4.8125 -7.59375 C 4.8125 -5.875 5.140625 -4.554688 5.796875 -3.640625 C 6.453125 -2.722656 7.382812 -2.265625 8.59375 -2.265625 Z M 8.59375 -2.265625 "/></g></g></g><g fill="#ffffff" fill-opacity="1"><g transform="translate(112.63219, 47.831251)"><g><path d="M 2.8125 -21.25 C 5.539062 -21.25 7.457031 -21.238281 8.5625 -21.21875 C 16.03125 -21.050781 19.765625 -17.550781 19.765625 -10.71875 C 19.765625 -7.289062 18.800781 -4.644531 16.875 -2.78125 C 14.957031 -0.925781 12.117188 0 8.359375 0 L 2.828125 0 C 2.453125 0 2.265625 -0.195312 2.265625 -0.59375 L 2.265625 -20.734375 C 2.265625 -20.921875 2.300781 -21.050781 2.375 -21.125 C 2.445312 -21.207031 2.59375 -21.25 2.8125 -21.25 Z M 6.765625 -18.21875 C 6.585938 -18.21875 6.5 -18.082031 6.5 -17.8125 L 6.5 -3.375 C 6.5 -3.238281 6.523438 -3.144531 6.578125 -3.09375 C 6.640625 -3.050781 6.738281 -3.03125 6.875 -3.03125 L 7.59375 -3.03125 C 10.28125 -3.03125 12.238281 -3.625 13.46875 -4.8125 C 14.707031 -6 15.328125 -7.96875 15.328125 -10.71875 C 15.328125 -12.488281 15.078125 -13.898438 14.578125 -14.953125 C 14.078125 -16.015625 13.335938 -16.796875 12.359375 -17.296875 C 11.378906 -17.796875 10.09375 -18.082031 8.5 -18.15625 Z M 6.765625 -18.21875 "/></g></g></g><g fill="#ffffff" fill-opacity="1"><g transform="translate(133.853057, 47.831251)"><g><path d="M 1.4375 0 C 1.1875 0 1.0625 -0.132812 1.0625 -0.40625 C 1.0625 -0.457031 1.078125 -0.5625 1.109375 -0.71875 L 8.328125 -20.734375 C 8.410156 -20.921875 8.5 -21.050781 8.59375 -21.125 C 8.6875 -21.207031 8.828125 -21.25 9.015625 -21.25 L 12.609375 -21.25 C 13.023438 -21.25 13.289062 -21.054688 13.40625 -20.671875 L 20.5625 -0.6875 C 20.601562 -0.570312 20.625 -0.484375 20.625 -0.421875 C 20.625 -0.304688 20.585938 -0.207031 20.515625 -0.125 C 20.453125 -0.0390625 20.363281 0 20.25 0 L 16.78125 0 C 16.507812 0 16.335938 -0.125 16.265625 -0.375 L 14.609375 -5.015625 C 14.566406 -5.109375 14.523438 -5.175781 14.484375 -5.21875 C 14.453125 -5.269531 14.378906 -5.296875 14.265625 -5.296875 L 6.78125 -5.296875 C 6.613281 -5.296875 6.5 -5.210938 6.4375 -5.046875 L 4.71875 -0.34375 C 4.664062 -0.113281 4.492188 0 4.203125 0 Z M 13.234375 -8.53125 C 13.398438 -8.53125 13.484375 -8.609375 13.484375 -8.765625 C 13.484375 -8.859375 13.476562 -8.9375 13.46875 -9 L 10.71875 -16.640625 C 10.65625 -16.773438 10.585938 -16.84375 10.515625 -16.84375 C 10.429688 -16.84375 10.363281 -16.765625 10.3125 -16.609375 L 7.53125 -9 C 7.488281 -8.882812 7.46875 -8.796875 7.46875 -8.734375 C 7.46875 -8.597656 7.566406 -8.53125 7.765625 -8.53125 Z M 13.234375 -8.53125 "/></g></g></g><g fill="#ffffff" fill-opacity="1"><g transform="translate(155.503501, 47.831251)"><g><path d="M 14.234375 -16.609375 C 13.722656 -17.203125 13.125 -17.664062 12.4375 -18 C 11.75 -18.332031 10.867188 -18.5 9.796875 -18.5 C 8.535156 -18.5 7.566406 -18.253906 6.890625 -17.765625 C 6.210938 -17.285156 5.875 -16.625 5.875 -15.78125 C 5.875 -14.613281 6.722656 -13.765625 8.421875 -13.234375 L 12.828125 -11.921875 C 16.128906 -10.921875 17.78125 -8.960938 17.78125 -6.046875 C 17.78125 -4.765625 17.445312 -3.644531 16.78125 -2.6875 C 16.113281 -1.738281 15.164062 -1.003906 13.9375 -0.484375 C 12.707031 0.0234375 11.25 0.28125 9.5625 0.28125 C 7.695312 0.28125 6.023438 -0.0351562 4.546875 -0.671875 C 3.078125 -1.304688 1.960938 -2.207031 1.203125 -3.375 C 1.128906 -3.570312 1.09375 -3.6875 1.09375 -3.71875 C 1.09375 -3.875 1.1875 -4.019531 1.375 -4.15625 L 3.171875 -5.40625 C 3.390625 -5.519531 3.554688 -5.578125 3.671875 -5.578125 C 3.816406 -5.578125 3.9375 -5.515625 4.03125 -5.390625 C 4.78125 -4.410156 5.53125 -3.71875 6.28125 -3.3125 C 7.039062 -2.914062 8.050781 -2.71875 9.3125 -2.71875 C 10.6875 -2.71875 11.765625 -2.945312 12.546875 -3.40625 C 13.328125 -3.863281 13.71875 -4.5625 13.71875 -5.5 C 13.71875 -6.113281 13.519531 -6.628906 13.125 -7.046875 C 12.738281 -7.460938 12.050781 -7.832031 11.0625 -8.15625 L 6.734375 -9.484375 C 5.148438 -9.960938 3.9375 -10.71875 3.09375 -11.75 C 2.25 -12.789062 1.828125 -13.960938 1.828125 -15.265625 C 1.828125 -16.484375 2.148438 -17.566406 2.796875 -18.515625 C 3.453125 -19.460938 4.375 -20.203125 5.5625 -20.734375 C 6.757812 -21.265625 8.140625 -21.53125 9.703125 -21.53125 C 11.210938 -21.53125 12.601562 -21.269531 13.875 -20.75 C 15.144531 -20.226562 16.148438 -19.507812 16.890625 -18.59375 C 17.003906 -18.4375 17.0625 -18.3125 17.0625 -18.21875 C 17.0625 -18.125 17.003906 -18.023438 16.890625 -17.921875 L 14.859375 -16.40625 C 14.785156 -16.351562 14.710938 -16.328125 14.640625 -16.328125 C 14.535156 -16.328125 14.398438 -16.421875 14.234375 -16.609375 Z M 14.234375 -16.609375 "/></g></g></g></svg>