<svg xmlns="http://www.w3.org/2000/svg" xmlns:xlink="http://www.w3.org/1999/xlink" width="1000" zoomAndPan="magnify" viewBox="0 0 750 374.999991" height="500" preserveAspectRatio="xMidYMid meet" version="1.0"><defs><g/><clipPath id="18414b098f"><path d="M 22 64 L 282.222656 64 L 282.222656 311 L 22 311 Z M 22 64 " clip-rule="nonzero"/></clipPath><clipPath id="390a569de3"><path d="M 161.117188 205.933594 L 161.117188 95.394531 C 161.117188 91.105469 165.210938 88.003906 169.335938 89.164062 L 277.488281 119.511719 C 280.28125 120.292969 282.210938 122.839844 282.210938 125.742188 L 282.210938 236.28125 C 282.210938 240.570312 278.121094 243.671875 273.992188 242.511719 L 165.839844 212.164062 C 163.046875 211.382812 161.117188 208.835938 161.117188 205.933594 Z M 79.480469 134.136719 L 135.167969 149.761719 C 139.292969 150.921875 143.386719 147.816406 143.386719 143.53125 L 143.386719 86.707031 C 143.386719 83.808594 141.457031 81.261719 138.664062 80.476562 L 82.976562 64.851562 C 78.851562 63.695312 74.757812 66.796875 74.757812 71.082031 L 74.757812 127.90625 C 74.757812 130.808594 76.6875 133.351562 79.480469 134.136719 Z M 138.664062 162.890625 L 30.511719 132.542969 C 26.382812 131.386719 22.292969 134.488281 22.292969 138.773438 L 22.292969 249.316406 C 22.292969 252.214844 24.222656 254.761719 27.015625 255.546875 L 135.167969 285.894531 C 139.292969 287.050781 143.386719 283.949219 143.386719 279.664062 L 143.386719 169.121094 C 143.386719 166.222656 141.457031 163.675781 138.664062 162.890625 Z M 225.023438 240.917969 L 169.335938 225.292969 C 165.210938 224.136719 161.117188 227.238281 161.117188 231.523438 L 161.117188 288.347656 C 161.117188 291.25 163.046875 293.796875 165.839844 294.578125 L 221.527344 310.207031 C 225.652344 311.363281 229.746094 308.261719 229.746094 303.972656 L 229.746094 247.152344 C 229.746094 244.25 227.816406 241.703125 225.023438 240.917969 Z M 225.023438 240.917969 " clip-rule="nonzero"/></clipPath><linearGradient x1="114.29645" gradientTransform="matrix(0, 0.519841, -0.519841, 0, 282.212132, 64.607118)" y1="-47.633951" x2="358.568624" gradientUnits="userSpaceOnUse" y2="547.50434" id="6fbad8c714"><stop stop-opacity="1" stop-color="rgb(77.598572%, 30.999756%, 100%)" offset="0"/><stop stop-opacity="1" stop-color="rgb(77.598572%, 30.999756%, 100%)" offset="0.0625"/><stop stop-opacity="1" stop-color="rgb(77.542114%, 30.987549%, 100%)" offset="0.09375"/><stop stop-opacity="1" stop-color="rgb(77.330017%, 30.941772%, 100%)" offset="0.101563"/><stop stop-opacity="1" stop-color="rgb(77.020264%, 30.874634%, 100%)" offset="0.109375"/><stop stop-opacity="1" stop-color="rgb(76.71051%, 30.809021%, 100%)" offset="0.117188"/><stop stop-opacity="1" stop-color="rgb(76.400757%, 30.741882%, 100%)" offset="0.125"/><stop stop-opacity="1" stop-color="rgb(76.091003%, 30.67627%, 100%)" offset="0.132813"/><stop stop-opacity="1" stop-color="rgb(75.78125%, 30.609131%, 100%)" offset="0.140625"/><stop stop-opacity="1" stop-color="rgb(75.469971%, 30.543518%, 100%)" offset="0.148438"/><stop stop-opacity="1" stop-color="rgb(75.160217%, 30.476379%, 100%)" offset="0.15625"/><stop stop-opacity="1" stop-color="rgb(74.850464%, 30.410767%, 100%)" offset="0.164063"/><stop stop-opacity="1" stop-color="rgb(74.54071%, 30.343628%, 100%)" offset="0.171875"/><stop stop-opacity="1" stop-color="rgb(74.230957%, 30.278015%, 100%)" offset="0.179688"/><stop stop-opacity="1" stop-color="rgb(73.921204%, 30.210876%, 100%)" offset="0.1875"/><stop stop-opacity="1" stop-color="rgb(73.61145%, 30.145264%, 100%)" offset="0.195312"/><stop stop-opacity="1" stop-color="rgb(73.301697%, 30.078125%, 100%)" offset="0.203125"/><stop stop-opacity="1" stop-color="rgb(72.991943%, 30.012512%, 100%)" offset="0.210938"/><stop stop-opacity="1" stop-color="rgb(72.68219%, 29.945374%, 100%)" offset="0.21875"/><stop stop-opacity="1" stop-color="rgb(72.372437%, 29.879761%, 100%)" offset="0.226563"/><stop stop-opacity="1" stop-color="rgb(72.062683%, 29.812622%, 100%)" offset="0.234375"/><stop stop-opacity="1" stop-color="rgb(71.75293%, 29.745483%, 100%)" offset="0.242188"/><stop stop-opacity="1" stop-color="rgb(71.443176%, 29.679871%, 100%)" offset="0.25"/><stop stop-opacity="1" stop-color="rgb(71.133423%, 29.612732%, 100%)" offset="0.257813"/><stop stop-opacity="1" stop-color="rgb(70.823669%, 29.547119%, 100%)" offset="0.265625"/><stop stop-opacity="1" stop-color="rgb(70.513916%, 29.47998%, 100%)" offset="0.273438"/><stop stop-opacity="1" stop-color="rgb(70.204163%, 29.414368%, 100%)" offset="0.280988"/><stop stop-opacity="1" stop-color="rgb(70.050049%, 29.380798%, 100%)" offset="0.28125"/><stop stop-opacity="1" stop-color="rgb(69.894409%, 29.347229%, 100%)" offset="0.289063"/><stop stop-opacity="1" stop-color="rgb(69.584656%, 29.281616%, 100%)" offset="0.296875"/><stop stop-opacity="1" stop-color="rgb(69.274902%, 29.214478%, 100%)" offset="0.304688"/><stop stop-opacity="1" stop-color="rgb(68.965149%, 29.148865%, 100%)" offset="0.3125"/><stop stop-opacity="1" stop-color="rgb(68.65387%, 29.081726%, 100%)" offset="0.320312"/><stop stop-opacity="1" stop-color="rgb(68.344116%, 29.016113%, 100%)" offset="0.328125"/><stop stop-opacity="1" stop-color="rgb(68.034363%, 28.948975%, 100%)" offset="0.335938"/><stop stop-opacity="1" stop-color="rgb(67.724609%, 28.883362%, 100%)" offset="0.34375"/><stop stop-opacity="1" stop-color="rgb(67.414856%, 28.816223%, 100%)" offset="0.351563"/><stop stop-opacity="1" stop-color="rgb(67.105103%, 28.75061%, 100%)" offset="0.359375"/><stop stop-opacity="1" stop-color="rgb(66.795349%, 28.683472%, 100%)" offset="0.367188"/><stop stop-opacity="1" stop-color="rgb(66.485596%, 28.617859%, 100%)" offset="0.375"/><stop stop-opacity="1" stop-color="rgb(66.175842%, 28.55072%, 100%)" offset="0.382813"/><stop stop-opacity="1" stop-color="rgb(65.866089%, 28.485107%, 100%)" offset="0.390625"/><stop stop-opacity="1" stop-color="rgb(65.556335%, 28.417969%, 100%)" offset="0.398438"/><stop stop-opacity="1" stop-color="rgb(65.246582%, 28.352356%, 100%)" offset="0.40625"/><stop stop-opacity="1" stop-color="rgb(64.936829%, 28.285217%, 100%)" offset="0.414063"/><stop stop-opacity="1" stop-color="rgb(64.627075%, 28.219604%, 100%)" offset="0.421875"/><stop stop-opacity="1" stop-color="rgb(64.317322%, 28.152466%, 100%)" offset="0.429688"/><stop stop-opacity="1" stop-color="rgb(64.007568%, 28.086853%, 100%)" offset="0.4375"/><stop stop-opacity="1" stop-color="rgb(63.697815%, 28.019714%, 100%)" offset="0.445313"/><stop stop-opacity="1" stop-color="rgb(63.388062%, 27.954102%, 100%)" offset="0.453125"/><stop stop-opacity="1" stop-color="rgb(63.078308%, 27.886963%, 100%)" offset="0.460938"/><stop stop-opacity="1" stop-color="rgb(62.768555%, 27.82135%, 100%)" offset="0.46875"/><stop stop-opacity="1" stop-color="rgb(62.458801%, 27.754211%, 100%)" offset="0.476563"/><stop stop-opacity="1" stop-color="rgb(62.149048%, 27.688599%, 100%)" offset="0.484375"/><stop stop-opacity="1" stop-color="rgb(61.839294%, 27.62146%, 100%)" offset="0.492188"/><stop stop-opacity="1" stop-color="rgb(61.528015%, 27.555847%, 100%)" offset="0.5"/><stop stop-opacity="1" stop-color="rgb(61.218262%, 27.488708%, 100%)" offset="0.507813"/><stop stop-opacity="1" stop-color="rgb(60.908508%, 27.423096%, 100%)" offset="0.515625"/><stop stop-opacity="1" stop-color="rgb(60.598755%, 27.355957%, 100%)" offset="0.523438"/><stop stop-opacity="1" stop-color="rgb(60.289001%, 27.290344%, 100%)" offset="0.53125"/><stop stop-opacity="1" stop-color="rgb(59.979248%, 27.223206%, 100%)" offset="0.539062"/><stop stop-opacity="1" stop-color="rgb(59.669495%, 27.157593%, 100%)" offset="0.546875"/><stop stop-opacity="1" stop-color="rgb(59.359741%, 27.090454%, 100%)" offset="0.554688"/><stop stop-opacity="1" stop-color="rgb(59.049988%, 27.024841%, 100%)" offset="0.5625"/><stop stop-opacity="1" stop-color="rgb(58.740234%, 26.957703%, 100%)" offset="0.570313"/><stop stop-opacity="1" stop-color="rgb(58.430481%, 26.89209%, 100%)" offset="0.578125"/><stop stop-opacity="1" stop-color="rgb(58.120728%, 26.824951%, 100%)" offset="0.585938"/><stop stop-opacity="1" stop-color="rgb(57.810974%, 26.759338%, 100%)" offset="0.59375"/><stop stop-opacity="1" stop-color="rgb(57.501221%, 26.6922%, 100%)" offset="0.601563"/><stop stop-opacity="1" stop-color="rgb(57.191467%, 26.626587%, 100%)" offset="0.609375"/><stop stop-opacity="1" stop-color="rgb(56.881714%, 26.559448%, 100%)" offset="0.617188"/><stop stop-opacity="1" stop-color="rgb(56.57196%, 26.493835%, 100%)" offset="0.625"/><stop stop-opacity="1" stop-color="rgb(56.262207%, 26.426697%, 100%)" offset="0.632813"/><stop stop-opacity="1" stop-color="rgb(55.952454%, 26.359558%, 100%)" offset="0.640625"/><stop stop-opacity="1" stop-color="rgb(55.6427%, 26.293945%, 100%)" offset="0.648438"/><stop stop-opacity="1" stop-color="rgb(55.332947%, 26.226807%, 100%)" offset="0.65625"/><stop stop-opacity="1" stop-color="rgb(55.023193%, 26.161194%, 100%)" offset="0.664063"/><stop stop-opacity="1" stop-color="rgb(54.711914%, 26.094055%, 100%)" offset="0.671875"/><stop stop-opacity="1" stop-color="rgb(54.402161%, 26.028442%, 100%)" offset="0.679688"/><stop stop-opacity="1" stop-color="rgb(54.092407%, 25.961304%, 100%)" offset="0.6875"/><stop stop-opacity="1" stop-color="rgb(53.782654%, 25.895691%, 100%)" offset="0.695313"/><stop stop-opacity="1" stop-color="rgb(53.4729%, 25.828552%, 100%)" offset="0.703125"/><stop stop-opacity="1" stop-color="rgb(53.163147%, 25.762939%, 100%)" offset="0.710938"/><stop stop-opacity="1" stop-color="rgb(52.853394%, 25.695801%, 100%)" offset="0.71875"/><stop stop-opacity="1" stop-color="rgb(52.54364%, 25.630188%, 100%)" offset="0.719012"/><stop stop-opacity="1" stop-color="rgb(52.389526%, 25.596619%, 100%)" offset="0.726562"/><stop stop-opacity="1" stop-color="rgb(52.233887%, 25.563049%, 100%)" offset="0.734375"/><stop stop-opacity="1" stop-color="rgb(51.924133%, 25.497437%, 100%)" offset="0.742188"/><stop stop-opacity="1" stop-color="rgb(51.61438%, 25.430298%, 100%)" offset="0.75"/><stop stop-opacity="1" stop-color="rgb(51.304626%, 25.364685%, 100%)" offset="0.757813"/><stop stop-opacity="1" stop-color="rgb(50.994873%, 25.297546%, 100%)" offset="0.765625"/><stop stop-opacity="1" stop-color="rgb(50.68512%, 25.231934%, 100%)" offset="0.773438"/><stop stop-opacity="1" stop-color="rgb(50.375366%, 25.164795%, 100%)" offset="0.78125"/><stop stop-opacity="1" stop-color="rgb(50.065613%, 25.099182%, 100%)" offset="0.789063"/><stop stop-opacity="1" stop-color="rgb(49.755859%, 25.032043%, 100%)" offset="0.796875"/><stop stop-opacity="1" stop-color="rgb(49.446106%, 24.966431%, 100%)" offset="0.804688"/><stop stop-opacity="1" stop-color="rgb(49.136353%, 24.899292%, 100%)" offset="0.8125"/><stop stop-opacity="1" stop-color="rgb(48.826599%, 24.833679%, 100%)" offset="0.820313"/><stop stop-opacity="1" stop-color="rgb(48.516846%, 24.766541%, 100%)" offset="0.828125"/><stop stop-opacity="1" stop-color="rgb(48.280334%, 24.716187%, 100%)" offset="0.84375"/><stop stop-opacity="1" stop-color="rgb(48.199463%, 24.699402%, 100%)" offset="0.875"/><stop stop-opacity="1" stop-color="rgb(48.199463%, 24.699402%, 100%)" offset="1"/></linearGradient></defs><g clip-path="url(#18414b098f)"><g clip-path="url(#390a569de3)"><path fill="url(#6fbad8c714)" d="M 282.210938 63.695312 L 22.292969 63.695312 L 22.292969 311.171875 L 282.210938 311.171875 Z M 282.210938 63.695312 " fill-rule="nonzero"/></g></g><g fill="#ffffff" fill-opacity="1"><g transform="translate(305.688166, 242.821363)"><g><path d="M 57.8125 -67.46875 C 55.71875 -69.875 53.273438 -71.753906 50.484375 -73.109375 C 47.691406 -74.460938 44.125 -75.140625 39.78125 -75.140625 C 34.664062 -75.140625 30.726562 -74.148438 27.96875 -72.171875 C 25.21875 -70.203125 23.84375 -67.507812 23.84375 -64.09375 C 23.84375 -59.363281 27.296875 -55.914062 34.203125 -53.75 L 52.109375 -48.390625 C 65.523438 -44.359375 72.234375 -36.410156 72.234375 -24.546875 C 72.234375 -19.347656 70.875 -14.8125 68.15625 -10.9375 C 65.445312 -7.0625 61.59375 -4.078125 56.59375 -1.984375 C 51.59375 0.109375 45.679688 1.15625 38.859375 1.15625 C 31.253906 1.15625 24.460938 -0.140625 18.484375 -2.734375 C 12.515625 -5.328125 7.984375 -8.992188 4.890625 -13.734375 C 4.578125 -14.503906 4.421875 -14.96875 4.421875 -15.125 C 4.421875 -15.738281 4.804688 -16.320312 5.578125 -16.875 L 12.90625 -21.984375 C 13.757812 -22.453125 14.421875 -22.6875 14.890625 -22.6875 C 15.515625 -22.6875 16.019531 -22.414062 16.40625 -21.875 C 19.425781 -17.914062 22.46875 -15.117188 25.53125 -13.484375 C 28.59375 -11.859375 32.6875 -11.046875 37.8125 -11.046875 C 43.394531 -11.046875 47.773438 -11.976562 50.953125 -13.84375 C 54.128906 -15.707031 55.71875 -18.535156 55.71875 -22.328125 C 55.71875 -24.816406 54.921875 -26.910156 53.328125 -28.609375 C 51.742188 -30.316406 48.9375 -31.832031 44.90625 -33.15625 L 27.34375 -38.5 C 20.90625 -40.4375 15.976562 -43.519531 12.5625 -47.75 C 9.144531 -51.976562 7.4375 -56.726562 7.4375 -62 C 7.4375 -66.96875 8.753906 -71.367188 11.390625 -75.203125 C 14.035156 -79.046875 17.78125 -82.050781 22.625 -84.21875 C 27.46875 -86.394531 33.070312 -87.484375 39.4375 -87.484375 C 45.5625 -87.484375 51.203125 -86.414062 56.359375 -84.28125 C 61.515625 -82.144531 65.609375 -79.21875 68.640625 -75.5 C 69.097656 -74.875 69.328125 -74.367188 69.328125 -73.984375 C 69.328125 -73.597656 69.097656 -73.210938 68.640625 -72.828125 L 60.375 -66.65625 C 60.0625 -66.425781 59.75 -66.3125 59.4375 -66.3125 C 59.050781 -66.3125 58.507812 -66.695312 57.8125 -67.46875 Z M 57.8125 -67.46875 "/></g></g></g><g fill="#ffffff" fill-opacity="1"><g transform="translate(383.042467, 242.821363)"><g><path d="M 34.78125 1.15625 C 28.8125 1.15625 23.5 -0.175781 18.84375 -2.84375 C 14.1875 -5.519531 10.578125 -9.257812 8.015625 -14.0625 C 5.460938 -18.875 4.1875 -24.347656 4.1875 -30.484375 C 4.1875 -36.765625 5.503906 -42.363281 8.140625 -47.28125 C 10.773438 -52.207031 14.421875 -56.023438 19.078125 -58.734375 C 23.734375 -61.453125 29.007812 -62.8125 34.90625 -62.8125 C 40.875 -62.8125 46.179688 -61.4375 50.828125 -58.6875 C 55.484375 -55.9375 59.09375 -52.117188 61.65625 -47.234375 C 64.21875 -42.347656 65.5 -36.800781 65.5 -30.59375 C 65.5 -24.46875 64.195312 -19 61.59375 -14.1875 C 59 -9.382812 55.375 -5.625 50.71875 -2.90625 C 46.0625 -0.195312 40.75 1.15625 34.78125 1.15625 Z M 34.90625 -9.1875 C 39.863281 -9.1875 43.640625 -11.046875 46.234375 -14.765625 C 48.835938 -18.492188 50.140625 -23.847656 50.140625 -30.828125 C 50.140625 -37.878906 48.820312 -43.304688 46.1875 -47.109375 C 43.550781 -50.910156 39.789062 -52.8125 34.90625 -52.8125 C 30.007812 -52.8125 26.222656 -50.910156 23.546875 -47.109375 C 20.878906 -43.304688 19.546875 -37.878906 19.546875 -30.828125 C 19.546875 -23.847656 20.878906 -18.492188 23.546875 -14.765625 C 26.222656 -11.046875 30.007812 -9.1875 34.90625 -9.1875 Z M 34.90625 -9.1875 "/></g></g></g><g fill="#ffffff" fill-opacity="1"><g transform="translate(452.719504, 242.821363)"><g><path d="M 11.40625 -86.3125 C 22.488281 -86.3125 30.28125 -86.273438 34.78125 -86.203125 C 65.101562 -85.503906 80.265625 -71.269531 80.265625 -43.5 C 80.265625 -29.625 76.367188 -18.90625 68.578125 -11.34375 C 60.785156 -3.78125 49.25 0 33.96875 0 L 11.515625 0 C 9.960938 0 9.1875 -0.8125 9.1875 -2.4375 L 9.1875 -84.21875 C 9.1875 -85 9.34375 -85.539062 9.65625 -85.84375 C 9.96875 -86.15625 10.550781 -86.3125 11.40625 -86.3125 Z M 27.453125 -73.984375 C 26.753906 -73.984375 26.40625 -73.441406 26.40625 -72.359375 L 26.40625 -13.734375 C 26.40625 -13.179688 26.519531 -12.804688 26.75 -12.609375 C 26.988281 -12.421875 27.378906 -12.328125 27.921875 -12.328125 L 30.828125 -12.328125 C 41.765625 -12.328125 49.734375 -14.726562 54.734375 -19.53125 C 59.734375 -24.34375 62.234375 -32.332031 62.234375 -43.5 C 62.234375 -50.71875 61.222656 -56.476562 59.203125 -60.78125 C 57.191406 -65.082031 54.1875 -68.238281 50.1875 -70.25 C 46.195312 -72.269531 40.984375 -73.4375 34.546875 -73.75 Z M 27.453125 -73.984375 "/></g></g></g><g fill="#ffffff" fill-opacity="1"><g transform="translate(538.914295, 242.821363)"><g><path d="M 5.8125 0 C 4.800781 0 4.296875 -0.539062 4.296875 -1.625 C 4.296875 -1.863281 4.375 -2.289062 4.53125 -2.90625 L 33.84375 -84.21875 C 34.15625 -85 34.503906 -85.539062 34.890625 -85.84375 C 35.285156 -86.15625 35.867188 -86.3125 36.640625 -86.3125 L 51.1875 -86.3125 C 52.894531 -86.3125 53.976562 -85.535156 54.4375 -83.984375 L 83.53125 -2.796875 C 83.675781 -2.328125 83.75 -1.976562 83.75 -1.75 C 83.75 -1.28125 83.613281 -0.867188 83.34375 -0.515625 C 83.070312 -0.171875 82.707031 0 82.25 0 L 68.171875 0 C 67.085938 0 66.390625 -0.503906 66.078125 -1.515625 L 59.328125 -20.359375 C 59.171875 -20.742188 59.015625 -21.03125 58.859375 -21.21875 C 58.703125 -21.414062 58.394531 -21.515625 57.9375 -21.515625 L 27.5625 -21.515625 C 26.863281 -21.515625 26.398438 -21.164062 26.171875 -20.46875 L 19.1875 -1.390625 C 18.957031 -0.460938 18.257812 0 17.09375 0 Z M 53.75 -34.671875 C 54.445312 -34.671875 54.796875 -34.976562 54.796875 -35.59375 C 54.796875 -35.976562 54.753906 -36.289062 54.671875 -36.53125 L 43.5 -67.59375 C 43.269531 -68.132812 43 -68.40625 42.6875 -68.40625 C 42.382812 -68.40625 42.113281 -68.09375 41.875 -67.46875 L 30.59375 -36.53125 C 30.4375 -36.0625 30.359375 -35.710938 30.359375 -35.484375 C 30.359375 -34.941406 30.75 -34.671875 31.53125 -34.671875 Z M 53.75 -34.671875 "/></g></g></g><g fill="#ffffff" fill-opacity="1"><g transform="translate(626.853937, 242.821363)"><g><path d="M 57.8125 -67.46875 C 55.71875 -69.875 53.273438 -71.753906 50.484375 -73.109375 C 47.691406 -74.460938 44.125 -75.140625 39.78125 -75.140625 C 34.664062 -75.140625 30.726562 -74.148438 27.96875 -72.171875 C 25.21875 -70.203125 23.84375 -67.507812 23.84375 -64.09375 C 23.84375 -59.363281 27.296875 -55.914062 34.203125 -53.75 L 52.109375 -48.390625 C 65.523438 -44.359375 72.234375 -36.410156 72.234375 -24.546875 C 72.234375 -19.347656 70.875 -14.8125 68.15625 -10.9375 C 65.445312 -7.0625 61.59375 -4.078125 56.59375 -1.984375 C 51.59375 0.109375 45.679688 1.15625 38.859375 1.15625 C 31.253906 1.15625 24.460938 -0.140625 18.484375 -2.734375 C 12.515625 -5.328125 7.984375 -8.992188 4.890625 -13.734375 C 4.578125 -14.503906 4.421875 -14.96875 4.421875 -15.125 C 4.421875 -15.738281 4.804688 -16.320312 5.578125 -16.875 L 12.90625 -21.984375 C 13.757812 -22.453125 14.421875 -22.6875 14.890625 -22.6875 C 15.515625 -22.6875 16.019531 -22.414062 16.40625 -21.875 C 19.425781 -17.914062 22.46875 -15.117188 25.53125 -13.484375 C 28.59375 -11.859375 32.6875 -11.046875 37.8125 -11.046875 C 43.394531 -11.046875 47.773438 -11.976562 50.953125 -13.84375 C 54.128906 -15.707031 55.71875 -18.535156 55.71875 -22.328125 C 55.71875 -24.816406 54.921875 -26.910156 53.328125 -28.609375 C 51.742188 -30.316406 48.9375 -31.832031 44.90625 -33.15625 L 27.34375 -38.5 C 20.90625 -40.4375 15.976562 -43.519531 12.5625 -47.75 C 9.144531 -51.976562 7.4375 -56.726562 7.4375 -62 C 7.4375 -66.96875 8.753906 -71.367188 11.390625 -75.203125 C 14.035156 -79.046875 17.78125 -82.050781 22.625 -84.21875 C 27.46875 -86.394531 33.070312 -87.484375 39.4375 -87.484375 C 45.5625 -87.484375 51.203125 -86.414062 56.359375 -84.28125 C 61.515625 -82.144531 65.609375 -79.21875 68.640625 -75.5 C 69.097656 -74.875 69.328125 -74.367188 69.328125 -73.984375 C 69.328125 -73.597656 69.097656 -73.210938 68.640625 -72.828125 L 60.375 -66.65625 C 60.0625 -66.425781 59.75 -66.3125 59.4375 -66.3125 C 59.050781 -66.3125 58.507812 -66.695312 57.8125 -67.46875 Z M 57.8125 -67.46875 "/></g></g></g></svg>