<svg xmlns="http://www.w3.org/2000/svg" xmlns:xlink="http://www.w3.org/1999/xlink" width="1000" zoomAndPan="magnify" viewBox="0 0 750 374.999991" height="500" preserveAspectRatio="xMidYMid meet" version="1.0"><defs><g/><clipPath id="779a4ccb43"><path d="M 9.34375 65 L 268.09375 65 L 268.09375 310 L 9.34375 310 Z M 9.34375 65 " clip-rule="nonzero"/></clipPath><clipPath id="6875bae08a"><path d="M 147.695312 205.824219 L 147.695312 95.933594 C 147.695312 91.671875 151.765625 88.589844 155.867188 89.738281 L 263.382812 119.910156 C 266.160156 120.6875 268.078125 123.21875 268.078125 126.105469 L 268.078125 235.996094 C 268.078125 240.257812 264.011719 243.339844 259.90625 242.191406 L 152.390625 212.019531 C 149.613281 211.242188 147.695312 208.710938 147.695312 205.824219 Z M 66.539062 134.449219 L 121.898438 149.984375 C 126 151.136719 130.070312 148.050781 130.070312 143.789062 L 130.070312 87.300781 C 130.070312 84.414062 128.148438 81.882812 125.375 81.105469 L 70.015625 65.570312 C 65.910156 64.417969 61.84375 67.503906 61.84375 71.765625 L 61.84375 128.253906 C 61.84375 131.140625 63.761719 133.671875 66.539062 134.449219 Z M 125.375 163.035156 L 17.855469 132.867188 C 13.753906 131.714844 9.683594 134.800781 9.683594 139.0625 L 9.683594 248.953125 C 9.683594 251.835938 11.601562 254.367188 14.378906 255.148438 L 121.898438 285.316406 C 126 286.46875 130.070312 283.382812 130.070312 279.121094 L 130.070312 169.230469 C 130.070312 166.347656 128.148438 163.816406 125.375 163.035156 Z M 211.226562 240.605469 L 155.867188 225.074219 C 151.765625 223.921875 147.695312 227.003906 147.695312 231.265625 L 147.695312 287.757812 C 147.695312 290.640625 149.613281 293.171875 152.390625 293.953125 L 207.75 309.484375 C 211.855469 310.636719 215.921875 307.550781 215.921875 303.289062 L 215.921875 246.800781 C 215.921875 243.917969 214.003906 241.386719 211.226562 240.605469 Z M 211.226562 240.605469 " clip-rule="nonzero"/></clipPath><linearGradient x1="114.296441" gradientTransform="matrix(0, 0.516791, -0.516791, 0, 268.079833, 65.328128)" y1="-47.633972" x2="358.555273" gradientUnits="userSpaceOnUse" y2="547.471813" id="23ec27cf68"><stop stop-opacity="1" stop-color="rgb(77.598572%, 30.999756%, 100%)" offset="0"/><stop stop-opacity="1" stop-color="rgb(77.598572%, 30.999756%, 100%)" offset="0.0625"/><stop stop-opacity="1" stop-color="rgb(77.542114%, 30.987549%, 100%)" offset="0.09375"/><stop stop-opacity="1" stop-color="rgb(77.330017%, 30.941772%, 100%)" offset="0.101562"/><stop stop-opacity="1" stop-color="rgb(77.020264%, 30.874634%, 100%)" offset="0.109375"/><stop stop-opacity="1" stop-color="rgb(76.71051%, 30.809021%, 100%)" offset="0.117188"/><stop stop-opacity="1" stop-color="rgb(76.400757%, 30.741882%, 100%)" offset="0.125"/><stop stop-opacity="1" stop-color="rgb(76.091003%, 30.67627%, 100%)" offset="0.132812"/><stop stop-opacity="1" stop-color="rgb(75.78125%, 30.609131%, 100%)" offset="0.140625"/><stop stop-opacity="1" stop-color="rgb(75.471497%, 30.543518%, 100%)" offset="0.148438"/><stop stop-opacity="1" stop-color="rgb(75.161743%, 30.476379%, 100%)" offset="0.15625"/><stop stop-opacity="1" stop-color="rgb(74.85199%, 30.410767%, 100%)" offset="0.164062"/><stop stop-opacity="1" stop-color="rgb(74.542236%, 30.343628%, 100%)" offset="0.171875"/><stop stop-opacity="1" stop-color="rgb(74.232483%, 30.278015%, 100%)" offset="0.179688"/><stop stop-opacity="1" stop-color="rgb(73.922729%, 30.210876%, 100%)" offset="0.1875"/><stop stop-opacity="1" stop-color="rgb(73.61145%, 30.145264%, 100%)" offset="0.195313"/><stop stop-opacity="1" stop-color="rgb(73.301697%, 30.078125%, 100%)" offset="0.203125"/><stop stop-opacity="1" stop-color="rgb(72.991943%, 30.012512%, 100%)" offset="0.210938"/><stop stop-opacity="1" stop-color="rgb(72.68219%, 29.945374%, 100%)" offset="0.21875"/><stop stop-opacity="1" stop-color="rgb(72.372437%, 29.879761%, 100%)" offset="0.226562"/><stop stop-opacity="1" stop-color="rgb(72.062683%, 29.812622%, 100%)" offset="0.234375"/><stop stop-opacity="1" stop-color="rgb(71.75293%, 29.747009%, 100%)" offset="0.242188"/><stop stop-opacity="1" stop-color="rgb(71.443176%, 29.679871%, 100%)" offset="0.25"/><stop stop-opacity="1" stop-color="rgb(71.133423%, 29.614258%, 100%)" offset="0.257813"/><stop stop-opacity="1" stop-color="rgb(70.823669%, 29.547119%, 100%)" offset="0.265625"/><stop stop-opacity="1" stop-color="rgb(70.513916%, 29.481506%, 100%)" offset="0.273438"/><stop stop-opacity="1" stop-color="rgb(70.204163%, 29.414368%, 100%)" offset="0.280949"/><stop stop-opacity="1" stop-color="rgb(70.050049%, 29.382324%, 100%)" offset="0.28125"/><stop stop-opacity="1" stop-color="rgb(69.894409%, 29.348755%, 100%)" offset="0.289062"/><stop stop-opacity="1" stop-color="rgb(69.584656%, 29.281616%, 100%)" offset="0.296875"/><stop stop-opacity="1" stop-color="rgb(69.274902%, 29.214478%, 100%)" offset="0.304688"/><stop stop-opacity="1" stop-color="rgb(68.965149%, 29.148865%, 100%)" offset="0.3125"/><stop stop-opacity="1" stop-color="rgb(68.655396%, 29.081726%, 100%)" offset="0.320312"/><stop stop-opacity="1" stop-color="rgb(68.345642%, 29.016113%, 100%)" offset="0.328125"/><stop stop-opacity="1" stop-color="rgb(68.035889%, 28.948975%, 100%)" offset="0.335938"/><stop stop-opacity="1" stop-color="rgb(67.726135%, 28.883362%, 100%)" offset="0.34375"/><stop stop-opacity="1" stop-color="rgb(67.416382%, 28.816223%, 100%)" offset="0.351562"/><stop stop-opacity="1" stop-color="rgb(67.106628%, 28.75061%, 100%)" offset="0.359375"/><stop stop-opacity="1" stop-color="rgb(66.796875%, 28.683472%, 100%)" offset="0.367188"/><stop stop-opacity="1" stop-color="rgb(66.487122%, 28.617859%, 100%)" offset="0.375"/><stop stop-opacity="1" stop-color="rgb(66.177368%, 28.55072%, 100%)" offset="0.382812"/><stop stop-opacity="1" stop-color="rgb(65.867615%, 28.485107%, 100%)" offset="0.390625"/><stop stop-opacity="1" stop-color="rgb(65.557861%, 28.417969%, 100%)" offset="0.398438"/><stop stop-opacity="1" stop-color="rgb(65.248108%, 28.352356%, 100%)" offset="0.40625"/><stop stop-opacity="1" stop-color="rgb(64.938354%, 28.285217%, 100%)" offset="0.414063"/><stop stop-opacity="1" stop-color="rgb(64.628601%, 28.219604%, 100%)" offset="0.421875"/><stop stop-opacity="1" stop-color="rgb(64.317322%, 28.152466%, 100%)" offset="0.429688"/><stop stop-opacity="1" stop-color="rgb(64.007568%, 28.086853%, 100%)" offset="0.4375"/><stop stop-opacity="1" stop-color="rgb(63.697815%, 28.019714%, 100%)" offset="0.445312"/><stop stop-opacity="1" stop-color="rgb(63.388062%, 27.954102%, 100%)" offset="0.453125"/><stop stop-opacity="1" stop-color="rgb(63.078308%, 27.886963%, 100%)" offset="0.460938"/><stop stop-opacity="1" stop-color="rgb(62.768555%, 27.82135%, 100%)" offset="0.46875"/><stop stop-opacity="1" stop-color="rgb(62.458801%, 27.754211%, 100%)" offset="0.476562"/><stop stop-opacity="1" stop-color="rgb(62.149048%, 27.688599%, 100%)" offset="0.484375"/><stop stop-opacity="1" stop-color="rgb(61.839294%, 27.62146%, 100%)" offset="0.492187"/><stop stop-opacity="1" stop-color="rgb(61.529541%, 27.555847%, 100%)" offset="0.5"/><stop stop-opacity="1" stop-color="rgb(61.219788%, 27.488708%, 100%)" offset="0.507812"/><stop stop-opacity="1" stop-color="rgb(60.910034%, 27.423096%, 100%)" offset="0.515625"/><stop stop-opacity="1" stop-color="rgb(60.600281%, 27.355957%, 100%)" offset="0.523438"/><stop stop-opacity="1" stop-color="rgb(60.290527%, 27.290344%, 100%)" offset="0.53125"/><stop stop-opacity="1" stop-color="rgb(59.980774%, 27.223206%, 100%)" offset="0.539062"/><stop stop-opacity="1" stop-color="rgb(59.671021%, 27.157593%, 100%)" offset="0.546875"/><stop stop-opacity="1" stop-color="rgb(59.361267%, 27.090454%, 100%)" offset="0.554688"/><stop stop-opacity="1" stop-color="rgb(59.051514%, 27.024841%, 100%)" offset="0.5625"/><stop stop-opacity="1" stop-color="rgb(58.74176%, 26.957703%, 100%)" offset="0.570312"/><stop stop-opacity="1" stop-color="rgb(58.432007%, 26.89209%, 100%)" offset="0.578125"/><stop stop-opacity="1" stop-color="rgb(58.122253%, 26.824951%, 100%)" offset="0.585938"/><stop stop-opacity="1" stop-color="rgb(57.8125%, 26.759338%, 100%)" offset="0.59375"/><stop stop-opacity="1" stop-color="rgb(57.502747%, 26.6922%, 100%)" offset="0.601562"/><stop stop-opacity="1" stop-color="rgb(57.192993%, 26.626587%, 100%)" offset="0.609375"/><stop stop-opacity="1" stop-color="rgb(56.88324%, 26.559448%, 100%)" offset="0.617188"/><stop stop-opacity="1" stop-color="rgb(56.573486%, 26.493835%, 100%)" offset="0.625"/><stop stop-opacity="1" stop-color="rgb(56.263733%, 26.426697%, 100%)" offset="0.632812"/><stop stop-opacity="1" stop-color="rgb(55.953979%, 26.361084%, 100%)" offset="0.640625"/><stop stop-opacity="1" stop-color="rgb(55.644226%, 26.293945%, 100%)" offset="0.648438"/><stop stop-opacity="1" stop-color="rgb(55.334473%, 26.228333%, 100%)" offset="0.65625"/><stop stop-opacity="1" stop-color="rgb(55.023193%, 26.161194%, 100%)" offset="0.664062"/><stop stop-opacity="1" stop-color="rgb(54.71344%, 26.095581%, 100%)" offset="0.671875"/><stop stop-opacity="1" stop-color="rgb(54.403687%, 26.028442%, 100%)" offset="0.679688"/><stop stop-opacity="1" stop-color="rgb(54.093933%, 25.96283%, 100%)" offset="0.6875"/><stop stop-opacity="1" stop-color="rgb(53.78418%, 25.895691%, 100%)" offset="0.695312"/><stop stop-opacity="1" stop-color="rgb(53.474426%, 25.830078%, 100%)" offset="0.703125"/><stop stop-opacity="1" stop-color="rgb(53.164673%, 25.762939%, 100%)" offset="0.710938"/><stop stop-opacity="1" stop-color="rgb(52.854919%, 25.697327%, 100%)" offset="0.71875"/><stop stop-opacity="1" stop-color="rgb(52.545166%, 25.630188%, 100%)" offset="0.719051"/><stop stop-opacity="1" stop-color="rgb(52.391052%, 25.598145%, 100%)" offset="0.726562"/><stop stop-opacity="1" stop-color="rgb(52.235413%, 25.564575%, 100%)" offset="0.734375"/><stop stop-opacity="1" stop-color="rgb(51.925659%, 25.497437%, 100%)" offset="0.742188"/><stop stop-opacity="1" stop-color="rgb(51.615906%, 25.431824%, 100%)" offset="0.75"/><stop stop-opacity="1" stop-color="rgb(51.306152%, 25.364685%, 100%)" offset="0.757812"/><stop stop-opacity="1" stop-color="rgb(50.996399%, 25.299072%, 100%)" offset="0.765625"/><stop stop-opacity="1" stop-color="rgb(50.686646%, 25.231934%, 100%)" offset="0.773438"/><stop stop-opacity="1" stop-color="rgb(50.376892%, 25.166321%, 100%)" offset="0.78125"/><stop stop-opacity="1" stop-color="rgb(50.067139%, 25.099182%, 100%)" offset="0.789062"/><stop stop-opacity="1" stop-color="rgb(49.757385%, 25.033569%, 100%)" offset="0.796875"/><stop stop-opacity="1" stop-color="rgb(49.447632%, 24.966431%, 100%)" offset="0.804687"/><stop stop-opacity="1" stop-color="rgb(49.137878%, 24.900818%, 100%)" offset="0.8125"/><stop stop-opacity="1" stop-color="rgb(48.828125%, 24.833679%, 100%)" offset="0.820312"/><stop stop-opacity="1" stop-color="rgb(48.518372%, 24.768066%, 100%)" offset="0.828125"/><stop stop-opacity="1" stop-color="rgb(48.28186%, 24.716187%, 100%)" offset="0.84375"/><stop stop-opacity="1" stop-color="rgb(48.199463%, 24.699402%, 100%)" offset="0.875"/><stop stop-opacity="1" stop-color="rgb(48.199463%, 24.699402%, 100%)" offset="1"/></linearGradient></defs><g clip-path="url(#779a4ccb43)"><g clip-path="url(#6875bae08a)"><path fill="url(#23ec27cf68)" d="M 268.078125 64.417969 L 9.683594 64.417969 L 9.683594 310.398438 L 268.078125 310.398438 Z M 268.078125 64.417969 " fill-rule="nonzero"/></g></g><g fill="#ffffff" fill-opacity="1"><g transform="translate(306.083203, 220.547865)"><g><path d="M 57.46875 -67.078125 C 55.382812 -69.460938 52.957031 -71.328125 50.1875 -72.671875 C 47.414062 -74.023438 43.867188 -74.703125 39.546875 -74.703125 C 34.460938 -74.703125 30.550781 -73.71875 27.8125 -71.75 C 25.070312 -69.789062 23.703125 -67.113281 23.703125 -63.71875 C 23.703125 -59.007812 27.132812 -55.578125 34 -53.421875 L 51.8125 -48.109375 C 65.144531 -44.097656 71.8125 -36.195312 71.8125 -24.40625 C 71.8125 -19.238281 70.460938 -14.726562 67.765625 -10.875 C 65.066406 -7.019531 61.226562 -4.050781 56.25 -1.96875 C 51.28125 0.113281 45.40625 1.15625 38.625 1.15625 C 31.070312 1.15625 24.328125 -0.132812 18.390625 -2.71875 C 12.453125 -5.300781 7.941406 -8.941406 4.859375 -13.640625 C 4.546875 -14.410156 4.390625 -14.875 4.390625 -15.03125 C 4.390625 -15.644531 4.773438 -16.222656 5.546875 -16.765625 L 12.84375 -21.859375 C 13.6875 -22.316406 14.335938 -22.546875 14.796875 -22.546875 C 15.421875 -22.546875 15.925781 -22.273438 16.3125 -21.734375 C 19.3125 -17.804688 22.332031 -15.03125 25.375 -13.40625 C 28.425781 -11.789062 32.492188 -10.984375 37.578125 -10.984375 C 43.128906 -10.984375 47.484375 -11.90625 50.640625 -13.75 C 53.804688 -15.601562 55.390625 -18.421875 55.390625 -22.203125 C 55.390625 -24.671875 54.597656 -26.75 53.015625 -28.4375 C 51.441406 -30.132812 48.648438 -31.640625 44.640625 -32.953125 L 27.171875 -38.28125 C 20.773438 -40.207031 15.878906 -43.269531 12.484375 -47.46875 C 9.097656 -51.664062 7.40625 -56.390625 7.40625 -61.640625 C 7.40625 -66.566406 8.710938 -70.9375 11.328125 -74.75 C 13.953125 -78.570312 17.671875 -81.5625 22.484375 -83.71875 C 27.304688 -85.882812 32.878906 -86.96875 39.203125 -86.96875 C 45.296875 -86.96875 50.90625 -85.90625 56.03125 -83.78125 C 61.15625 -81.65625 65.222656 -78.742188 68.234375 -75.046875 C 68.691406 -74.429688 68.921875 -73.929688 68.921875 -73.546875 C 68.921875 -73.160156 68.691406 -72.773438 68.234375 -72.390625 L 60.015625 -66.265625 C 59.710938 -66.035156 59.40625 -65.921875 59.09375 -65.921875 C 58.707031 -65.921875 58.164062 -66.304688 57.46875 -67.078125 Z M 57.46875 -67.078125 "/></g></g></g><g fill="#ffffff" fill-opacity="1"><g transform="translate(382.98421, 220.547865)"><g><path d="M 34.578125 1.15625 C 28.640625 1.15625 23.359375 -0.171875 18.734375 -2.828125 C 14.109375 -5.492188 10.519531 -9.210938 7.96875 -13.984375 C 5.425781 -18.765625 4.15625 -24.203125 4.15625 -30.296875 C 4.15625 -36.546875 5.46875 -42.113281 8.09375 -47 C 10.71875 -51.894531 14.34375 -55.691406 18.96875 -58.390625 C 23.59375 -61.097656 28.832031 -62.453125 34.6875 -62.453125 C 40.625 -62.453125 45.90625 -61.082031 50.53125 -58.34375 C 55.15625 -55.601562 58.738281 -51.804688 61.28125 -46.953125 C 63.832031 -42.097656 65.109375 -36.582031 65.109375 -30.40625 C 65.109375 -24.320312 63.816406 -18.890625 61.234375 -14.109375 C 58.648438 -9.328125 55.046875 -5.585938 50.421875 -2.890625 C 45.796875 -0.191406 40.515625 1.15625 34.578125 1.15625 Z M 34.6875 -9.140625 C 39.625 -9.140625 43.382812 -10.988281 45.96875 -14.6875 C 48.550781 -18.382812 49.84375 -23.703125 49.84375 -30.640625 C 49.84375 -37.660156 48.53125 -43.054688 45.90625 -46.828125 C 43.289062 -50.609375 39.550781 -52.5 34.6875 -52.5 C 29.832031 -52.5 26.070312 -50.609375 23.40625 -46.828125 C 20.75 -43.054688 19.421875 -37.660156 19.421875 -30.640625 C 19.421875 -23.703125 20.75 -18.382812 23.40625 -14.6875 C 26.070312 -10.988281 29.832031 -9.140625 34.6875 -9.140625 Z M 34.6875 -9.140625 "/></g></g></g><g fill="#ffffff" fill-opacity="1"><g transform="translate(452.252942, 220.547865)"><g><path d="M 11.328125 -85.8125 C 22.359375 -85.8125 30.109375 -85.769531 34.578125 -85.6875 C 64.722656 -85 79.796875 -70.851562 79.796875 -43.25 C 79.796875 -29.445312 75.921875 -18.785156 68.171875 -11.265625 C 60.421875 -3.753906 48.953125 0 33.765625 0 L 11.453125 0 C 9.910156 0 9.140625 -0.804688 9.140625 -2.421875 L 9.140625 -83.71875 C 9.140625 -84.488281 9.289062 -85.03125 9.59375 -85.34375 C 9.90625 -85.65625 10.484375 -85.8125 11.328125 -85.8125 Z M 27.296875 -73.546875 C 26.597656 -73.546875 26.25 -73.003906 26.25 -71.921875 L 26.25 -13.640625 C 26.25 -13.109375 26.363281 -12.742188 26.59375 -12.546875 C 26.820312 -12.359375 27.207031 -12.265625 27.75 -12.265625 L 30.640625 -12.265625 C 41.515625 -12.265625 49.4375 -14.648438 54.40625 -19.421875 C 59.382812 -24.203125 61.875 -32.144531 61.875 -43.25 C 61.875 -50.414062 60.867188 -56.140625 58.859375 -60.421875 C 56.859375 -64.703125 53.867188 -67.84375 49.890625 -69.84375 C 45.921875 -71.851562 40.738281 -73.007812 34.34375 -73.3125 Z M 27.296875 -73.546875 "/></g></g></g><g fill="#ffffff" fill-opacity="1"><g transform="translate(537.942634, 220.547865)"><g><path d="M 5.78125 0 C 4.78125 0 4.28125 -0.539062 4.28125 -1.625 C 4.28125 -1.851562 4.359375 -2.273438 4.515625 -2.890625 L 33.65625 -83.71875 C 33.957031 -84.488281 34.300781 -85.03125 34.6875 -85.34375 C 35.070312 -85.65625 35.648438 -85.8125 36.421875 -85.8125 L 50.875 -85.8125 C 52.570312 -85.8125 53.65625 -85.039062 54.125 -83.5 L 83.03125 -2.78125 C 83.1875 -2.3125 83.265625 -1.960938 83.265625 -1.734375 C 83.265625 -1.273438 83.128906 -0.867188 82.859375 -0.515625 C 82.585938 -0.171875 82.222656 0 81.765625 0 L 67.765625 0 C 66.679688 0 65.988281 -0.5 65.6875 -1.5 L 58.984375 -20.234375 C 58.828125 -20.617188 58.671875 -20.90625 58.515625 -21.09375 C 58.359375 -21.289062 58.050781 -21.390625 57.59375 -21.390625 L 27.40625 -21.390625 C 26.707031 -21.390625 26.242188 -21.046875 26.015625 -20.359375 L 19.078125 -1.390625 C 18.847656 -0.460938 18.15625 0 17 0 Z M 53.421875 -34.453125 C 54.117188 -34.453125 54.46875 -34.765625 54.46875 -35.390625 C 54.46875 -35.773438 54.425781 -36.082031 54.34375 -36.3125 L 43.25 -67.1875 C 43.019531 -67.726562 42.75 -68 42.4375 -68 C 42.132812 -68 41.863281 -67.691406 41.625 -67.078125 L 30.40625 -36.3125 C 30.257812 -35.851562 30.1875 -35.503906 30.1875 -35.265625 C 30.1875 -34.722656 30.570312 -34.453125 31.34375 -34.453125 Z M 53.421875 -34.453125 "/></g></g></g><g fill="#ffffff" fill-opacity="1"><g transform="translate(625.366953, 220.547865)"><g><path d="M 57.46875 -67.078125 C 55.382812 -69.460938 52.957031 -71.328125 50.1875 -72.671875 C 47.414062 -74.023438 43.867188 -74.703125 39.546875 -74.703125 C 34.460938 -74.703125 30.550781 -73.71875 27.8125 -71.75 C 25.070312 -69.789062 23.703125 -67.113281 23.703125 -63.71875 C 23.703125 -59.007812 27.132812 -55.578125 34 -53.421875 L 51.8125 -48.109375 C 65.144531 -44.097656 71.8125 -36.195312 71.8125 -24.40625 C 71.8125 -19.238281 70.460938 -14.726562 67.765625 -10.875 C 65.066406 -7.019531 61.226562 -4.050781 56.25 -1.96875 C 51.28125 0.113281 45.40625 1.15625 38.625 1.15625 C 31.070312 1.15625 24.328125 -0.132812 18.390625 -2.71875 C 12.453125 -5.300781 7.941406 -8.941406 4.859375 -13.640625 C 4.546875 -14.410156 4.390625 -14.875 4.390625 -15.03125 C 4.390625 -15.644531 4.773438 -16.222656 5.546875 -16.765625 L 12.84375 -21.859375 C 13.6875 -22.316406 14.335938 -22.546875 14.796875 -22.546875 C 15.421875 -22.546875 15.925781 -22.273438 16.3125 -21.734375 C 19.3125 -17.804688 22.332031 -15.03125 25.375 -13.40625 C 28.425781 -11.789062 32.492188 -10.984375 37.578125 -10.984375 C 43.128906 -10.984375 47.484375 -11.90625 50.640625 -13.75 C 53.804688 -15.601562 55.390625 -18.421875 55.390625 -22.203125 C 55.390625 -24.671875 54.597656 -26.75 53.015625 -28.4375 C 51.441406 -30.132812 48.648438 -31.640625 44.640625 -32.953125 L 27.171875 -38.28125 C 20.773438 -40.207031 15.878906 -43.269531 12.484375 -47.46875 C 9.097656 -51.664062 7.40625 -56.390625 7.40625 -61.640625 C 7.40625 -66.566406 8.710938 -70.9375 11.328125 -74.75 C 13.953125 -78.570312 17.671875 -81.5625 22.484375 -83.71875 C 27.304688 -85.882812 32.878906 -86.96875 39.203125 -86.96875 C 45.296875 -86.96875 50.90625 -85.90625 56.03125 -83.78125 C 61.15625 -81.65625 65.222656 -78.742188 68.234375 -75.046875 C 68.691406 -74.429688 68.921875 -73.929688 68.921875 -73.546875 C 68.921875 -73.160156 68.691406 -72.773438 68.234375 -72.390625 L 60.015625 -66.265625 C 59.710938 -66.035156 59.40625 -65.921875 59.09375 -65.921875 C 58.707031 -65.921875 58.164062 -66.304688 57.46875 -67.078125 Z M 57.46875 -67.078125 "/></g></g></g><g fill="#ffffff" fill-opacity="1"><g transform="translate(282.363614, 284.161548)"><g><path d="M 11.46875 0.296875 C 9.632812 0.296875 7.875 0.0195312 6.1875 -0.53125 C 4.507812 -1.082031 3.171875 -1.828125 2.171875 -2.765625 C 1.804688 -3.109375 1.625 -3.535156 1.625 -4.046875 C 1.625 -4.390625 1.71875 -4.6875 1.90625 -4.9375 C 2.101562 -5.195312 2.335938 -5.328125 2.609375 -5.328125 C 2.929688 -5.328125 3.273438 -5.191406 3.640625 -4.921875 C 5.921875 -3.160156 8.519531 -2.28125 11.4375 -2.28125 C 13.550781 -2.28125 15.171875 -2.679688 16.296875 -3.484375 C 17.421875 -4.296875 17.984375 -5.453125 17.984375 -6.953125 C 17.984375 -7.804688 17.710938 -8.5 17.171875 -9.03125 C 16.640625 -9.5625 15.929688 -9.984375 15.046875 -10.296875 C 14.160156 -10.617188 12.96875 -10.953125 11.46875 -11.296875 C 9.457031 -11.753906 7.804688 -12.238281 6.515625 -12.75 C 5.234375 -13.269531 4.191406 -14.007812 3.390625 -14.96875 C 2.597656 -15.925781 2.203125 -17.175781 2.203125 -18.71875 C 2.203125 -20.1875 2.597656 -21.488281 3.390625 -22.625 C 4.191406 -23.769531 5.3125 -24.65625 6.75 -25.28125 C 8.1875 -25.90625 9.820312 -26.21875 11.65625 -26.21875 C 13.375 -26.21875 14.972656 -25.953125 16.453125 -25.421875 C 17.941406 -24.898438 19.1875 -24.148438 20.1875 -23.171875 C 20.582031 -22.773438 20.78125 -22.347656 20.78125 -21.890625 C 20.78125 -21.546875 20.679688 -21.242188 20.484375 -20.984375 C 20.285156 -20.722656 20.050781 -20.59375 19.78125 -20.59375 C 19.519531 -20.59375 19.164062 -20.726562 18.71875 -21 C 17.519531 -21.976562 16.40625 -22.664062 15.375 -23.0625 C 14.34375 -23.457031 13.101562 -23.65625 11.65625 -23.65625 C 9.625 -23.65625 8.039062 -23.226562 6.90625 -22.375 C 5.78125 -21.53125 5.21875 -20.347656 5.21875 -18.828125 C 5.21875 -17.523438 5.710938 -16.550781 6.703125 -15.90625 C 7.703125 -15.257812 9.234375 -14.691406 11.296875 -14.203125 C 13.523438 -13.660156 15.273438 -13.160156 16.546875 -12.703125 C 17.828125 -12.253906 18.890625 -11.578125 19.734375 -10.671875 C 20.578125 -9.765625 21 -8.550781 21 -7.03125 C 21 -5.582031 20.597656 -4.304688 19.796875 -3.203125 C 19.003906 -2.097656 17.882812 -1.238281 16.4375 -0.625 C 14.988281 -0.0078125 13.332031 0.296875 11.46875 0.296875 Z M 11.46875 0.296875 "/></g></g></g><g fill="#ffffff" fill-opacity="1"><g transform="translate(305.057353, 284.161548)"><g><path d="M 10.1875 0.25 C 8.5 0.25 7.007812 -0.125 5.71875 -0.875 C 4.425781 -1.632812 3.429688 -2.71875 2.734375 -4.125 C 2.035156 -5.539062 1.6875 -7.179688 1.6875 -9.046875 C 1.6875 -10.910156 2.035156 -12.546875 2.734375 -13.953125 C 3.429688 -15.367188 4.425781 -16.457031 5.71875 -17.21875 C 7.007812 -17.976562 8.5 -18.359375 10.1875 -18.359375 C 11.875 -18.359375 13.367188 -17.976562 14.671875 -17.21875 C 15.972656 -16.457031 16.972656 -15.367188 17.671875 -13.953125 C 18.367188 -12.546875 18.71875 -10.910156 18.71875 -9.046875 C 18.71875 -7.179688 18.367188 -5.539062 17.671875 -4.125 C 16.972656 -2.71875 15.972656 -1.632812 14.671875 -0.875 C 13.367188 -0.125 11.875 0.25 10.1875 0.25 Z M 10.1875 -2.203125 C 11.957031 -2.203125 13.3125 -2.785156 14.25 -3.953125 C 15.195312 -5.117188 15.671875 -6.816406 15.671875 -9.046875 C 15.671875 -11.234375 15.191406 -12.921875 14.234375 -14.109375 C 13.273438 -15.296875 11.925781 -15.890625 10.1875 -15.890625 C 8.445312 -15.890625 7.097656 -15.296875 6.140625 -14.109375 C 5.179688 -12.921875 4.703125 -11.234375 4.703125 -9.046875 C 4.703125 -6.835938 5.175781 -5.144531 6.125 -3.96875 C 7.070312 -2.789062 8.425781 -2.203125 10.1875 -2.203125 Z M 10.1875 -2.203125 "/></g></g></g><g fill="#ffffff" fill-opacity="1"><g transform="translate(325.470675, 284.161548)"><g><path d="M 4.265625 0.1875 C 3.828125 0.1875 3.46875 0.0546875 3.1875 -0.203125 C 2.90625 -0.460938 2.765625 -0.820312 2.765625 -1.28125 L 2.765625 -24.640625 C 2.765625 -25.109375 2.90625 -25.46875 3.1875 -25.71875 C 3.46875 -25.976562 3.828125 -26.109375 4.265625 -26.109375 C 4.679688 -26.109375 5.03125 -25.976562 5.3125 -25.71875 C 5.59375 -25.46875 5.734375 -25.109375 5.734375 -24.640625 L 5.734375 -1.28125 C 5.734375 -0.820312 5.59375 -0.460938 5.3125 -0.203125 C 5.03125 0.0546875 4.679688 0.1875 4.265625 0.1875 Z M 4.265625 0.1875 "/></g></g></g><g fill="#ffffff" fill-opacity="1"><g transform="translate(334.003807, 284.161548)"><g><path d="M 10.078125 -18.359375 C 14.566406 -18.359375 16.8125 -16.003906 16.8125 -11.296875 L 16.8125 -1.28125 C 16.8125 -0.84375 16.679688 -0.488281 16.421875 -0.21875 C 16.160156 0.0507812 15.8125 0.1875 15.375 0.1875 C 14.9375 0.1875 14.582031 0.0507812 14.3125 -0.21875 C 14.039062 -0.488281 13.90625 -0.84375 13.90625 -1.28125 L 13.90625 -3.046875 C 13.4375 -1.992188 12.722656 -1.179688 11.765625 -0.609375 C 10.804688 -0.0351562 9.703125 0.25 8.453125 0.25 C 7.304688 0.25 6.25 0.0195312 5.28125 -0.4375 C 4.3125 -0.90625 3.546875 -1.554688 2.984375 -2.390625 C 2.421875 -3.222656 2.140625 -4.144531 2.140625 -5.15625 C 2.140625 -6.5 2.476562 -7.546875 3.15625 -8.296875 C 3.84375 -9.046875 4.972656 -9.582031 6.546875 -9.90625 C 8.117188 -10.238281 10.300781 -10.40625 13.09375 -10.40625 L 13.90625 -10.40625 L 13.90625 -11.625 C 13.90625 -13.09375 13.601562 -14.171875 13 -14.859375 C 12.394531 -15.546875 11.421875 -15.890625 10.078125 -15.890625 C 8.410156 -15.890625 6.71875 -15.4375 5 -14.53125 C 4.34375 -14.113281 3.878906 -13.90625 3.609375 -13.90625 C 3.304688 -13.90625 3.054688 -14.015625 2.859375 -14.234375 C 2.671875 -14.453125 2.578125 -14.734375 2.578125 -15.078125 C 2.578125 -15.421875 2.679688 -15.722656 2.890625 -15.984375 C 3.097656 -16.242188 3.4375 -16.503906 3.90625 -16.765625 C 4.757812 -17.265625 5.726562 -17.65625 6.8125 -17.9375 C 7.90625 -18.21875 8.992188 -18.359375 10.078125 -18.359375 Z M 8.859375 -2.09375 C 10.335938 -2.09375 11.546875 -2.585938 12.484375 -3.578125 C 13.429688 -4.578125 13.90625 -5.863281 13.90625 -7.4375 L 13.90625 -8.5 L 13.234375 -8.5 C 11.078125 -8.5 9.4375 -8.40625 8.3125 -8.21875 C 7.1875 -8.03125 6.382812 -7.722656 5.90625 -7.296875 C 5.425781 -6.867188 5.1875 -6.238281 5.1875 -5.40625 C 5.1875 -4.445312 5.535156 -3.65625 6.234375 -3.03125 C 6.929688 -2.40625 7.804688 -2.09375 8.859375 -2.09375 Z M 8.859375 -2.09375 "/></g></g></g><g fill="#ffffff" fill-opacity="1"><g transform="translate(353.497622, 284.161548)"><g><path d="M 11.765625 -18.359375 C 16.054688 -18.359375 18.203125 -15.988281 18.203125 -11.25 L 18.203125 -1.28125 C 18.203125 -0.820312 18.070312 -0.460938 17.8125 -0.203125 C 17.5625 0.0546875 17.203125 0.1875 16.734375 0.1875 C 16.265625 0.1875 15.894531 0.0546875 15.625 -0.203125 C 15.363281 -0.460938 15.234375 -0.820312 15.234375 -1.28125 L 15.234375 -11.078125 C 15.234375 -12.742188 14.90625 -13.957031 14.25 -14.71875 C 13.601562 -15.476562 12.566406 -15.859375 11.140625 -15.859375 C 9.503906 -15.859375 8.191406 -15.351562 7.203125 -14.34375 C 6.222656 -13.34375 5.734375 -11.984375 5.734375 -10.265625 L 5.734375 -1.28125 C 5.734375 -0.820312 5.601562 -0.460938 5.34375 -0.203125 C 5.09375 0.0546875 4.734375 0.1875 4.265625 0.1875 C 3.796875 0.1875 3.425781 0.0546875 3.15625 -0.203125 C 2.894531 -0.460938 2.765625 -0.820312 2.765625 -1.28125 L 2.765625 -16.8125 C 2.765625 -17.25 2.894531 -17.601562 3.15625 -17.875 C 3.425781 -18.144531 3.796875 -18.28125 4.265625 -18.28125 C 4.703125 -18.28125 5.050781 -18.144531 5.3125 -17.875 C 5.570312 -17.601562 5.703125 -17.257812 5.703125 -16.84375 L 5.703125 -14.96875 C 6.285156 -16.070312 7.101562 -16.910156 8.15625 -17.484375 C 9.21875 -18.066406 10.421875 -18.359375 11.765625 -18.359375 Z M 11.765625 -18.359375 "/></g></g></g><g fill="#ffffff" fill-opacity="1"><g transform="translate(374.389108, 284.161548)"><g><path d="M 10.078125 -18.359375 C 14.566406 -18.359375 16.8125 -16.003906 16.8125 -11.296875 L 16.8125 -1.28125 C 16.8125 -0.84375 16.679688 -0.488281 16.421875 -0.21875 C 16.160156 0.0507812 15.8125 0.1875 15.375 0.1875 C 14.9375 0.1875 14.582031 0.0507812 14.3125 -0.21875 C 14.039062 -0.488281 13.90625 -0.84375 13.90625 -1.28125 L 13.90625 -3.046875 C 13.4375 -1.992188 12.722656 -1.179688 11.765625 -0.609375 C 10.804688 -0.0351562 9.703125 0.25 8.453125 0.25 C 7.304688 0.25 6.25 0.0195312 5.28125 -0.4375 C 4.3125 -0.90625 3.546875 -1.554688 2.984375 -2.390625 C 2.421875 -3.222656 2.140625 -4.144531 2.140625 -5.15625 C 2.140625 -6.5 2.476562 -7.546875 3.15625 -8.296875 C 3.84375 -9.046875 4.972656 -9.582031 6.546875 -9.90625 C 8.117188 -10.238281 10.300781 -10.40625 13.09375 -10.40625 L 13.90625 -10.40625 L 13.90625 -11.625 C 13.90625 -13.09375 13.601562 -14.171875 13 -14.859375 C 12.394531 -15.546875 11.421875 -15.890625 10.078125 -15.890625 C 8.410156 -15.890625 6.71875 -15.4375 5 -14.53125 C 4.34375 -14.113281 3.878906 -13.90625 3.609375 -13.90625 C 3.304688 -13.90625 3.054688 -14.015625 2.859375 -14.234375 C 2.671875 -14.453125 2.578125 -14.734375 2.578125 -15.078125 C 2.578125 -15.421875 2.679688 -15.722656 2.890625 -15.984375 C 3.097656 -16.242188 3.4375 -16.503906 3.90625 -16.765625 C 4.757812 -17.265625 5.726562 -17.65625 6.8125 -17.9375 C 7.90625 -18.21875 8.992188 -18.359375 10.078125 -18.359375 Z M 8.859375 -2.09375 C 10.335938 -2.09375 11.546875 -2.585938 12.484375 -3.578125 C 13.429688 -4.578125 13.90625 -5.863281 13.90625 -7.4375 L 13.90625 -8.5 L 13.234375 -8.5 C 11.078125 -8.5 9.4375 -8.40625 8.3125 -8.21875 C 7.1875 -8.03125 6.382812 -7.722656 5.90625 -7.296875 C 5.425781 -6.867188 5.1875 -6.238281 5.1875 -5.40625 C 5.1875 -4.445312 5.535156 -3.65625 6.234375 -3.03125 C 6.929688 -2.40625 7.804688 -2.09375 8.859375 -2.09375 Z M 8.859375 -2.09375 "/></g></g></g><g fill="#ffffff" fill-opacity="1"><g transform="translate(393.882923, 284.161548)"><g/></g></g><g fill="#ffffff" fill-opacity="1"><g transform="translate(403.372353, 284.161548)"><g><path d="M 4.75 0 C 4.28125 0 3.90625 -0.132812 3.625 -0.40625 C 3.34375 -0.675781 3.203125 -1.03125 3.203125 -1.46875 L 3.203125 -24.453125 C 3.203125 -24.898438 3.34375 -25.257812 3.625 -25.53125 C 3.90625 -25.800781 4.28125 -25.9375 4.75 -25.9375 L 11.921875 -25.9375 C 16.066406 -25.9375 19.269531 -24.8125 21.53125 -22.5625 C 23.800781 -20.320312 24.9375 -17.128906 24.9375 -12.984375 C 24.9375 -8.835938 23.796875 -5.632812 21.515625 -3.375 C 19.234375 -1.125 16.035156 0 11.921875 0 Z M 11.734375 -2.578125 C 18.453125 -2.578125 21.8125 -6.046875 21.8125 -12.984375 C 21.8125 -19.898438 18.453125 -23.359375 11.734375 -23.359375 L 6.21875 -23.359375 L 6.21875 -2.578125 Z M 11.734375 -2.578125 "/></g></g></g><g fill="#ffffff" fill-opacity="1"><g transform="translate(430.553345, 284.161548)"><g><path d="M 16.625 -4.15625 C 16.894531 -4.15625 17.128906 -4.046875 17.328125 -3.828125 C 17.523438 -3.609375 17.625 -3.328125 17.625 -2.984375 C 17.625 -2.367188 17.191406 -1.800781 16.328125 -1.28125 C 15.441406 -0.769531 14.507812 -0.382812 13.53125 -0.125 C 12.550781 0.125 11.597656 0.25 10.671875 0.25 C 7.898438 0.25 5.707031 -0.566406 4.09375 -2.203125 C 2.488281 -3.847656 1.6875 -6.117188 1.6875 -9.015625 C 1.6875 -10.847656 2.039062 -12.46875 2.75 -13.875 C 3.46875 -15.289062 4.46875 -16.390625 5.75 -17.171875 C 7.039062 -17.960938 8.507812 -18.359375 10.15625 -18.359375 C 12.476562 -18.359375 14.328125 -17.597656 15.703125 -16.078125 C 17.078125 -14.554688 17.765625 -12.492188 17.765625 -9.890625 C 17.765625 -9.398438 17.664062 -9.046875 17.46875 -8.828125 C 17.269531 -8.609375 16.953125 -8.5 16.515625 -8.5 L 4.671875 -8.5 C 4.890625 -4.28125 6.890625 -2.171875 10.671875 -2.171875 C 11.617188 -2.171875 12.4375 -2.296875 13.125 -2.546875 C 13.8125 -2.804688 14.550781 -3.160156 15.34375 -3.609375 C 15.976562 -3.972656 16.40625 -4.15625 16.625 -4.15625 Z M 10.1875 -16.03125 C 8.613281 -16.03125 7.351562 -15.539062 6.40625 -14.5625 C 5.46875 -13.582031 4.914062 -12.195312 4.75 -10.40625 L 15.15625 -10.40625 C 15.101562 -12.21875 14.644531 -13.609375 13.78125 -14.578125 C 12.925781 -15.546875 11.726562 -16.03125 10.1875 -16.03125 Z M 10.1875 -16.03125 "/></g></g></g><g fill="#ffffff" fill-opacity="1"><g transform="translate(449.936816, 284.161548)"><g><path d="M 4.703125 0.1875 C 4.242188 0.1875 3.878906 0.046875 3.609375 -0.234375 C 3.335938 -0.515625 3.203125 -0.890625 3.203125 -1.359375 L 3.203125 -24.453125 C 3.203125 -24.898438 3.34375 -25.257812 3.625 -25.53125 C 3.90625 -25.800781 4.28125 -25.9375 4.75 -25.9375 L 18.140625 -25.9375 C 18.578125 -25.9375 18.914062 -25.820312 19.15625 -25.59375 C 19.40625 -25.375 19.53125 -25.054688 19.53125 -24.640625 C 19.53125 -24.253906 19.40625 -23.945312 19.15625 -23.71875 C 18.914062 -23.5 18.578125 -23.390625 18.140625 -23.390625 L 6.171875 -23.390625 L 6.171875 -14.453125 L 17.390625 -14.453125 C 17.835938 -14.453125 18.179688 -14.34375 18.421875 -14.125 C 18.671875 -13.90625 18.796875 -13.585938 18.796875 -13.171875 C 18.796875 -12.773438 18.671875 -12.46875 18.421875 -12.25 C 18.179688 -12.03125 17.835938 -11.921875 17.390625 -11.921875 L 6.171875 -11.921875 L 6.171875 -1.359375 C 6.171875 -0.890625 6.039062 -0.515625 5.78125 -0.234375 C 5.53125 0.046875 5.171875 0.1875 4.703125 0.1875 Z M 4.703125 0.1875 "/></g></g></g><g fill="#ffffff" fill-opacity="1"><g transform="translate(470.42372, 284.161548)"><g><path d="M 4.265625 0.1875 C 3.828125 0.1875 3.46875 0.0546875 3.1875 -0.203125 C 2.90625 -0.460938 2.765625 -0.820312 2.765625 -1.28125 L 2.765625 -16.8125 C 2.765625 -17.28125 2.90625 -17.640625 3.1875 -17.890625 C 3.46875 -18.148438 3.828125 -18.28125 4.265625 -18.28125 C 4.703125 -18.28125 5.054688 -18.148438 5.328125 -17.890625 C 5.597656 -17.640625 5.734375 -17.28125 5.734375 -16.8125 L 5.734375 -1.28125 C 5.734375 -0.789062 5.597656 -0.421875 5.328125 -0.171875 C 5.054688 0.0664062 4.703125 0.1875 4.265625 0.1875 Z M 4.265625 -22.140625 C 3.671875 -22.140625 3.191406 -22.3125 2.828125 -22.65625 C 2.460938 -23 2.28125 -23.453125 2.28125 -24.015625 C 2.28125 -24.554688 2.460938 -25 2.828125 -25.34375 C 3.191406 -25.6875 3.671875 -25.859375 4.265625 -25.859375 C 4.847656 -25.859375 5.320312 -25.6875 5.6875 -25.34375 C 6.0625 -25 6.25 -24.554688 6.25 -24.015625 C 6.25 -23.453125 6.0625 -23 5.6875 -22.65625 C 5.320312 -22.3125 4.847656 -22.140625 4.265625 -22.140625 Z M 4.265625 -22.140625 "/></g></g></g><g fill="#ffffff" fill-opacity="1"><g transform="translate(478.956852, 284.161548)"><g/></g></g><g fill="#ffffff" fill-opacity="1"><g transform="translate(488.446282, 284.161548)"><g><path d="M 25.53125 -1.734375 C 25.625 -1.535156 25.671875 -1.328125 25.671875 -1.109375 C 25.671875 -0.734375 25.53125 -0.421875 25.25 -0.171875 C 24.96875 0.0664062 24.628906 0.1875 24.234375 0.1875 C 23.617188 0.1875 23.191406 -0.109375 22.953125 -0.703125 L 20.34375 -6.65625 L 6.46875 -6.65625 L 3.828125 -0.703125 C 3.578125 -0.109375 3.144531 0.1875 2.53125 0.1875 C 2.144531 0.1875 1.800781 0.0546875 1.5 -0.203125 C 1.207031 -0.460938 1.0625 -0.773438 1.0625 -1.140625 C 1.0625 -1.335938 1.113281 -1.535156 1.21875 -1.734375 L 11.734375 -25.125 C 11.878906 -25.46875 12.097656 -25.722656 12.390625 -25.890625 C 12.691406 -26.066406 13.015625 -26.15625 13.359375 -26.15625 C 13.722656 -26.15625 14.050781 -26.0625 14.34375 -25.875 C 14.632812 -25.6875 14.851562 -25.4375 15 -25.125 Z M 7.578125 -9.15625 L 19.234375 -9.15625 L 13.390625 -22.359375 Z M 7.578125 -9.15625 "/></g></g></g><g fill="#ffffff" fill-opacity="1"><g transform="translate(515.185901, 284.161548)"><g><path d="M 17.28125 -18.28125 C 17.75 -18.28125 18.117188 -18.144531 18.390625 -17.875 C 18.660156 -17.601562 18.796875 -17.25 18.796875 -16.8125 L 18.796875 -1.21875 C 18.796875 1.457031 18.109375 3.472656 16.734375 4.828125 C 15.359375 6.191406 13.320312 6.875 10.625 6.875 C 8 6.875 5.816406 6.359375 4.078125 5.328125 C 3.203125 4.835938 2.765625 4.273438 2.765625 3.640625 C 2.765625 3.296875 2.851562 3.015625 3.03125 2.796875 C 3.21875 2.578125 3.457031 2.46875 3.75 2.46875 C 4 2.46875 4.441406 2.640625 5.078125 2.984375 C 5.929688 3.421875 6.773438 3.773438 7.609375 4.046875 C 8.441406 4.316406 9.4375 4.453125 10.59375 4.453125 C 12.332031 4.453125 13.644531 3.988281 14.53125 3.0625 C 15.414062 2.144531 15.859375 0.804688 15.859375 -0.953125 L 15.859375 -4.125 C 15.335938 -2.96875 14.539062 -2.082031 13.46875 -1.46875 C 12.40625 -0.851562 11.148438 -0.546875 9.703125 -0.546875 C 8.140625 -0.546875 6.75 -0.914062 5.53125 -1.65625 C 4.320312 -2.394531 3.378906 -3.4375 2.703125 -4.78125 C 2.023438 -6.125 1.6875 -7.679688 1.6875 -9.453125 C 1.6875 -11.210938 2.023438 -12.765625 2.703125 -14.109375 C 3.378906 -15.460938 4.320312 -16.507812 5.53125 -17.25 C 6.75 -17.988281 8.140625 -18.359375 9.703125 -18.359375 C 11.128906 -18.359375 12.367188 -18.050781 13.421875 -17.4375 C 14.472656 -16.820312 15.269531 -15.953125 15.8125 -14.828125 L 15.8125 -16.8125 C 15.8125 -17.25 15.941406 -17.601562 16.203125 -17.875 C 16.460938 -18.144531 16.820312 -18.28125 17.28125 -18.28125 Z M 10.296875 -3.015625 C 12.015625 -3.015625 13.363281 -3.582031 14.34375 -4.71875 C 15.320312 -5.863281 15.8125 -7.441406 15.8125 -9.453125 C 15.8125 -11.441406 15.328125 -13.003906 14.359375 -14.140625 C 13.390625 -15.285156 12.035156 -15.859375 10.296875 -15.859375 C 8.554688 -15.859375 7.1875 -15.285156 6.1875 -14.140625 C 5.195312 -13.003906 4.703125 -11.441406 4.703125 -9.453125 C 4.703125 -7.441406 5.195312 -5.863281 6.1875 -4.71875 C 7.1875 -3.582031 8.554688 -3.015625 10.296875 -3.015625 Z M 10.296875 -3.015625 "/></g></g></g><g fill="#ffffff" fill-opacity="1"><g transform="translate(536.739446, 284.161548)"><g><path d="M 16.625 -4.15625 C 16.894531 -4.15625 17.128906 -4.046875 17.328125 -3.828125 C 17.523438 -3.609375 17.625 -3.328125 17.625 -2.984375 C 17.625 -2.367188 17.191406 -1.800781 16.328125 -1.28125 C 15.441406 -0.769531 14.507812 -0.382812 13.53125 -0.125 C 12.550781 0.125 11.597656 0.25 10.671875 0.25 C 7.898438 0.25 5.707031 -0.566406 4.09375 -2.203125 C 2.488281 -3.847656 1.6875 -6.117188 1.6875 -9.015625 C 1.6875 -10.847656 2.039062 -12.46875 2.75 -13.875 C 3.46875 -15.289062 4.46875 -16.390625 5.75 -17.171875 C 7.039062 -17.960938 8.507812 -18.359375 10.15625 -18.359375 C 12.476562 -18.359375 14.328125 -17.597656 15.703125 -16.078125 C 17.078125 -14.554688 17.765625 -12.492188 17.765625 -9.890625 C 17.765625 -9.398438 17.664062 -9.046875 17.46875 -8.828125 C 17.269531 -8.609375 16.953125 -8.5 16.515625 -8.5 L 4.671875 -8.5 C 4.890625 -4.28125 6.890625 -2.171875 10.671875 -2.171875 C 11.617188 -2.171875 12.4375 -2.296875 13.125 -2.546875 C 13.8125 -2.804688 14.550781 -3.160156 15.34375 -3.609375 C 15.976562 -3.972656 16.40625 -4.15625 16.625 -4.15625 Z M 10.1875 -16.03125 C 8.613281 -16.03125 7.351562 -15.539062 6.40625 -14.5625 C 5.46875 -13.582031 4.914062 -12.195312 4.75 -10.40625 L 15.15625 -10.40625 C 15.101562 -12.21875 14.644531 -13.609375 13.78125 -14.578125 C 12.925781 -15.546875 11.726562 -16.03125 10.1875 -16.03125 Z M 10.1875 -16.03125 "/></g></g></g><g fill="#ffffff" fill-opacity="1"><g transform="translate(556.122918, 284.161548)"><g><path d="M 11.765625 -18.359375 C 16.054688 -18.359375 18.203125 -15.988281 18.203125 -11.25 L 18.203125 -1.28125 C 18.203125 -0.820312 18.070312 -0.460938 17.8125 -0.203125 C 17.5625 0.0546875 17.203125 0.1875 16.734375 0.1875 C 16.265625 0.1875 15.894531 0.0546875 15.625 -0.203125 C 15.363281 -0.460938 15.234375 -0.820312 15.234375 -1.28125 L 15.234375 -11.078125 C 15.234375 -12.742188 14.90625 -13.957031 14.25 -14.71875 C 13.601562 -15.476562 12.566406 -15.859375 11.140625 -15.859375 C 9.503906 -15.859375 8.191406 -15.351562 7.203125 -14.34375 C 6.222656 -13.34375 5.734375 -11.984375 5.734375 -10.265625 L 5.734375 -1.28125 C 5.734375 -0.820312 5.601562 -0.460938 5.34375 -0.203125 C 5.09375 0.0546875 4.734375 0.1875 4.265625 0.1875 C 3.796875 0.1875 3.425781 0.0546875 3.15625 -0.203125 C 2.894531 -0.460938 2.765625 -0.820312 2.765625 -1.28125 L 2.765625 -16.8125 C 2.765625 -17.25 2.894531 -17.601562 3.15625 -17.875 C 3.425781 -18.144531 3.796875 -18.28125 4.265625 -18.28125 C 4.703125 -18.28125 5.050781 -18.144531 5.3125 -17.875 C 5.570312 -17.601562 5.703125 -17.257812 5.703125 -16.84375 L 5.703125 -14.96875 C 6.285156 -16.070312 7.101562 -16.910156 8.15625 -17.484375 C 9.21875 -18.066406 10.421875 -18.359375 11.765625 -18.359375 Z M 11.765625 -18.359375 "/></g></g></g><g fill="#ffffff" fill-opacity="1"><g transform="translate(577.014404, 284.161548)"><g><path d="M 11.03125 -2.171875 C 11.894531 -2.097656 12.328125 -1.707031 12.328125 -1 C 12.328125 -0.582031 12.171875 -0.269531 11.859375 -0.0625 C 11.554688 0.144531 11.097656 0.226562 10.484375 0.1875 L 9.484375 0.109375 C 7.523438 -0.0351562 6.078125 -0.625 5.140625 -1.65625 C 4.210938 -2.6875 3.75 -4.242188 3.75 -6.328125 L 3.75 -15.5625 L 1.28125 -15.5625 C 0.863281 -15.5625 0.539062 -15.664062 0.3125 -15.875 C 0.0820312 -16.082031 -0.03125 -16.359375 -0.03125 -16.703125 C -0.03125 -17.066406 0.0820312 -17.359375 0.3125 -17.578125 C 0.539062 -17.796875 0.863281 -17.90625 1.28125 -17.90625 L 3.75 -17.90625 L 3.75 -22.0625 C 3.75 -22.53125 3.882812 -22.894531 4.15625 -23.15625 C 4.425781 -23.414062 4.796875 -23.546875 5.265625 -23.546875 C 5.703125 -23.546875 6.054688 -23.414062 6.328125 -23.15625 C 6.597656 -22.894531 6.734375 -22.53125 6.734375 -22.0625 L 6.734375 -17.90625 L 10.8125 -17.90625 C 11.207031 -17.90625 11.519531 -17.796875 11.75 -17.578125 C 11.976562 -17.359375 12.09375 -17.066406 12.09375 -16.703125 C 12.09375 -16.359375 11.976562 -16.082031 11.75 -15.875 C 11.519531 -15.664062 11.207031 -15.5625 10.8125 -15.5625 L 6.734375 -15.5625 L 6.734375 -6.171875 C 6.734375 -4.828125 7.007812 -3.851562 7.5625 -3.25 C 8.113281 -2.65625 8.941406 -2.320312 10.046875 -2.25 Z M 11.03125 -2.171875 "/></g></g></g><g fill="#ffffff" fill-opacity="1"><g transform="translate(589.519863, 284.161548)"><g/></g></g><g fill="#ffffff" fill-opacity="1"><g transform="translate(599.009293, 284.161548)"><g><path d="M 11.46875 0.296875 C 9.632812 0.296875 7.875 0.0195312 6.1875 -0.53125 C 4.507812 -1.082031 3.171875 -1.828125 2.171875 -2.765625 C 1.804688 -3.109375 1.625 -3.535156 1.625 -4.046875 C 1.625 -4.390625 1.71875 -4.6875 1.90625 -4.9375 C 2.101562 -5.195312 2.335938 -5.328125 2.609375 -5.328125 C 2.929688 -5.328125 3.273438 -5.191406 3.640625 -4.921875 C 5.921875 -3.160156 8.519531 -2.28125 11.4375 -2.28125 C 13.550781 -2.28125 15.171875 -2.679688 16.296875 -3.484375 C 17.421875 -4.296875 17.984375 -5.453125 17.984375 -6.953125 C 17.984375 -7.804688 17.710938 -8.5 17.171875 -9.03125 C 16.640625 -9.5625 15.929688 -9.984375 15.046875 -10.296875 C 14.160156 -10.617188 12.96875 -10.953125 11.46875 -11.296875 C 9.457031 -11.753906 7.804688 -12.238281 6.515625 -12.75 C 5.234375 -13.269531 4.191406 -14.007812 3.390625 -14.96875 C 2.597656 -15.925781 2.203125 -17.175781 2.203125 -18.71875 C 2.203125 -20.1875 2.597656 -21.488281 3.390625 -22.625 C 4.191406 -23.769531 5.3125 -24.65625 6.75 -25.28125 C 8.1875 -25.90625 9.820312 -26.21875 11.65625 -26.21875 C 13.375 -26.21875 14.972656 -25.953125 16.453125 -25.421875 C 17.941406 -24.898438 19.1875 -24.148438 20.1875 -23.171875 C 20.582031 -22.773438 20.78125 -22.347656 20.78125 -21.890625 C 20.78125 -21.546875 20.679688 -21.242188 20.484375 -20.984375 C 20.285156 -20.722656 20.050781 -20.59375 19.78125 -20.59375 C 19.519531 -20.59375 19.164062 -20.726562 18.71875 -21 C 17.519531 -21.976562 16.40625 -22.664062 15.375 -23.0625 C 14.34375 -23.457031 13.101562 -23.65625 11.65625 -23.65625 C 9.625 -23.65625 8.039062 -23.226562 6.90625 -22.375 C 5.78125 -21.53125 5.21875 -20.347656 5.21875 -18.828125 C 5.21875 -17.523438 5.710938 -16.550781 6.703125 -15.90625 C 7.703125 -15.257812 9.234375 -14.691406 11.296875 -14.203125 C 13.523438 -13.660156 15.273438 -13.160156 16.546875 -12.703125 C 17.828125 -12.253906 18.890625 -11.578125 19.734375 -10.671875 C 20.578125 -9.765625 21 -8.550781 21 -7.03125 C 21 -5.582031 20.597656 -4.304688 19.796875 -3.203125 C 19.003906 -2.097656 17.882812 -1.238281 16.4375 -0.625 C 14.988281 -0.0078125 13.332031 0.296875 11.46875 0.296875 Z M 11.46875 0.296875 "/></g></g></g><g fill="#ffffff" fill-opacity="1"><g transform="translate(621.703032, 284.161548)"><g><path d="M 27.25 -17.328125 C 27.5 -17.910156 27.90625 -18.203125 28.46875 -18.203125 C 28.832031 -18.203125 29.160156 -18.078125 29.453125 -17.828125 C 29.753906 -17.585938 29.90625 -17.285156 29.90625 -16.921875 C 29.90625 -16.742188 29.867188 -16.5625 29.796875 -16.375 L 23.6875 -0.921875 C 23.539062 -0.597656 23.328125 -0.34375 23.046875 -0.15625 C 22.765625 0.0195312 22.453125 0.109375 22.109375 0.109375 C 21.785156 0.109375 21.484375 0.0195312 21.203125 -0.15625 C 20.921875 -0.34375 20.707031 -0.597656 20.5625 -0.921875 L 15.484375 -13.828125 L 10.453125 -0.921875 C 10.328125 -0.597656 10.113281 -0.34375 9.8125 -0.15625 C 9.519531 0.0195312 9.203125 0.109375 8.859375 0.109375 C 8.546875 0.109375 8.238281 0.0195312 7.9375 -0.15625 C 7.644531 -0.34375 7.425781 -0.597656 7.28125 -0.921875 L 1.171875 -16.328125 C 1.097656 -16.523438 1.0625 -16.695312 1.0625 -16.84375 C 1.0625 -17.238281 1.226562 -17.570312 1.5625 -17.84375 C 1.894531 -18.113281 2.253906 -18.25 2.640625 -18.25 C 3.234375 -18.25 3.65625 -17.953125 3.90625 -17.359375 L 8.9375 -3.78125 L 14.125 -17.25 C 14.269531 -17.570312 14.46875 -17.816406 14.71875 -17.984375 C 14.976562 -18.160156 15.257812 -18.25 15.5625 -18.25 C 15.875 -18.25 16.160156 -18.160156 16.421875 -17.984375 C 16.679688 -17.816406 16.875 -17.570312 17 -17.25 L 22.171875 -3.828125 Z M 27.25 -17.328125 "/></g></g></g><g fill="#ffffff" fill-opacity="1"><g transform="translate(652.672455, 284.161548)"><g><path d="M 10.078125 -18.359375 C 14.566406 -18.359375 16.8125 -16.003906 16.8125 -11.296875 L 16.8125 -1.28125 C 16.8125 -0.84375 16.679688 -0.488281 16.421875 -0.21875 C 16.160156 0.0507812 15.8125 0.1875 15.375 0.1875 C 14.9375 0.1875 14.582031 0.0507812 14.3125 -0.21875 C 14.039062 -0.488281 13.90625 -0.84375 13.90625 -1.28125 L 13.90625 -3.046875 C 13.4375 -1.992188 12.722656 -1.179688 11.765625 -0.609375 C 10.804688 -0.0351562 9.703125 0.25 8.453125 0.25 C 7.304688 0.25 6.25 0.0195312 5.28125 -0.4375 C 4.3125 -0.90625 3.546875 -1.554688 2.984375 -2.390625 C 2.421875 -3.222656 2.140625 -4.144531 2.140625 -5.15625 C 2.140625 -6.5 2.476562 -7.546875 3.15625 -8.296875 C 3.84375 -9.046875 4.972656 -9.582031 6.546875 -9.90625 C 8.117188 -10.238281 10.300781 -10.40625 13.09375 -10.40625 L 13.90625 -10.40625 L 13.90625 -11.625 C 13.90625 -13.09375 13.601562 -14.171875 13 -14.859375 C 12.394531 -15.546875 11.421875 -15.890625 10.078125 -15.890625 C 8.410156 -15.890625 6.71875 -15.4375 5 -14.53125 C 4.34375 -14.113281 3.878906 -13.90625 3.609375 -13.90625 C 3.304688 -13.90625 3.054688 -14.015625 2.859375 -14.234375 C 2.671875 -14.453125 2.578125 -14.734375 2.578125 -15.078125 C 2.578125 -15.421875 2.679688 -15.722656 2.890625 -15.984375 C 3.097656 -16.242188 3.4375 -16.503906 3.90625 -16.765625 C 4.757812 -17.265625 5.726562 -17.65625 6.8125 -17.9375 C 7.90625 -18.21875 8.992188 -18.359375 10.078125 -18.359375 Z M 8.859375 -2.09375 C 10.335938 -2.09375 11.546875 -2.585938 12.484375 -3.578125 C 13.429688 -4.578125 13.90625 -5.863281 13.90625 -7.4375 L 13.90625 -8.5 L 13.234375 -8.5 C 11.078125 -8.5 9.4375 -8.40625 8.3125 -8.21875 C 7.1875 -8.03125 6.382812 -7.722656 5.90625 -7.296875 C 5.425781 -6.867188 5.1875 -6.238281 5.1875 -5.40625 C 5.1875 -4.445312 5.535156 -3.65625 6.234375 -3.03125 C 6.929688 -2.40625 7.804688 -2.09375 8.859375 -2.09375 Z M 8.859375 -2.09375 "/></g></g></g><g fill="#ffffff" fill-opacity="1"><g transform="translate(672.16627, 284.161548)"><g><path d="M 11.625 -18.28125 C 12.65625 -18.351562 13.171875 -17.9375 13.171875 -17.03125 C 13.171875 -16.632812 13.054688 -16.320312 12.828125 -16.09375 C 12.609375 -15.863281 12.234375 -15.722656 11.703125 -15.671875 L 10.59375 -15.5625 C 8.945312 -15.414062 7.722656 -14.832031 6.921875 -13.8125 C 6.128906 -12.789062 5.734375 -11.59375 5.734375 -10.21875 L 5.734375 -1.28125 C 5.734375 -0.789062 5.597656 -0.421875 5.328125 -0.171875 C 5.054688 0.0664062 4.703125 0.1875 4.265625 0.1875 C 3.828125 0.1875 3.46875 0.0546875 3.1875 -0.203125 C 2.90625 -0.460938 2.765625 -0.820312 2.765625 -1.28125 L 2.765625 -16.8125 C 2.765625 -17.28125 2.910156 -17.640625 3.203125 -17.890625 C 3.492188 -18.148438 3.847656 -18.28125 4.265625 -18.28125 C 4.660156 -18.28125 4.992188 -18.148438 5.265625 -17.890625 C 5.535156 -17.640625 5.671875 -17.289062 5.671875 -16.84375 L 5.671875 -14.78125 C 6.179688 -15.863281 6.90625 -16.6875 7.84375 -17.25 C 8.789062 -17.8125 9.878906 -18.144531 11.109375 -18.25 Z M 11.625 -18.28125 "/></g></g></g><g fill="#ffffff" fill-opacity="1"><g transform="translate(685.149893, 284.161548)"><g><path d="M 22.6875 -18.359375 C 26.664062 -18.359375 28.65625 -15.988281 28.65625 -11.25 L 28.65625 -1.28125 C 28.65625 -0.820312 28.519531 -0.460938 28.25 -0.203125 C 27.976562 0.0546875 27.625 0.1875 27.1875 0.1875 C 26.738281 0.1875 26.375 0.0546875 26.09375 -0.203125 C 25.8125 -0.460938 25.671875 -0.820312 25.671875 -1.28125 L 25.671875 -11.1875 C 25.671875 -12.820312 25.375 -14.007812 24.78125 -14.75 C 24.195312 -15.488281 23.28125 -15.859375 22.03125 -15.859375 C 20.53125 -15.859375 19.351562 -15.351562 18.5 -14.34375 C 17.644531 -13.34375 17.21875 -11.984375 17.21875 -10.265625 L 17.21875 -1.28125 C 17.21875 -0.820312 17.078125 -0.460938 16.796875 -0.203125 C 16.515625 0.0546875 16.148438 0.1875 15.703125 0.1875 C 15.265625 0.1875 14.910156 0.0546875 14.640625 -0.203125 C 14.367188 -0.460938 14.234375 -0.820312 14.234375 -1.28125 L 14.234375 -11.1875 C 14.234375 -12.820312 13.9375 -14.007812 13.34375 -14.75 C 12.757812 -15.488281 11.832031 -15.859375 10.5625 -15.859375 C 9.082031 -15.859375 7.90625 -15.351562 7.03125 -14.34375 C 6.164062 -13.34375 5.734375 -11.984375 5.734375 -10.265625 L 5.734375 -1.28125 C 5.734375 -0.820312 5.597656 -0.460938 5.328125 -0.203125 C 5.054688 0.0546875 4.703125 0.1875 4.265625 0.1875 C 3.828125 0.1875 3.46875 0.0546875 3.1875 -0.203125 C 2.90625 -0.460938 2.765625 -0.820312 2.765625 -1.28125 L 2.765625 -16.8125 C 2.765625 -17.25 2.90625 -17.601562 3.1875 -17.875 C 3.46875 -18.144531 3.828125 -18.28125 4.265625 -18.28125 C 4.679688 -18.28125 5.023438 -18.148438 5.296875 -17.890625 C 5.566406 -17.640625 5.703125 -17.289062 5.703125 -16.84375 L 5.703125 -15.078125 C 6.242188 -16.128906 6.988281 -16.9375 7.9375 -17.5 C 8.894531 -18.070312 10 -18.359375 11.25 -18.359375 C 14.050781 -18.359375 15.878906 -17.179688 16.734375 -14.828125 C 17.253906 -15.898438 18.039062 -16.753906 19.09375 -17.390625 C 20.144531 -18.035156 21.34375 -18.359375 22.6875 -18.359375 Z M 22.6875 -18.359375 "/></g></g></g><g fill="#ffffff" fill-opacity="1"><g transform="translate(716.493696, 284.161548)"><g/></g></g></svg>