<svg xmlns="http://www.w3.org/2000/svg" xmlns:xlink="http://www.w3.org/1999/xlink" width="1000" zoomAndPan="magnify" viewBox="0 0 750 374.999991" height="500" preserveAspectRatio="xMidYMid meet" version="1.0"><defs><g/><clipPath id="e0910acdc7"><path d="M 8.132812 64 L 267.632812 64 L 267.632812 311 L 8.132812 311 Z M 8.132812 64 " clip-rule="nonzero"/></clipPath><clipPath id="9c42e80e4d"><path d="M 146.722656 205.902344 L 146.722656 95.539062 C 146.722656 91.257812 150.808594 88.164062 154.929688 89.320312 L 262.90625 119.617188 C 265.695312 120.398438 267.621094 122.941406 267.621094 125.839844 L 267.621094 236.199219 C 267.621094 240.480469 263.535156 243.578125 259.414062 242.421875 L 151.4375 212.121094 C 148.648438 211.339844 146.722656 208.796875 146.722656 205.902344 Z M 65.214844 134.21875 L 120.8125 149.820312 C 124.933594 150.976562 129.019531 147.878906 129.019531 143.597656 L 129.019531 86.867188 C 129.019531 83.972656 127.09375 81.429688 124.304688 80.644531 L 68.707031 65.046875 C 64.585938 63.890625 60.5 66.988281 60.5 71.265625 L 60.5 128 C 60.5 130.894531 62.425781 133.4375 65.214844 134.21875 Z M 124.304688 162.929688 L 16.324219 132.628906 C 12.203125 131.472656 8.117188 134.570312 8.117188 138.851562 L 8.117188 249.210938 C 8.117188 252.109375 10.046875 254.652344 12.835938 255.433594 L 120.8125 285.730469 C 124.933594 286.886719 129.019531 283.792969 129.019531 279.511719 L 129.019531 169.148438 C 129.019531 166.253906 127.09375 163.710938 124.304688 162.929688 Z M 210.523438 240.832031 L 154.929688 225.230469 C 150.808594 224.074219 146.722656 227.171875 146.722656 231.453125 L 146.722656 288.183594 C 146.722656 291.078125 148.648438 293.621094 151.4375 294.40625 L 207.035156 310.003906 C 211.152344 311.160156 215.242188 308.0625 215.242188 303.785156 L 215.242188 247.050781 C 215.242188 244.15625 213.3125 241.613281 210.523438 240.832031 Z M 210.523438 240.832031 " clip-rule="nonzero"/></clipPath><linearGradient x1="114.296442" gradientTransform="matrix(0, 0.519005, -0.519005, 0, 267.621313, 64.801878)" y1="-47.633971" x2="358.613085" gradientUnits="userSpaceOnUse" y2="547.612664" id="0dd3f32298"><stop stop-opacity="1" stop-color="rgb(77.598572%, 30.999756%, 100%)" offset="0"/><stop stop-opacity="1" stop-color="rgb(77.598572%, 30.999756%, 100%)" offset="0.0625"/><stop stop-opacity="1" stop-color="rgb(77.540588%, 30.987549%, 100%)" offset="0.09375"/><stop stop-opacity="1" stop-color="rgb(77.328491%, 30.941772%, 100%)" offset="0.101563"/><stop stop-opacity="1" stop-color="rgb(77.018738%, 30.874634%, 100%)" offset="0.109375"/><stop stop-opacity="1" stop-color="rgb(76.708984%, 30.809021%, 100%)" offset="0.117188"/><stop stop-opacity="1" stop-color="rgb(76.399231%, 30.741882%, 100%)" offset="0.125"/><stop stop-opacity="1" stop-color="rgb(76.089478%, 30.674744%, 100%)" offset="0.132813"/><stop stop-opacity="1" stop-color="rgb(75.779724%, 30.609131%, 100%)" offset="0.140625"/><stop stop-opacity="1" stop-color="rgb(75.469971%, 30.541992%, 100%)" offset="0.148438"/><stop stop-opacity="1" stop-color="rgb(75.160217%, 30.476379%, 100%)" offset="0.15625"/><stop stop-opacity="1" stop-color="rgb(74.850464%, 30.409241%, 100%)" offset="0.164062"/><stop stop-opacity="1" stop-color="rgb(74.54071%, 30.343628%, 100%)" offset="0.171875"/><stop stop-opacity="1" stop-color="rgb(74.229431%, 30.276489%, 100%)" offset="0.179688"/><stop stop-opacity="1" stop-color="rgb(73.919678%, 30.210876%, 100%)" offset="0.1875"/><stop stop-opacity="1" stop-color="rgb(73.609924%, 30.143738%, 100%)" offset="0.195312"/><stop stop-opacity="1" stop-color="rgb(73.300171%, 30.078125%, 100%)" offset="0.203125"/><stop stop-opacity="1" stop-color="rgb(72.990417%, 30.010986%, 100%)" offset="0.210937"/><stop stop-opacity="1" stop-color="rgb(72.680664%, 29.945374%, 100%)" offset="0.21875"/><stop stop-opacity="1" stop-color="rgb(72.370911%, 29.878235%, 100%)" offset="0.226562"/><stop stop-opacity="1" stop-color="rgb(72.061157%, 29.812622%, 100%)" offset="0.234375"/><stop stop-opacity="1" stop-color="rgb(71.751404%, 29.745483%, 100%)" offset="0.242188"/><stop stop-opacity="1" stop-color="rgb(71.44165%, 29.679871%, 100%)" offset="0.25"/><stop stop-opacity="1" stop-color="rgb(71.131897%, 29.612732%, 100%)" offset="0.257812"/><stop stop-opacity="1" stop-color="rgb(70.822144%, 29.547119%, 100%)" offset="0.265625"/><stop stop-opacity="1" stop-color="rgb(70.51239%, 29.47998%, 100%)" offset="0.273438"/><stop stop-opacity="1" stop-color="rgb(70.201111%, 29.414368%, 100%)" offset="0.281155"/><stop stop-opacity="1" stop-color="rgb(70.046997%, 29.380798%, 100%)" offset="0.28125"/><stop stop-opacity="1" stop-color="rgb(69.891357%, 29.347229%, 100%)" offset="0.289062"/><stop stop-opacity="1" stop-color="rgb(69.581604%, 29.281616%, 100%)" offset="0.296875"/><stop stop-opacity="1" stop-color="rgb(69.271851%, 29.214478%, 100%)" offset="0.304688"/><stop stop-opacity="1" stop-color="rgb(68.962097%, 29.148865%, 100%)" offset="0.3125"/><stop stop-opacity="1" stop-color="rgb(68.652344%, 29.081726%, 100%)" offset="0.320312"/><stop stop-opacity="1" stop-color="rgb(68.34259%, 29.016113%, 100%)" offset="0.328125"/><stop stop-opacity="1" stop-color="rgb(68.032837%, 28.948975%, 100%)" offset="0.335938"/><stop stop-opacity="1" stop-color="rgb(67.723083%, 28.883362%, 100%)" offset="0.34375"/><stop stop-opacity="1" stop-color="rgb(67.41333%, 28.816223%, 100%)" offset="0.351562"/><stop stop-opacity="1" stop-color="rgb(67.103577%, 28.749084%, 100%)" offset="0.359375"/><stop stop-opacity="1" stop-color="rgb(66.793823%, 28.683472%, 100%)" offset="0.367188"/><stop stop-opacity="1" stop-color="rgb(66.482544%, 28.616333%, 100%)" offset="0.375"/><stop stop-opacity="1" stop-color="rgb(66.172791%, 28.55072%, 100%)" offset="0.382812"/><stop stop-opacity="1" stop-color="rgb(65.863037%, 28.483582%, 100%)" offset="0.390625"/><stop stop-opacity="1" stop-color="rgb(65.553284%, 28.417969%, 100%)" offset="0.398437"/><stop stop-opacity="1" stop-color="rgb(65.24353%, 28.35083%, 100%)" offset="0.40625"/><stop stop-opacity="1" stop-color="rgb(64.933777%, 28.285217%, 100%)" offset="0.414062"/><stop stop-opacity="1" stop-color="rgb(64.624023%, 28.218079%, 100%)" offset="0.421875"/><stop stop-opacity="1" stop-color="rgb(64.31427%, 28.152466%, 100%)" offset="0.429687"/><stop stop-opacity="1" stop-color="rgb(64.004517%, 28.085327%, 100%)" offset="0.4375"/><stop stop-opacity="1" stop-color="rgb(63.694763%, 28.019714%, 100%)" offset="0.445313"/><stop stop-opacity="1" stop-color="rgb(63.38501%, 27.952576%, 100%)" offset="0.453125"/><stop stop-opacity="1" stop-color="rgb(63.075256%, 27.886963%, 100%)" offset="0.460938"/><stop stop-opacity="1" stop-color="rgb(62.763977%, 27.819824%, 100%)" offset="0.46875"/><stop stop-opacity="1" stop-color="rgb(62.454224%, 27.754211%, 100%)" offset="0.476562"/><stop stop-opacity="1" stop-color="rgb(62.14447%, 27.687073%, 100%)" offset="0.484375"/><stop stop-opacity="1" stop-color="rgb(61.834717%, 27.62146%, 100%)" offset="0.492188"/><stop stop-opacity="1" stop-color="rgb(61.524963%, 27.554321%, 100%)" offset="0.5"/><stop stop-opacity="1" stop-color="rgb(61.21521%, 27.488708%, 100%)" offset="0.507813"/><stop stop-opacity="1" stop-color="rgb(60.905457%, 27.42157%, 100%)" offset="0.515625"/><stop stop-opacity="1" stop-color="rgb(60.595703%, 27.355957%, 100%)" offset="0.523438"/><stop stop-opacity="1" stop-color="rgb(60.28595%, 27.288818%, 100%)" offset="0.53125"/><stop stop-opacity="1" stop-color="rgb(59.976196%, 27.223206%, 100%)" offset="0.539063"/><stop stop-opacity="1" stop-color="rgb(59.666443%, 27.156067%, 100%)" offset="0.546875"/><stop stop-opacity="1" stop-color="rgb(59.356689%, 27.090454%, 100%)" offset="0.554688"/><stop stop-opacity="1" stop-color="rgb(59.04541%, 27.023315%, 100%)" offset="0.5625"/><stop stop-opacity="1" stop-color="rgb(58.735657%, 26.957703%, 100%)" offset="0.570312"/><stop stop-opacity="1" stop-color="rgb(58.425903%, 26.890564%, 100%)" offset="0.578125"/><stop stop-opacity="1" stop-color="rgb(58.11615%, 26.823425%, 100%)" offset="0.585938"/><stop stop-opacity="1" stop-color="rgb(57.806396%, 26.757812%, 100%)" offset="0.59375"/><stop stop-opacity="1" stop-color="rgb(57.496643%, 26.690674%, 100%)" offset="0.601562"/><stop stop-opacity="1" stop-color="rgb(57.18689%, 26.625061%, 100%)" offset="0.609375"/><stop stop-opacity="1" stop-color="rgb(56.877136%, 26.557922%, 100%)" offset="0.617188"/><stop stop-opacity="1" stop-color="rgb(56.567383%, 26.49231%, 100%)" offset="0.625"/><stop stop-opacity="1" stop-color="rgb(56.257629%, 26.425171%, 100%)" offset="0.632812"/><stop stop-opacity="1" stop-color="rgb(55.947876%, 26.359558%, 100%)" offset="0.640625"/><stop stop-opacity="1" stop-color="rgb(55.638123%, 26.292419%, 100%)" offset="0.648438"/><stop stop-opacity="1" stop-color="rgb(55.328369%, 26.226807%, 100%)" offset="0.65625"/><stop stop-opacity="1" stop-color="rgb(55.01709%, 26.159668%, 100%)" offset="0.664062"/><stop stop-opacity="1" stop-color="rgb(54.707336%, 26.094055%, 100%)" offset="0.671875"/><stop stop-opacity="1" stop-color="rgb(54.397583%, 26.026917%, 100%)" offset="0.679688"/><stop stop-opacity="1" stop-color="rgb(54.08783%, 25.961304%, 100%)" offset="0.6875"/><stop stop-opacity="1" stop-color="rgb(53.778076%, 25.894165%, 100%)" offset="0.695312"/><stop stop-opacity="1" stop-color="rgb(53.468323%, 25.828552%, 100%)" offset="0.703125"/><stop stop-opacity="1" stop-color="rgb(53.158569%, 25.761414%, 100%)" offset="0.710938"/><stop stop-opacity="1" stop-color="rgb(52.848816%, 25.695801%, 100%)" offset="0.71875"/><stop stop-opacity="1" stop-color="rgb(52.539062%, 25.628662%, 100%)" offset="0.718845"/><stop stop-opacity="1" stop-color="rgb(52.384949%, 25.596619%, 100%)" offset="0.726562"/><stop stop-opacity="1" stop-color="rgb(52.229309%, 25.563049%, 100%)" offset="0.734375"/><stop stop-opacity="1" stop-color="rgb(51.919556%, 25.495911%, 100%)" offset="0.742188"/><stop stop-opacity="1" stop-color="rgb(51.609802%, 25.430298%, 100%)" offset="0.75"/><stop stop-opacity="1" stop-color="rgb(51.298523%, 25.363159%, 100%)" offset="0.757812"/><stop stop-opacity="1" stop-color="rgb(50.98877%, 25.297546%, 100%)" offset="0.765625"/><stop stop-opacity="1" stop-color="rgb(50.679016%, 25.230408%, 100%)" offset="0.773438"/><stop stop-opacity="1" stop-color="rgb(50.369263%, 25.164795%, 100%)" offset="0.78125"/><stop stop-opacity="1" stop-color="rgb(50.059509%, 25.097656%, 100%)" offset="0.789062"/><stop stop-opacity="1" stop-color="rgb(49.749756%, 25.032043%, 100%)" offset="0.796875"/><stop stop-opacity="1" stop-color="rgb(49.440002%, 24.964905%, 100%)" offset="0.804687"/><stop stop-opacity="1" stop-color="rgb(49.130249%, 24.897766%, 100%)" offset="0.8125"/><stop stop-opacity="1" stop-color="rgb(48.820496%, 24.832153%, 100%)" offset="0.820312"/><stop stop-opacity="1" stop-color="rgb(48.510742%, 24.765015%, 100%)" offset="0.828125"/><stop stop-opacity="1" stop-color="rgb(48.277283%, 24.716187%, 100%)" offset="0.84375"/><stop stop-opacity="1" stop-color="rgb(48.199463%, 24.699402%, 100%)" offset="0.875"/><stop stop-opacity="1" stop-color="rgb(48.199463%, 24.699402%, 100%)" offset="1"/></linearGradient></defs><g clip-path="url(#e0910acdc7)"><g clip-path="url(#9c42e80e4d)"><path fill="url(#0dd3f32298)" d="M 267.621094 63.890625 L 8.132812 63.890625 L 8.132812 311.160156 L 267.621094 311.160156 Z M 267.621094 63.890625 " fill-rule="nonzero"/></g></g><g fill="#0a0019" fill-opacity="1"><g transform="translate(305.787878, 228.371732)"><g><path d="M 57.71875 -67.359375 C 55.632812 -69.765625 53.195312 -71.644531 50.40625 -73 C 47.613281 -74.351562 44.050781 -75.03125 39.71875 -75.03125 C 34.613281 -75.03125 30.6875 -74.039062 27.9375 -72.0625 C 25.1875 -70.09375 23.8125 -67.40625 23.8125 -64 C 23.8125 -59.269531 27.253906 -55.820312 34.140625 -53.65625 L 52.03125 -48.3125 C 65.425781 -44.289062 72.125 -36.351562 72.125 -24.5 C 72.125 -19.3125 70.769531 -14.78125 68.0625 -10.90625 C 65.351562 -7.039062 61.5 -4.0625 56.5 -1.96875 C 51.507812 0.113281 45.609375 1.15625 38.796875 1.15625 C 31.203125 1.15625 24.425781 -0.140625 18.46875 -2.734375 C 12.507812 -5.328125 7.976562 -8.984375 4.875 -13.703125 C 4.5625 -14.472656 4.40625 -14.9375 4.40625 -15.09375 C 4.40625 -15.71875 4.796875 -16.300781 5.578125 -16.84375 L 12.890625 -21.953125 C 13.742188 -22.410156 14.398438 -22.640625 14.859375 -22.640625 C 15.484375 -22.640625 15.988281 -22.367188 16.375 -21.828125 C 19.394531 -17.878906 22.429688 -15.09375 25.484375 -13.46875 C 28.546875 -11.84375 32.632812 -11.03125 37.75 -11.03125 C 43.320312 -11.03125 47.691406 -11.957031 50.859375 -13.8125 C 54.035156 -15.675781 55.625 -18.503906 55.625 -22.296875 C 55.625 -24.773438 54.832031 -26.863281 53.25 -28.5625 C 51.664062 -30.269531 48.859375 -31.78125 44.828125 -33.09375 L 27.296875 -38.4375 C 20.867188 -40.375 15.953125 -43.453125 12.546875 -47.671875 C 9.140625 -51.890625 7.4375 -56.632812 7.4375 -61.90625 C 7.4375 -66.863281 8.75 -71.253906 11.375 -75.078125 C 14.007812 -78.910156 17.742188 -81.910156 22.578125 -84.078125 C 27.421875 -86.253906 33.019531 -87.34375 39.375 -87.34375 C 45.488281 -87.34375 51.117188 -86.273438 56.265625 -84.140625 C 61.421875 -82.015625 65.503906 -79.09375 68.515625 -75.375 C 68.984375 -74.757812 69.21875 -74.253906 69.21875 -73.859375 C 69.21875 -73.472656 68.984375 -73.085938 68.515625 -72.703125 L 60.28125 -66.546875 C 59.96875 -66.316406 59.65625 -66.203125 59.34375 -66.203125 C 58.957031 -66.203125 58.414062 -66.585938 57.71875 -67.359375 Z M 57.71875 -67.359375 "/></g></g></g><g fill="#0a0019" fill-opacity="1"><g transform="translate(383.018421, 228.371732)"><g><path d="M 34.71875 1.15625 C 28.757812 1.15625 23.457031 -0.175781 18.8125 -2.84375 C 14.164062 -5.519531 10.566406 -9.253906 8.015625 -14.046875 C 5.460938 -18.847656 4.1875 -24.304688 4.1875 -30.421875 C 4.1875 -36.703125 5.5 -42.300781 8.125 -47.21875 C 10.757812 -52.132812 14.398438 -55.945312 19.046875 -58.65625 C 23.691406 -61.363281 28.957031 -62.71875 34.84375 -62.71875 C 40.800781 -62.71875 46.101562 -61.34375 50.75 -58.59375 C 55.394531 -55.84375 58.992188 -52.03125 61.546875 -47.15625 C 64.109375 -42.28125 65.390625 -36.742188 65.390625 -30.546875 C 65.390625 -24.429688 64.09375 -18.972656 61.5 -14.171875 C 58.90625 -9.367188 55.285156 -5.613281 50.640625 -2.90625 C 45.992188 -0.195312 40.6875 1.15625 34.71875 1.15625 Z M 34.84375 -9.171875 C 39.800781 -9.171875 43.578125 -11.03125 46.171875 -14.75 C 48.765625 -18.46875 50.0625 -23.8125 50.0625 -30.78125 C 50.0625 -37.820312 48.742188 -43.238281 46.109375 -47.03125 C 43.472656 -50.832031 39.71875 -52.734375 34.84375 -52.734375 C 29.96875 -52.734375 26.191406 -50.832031 23.515625 -47.03125 C 20.847656 -43.238281 19.515625 -37.820312 19.515625 -30.78125 C 19.515625 -23.8125 20.847656 -18.46875 23.515625 -14.75 C 26.191406 -11.03125 29.96875 -9.171875 34.84375 -9.171875 Z M 34.84375 -9.171875 "/></g></g></g><g fill="#0a0019" fill-opacity="1"><g transform="translate(452.583984, 228.371732)"><g><path d="M 11.375 -86.171875 C 22.445312 -86.171875 30.226562 -86.132812 34.71875 -86.0625 C 65 -85.363281 80.140625 -71.15625 80.140625 -43.4375 C 80.140625 -29.570312 76.25 -18.863281 68.46875 -11.3125 C 60.6875 -3.769531 49.164062 0 33.90625 0 L 11.5 0 C 9.945312 0 9.171875 -0.8125 9.171875 -2.4375 L 9.171875 -84.078125 C 9.171875 -84.859375 9.328125 -85.398438 9.640625 -85.703125 C 9.953125 -86.015625 10.53125 -86.171875 11.375 -86.171875 Z M 27.40625 -73.859375 C 26.707031 -73.859375 26.359375 -73.316406 26.359375 -72.234375 L 26.359375 -13.703125 C 26.359375 -13.160156 26.472656 -12.789062 26.703125 -12.59375 C 26.941406 -12.40625 27.332031 -12.3125 27.875 -12.3125 L 30.78125 -12.3125 C 41.695312 -12.3125 49.648438 -14.710938 54.640625 -19.515625 C 59.640625 -24.316406 62.140625 -32.289062 62.140625 -43.4375 C 62.140625 -50.632812 61.128906 -56.378906 59.109375 -60.671875 C 57.097656 -64.972656 54.097656 -68.128906 50.109375 -70.140625 C 46.128906 -72.160156 40.925781 -73.328125 34.5 -73.640625 Z M 27.40625 -73.859375 "/></g></g></g><g fill="#0a0019" fill-opacity="1"><g transform="translate(538.640873, 228.371732)"><g><path d="M 5.8125 0 C 4.800781 0 4.296875 -0.539062 4.296875 -1.625 C 4.296875 -1.851562 4.375 -2.28125 4.53125 -2.90625 L 33.796875 -84.078125 C 34.109375 -84.859375 34.457031 -85.398438 34.84375 -85.703125 C 35.226562 -86.015625 35.804688 -86.171875 36.578125 -86.171875 L 51.109375 -86.171875 C 52.804688 -86.171875 53.890625 -85.398438 54.359375 -83.859375 L 83.390625 -2.78125 C 83.546875 -2.320312 83.625 -1.972656 83.625 -1.734375 C 83.625 -1.273438 83.488281 -0.867188 83.21875 -0.515625 C 82.945312 -0.171875 82.578125 0 82.109375 0 L 68.0625 0 C 66.976562 0 66.28125 -0.503906 65.96875 -1.515625 L 59.234375 -20.328125 C 59.078125 -20.710938 58.921875 -21 58.765625 -21.1875 C 58.609375 -21.382812 58.300781 -21.484375 57.84375 -21.484375 L 27.53125 -21.484375 C 26.832031 -21.484375 26.363281 -21.132812 26.125 -20.4375 L 19.15625 -1.390625 C 18.925781 -0.460938 18.234375 0 17.078125 0 Z M 53.65625 -34.609375 C 54.351562 -34.609375 54.703125 -34.914062 54.703125 -35.53125 C 54.703125 -35.925781 54.664062 -36.238281 54.59375 -36.46875 L 43.4375 -67.484375 C 43.207031 -68.023438 42.9375 -68.296875 42.625 -68.296875 C 42.3125 -68.296875 42.039062 -67.984375 41.8125 -67.359375 L 30.546875 -36.46875 C 30.390625 -36 30.3125 -35.648438 30.3125 -35.421875 C 30.3125 -34.878906 30.695312 -34.609375 31.46875 -34.609375 Z M 53.65625 -34.609375 "/></g></g></g><g fill="#0a0019" fill-opacity="1"><g transform="translate(626.439823, 228.371732)"><g><path d="M 57.71875 -67.359375 C 55.632812 -69.765625 53.195312 -71.644531 50.40625 -73 C 47.613281 -74.351562 44.050781 -75.03125 39.71875 -75.03125 C 34.613281 -75.03125 30.6875 -74.039062 27.9375 -72.0625 C 25.1875 -70.09375 23.8125 -67.40625 23.8125 -64 C 23.8125 -59.269531 27.253906 -55.820312 34.140625 -53.65625 L 52.03125 -48.3125 C 65.425781 -44.289062 72.125 -36.351562 72.125 -24.5 C 72.125 -19.3125 70.769531 -14.78125 68.0625 -10.90625 C 65.351562 -7.039062 61.5 -4.0625 56.5 -1.96875 C 51.507812 0.113281 45.609375 1.15625 38.796875 1.15625 C 31.203125 1.15625 24.425781 -0.140625 18.46875 -2.734375 C 12.507812 -5.328125 7.976562 -8.984375 4.875 -13.703125 C 4.5625 -14.472656 4.40625 -14.9375 4.40625 -15.09375 C 4.40625 -15.71875 4.796875 -16.300781 5.578125 -16.84375 L 12.890625 -21.953125 C 13.742188 -22.410156 14.398438 -22.640625 14.859375 -22.640625 C 15.484375 -22.640625 15.988281 -22.367188 16.375 -21.828125 C 19.394531 -17.878906 22.429688 -15.09375 25.484375 -13.46875 C 28.546875 -11.84375 32.632812 -11.03125 37.75 -11.03125 C 43.320312 -11.03125 47.691406 -11.957031 50.859375 -13.8125 C 54.035156 -15.675781 55.625 -18.503906 55.625 -22.296875 C 55.625 -24.773438 54.832031 -26.863281 53.25 -28.5625 C 51.664062 -30.269531 48.859375 -31.78125 44.828125 -33.09375 L 27.296875 -38.4375 C 20.867188 -40.375 15.953125 -43.453125 12.546875 -47.671875 C 9.140625 -51.890625 7.4375 -56.632812 7.4375 -61.90625 C 7.4375 -66.863281 8.75 -71.253906 11.375 -75.078125 C 14.007812 -78.910156 17.742188 -81.910156 22.578125 -84.078125 C 27.421875 -86.253906 33.019531 -87.34375 39.375 -87.34375 C 45.488281 -87.34375 51.117188 -86.273438 56.265625 -84.140625 C 61.421875 -82.015625 65.503906 -79.09375 68.515625 -75.375 C 68.984375 -74.757812 69.21875 -74.253906 69.21875 -73.859375 C 69.21875 -73.472656 68.984375 -73.085938 68.515625 -72.703125 L 60.28125 -66.546875 C 59.96875 -66.316406 59.65625 -66.203125 59.34375 -66.203125 C 58.957031 -66.203125 58.414062 -66.585938 57.71875 -67.359375 Z M 57.71875 -67.359375 "/></g></g></g><g fill="#0a0019" fill-opacity="1"><g transform="translate(281.966646, 292.258029)"><g><path d="M 11.53125 0.296875 C 9.6875 0.296875 7.921875 0.0195312 6.234375 -0.53125 C 4.546875 -1.09375 3.195312 -1.835938 2.1875 -2.765625 C 1.8125 -3.109375 1.625 -3.539062 1.625 -4.0625 C 1.625 -4.40625 1.722656 -4.707031 1.921875 -4.96875 C 2.117188 -5.226562 2.351562 -5.359375 2.625 -5.359375 C 2.945312 -5.359375 3.289062 -5.222656 3.65625 -4.953125 C 5.945312 -3.179688 8.5625 -2.296875 11.5 -2.296875 C 13.613281 -2.296875 15.234375 -2.703125 16.359375 -3.515625 C 17.492188 -4.328125 18.0625 -5.484375 18.0625 -6.984375 C 18.0625 -7.847656 17.789062 -8.539062 17.25 -9.0625 C 16.707031 -9.59375 15.992188 -10.019531 15.109375 -10.34375 C 14.222656 -10.664062 13.03125 -11 11.53125 -11.34375 C 9.507812 -11.8125 7.851562 -12.300781 6.5625 -12.8125 C 5.269531 -13.332031 4.222656 -14.070312 3.421875 -15.03125 C 2.617188 -16 2.21875 -17.257812 2.21875 -18.8125 C 2.21875 -20.289062 2.617188 -21.601562 3.421875 -22.75 C 4.222656 -23.894531 5.34375 -24.78125 6.78125 -25.40625 C 8.21875 -26.03125 9.863281 -26.34375 11.71875 -26.34375 C 13.4375 -26.34375 15.039062 -26.078125 16.53125 -25.546875 C 18.019531 -25.023438 19.269531 -24.269531 20.28125 -23.28125 C 20.675781 -22.882812 20.875 -22.453125 20.875 -21.984375 C 20.875 -21.640625 20.773438 -21.335938 20.578125 -21.078125 C 20.378906 -20.816406 20.144531 -20.6875 19.875 -20.6875 C 19.601562 -20.6875 19.25 -20.820312 18.8125 -21.09375 C 17.601562 -22.082031 16.476562 -22.773438 15.4375 -23.171875 C 14.40625 -23.566406 13.164062 -23.765625 11.71875 -23.765625 C 9.664062 -23.765625 8.070312 -23.335938 6.9375 -22.484375 C 5.8125 -21.640625 5.25 -20.453125 5.25 -18.921875 C 5.25 -17.617188 5.742188 -16.640625 6.734375 -15.984375 C 7.734375 -15.328125 9.269531 -14.753906 11.34375 -14.265625 C 13.582031 -13.722656 15.34375 -13.222656 16.625 -12.765625 C 17.90625 -12.304688 18.96875 -11.617188 19.8125 -10.703125 C 20.664062 -9.796875 21.09375 -8.582031 21.09375 -7.0625 C 21.09375 -5.601562 20.691406 -4.316406 19.890625 -3.203125 C 19.097656 -2.097656 17.972656 -1.238281 16.515625 -0.625 C 15.066406 -0.0078125 13.40625 0.296875 11.53125 0.296875 Z M 11.53125 0.296875 "/></g></g></g><g fill="#0a0019" fill-opacity="1"><g transform="translate(304.757633, 292.258029)"><g><path d="M 10.234375 0.265625 C 8.535156 0.265625 7.039062 -0.113281 5.75 -0.875 C 4.457031 -1.644531 3.457031 -2.738281 2.75 -4.15625 C 2.050781 -5.570312 1.703125 -7.21875 1.703125 -9.09375 C 1.703125 -10.96875 2.050781 -12.613281 2.75 -14.03125 C 3.457031 -15.445312 4.457031 -16.535156 5.75 -17.296875 C 7.039062 -18.054688 8.535156 -18.4375 10.234375 -18.4375 C 11.929688 -18.4375 13.429688 -18.054688 14.734375 -17.296875 C 16.046875 -16.535156 17.050781 -15.445312 17.75 -14.03125 C 18.457031 -12.613281 18.8125 -10.96875 18.8125 -9.09375 C 18.8125 -7.21875 18.457031 -5.570312 17.75 -4.15625 C 17.050781 -2.738281 16.046875 -1.644531 14.734375 -0.875 C 13.429688 -0.113281 11.929688 0.265625 10.234375 0.265625 Z M 10.234375 -2.21875 C 12.003906 -2.21875 13.363281 -2.800781 14.3125 -3.96875 C 15.257812 -5.144531 15.734375 -6.851562 15.734375 -9.09375 C 15.734375 -11.28125 15.253906 -12.972656 14.296875 -14.171875 C 13.335938 -15.367188 11.984375 -15.96875 10.234375 -15.96875 C 8.484375 -15.96875 7.128906 -15.367188 6.171875 -14.171875 C 5.210938 -12.972656 4.734375 -11.28125 4.734375 -9.09375 C 4.734375 -6.875 5.207031 -5.171875 6.15625 -3.984375 C 7.101562 -2.804688 8.460938 -2.21875 10.234375 -2.21875 Z M 10.234375 -2.21875 "/></g></g></g><g fill="#0a0019" fill-opacity="1"><g transform="translate(325.25843, 292.258029)"><g><path d="M 4.28125 0.1875 C 3.84375 0.1875 3.476562 0.0546875 3.1875 -0.203125 C 2.90625 -0.460938 2.765625 -0.828125 2.765625 -1.296875 L 2.765625 -24.765625 C 2.765625 -25.222656 2.90625 -25.582031 3.1875 -25.84375 C 3.476562 -26.101562 3.84375 -26.234375 4.28125 -26.234375 C 4.707031 -26.234375 5.0625 -26.101562 5.34375 -25.84375 C 5.625 -25.582031 5.765625 -25.222656 5.765625 -24.765625 L 5.765625 -1.296875 C 5.765625 -0.828125 5.625 -0.460938 5.34375 -0.203125 C 5.0625 0.0546875 4.707031 0.1875 4.28125 0.1875 Z M 4.28125 0.1875 "/></g></g></g><g fill="#0a0019" fill-opacity="1"><g transform="translate(333.828128, 292.258029)"><g><path d="M 10.125 -18.4375 C 14.632812 -18.4375 16.890625 -16.070312 16.890625 -11.34375 L 16.890625 -1.296875 C 16.890625 -0.847656 16.757812 -0.488281 16.5 -0.21875 C 16.238281 0.0507812 15.890625 0.1875 15.453125 0.1875 C 15.003906 0.1875 14.644531 0.0507812 14.375 -0.21875 C 14.101562 -0.488281 13.96875 -0.847656 13.96875 -1.296875 L 13.96875 -3.0625 C 13.5 -2.007812 12.785156 -1.191406 11.828125 -0.609375 C 10.867188 -0.0234375 9.757812 0.265625 8.5 0.265625 C 7.34375 0.265625 6.273438 0.03125 5.296875 -0.4375 C 4.328125 -0.90625 3.554688 -1.554688 2.984375 -2.390625 C 2.421875 -3.234375 2.140625 -4.160156 2.140625 -5.171875 C 2.140625 -6.523438 2.484375 -7.578125 3.171875 -8.328125 C 3.867188 -9.078125 5.003906 -9.617188 6.578125 -9.953125 C 8.148438 -10.285156 10.34375 -10.453125 13.15625 -10.453125 L 13.96875 -10.453125 L 13.96875 -11.671875 C 13.96875 -13.148438 13.664062 -14.234375 13.0625 -14.921875 C 12.457031 -15.617188 11.476562 -15.96875 10.125 -15.96875 C 8.445312 -15.96875 6.75 -15.507812 5.03125 -14.59375 C 4.363281 -14.175781 3.894531 -13.96875 3.625 -13.96875 C 3.320312 -13.96875 3.070312 -14.078125 2.875 -14.296875 C 2.6875 -14.523438 2.59375 -14.8125 2.59375 -15.15625 C 2.59375 -15.5 2.695312 -15.796875 2.90625 -16.046875 C 3.113281 -16.304688 3.453125 -16.570312 3.921875 -16.84375 C 4.773438 -17.34375 5.75 -17.734375 6.84375 -18.015625 C 7.945312 -18.296875 9.039062 -18.4375 10.125 -18.4375 Z M 8.90625 -2.109375 C 10.382812 -2.109375 11.597656 -2.601562 12.546875 -3.59375 C 13.492188 -4.59375 13.96875 -5.882812 13.96875 -7.46875 L 13.96875 -8.53125 L 13.296875 -8.53125 C 11.128906 -8.53125 9.476562 -8.4375 8.34375 -8.25 C 7.21875 -8.070312 6.410156 -7.765625 5.921875 -7.328125 C 5.441406 -6.898438 5.203125 -6.269531 5.203125 -5.4375 C 5.203125 -4.46875 5.550781 -3.671875 6.25 -3.046875 C 6.957031 -2.421875 7.84375 -2.109375 8.90625 -2.109375 Z M 8.90625 -2.109375 "/></g></g></g><g fill="#0a0019" fill-opacity="1"><g transform="translate(353.405478, 292.258029)"><g><path d="M 11.828125 -18.4375 C 16.140625 -18.4375 18.296875 -16.0625 18.296875 -11.3125 L 18.296875 -1.296875 C 18.296875 -0.828125 18.164062 -0.460938 17.90625 -0.203125 C 17.644531 0.0546875 17.28125 0.1875 16.8125 0.1875 C 16.34375 0.1875 15.972656 0.0546875 15.703125 -0.203125 C 15.429688 -0.460938 15.296875 -0.828125 15.296875 -1.296875 L 15.296875 -11.125 C 15.296875 -12.800781 14.96875 -14.019531 14.3125 -14.78125 C 13.664062 -15.539062 12.628906 -15.921875 11.203125 -15.921875 C 9.546875 -15.921875 8.222656 -15.414062 7.234375 -14.40625 C 6.253906 -13.394531 5.765625 -12.03125 5.765625 -10.3125 L 5.765625 -1.296875 C 5.765625 -0.828125 5.632812 -0.460938 5.375 -0.203125 C 5.113281 0.0546875 4.75 0.1875 4.28125 0.1875 C 3.8125 0.1875 3.441406 0.0546875 3.171875 -0.203125 C 2.898438 -0.460938 2.765625 -0.828125 2.765625 -1.296875 L 2.765625 -16.890625 C 2.765625 -17.328125 2.898438 -17.679688 3.171875 -17.953125 C 3.441406 -18.222656 3.8125 -18.359375 4.28125 -18.359375 C 4.726562 -18.359375 5.082031 -18.222656 5.34375 -17.953125 C 5.601562 -17.679688 5.734375 -17.335938 5.734375 -16.921875 L 5.734375 -15.046875 C 6.316406 -16.148438 7.140625 -16.988281 8.203125 -17.5625 C 9.265625 -18.144531 10.472656 -18.4375 11.828125 -18.4375 Z M 11.828125 -18.4375 "/></g></g></g><g fill="#0a0019" fill-opacity="1"><g transform="translate(374.386488, 292.258029)"><g><path d="M 10.125 -18.4375 C 14.632812 -18.4375 16.890625 -16.070312 16.890625 -11.34375 L 16.890625 -1.296875 C 16.890625 -0.847656 16.757812 -0.488281 16.5 -0.21875 C 16.238281 0.0507812 15.890625 0.1875 15.453125 0.1875 C 15.003906 0.1875 14.644531 0.0507812 14.375 -0.21875 C 14.101562 -0.488281 13.96875 -0.847656 13.96875 -1.296875 L 13.96875 -3.0625 C 13.5 -2.007812 12.785156 -1.191406 11.828125 -0.609375 C 10.867188 -0.0234375 9.757812 0.265625 8.5 0.265625 C 7.34375 0.265625 6.273438 0.03125 5.296875 -0.4375 C 4.328125 -0.90625 3.554688 -1.554688 2.984375 -2.390625 C 2.421875 -3.234375 2.140625 -4.160156 2.140625 -5.171875 C 2.140625 -6.523438 2.484375 -7.578125 3.171875 -8.328125 C 3.867188 -9.078125 5.003906 -9.617188 6.578125 -9.953125 C 8.148438 -10.285156 10.34375 -10.453125 13.15625 -10.453125 L 13.96875 -10.453125 L 13.96875 -11.671875 C 13.96875 -13.148438 13.664062 -14.234375 13.0625 -14.921875 C 12.457031 -15.617188 11.476562 -15.96875 10.125 -15.96875 C 8.445312 -15.96875 6.75 -15.507812 5.03125 -14.59375 C 4.363281 -14.175781 3.894531 -13.96875 3.625 -13.96875 C 3.320312 -13.96875 3.070312 -14.078125 2.875 -14.296875 C 2.6875 -14.523438 2.59375 -14.8125 2.59375 -15.15625 C 2.59375 -15.5 2.695312 -15.796875 2.90625 -16.046875 C 3.113281 -16.304688 3.453125 -16.570312 3.921875 -16.84375 C 4.773438 -17.34375 5.75 -17.734375 6.84375 -18.015625 C 7.945312 -18.296875 9.039062 -18.4375 10.125 -18.4375 Z M 8.90625 -2.109375 C 10.382812 -2.109375 11.597656 -2.601562 12.546875 -3.59375 C 13.492188 -4.59375 13.96875 -5.882812 13.96875 -7.46875 L 13.96875 -8.53125 L 13.296875 -8.53125 C 11.128906 -8.53125 9.476562 -8.4375 8.34375 -8.25 C 7.21875 -8.070312 6.410156 -7.765625 5.921875 -7.328125 C 5.441406 -6.898438 5.203125 -6.269531 5.203125 -5.4375 C 5.203125 -4.46875 5.550781 -3.671875 6.25 -3.046875 C 6.957031 -2.421875 7.84375 -2.109375 8.90625 -2.109375 Z M 8.90625 -2.109375 "/></g></g></g><g fill="#0a0019" fill-opacity="1"><g transform="translate(393.963838, 292.258029)"><g/></g></g><g fill="#0a0019" fill-opacity="1"><g transform="translate(403.493932, 292.258029)"><g><path d="M 4.765625 0 C 4.296875 0 3.921875 -0.132812 3.640625 -0.40625 C 3.359375 -0.675781 3.21875 -1.035156 3.21875 -1.484375 L 3.21875 -24.578125 C 3.21875 -25.015625 3.359375 -25.367188 3.640625 -25.640625 C 3.921875 -25.910156 4.296875 -26.046875 4.765625 -26.046875 L 11.96875 -26.046875 C 16.132812 -26.046875 19.351562 -24.921875 21.625 -22.671875 C 23.90625 -20.421875 25.046875 -17.210938 25.046875 -13.046875 C 25.046875 -8.878906 23.898438 -5.660156 21.609375 -3.390625 C 19.328125 -1.128906 16.113281 0 11.96875 0 Z M 11.78125 -2.59375 C 18.53125 -2.59375 21.90625 -6.078125 21.90625 -13.046875 C 21.90625 -19.992188 18.53125 -23.46875 11.78125 -23.46875 L 6.25 -23.46875 L 6.25 -2.59375 Z M 11.78125 -2.59375 "/></g></g></g><g fill="#0a0019" fill-opacity="1"><g transform="translate(430.791399, 292.258029)"><g><path d="M 16.703125 -4.171875 C 16.972656 -4.171875 17.207031 -4.0625 17.40625 -3.84375 C 17.601562 -3.625 17.703125 -3.34375 17.703125 -3 C 17.703125 -2.375 17.269531 -1.804688 16.40625 -1.296875 C 15.519531 -0.773438 14.582031 -0.382812 13.59375 -0.125 C 12.613281 0.132812 11.65625 0.265625 10.71875 0.265625 C 7.9375 0.265625 5.738281 -0.554688 4.125 -2.203125 C 2.507812 -3.859375 1.703125 -6.140625 1.703125 -9.046875 C 1.703125 -10.898438 2.054688 -12.535156 2.765625 -13.953125 C 3.484375 -15.367188 4.488281 -16.46875 5.78125 -17.25 C 7.070312 -18.039062 8.546875 -18.4375 10.203125 -18.4375 C 12.535156 -18.4375 14.390625 -17.671875 15.765625 -16.140625 C 17.148438 -14.617188 17.84375 -12.550781 17.84375 -9.9375 C 17.84375 -9.445312 17.742188 -9.085938 17.546875 -8.859375 C 17.347656 -8.640625 17.03125 -8.53125 16.59375 -8.53125 L 4.6875 -8.53125 C 4.914062 -4.300781 6.925781 -2.1875 10.71875 -2.1875 C 11.675781 -2.1875 12.5 -2.3125 13.1875 -2.5625 C 13.882812 -2.820312 14.625 -3.175781 15.40625 -3.625 C 16.050781 -3.988281 16.484375 -4.171875 16.703125 -4.171875 Z M 10.234375 -16.109375 C 8.660156 -16.109375 7.398438 -15.613281 6.453125 -14.625 C 5.503906 -13.644531 4.941406 -12.253906 4.765625 -10.453125 L 15.21875 -10.453125 C 15.175781 -12.273438 14.722656 -13.671875 13.859375 -14.640625 C 12.992188 -15.617188 11.785156 -16.109375 10.234375 -16.109375 Z M 10.234375 -16.109375 "/></g></g></g><g fill="#0a0019" fill-opacity="1"><g transform="translate(450.257933, 292.258029)"><g><path d="M 4.734375 0.1875 C 4.265625 0.1875 3.894531 0.046875 3.625 -0.234375 C 3.351562 -0.523438 3.21875 -0.90625 3.21875 -1.375 L 3.21875 -24.578125 C 3.21875 -25.015625 3.359375 -25.367188 3.640625 -25.640625 C 3.921875 -25.910156 4.296875 -26.046875 4.765625 -26.046875 L 18.21875 -26.046875 C 18.664062 -26.046875 19.007812 -25.9375 19.25 -25.71875 C 19.5 -25.5 19.625 -25.179688 19.625 -24.765625 C 19.625 -24.367188 19.5 -24.054688 19.25 -23.828125 C 19.007812 -23.609375 18.664062 -23.5 18.21875 -23.5 L 6.203125 -23.5 L 6.203125 -14.515625 L 17.484375 -14.515625 C 17.921875 -14.515625 18.265625 -14.40625 18.515625 -14.1875 C 18.765625 -13.96875 18.890625 -13.648438 18.890625 -13.234375 C 18.890625 -12.835938 18.765625 -12.523438 18.515625 -12.296875 C 18.265625 -12.078125 17.921875 -11.96875 17.484375 -11.96875 L 6.203125 -11.96875 L 6.203125 -1.375 C 6.203125 -0.90625 6.070312 -0.523438 5.8125 -0.234375 C 5.5625 0.046875 5.203125 0.1875 4.734375 0.1875 Z M 4.734375 0.1875 "/></g></g></g><g fill="#0a0019" fill-opacity="1"><g transform="translate(470.832628, 292.258029)"><g><path d="M 4.28125 0.1875 C 3.84375 0.1875 3.476562 0.0546875 3.1875 -0.203125 C 2.90625 -0.460938 2.765625 -0.828125 2.765625 -1.296875 L 2.765625 -16.890625 C 2.765625 -17.359375 2.90625 -17.71875 3.1875 -17.96875 C 3.476562 -18.226562 3.84375 -18.359375 4.28125 -18.359375 C 4.726562 -18.359375 5.085938 -18.226562 5.359375 -17.96875 C 5.628906 -17.71875 5.765625 -17.359375 5.765625 -16.890625 L 5.765625 -1.296875 C 5.765625 -0.796875 5.628906 -0.421875 5.359375 -0.171875 C 5.085938 0.0664062 4.726562 0.1875 4.28125 0.1875 Z M 4.28125 -22.25 C 3.6875 -22.25 3.207031 -22.421875 2.84375 -22.765625 C 2.476562 -23.109375 2.296875 -23.5625 2.296875 -24.125 C 2.296875 -24.664062 2.476562 -25.109375 2.84375 -25.453125 C 3.207031 -25.804688 3.6875 -25.984375 4.28125 -25.984375 C 4.875 -25.984375 5.351562 -25.804688 5.71875 -25.453125 C 6.09375 -25.109375 6.28125 -24.664062 6.28125 -24.125 C 6.28125 -23.5625 6.09375 -23.109375 5.71875 -22.765625 C 5.351562 -22.421875 4.875 -22.25 4.28125 -22.25 Z M 4.28125 -22.25 "/></g></g></g><g fill="#0a0019" fill-opacity="1"><g transform="translate(479.402326, 292.258029)"><g/></g></g><g fill="#0a0019" fill-opacity="1"><g transform="translate(488.93242, 292.258029)"><g><path d="M 25.640625 -1.734375 C 25.742188 -1.535156 25.796875 -1.328125 25.796875 -1.109375 C 25.796875 -0.734375 25.648438 -0.421875 25.359375 -0.171875 C 25.078125 0.0664062 24.742188 0.1875 24.359375 0.1875 C 23.734375 0.1875 23.300781 -0.109375 23.0625 -0.703125 L 20.4375 -6.6875 L 6.5 -6.6875 L 3.84375 -0.703125 C 3.59375 -0.109375 3.160156 0.1875 2.546875 0.1875 C 2.148438 0.1875 1.804688 0.0546875 1.515625 -0.203125 C 1.222656 -0.460938 1.078125 -0.773438 1.078125 -1.140625 C 1.078125 -1.335938 1.125 -1.535156 1.21875 -1.734375 L 11.78125 -25.234375 C 11.9375 -25.578125 12.160156 -25.835938 12.453125 -26.015625 C 12.742188 -26.191406 13.0625 -26.28125 13.40625 -26.28125 C 13.78125 -26.28125 14.113281 -26.1875 14.40625 -26 C 14.707031 -25.8125 14.929688 -25.554688 15.078125 -25.234375 Z M 7.609375 -9.203125 L 19.328125 -9.203125 L 13.453125 -22.46875 Z M 7.609375 -9.203125 "/></g></g></g><g fill="#0a0019" fill-opacity="1"><g transform="translate(515.786623, 292.258029)"><g><path d="M 17.375 -18.359375 C 17.832031 -18.359375 18.195312 -18.222656 18.46875 -17.953125 C 18.75 -17.679688 18.890625 -17.328125 18.890625 -16.890625 L 18.890625 -1.21875 C 18.890625 1.46875 18.195312 3.492188 16.8125 4.859375 C 15.4375 6.222656 13.390625 6.90625 10.671875 6.90625 C 8.035156 6.90625 5.847656 6.390625 4.109375 5.359375 C 3.210938 4.867188 2.765625 4.300781 2.765625 3.65625 C 2.765625 3.3125 2.859375 3.023438 3.046875 2.796875 C 3.234375 2.578125 3.472656 2.46875 3.765625 2.46875 C 4.015625 2.46875 4.457031 2.644531 5.09375 3 C 5.957031 3.4375 6.804688 3.789062 7.640625 4.0625 C 8.484375 4.332031 9.484375 4.46875 10.640625 4.46875 C 12.390625 4.46875 13.707031 4.003906 14.59375 3.078125 C 15.476562 2.160156 15.921875 0.816406 15.921875 -0.953125 L 15.921875 -4.140625 C 15.410156 -2.984375 14.617188 -2.09375 13.546875 -1.46875 C 12.472656 -0.851562 11.207031 -0.546875 9.75 -0.546875 C 8.175781 -0.546875 6.78125 -0.914062 5.5625 -1.65625 C 4.34375 -2.394531 3.394531 -3.441406 2.71875 -4.796875 C 2.039062 -6.160156 1.703125 -7.726562 1.703125 -9.5 C 1.703125 -11.269531 2.039062 -12.832031 2.71875 -14.1875 C 3.394531 -15.539062 4.34375 -16.585938 5.5625 -17.328125 C 6.78125 -18.066406 8.175781 -18.4375 9.75 -18.4375 C 11.1875 -18.4375 12.429688 -18.128906 13.484375 -17.515625 C 14.546875 -16.898438 15.347656 -16.023438 15.890625 -14.890625 L 15.890625 -16.890625 C 15.890625 -17.328125 16.019531 -17.679688 16.28125 -17.953125 C 16.539062 -18.222656 16.90625 -18.359375 17.375 -18.359375 Z M 10.34375 -3.03125 C 12.070312 -3.03125 13.425781 -3.601562 14.40625 -4.75 C 15.394531 -5.894531 15.890625 -7.476562 15.890625 -9.5 C 15.890625 -11.488281 15.398438 -13.054688 14.421875 -14.203125 C 13.453125 -15.347656 12.09375 -15.921875 10.34375 -15.921875 C 8.59375 -15.921875 7.21875 -15.347656 6.21875 -14.203125 C 5.226562 -13.054688 4.734375 -11.488281 4.734375 -9.5 C 4.734375 -7.476562 5.226562 -5.894531 6.21875 -4.75 C 7.21875 -3.601562 8.59375 -3.03125 10.34375 -3.03125 Z M 10.34375 -3.03125 "/></g></g></g><g fill="#0a0019" fill-opacity="1"><g transform="translate(537.43253, 292.258029)"><g><path d="M 16.703125 -4.171875 C 16.972656 -4.171875 17.207031 -4.0625 17.40625 -3.84375 C 17.601562 -3.625 17.703125 -3.34375 17.703125 -3 C 17.703125 -2.375 17.269531 -1.804688 16.40625 -1.296875 C 15.519531 -0.773438 14.582031 -0.382812 13.59375 -0.125 C 12.613281 0.132812 11.65625 0.265625 10.71875 0.265625 C 7.9375 0.265625 5.738281 -0.554688 4.125 -2.203125 C 2.507812 -3.859375 1.703125 -6.140625 1.703125 -9.046875 C 1.703125 -10.898438 2.054688 -12.535156 2.765625 -13.953125 C 3.484375 -15.367188 4.488281 -16.46875 5.78125 -17.25 C 7.070312 -18.039062 8.546875 -18.4375 10.203125 -18.4375 C 12.535156 -18.4375 14.390625 -17.671875 15.765625 -16.140625 C 17.148438 -14.617188 17.84375 -12.550781 17.84375 -9.9375 C 17.84375 -9.445312 17.742188 -9.085938 17.546875 -8.859375 C 17.347656 -8.640625 17.03125 -8.53125 16.59375 -8.53125 L 4.6875 -8.53125 C 4.914062 -4.300781 6.925781 -2.1875 10.71875 -2.1875 C 11.675781 -2.1875 12.5 -2.3125 13.1875 -2.5625 C 13.882812 -2.820312 14.625 -3.175781 15.40625 -3.625 C 16.050781 -3.988281 16.484375 -4.171875 16.703125 -4.171875 Z M 10.234375 -16.109375 C 8.660156 -16.109375 7.398438 -15.613281 6.453125 -14.625 C 5.503906 -13.644531 4.941406 -12.253906 4.765625 -10.453125 L 15.21875 -10.453125 C 15.175781 -12.273438 14.722656 -13.671875 13.859375 -14.640625 C 12.992188 -15.617188 11.785156 -16.109375 10.234375 -16.109375 Z M 10.234375 -16.109375 "/></g></g></g><g fill="#0a0019" fill-opacity="1"><g transform="translate(556.899063, 292.258029)"><g><path d="M 11.828125 -18.4375 C 16.140625 -18.4375 18.296875 -16.0625 18.296875 -11.3125 L 18.296875 -1.296875 C 18.296875 -0.828125 18.164062 -0.460938 17.90625 -0.203125 C 17.644531 0.0546875 17.28125 0.1875 16.8125 0.1875 C 16.34375 0.1875 15.972656 0.0546875 15.703125 -0.203125 C 15.429688 -0.460938 15.296875 -0.828125 15.296875 -1.296875 L 15.296875 -11.125 C 15.296875 -12.800781 14.96875 -14.019531 14.3125 -14.78125 C 13.664062 -15.539062 12.628906 -15.921875 11.203125 -15.921875 C 9.546875 -15.921875 8.222656 -15.414062 7.234375 -14.40625 C 6.253906 -13.394531 5.765625 -12.03125 5.765625 -10.3125 L 5.765625 -1.296875 C 5.765625 -0.828125 5.632812 -0.460938 5.375 -0.203125 C 5.113281 0.0546875 4.75 0.1875 4.28125 0.1875 C 3.8125 0.1875 3.441406 0.0546875 3.171875 -0.203125 C 2.898438 -0.460938 2.765625 -0.828125 2.765625 -1.296875 L 2.765625 -16.890625 C 2.765625 -17.328125 2.898438 -17.679688 3.171875 -17.953125 C 3.441406 -18.222656 3.8125 -18.359375 4.28125 -18.359375 C 4.726562 -18.359375 5.082031 -18.222656 5.34375 -17.953125 C 5.601562 -17.679688 5.734375 -17.335938 5.734375 -16.921875 L 5.734375 -15.046875 C 6.316406 -16.148438 7.140625 -16.988281 8.203125 -17.5625 C 9.265625 -18.144531 10.472656 -18.4375 11.828125 -18.4375 Z M 11.828125 -18.4375 "/></g></g></g><g fill="#0a0019" fill-opacity="1"><g transform="translate(577.880074, 292.258029)"><g><path d="M 11.09375 -2.1875 C 11.945312 -2.101562 12.375 -1.707031 12.375 -1 C 12.375 -0.582031 12.21875 -0.265625 11.90625 -0.046875 C 11.601562 0.160156 11.144531 0.238281 10.53125 0.1875 L 9.53125 0.109375 C 7.5625 -0.0351562 6.109375 -0.625 5.171875 -1.65625 C 4.234375 -2.695312 3.765625 -4.265625 3.765625 -6.359375 L 3.765625 -15.625 L 1.296875 -15.625 C 0.878906 -15.625 0.550781 -15.726562 0.3125 -15.9375 C 0.0820312 -16.15625 -0.03125 -16.4375 -0.03125 -16.78125 C -0.03125 -17.144531 0.0820312 -17.4375 0.3125 -17.65625 C 0.550781 -17.882812 0.878906 -18 1.296875 -18 L 3.765625 -18 L 3.765625 -22.171875 C 3.765625 -22.640625 3.898438 -23.003906 4.171875 -23.265625 C 4.441406 -23.523438 4.8125 -23.65625 5.28125 -23.65625 C 5.726562 -23.65625 6.085938 -23.523438 6.359375 -23.265625 C 6.628906 -23.003906 6.765625 -22.640625 6.765625 -22.171875 L 6.765625 -18 L 10.859375 -18 C 11.253906 -18 11.566406 -17.882812 11.796875 -17.65625 C 12.035156 -17.4375 12.15625 -17.144531 12.15625 -16.78125 C 12.15625 -16.4375 12.035156 -16.15625 11.796875 -15.9375 C 11.566406 -15.726562 11.253906 -15.625 10.859375 -15.625 L 6.765625 -15.625 L 6.765625 -6.203125 C 6.765625 -4.847656 7.039062 -3.867188 7.59375 -3.265625 C 8.144531 -2.660156 8.976562 -2.320312 10.09375 -2.25 Z M 11.09375 -2.1875 "/></g></g></g><g fill="#0a0019" fill-opacity="1"><g transform="translate(590.439121, 292.258029)"><g/></g></g><g fill="#0a0019" fill-opacity="1"><g transform="translate(599.969215, 292.258029)"><g><path d="M 11.53125 0.296875 C 9.6875 0.296875 7.921875 0.0195312 6.234375 -0.53125 C 4.546875 -1.09375 3.195312 -1.835938 2.1875 -2.765625 C 1.8125 -3.109375 1.625 -3.539062 1.625 -4.0625 C 1.625 -4.40625 1.722656 -4.707031 1.921875 -4.96875 C 2.117188 -5.226562 2.351562 -5.359375 2.625 -5.359375 C 2.945312 -5.359375 3.289062 -5.222656 3.65625 -4.953125 C 5.945312 -3.179688 8.5625 -2.296875 11.5 -2.296875 C 13.613281 -2.296875 15.234375 -2.703125 16.359375 -3.515625 C 17.492188 -4.328125 18.0625 -5.484375 18.0625 -6.984375 C 18.0625 -7.847656 17.789062 -8.539062 17.25 -9.0625 C 16.707031 -9.59375 15.992188 -10.019531 15.109375 -10.34375 C 14.222656 -10.664062 13.03125 -11 11.53125 -11.34375 C 9.507812 -11.8125 7.851562 -12.300781 6.5625 -12.8125 C 5.269531 -13.332031 4.222656 -14.070312 3.421875 -15.03125 C 2.617188 -16 2.21875 -17.257812 2.21875 -18.8125 C 2.21875 -20.289062 2.617188 -21.601562 3.421875 -22.75 C 4.222656 -23.894531 5.34375 -24.78125 6.78125 -25.40625 C 8.21875 -26.03125 9.863281 -26.34375 11.71875 -26.34375 C 13.4375 -26.34375 15.039062 -26.078125 16.53125 -25.546875 C 18.019531 -25.023438 19.269531 -24.269531 20.28125 -23.28125 C 20.675781 -22.882812 20.875 -22.453125 20.875 -21.984375 C 20.875 -21.640625 20.773438 -21.335938 20.578125 -21.078125 C 20.378906 -20.816406 20.144531 -20.6875 19.875 -20.6875 C 19.601562 -20.6875 19.25 -20.820312 18.8125 -21.09375 C 17.601562 -22.082031 16.476562 -22.773438 15.4375 -23.171875 C 14.40625 -23.566406 13.164062 -23.765625 11.71875 -23.765625 C 9.664062 -23.765625 8.070312 -23.335938 6.9375 -22.484375 C 5.8125 -21.640625 5.25 -20.453125 5.25 -18.921875 C 5.25 -17.617188 5.742188 -16.640625 6.734375 -15.984375 C 7.734375 -15.328125 9.269531 -14.753906 11.34375 -14.265625 C 13.582031 -13.722656 15.34375 -13.222656 16.625 -12.765625 C 17.90625 -12.304688 18.96875 -11.617188 19.8125 -10.703125 C 20.664062 -9.796875 21.09375 -8.582031 21.09375 -7.0625 C 21.09375 -5.601562 20.691406 -4.316406 19.890625 -3.203125 C 19.097656 -2.097656 17.972656 -1.238281 16.515625 -0.625 C 15.066406 -0.0078125 13.40625 0.296875 11.53125 0.296875 Z M 11.53125 0.296875 "/></g></g></g><g fill="#0a0019" fill-opacity="1"><g transform="translate(622.760201, 292.258029)"><g><path d="M 27.375 -17.40625 C 27.625 -18 28.035156 -18.296875 28.609375 -18.296875 C 28.972656 -18.296875 29.300781 -18.171875 29.59375 -17.921875 C 29.894531 -17.671875 30.046875 -17.363281 30.046875 -17 C 30.046875 -16.820312 30.007812 -16.632812 29.9375 -16.4375 L 23.796875 -0.921875 C 23.648438 -0.597656 23.429688 -0.34375 23.140625 -0.15625 C 22.859375 0.0195312 22.546875 0.109375 22.203125 0.109375 C 21.890625 0.109375 21.585938 0.0195312 21.296875 -0.15625 C 21.015625 -0.34375 20.800781 -0.597656 20.65625 -0.921875 L 15.5625 -13.890625 L 10.5 -0.921875 C 10.375 -0.597656 10.160156 -0.34375 9.859375 -0.15625 C 9.566406 0.0195312 9.25 0.109375 8.90625 0.109375 C 8.582031 0.109375 8.269531 0.0195312 7.96875 -0.15625 C 7.675781 -0.34375 7.457031 -0.597656 7.3125 -0.921875 L 1.1875 -16.40625 C 1.113281 -16.601562 1.078125 -16.773438 1.078125 -16.921875 C 1.078125 -17.316406 1.238281 -17.648438 1.5625 -17.921875 C 1.894531 -18.191406 2.257812 -18.328125 2.65625 -18.328125 C 3.25 -18.328125 3.671875 -18.03125 3.921875 -17.4375 L 8.984375 -3.8125 L 14.1875 -17.328125 C 14.332031 -17.648438 14.535156 -17.894531 14.796875 -18.0625 C 15.054688 -18.238281 15.332031 -18.328125 15.625 -18.328125 C 15.945312 -18.328125 16.238281 -18.238281 16.5 -18.0625 C 16.757812 -17.894531 16.953125 -17.648438 17.078125 -17.328125 L 22.28125 -3.84375 Z M 27.375 -17.40625 "/></g></g></g><g fill="#0a0019" fill-opacity="1"><g transform="translate(653.862335, 292.258029)"><g><path d="M 10.125 -18.4375 C 14.632812 -18.4375 16.890625 -16.070312 16.890625 -11.34375 L 16.890625 -1.296875 C 16.890625 -0.847656 16.757812 -0.488281 16.5 -0.21875 C 16.238281 0.0507812 15.890625 0.1875 15.453125 0.1875 C 15.003906 0.1875 14.644531 0.0507812 14.375 -0.21875 C 14.101562 -0.488281 13.96875 -0.847656 13.96875 -1.296875 L 13.96875 -3.0625 C 13.5 -2.007812 12.785156 -1.191406 11.828125 -0.609375 C 10.867188 -0.0234375 9.757812 0.265625 8.5 0.265625 C 7.34375 0.265625 6.273438 0.03125 5.296875 -0.4375 C 4.328125 -0.90625 3.554688 -1.554688 2.984375 -2.390625 C 2.421875 -3.234375 2.140625 -4.160156 2.140625 -5.171875 C 2.140625 -6.523438 2.484375 -7.578125 3.171875 -8.328125 C 3.867188 -9.078125 5.003906 -9.617188 6.578125 -9.953125 C 8.148438 -10.285156 10.34375 -10.453125 13.15625 -10.453125 L 13.96875 -10.453125 L 13.96875 -11.671875 C 13.96875 -13.148438 13.664062 -14.234375 13.0625 -14.921875 C 12.457031 -15.617188 11.476562 -15.96875 10.125 -15.96875 C 8.445312 -15.96875 6.75 -15.507812 5.03125 -14.59375 C 4.363281 -14.175781 3.894531 -13.96875 3.625 -13.96875 C 3.320312 -13.96875 3.070312 -14.078125 2.875 -14.296875 C 2.6875 -14.523438 2.59375 -14.8125 2.59375 -15.15625 C 2.59375 -15.5 2.695312 -15.796875 2.90625 -16.046875 C 3.113281 -16.304688 3.453125 -16.570312 3.921875 -16.84375 C 4.773438 -17.34375 5.75 -17.734375 6.84375 -18.015625 C 7.945312 -18.296875 9.039062 -18.4375 10.125 -18.4375 Z M 8.90625 -2.109375 C 10.382812 -2.109375 11.597656 -2.601562 12.546875 -3.59375 C 13.492188 -4.59375 13.96875 -5.882812 13.96875 -7.46875 L 13.96875 -8.53125 L 13.296875 -8.53125 C 11.128906 -8.53125 9.476562 -8.4375 8.34375 -8.25 C 7.21875 -8.070312 6.410156 -7.765625 5.921875 -7.328125 C 5.441406 -6.898438 5.203125 -6.269531 5.203125 -5.4375 C 5.203125 -4.46875 5.550781 -3.671875 6.25 -3.046875 C 6.957031 -2.421875 7.84375 -2.109375 8.90625 -2.109375 Z M 8.90625 -2.109375 "/></g></g></g><g fill="#0a0019" fill-opacity="1"><g transform="translate(673.439685, 292.258029)"><g><path d="M 11.671875 -18.359375 C 12.710938 -18.441406 13.234375 -18.023438 13.234375 -17.109375 C 13.234375 -16.710938 13.117188 -16.394531 12.890625 -16.15625 C 12.671875 -15.925781 12.289062 -15.785156 11.75 -15.734375 L 10.640625 -15.625 C 8.992188 -15.476562 7.769531 -14.894531 6.96875 -13.875 C 6.164062 -12.851562 5.765625 -11.648438 5.765625 -10.265625 L 5.765625 -1.296875 C 5.765625 -0.796875 5.628906 -0.421875 5.359375 -0.171875 C 5.085938 0.0664062 4.726562 0.1875 4.28125 0.1875 C 3.84375 0.1875 3.476562 0.0546875 3.1875 -0.203125 C 2.90625 -0.460938 2.765625 -0.828125 2.765625 -1.296875 L 2.765625 -16.890625 C 2.765625 -17.359375 2.910156 -17.71875 3.203125 -17.96875 C 3.503906 -18.226562 3.863281 -18.359375 4.28125 -18.359375 C 4.675781 -18.359375 5.007812 -18.226562 5.28125 -17.96875 C 5.550781 -17.71875 5.6875 -17.367188 5.6875 -16.921875 L 5.6875 -14.859375 C 6.207031 -15.941406 6.941406 -16.765625 7.890625 -17.328125 C 8.835938 -17.898438 9.925781 -18.234375 11.15625 -18.328125 Z M 11.671875 -18.359375 "/></g></g></g><g fill="#0a0019" fill-opacity="1"><g transform="translate(686.478945, 292.258029)"><g><path d="M 22.796875 -18.4375 C 26.785156 -18.4375 28.78125 -16.0625 28.78125 -11.3125 L 28.78125 -1.296875 C 28.78125 -0.828125 28.644531 -0.460938 28.375 -0.203125 C 28.101562 0.0546875 27.75 0.1875 27.3125 0.1875 C 26.863281 0.1875 26.5 0.0546875 26.21875 -0.203125 C 25.9375 -0.460938 25.796875 -0.828125 25.796875 -1.296875 L 25.796875 -11.234375 C 25.796875 -12.878906 25.5 -14.070312 24.90625 -14.8125 C 24.3125 -15.550781 23.390625 -15.921875 22.140625 -15.921875 C 20.628906 -15.921875 19.441406 -15.414062 18.578125 -14.40625 C 17.722656 -13.394531 17.296875 -12.03125 17.296875 -10.3125 L 17.296875 -1.296875 C 17.296875 -0.828125 17.148438 -0.460938 16.859375 -0.203125 C 16.578125 0.0546875 16.21875 0.1875 15.78125 0.1875 C 15.332031 0.1875 14.972656 0.0546875 14.703125 -0.203125 C 14.429688 -0.460938 14.296875 -0.828125 14.296875 -1.296875 L 14.296875 -11.234375 C 14.296875 -12.878906 14 -14.070312 13.40625 -14.8125 C 12.820312 -15.550781 11.890625 -15.921875 10.609375 -15.921875 C 9.128906 -15.921875 7.953125 -15.414062 7.078125 -14.40625 C 6.203125 -13.394531 5.765625 -12.03125 5.765625 -10.3125 L 5.765625 -1.296875 C 5.765625 -0.828125 5.628906 -0.460938 5.359375 -0.203125 C 5.085938 0.0546875 4.726562 0.1875 4.28125 0.1875 C 3.84375 0.1875 3.476562 0.0546875 3.1875 -0.203125 C 2.90625 -0.460938 2.765625 -0.828125 2.765625 -1.296875 L 2.765625 -16.890625 C 2.765625 -17.328125 2.90625 -17.679688 3.1875 -17.953125 C 3.476562 -18.222656 3.84375 -18.359375 4.28125 -18.359375 C 4.707031 -18.359375 5.054688 -18.226562 5.328125 -17.96875 C 5.597656 -17.71875 5.734375 -17.367188 5.734375 -16.921875 L 5.734375 -15.15625 C 6.273438 -16.207031 7.023438 -17.015625 7.984375 -17.578125 C 8.941406 -18.148438 10.050781 -18.4375 11.3125 -18.4375 C 14.113281 -18.4375 15.945312 -17.253906 16.8125 -14.890625 C 17.332031 -15.972656 18.117188 -16.832031 19.171875 -17.46875 C 20.234375 -18.113281 21.441406 -18.4375 22.796875 -18.4375 Z M 22.796875 -18.4375 "/></g></g></g><g fill="#0a0019" fill-opacity="1"><g transform="translate(717.957062, 292.258029)"><g/></g></g></svg>