<svg xmlns="http://www.w3.org/2000/svg" xmlns:xlink="http://www.w3.org/1999/xlink" width="1000" zoomAndPan="magnify" viewBox="0 0 750 374.999991" height="500" preserveAspectRatio="xMidYMid meet" version="1.0"><defs><g/><clipPath id="2cfbc436b1"><path d="M 26.785156 64 L 286.285156 64 L 286.285156 311 L 26.785156 311 Z M 26.785156 64 " clip-rule="nonzero"/></clipPath><clipPath id="8dc9a69b89"><path d="M 165.257812 205.921875 L 165.257812 95.453125 C 165.257812 91.171875 169.347656 88.070312 173.472656 89.226562 L 281.554688 119.554688 C 284.34375 120.335938 286.273438 122.882812 286.273438 125.78125 L 286.273438 236.246094 C 286.273438 240.53125 282.183594 243.632812 278.058594 242.476562 L 169.980469 212.148438 C 167.1875 211.363281 165.257812 208.820312 165.257812 205.921875 Z M 83.675781 134.171875 L 139.328125 149.785156 C 143.453125 150.945312 147.542969 147.84375 147.542969 143.558594 L 147.542969 86.773438 C 147.542969 83.875 145.613281 81.332031 142.820312 80.546875 L 87.171875 64.933594 C 83.046875 63.773438 78.957031 66.875 78.957031 71.160156 L 78.957031 127.945312 C 78.957031 130.84375 80.886719 133.386719 83.675781 134.171875 Z M 142.820312 162.90625 L 34.742188 132.578125 C 30.617188 131.421875 26.527344 134.523438 26.527344 138.804688 L 26.527344 249.273438 C 26.527344 252.171875 28.457031 254.71875 31.246094 255.5 L 139.328125 285.828125 C 143.453125 286.984375 147.542969 283.882812 147.542969 279.601562 L 147.542969 169.132812 C 147.542969 166.234375 145.613281 163.691406 142.820312 162.90625 Z M 229.125 240.882812 L 173.472656 225.269531 C 169.347656 224.109375 165.257812 227.210938 165.257812 231.496094 L 165.257812 288.28125 C 165.257812 291.179688 167.1875 293.722656 169.980469 294.507812 L 225.628906 310.121094 C 229.753906 311.28125 233.84375 308.179688 233.84375 303.894531 L 233.84375 247.109375 C 233.84375 244.210938 231.914062 241.667969 229.125 240.882812 Z M 229.125 240.882812 " clip-rule="nonzero"/></clipPath><linearGradient x1="114.296446" gradientTransform="matrix(0, 0.519497, -0.519497, 0, 286.274632, 64.687438)" y1="-47.633961" x2="358.439021" gradientUnits="userSpaceOnUse" y2="547.18858" id="f5cd9ca953"><stop stop-opacity="1" stop-color="rgb(77.598572%, 30.999756%, 100%)" offset="0"/><stop stop-opacity="1" stop-color="rgb(77.598572%, 30.999756%, 100%)" offset="0.0625"/><stop stop-opacity="1" stop-color="rgb(77.542114%, 30.987549%, 100%)" offset="0.09375"/><stop stop-opacity="1" stop-color="rgb(77.331543%, 30.941772%, 100%)" offset="0.101563"/><stop stop-opacity="1" stop-color="rgb(77.02179%, 30.874634%, 100%)" offset="0.109375"/><stop stop-opacity="1" stop-color="rgb(76.712036%, 30.809021%, 100%)" offset="0.117188"/><stop stop-opacity="1" stop-color="rgb(76.402283%, 30.741882%, 100%)" offset="0.125"/><stop stop-opacity="1" stop-color="rgb(76.092529%, 30.67627%, 100%)" offset="0.132813"/><stop stop-opacity="1" stop-color="rgb(75.782776%, 30.610657%, 100%)" offset="0.140625"/><stop stop-opacity="1" stop-color="rgb(75.473022%, 30.543518%, 100%)" offset="0.148438"/><stop stop-opacity="1" stop-color="rgb(75.164795%, 30.477905%, 100%)" offset="0.15625"/><stop stop-opacity="1" stop-color="rgb(74.855042%, 30.410767%, 100%)" offset="0.164062"/><stop stop-opacity="1" stop-color="rgb(74.545288%, 30.345154%, 100%)" offset="0.171875"/><stop stop-opacity="1" stop-color="rgb(74.235535%, 30.278015%, 100%)" offset="0.179688"/><stop stop-opacity="1" stop-color="rgb(73.925781%, 30.212402%, 100%)" offset="0.1875"/><stop stop-opacity="1" stop-color="rgb(73.616028%, 30.145264%, 100%)" offset="0.195312"/><stop stop-opacity="1" stop-color="rgb(73.306274%, 30.079651%, 100%)" offset="0.203125"/><stop stop-opacity="1" stop-color="rgb(72.996521%, 30.012512%, 100%)" offset="0.210938"/><stop stop-opacity="1" stop-color="rgb(72.686768%, 29.946899%, 100%)" offset="0.21875"/><stop stop-opacity="1" stop-color="rgb(72.377014%, 29.879761%, 100%)" offset="0.226563"/><stop stop-opacity="1" stop-color="rgb(72.067261%, 29.814148%, 100%)" offset="0.234375"/><stop stop-opacity="1" stop-color="rgb(71.757507%, 29.747009%, 100%)" offset="0.242188"/><stop stop-opacity="1" stop-color="rgb(71.447754%, 29.681396%, 100%)" offset="0.25"/><stop stop-opacity="1" stop-color="rgb(71.138%, 29.614258%, 100%)" offset="0.257812"/><stop stop-opacity="1" stop-color="rgb(70.828247%, 29.548645%, 100%)" offset="0.265625"/><stop stop-opacity="1" stop-color="rgb(70.518494%, 29.481506%, 100%)" offset="0.273438"/><stop stop-opacity="1" stop-color="rgb(70.210266%, 29.415894%, 100%)" offset="0.28125"/><stop stop-opacity="1" stop-color="rgb(69.900513%, 29.348755%, 100%)" offset="0.281324"/><stop stop-opacity="1" stop-color="rgb(69.746399%, 29.316711%, 100%)" offset="0.289062"/><stop stop-opacity="1" stop-color="rgb(69.590759%, 29.283142%, 100%)" offset="0.296875"/><stop stop-opacity="1" stop-color="rgb(69.281006%, 29.216003%, 100%)" offset="0.304688"/><stop stop-opacity="1" stop-color="rgb(68.971252%, 29.150391%, 100%)" offset="0.3125"/><stop stop-opacity="1" stop-color="rgb(68.661499%, 29.083252%, 100%)" offset="0.320312"/><stop stop-opacity="1" stop-color="rgb(68.351746%, 29.017639%, 100%)" offset="0.328125"/><stop stop-opacity="1" stop-color="rgb(68.041992%, 28.9505%, 100%)" offset="0.335938"/><stop stop-opacity="1" stop-color="rgb(67.732239%, 28.884888%, 100%)" offset="0.34375"/><stop stop-opacity="1" stop-color="rgb(67.422485%, 28.817749%, 100%)" offset="0.351563"/><stop stop-opacity="1" stop-color="rgb(67.112732%, 28.752136%, 100%)" offset="0.359375"/><stop stop-opacity="1" stop-color="rgb(66.802979%, 28.684998%, 100%)" offset="0.367188"/><stop stop-opacity="1" stop-color="rgb(66.493225%, 28.619385%, 100%)" offset="0.375"/><stop stop-opacity="1" stop-color="rgb(66.183472%, 28.552246%, 100%)" offset="0.382812"/><stop stop-opacity="1" stop-color="rgb(65.873718%, 28.486633%, 100%)" offset="0.390625"/><stop stop-opacity="1" stop-color="rgb(65.565491%, 28.419495%, 100%)" offset="0.398438"/><stop stop-opacity="1" stop-color="rgb(65.255737%, 28.353882%, 100%)" offset="0.40625"/><stop stop-opacity="1" stop-color="rgb(64.945984%, 28.286743%, 100%)" offset="0.414062"/><stop stop-opacity="1" stop-color="rgb(64.63623%, 28.22113%, 100%)" offset="0.421875"/><stop stop-opacity="1" stop-color="rgb(64.326477%, 28.155518%, 100%)" offset="0.429688"/><stop stop-opacity="1" stop-color="rgb(64.016724%, 28.088379%, 100%)" offset="0.4375"/><stop stop-opacity="1" stop-color="rgb(63.70697%, 28.022766%, 100%)" offset="0.445312"/><stop stop-opacity="1" stop-color="rgb(63.397217%, 27.955627%, 100%)" offset="0.453125"/><stop stop-opacity="1" stop-color="rgb(63.087463%, 27.890015%, 100%)" offset="0.460938"/><stop stop-opacity="1" stop-color="rgb(62.77771%, 27.822876%, 100%)" offset="0.46875"/><stop stop-opacity="1" stop-color="rgb(62.467957%, 27.757263%, 100%)" offset="0.476562"/><stop stop-opacity="1" stop-color="rgb(62.158203%, 27.690125%, 100%)" offset="0.484375"/><stop stop-opacity="1" stop-color="rgb(61.84845%, 27.624512%, 100%)" offset="0.492188"/><stop stop-opacity="1" stop-color="rgb(61.538696%, 27.557373%, 100%)" offset="0.5"/><stop stop-opacity="1" stop-color="rgb(61.228943%, 27.49176%, 100%)" offset="0.507812"/><stop stop-opacity="1" stop-color="rgb(60.919189%, 27.424622%, 100%)" offset="0.515625"/><stop stop-opacity="1" stop-color="rgb(60.610962%, 27.359009%, 100%)" offset="0.523438"/><stop stop-opacity="1" stop-color="rgb(60.301208%, 27.29187%, 100%)" offset="0.53125"/><stop stop-opacity="1" stop-color="rgb(59.991455%, 27.226257%, 100%)" offset="0.539062"/><stop stop-opacity="1" stop-color="rgb(59.681702%, 27.159119%, 100%)" offset="0.546875"/><stop stop-opacity="1" stop-color="rgb(59.371948%, 27.093506%, 100%)" offset="0.554688"/><stop stop-opacity="1" stop-color="rgb(59.062195%, 27.026367%, 100%)" offset="0.5625"/><stop stop-opacity="1" stop-color="rgb(58.752441%, 26.960754%, 100%)" offset="0.570312"/><stop stop-opacity="1" stop-color="rgb(58.442688%, 26.893616%, 100%)" offset="0.578125"/><stop stop-opacity="1" stop-color="rgb(58.132935%, 26.828003%, 100%)" offset="0.585938"/><stop stop-opacity="1" stop-color="rgb(57.823181%, 26.760864%, 100%)" offset="0.59375"/><stop stop-opacity="1" stop-color="rgb(57.513428%, 26.695251%, 100%)" offset="0.601562"/><stop stop-opacity="1" stop-color="rgb(57.203674%, 26.628113%, 100%)" offset="0.609375"/><stop stop-opacity="1" stop-color="rgb(56.893921%, 26.5625%, 100%)" offset="0.617188"/><stop stop-opacity="1" stop-color="rgb(56.584167%, 26.495361%, 100%)" offset="0.625"/><stop stop-opacity="1" stop-color="rgb(56.274414%, 26.429749%, 100%)" offset="0.632812"/><stop stop-opacity="1" stop-color="rgb(55.964661%, 26.36261%, 100%)" offset="0.640625"/><stop stop-opacity="1" stop-color="rgb(55.656433%, 26.296997%, 100%)" offset="0.648438"/><stop stop-opacity="1" stop-color="rgb(55.34668%, 26.229858%, 100%)" offset="0.65625"/><stop stop-opacity="1" stop-color="rgb(55.036926%, 26.164246%, 100%)" offset="0.664062"/><stop stop-opacity="1" stop-color="rgb(54.727173%, 26.097107%, 100%)" offset="0.671875"/><stop stop-opacity="1" stop-color="rgb(54.417419%, 26.031494%, 100%)" offset="0.679688"/><stop stop-opacity="1" stop-color="rgb(54.107666%, 25.964355%, 100%)" offset="0.6875"/><stop stop-opacity="1" stop-color="rgb(53.797913%, 25.898743%, 100%)" offset="0.695312"/><stop stop-opacity="1" stop-color="rgb(53.488159%, 25.831604%, 100%)" offset="0.703125"/><stop stop-opacity="1" stop-color="rgb(53.178406%, 25.765991%, 100%)" offset="0.710938"/><stop stop-opacity="1" stop-color="rgb(52.868652%, 25.700378%, 100%)" offset="0.718676"/><stop stop-opacity="1" stop-color="rgb(52.714539%, 25.666809%, 100%)" offset="0.71875"/><stop stop-opacity="1" stop-color="rgb(52.558899%, 25.63324%, 100%)" offset="0.726562"/><stop stop-opacity="1" stop-color="rgb(52.249146%, 25.567627%, 100%)" offset="0.734375"/><stop stop-opacity="1" stop-color="rgb(51.939392%, 25.500488%, 100%)" offset="0.742188"/><stop stop-opacity="1" stop-color="rgb(51.629639%, 25.434875%, 100%)" offset="0.75"/><stop stop-opacity="1" stop-color="rgb(51.319885%, 25.367737%, 100%)" offset="0.757812"/><stop stop-opacity="1" stop-color="rgb(51.010132%, 25.302124%, 100%)" offset="0.765625"/><stop stop-opacity="1" stop-color="rgb(50.701904%, 25.234985%, 100%)" offset="0.773438"/><stop stop-opacity="1" stop-color="rgb(50.392151%, 25.169373%, 100%)" offset="0.78125"/><stop stop-opacity="1" stop-color="rgb(50.082397%, 25.102234%, 100%)" offset="0.789062"/><stop stop-opacity="1" stop-color="rgb(49.772644%, 25.036621%, 100%)" offset="0.796875"/><stop stop-opacity="1" stop-color="rgb(49.462891%, 24.969482%, 100%)" offset="0.804688"/><stop stop-opacity="1" stop-color="rgb(49.153137%, 24.90387%, 100%)" offset="0.8125"/><stop stop-opacity="1" stop-color="rgb(48.843384%, 24.836731%, 100%)" offset="0.820313"/><stop stop-opacity="1" stop-color="rgb(48.53363%, 24.771118%, 100%)" offset="0.828125"/><stop stop-opacity="1" stop-color="rgb(48.28949%, 24.717712%, 100%)" offset="0.84375"/><stop stop-opacity="1" stop-color="rgb(48.199463%, 24.699402%, 100%)" offset="0.875"/><stop stop-opacity="1" stop-color="rgb(48.199463%, 24.699402%, 100%)" offset="1"/></linearGradient></defs><g clip-path="url(#2cfbc436b1)"><g clip-path="url(#8dc9a69b89)"><path fill="url(#f5cd9ca953)" d="M 286.273438 63.773438 L 26.785156 63.773438 L 26.785156 311.253906 L 286.273438 311.253906 Z M 286.273438 63.773438 " fill-rule="nonzero"/></g></g><g fill="#0a0019" fill-opacity="1"><g transform="translate(305.739082, 242.784437)"><g><path d="M 57.78125 -67.421875 C 55.6875 -69.828125 53.242188 -71.707031 50.453125 -73.0625 C 47.660156 -74.414062 44.09375 -75.09375 39.75 -75.09375 C 34.632812 -75.09375 30.703125 -74.101562 27.953125 -72.125 C 25.203125 -70.15625 23.828125 -67.460938 23.828125 -64.046875 C 23.828125 -59.328125 27.273438 -55.878906 34.171875 -53.703125 L 52.078125 -48.359375 C 65.484375 -44.328125 72.1875 -36.382812 72.1875 -24.53125 C 72.1875 -19.332031 70.828125 -14.796875 68.109375 -10.921875 C 65.398438 -7.046875 61.546875 -4.0625 56.546875 -1.96875 C 51.554688 0.113281 45.648438 1.15625 38.828125 1.15625 C 31.234375 1.15625 24.453125 -0.140625 18.484375 -2.734375 C 12.515625 -5.328125 7.976562 -8.988281 4.875 -13.71875 C 4.570312 -14.488281 4.421875 -14.953125 4.421875 -15.109375 C 4.421875 -15.734375 4.804688 -16.316406 5.578125 -16.859375 L 12.90625 -21.96875 C 13.757812 -22.4375 14.414062 -22.671875 14.875 -22.671875 C 15.5 -22.671875 16.003906 -22.398438 16.390625 -21.859375 C 19.410156 -17.898438 22.453125 -15.109375 25.515625 -13.484375 C 28.578125 -11.859375 32.664062 -11.046875 37.78125 -11.046875 C 43.363281 -11.046875 47.742188 -11.972656 50.921875 -13.828125 C 54.097656 -15.691406 55.6875 -18.519531 55.6875 -22.3125 C 55.6875 -24.800781 54.890625 -26.894531 53.296875 -28.59375 C 51.710938 -30.300781 48.90625 -31.8125 44.875 -33.125 L 27.3125 -38.484375 C 20.882812 -40.421875 15.960938 -43.5 12.546875 -47.71875 C 9.140625 -51.945312 7.4375 -56.695312 7.4375 -61.96875 C 7.4375 -66.925781 8.753906 -71.320312 11.390625 -75.15625 C 14.023438 -78.988281 17.765625 -81.988281 22.609375 -84.15625 C 27.453125 -86.332031 33.050781 -87.421875 39.40625 -87.421875 C 45.53125 -87.421875 51.164062 -86.351562 56.3125 -84.21875 C 61.46875 -82.09375 65.5625 -79.171875 68.59375 -75.453125 C 69.050781 -74.828125 69.28125 -74.320312 69.28125 -73.9375 C 69.28125 -73.550781 69.050781 -73.160156 68.59375 -72.765625 L 60.328125 -66.609375 C 60.023438 -66.378906 59.71875 -66.265625 59.40625 -66.265625 C 59.019531 -66.265625 58.476562 -66.648438 57.78125 -67.421875 Z M 57.78125 -67.421875 "/></g></g></g><g fill="#0a0019" fill-opacity="1"><g transform="translate(383.041745, 242.784437)"><g><path d="M 34.765625 1.15625 C 28.796875 1.15625 23.484375 -0.175781 18.828125 -2.84375 C 14.179688 -5.519531 10.578125 -9.257812 8.015625 -14.0625 C 5.460938 -18.875 4.1875 -24.335938 4.1875 -30.453125 C 4.1875 -36.734375 5.503906 -42.332031 8.140625 -47.25 C 10.773438 -52.175781 14.414062 -55.992188 19.0625 -58.703125 C 23.71875 -61.421875 28.988281 -62.78125 34.875 -62.78125 C 40.84375 -62.78125 46.148438 -61.398438 50.796875 -58.640625 C 55.453125 -55.890625 59.054688 -52.070312 61.609375 -47.1875 C 64.171875 -42.3125 65.453125 -36.773438 65.453125 -30.578125 C 65.453125 -24.453125 64.148438 -18.984375 61.546875 -14.171875 C 58.953125 -9.367188 55.328125 -5.613281 50.671875 -2.90625 C 46.023438 -0.195312 40.722656 1.15625 34.765625 1.15625 Z M 34.875 -9.1875 C 39.832031 -9.1875 43.609375 -11.046875 46.203125 -14.765625 C 48.804688 -18.484375 50.109375 -23.832031 50.109375 -30.8125 C 50.109375 -37.863281 48.789062 -43.285156 46.15625 -47.078125 C 43.519531 -50.878906 39.757812 -52.78125 34.875 -52.78125 C 29.988281 -52.78125 26.207031 -50.878906 23.53125 -47.078125 C 20.863281 -43.285156 19.53125 -37.863281 19.53125 -30.8125 C 19.53125 -23.832031 20.863281 -18.484375 23.53125 -14.765625 C 26.207031 -11.046875 29.988281 -9.1875 34.875 -9.1875 Z M 34.875 -9.1875 "/></g></g></g><g fill="#0a0019" fill-opacity="1"><g transform="translate(452.672269, 242.784437)"><g><path d="M 11.390625 -86.25 C 22.472656 -86.25 30.265625 -86.210938 34.765625 -86.140625 C 65.066406 -85.441406 80.21875 -71.222656 80.21875 -43.484375 C 80.21875 -29.609375 76.320312 -18.890625 68.53125 -11.328125 C 60.738281 -3.773438 49.207031 0 33.9375 0 L 11.515625 0 C 9.960938 0 9.1875 -0.8125 9.1875 -2.4375 L 9.1875 -84.171875 C 9.1875 -84.941406 9.335938 -85.476562 9.640625 -85.78125 C 9.953125 -86.09375 10.535156 -86.25 11.390625 -86.25 Z M 27.4375 -73.9375 C 26.738281 -73.9375 26.390625 -73.394531 26.390625 -72.3125 L 26.390625 -13.71875 C 26.390625 -13.175781 26.503906 -12.804688 26.734375 -12.609375 C 26.972656 -12.421875 27.363281 -12.328125 27.90625 -12.328125 L 30.8125 -12.328125 C 41.738281 -12.328125 49.695312 -14.726562 54.6875 -19.53125 C 59.6875 -24.332031 62.1875 -32.316406 62.1875 -43.484375 C 62.1875 -50.679688 61.179688 -56.429688 59.171875 -60.734375 C 57.160156 -65.035156 54.15625 -68.191406 50.15625 -70.203125 C 46.164062 -72.222656 40.957031 -73.390625 34.53125 -73.703125 Z M 27.4375 -73.9375 "/></g></g></g><g fill="#0a0019" fill-opacity="1"><g transform="translate(538.80952, 242.784437)"><g><path d="M 5.8125 0 C 4.800781 0 4.296875 -0.539062 4.296875 -1.625 C 4.296875 -1.851562 4.375 -2.28125 4.53125 -2.90625 L 33.828125 -84.171875 C 34.140625 -84.941406 34.488281 -85.476562 34.875 -85.78125 C 35.257812 -86.09375 35.84375 -86.25 36.625 -86.25 L 51.15625 -86.25 C 52.851562 -86.25 53.9375 -85.476562 54.40625 -83.9375 L 83.46875 -2.796875 C 83.625 -2.328125 83.703125 -1.976562 83.703125 -1.75 C 83.703125 -1.28125 83.566406 -0.867188 83.296875 -0.515625 C 83.023438 -0.171875 82.65625 0 82.1875 0 L 68.125 0 C 67.039062 0 66.34375 -0.503906 66.03125 -1.515625 L 59.28125 -20.34375 C 59.132812 -20.726562 58.984375 -21.015625 58.828125 -21.203125 C 58.671875 -21.398438 58.359375 -21.5 57.890625 -21.5 L 27.546875 -21.5 C 26.847656 -21.5 26.382812 -21.148438 26.15625 -20.453125 L 19.1875 -1.390625 C 18.945312 -0.460938 18.25 0 17.09375 0 Z M 53.703125 -34.640625 C 54.398438 -34.640625 54.75 -34.953125 54.75 -35.578125 C 54.75 -35.960938 54.710938 -36.269531 54.640625 -36.5 L 43.484375 -67.546875 C 43.242188 -68.085938 42.96875 -68.359375 42.65625 -68.359375 C 42.351562 -68.359375 42.082031 -68.046875 41.84375 -67.421875 L 30.578125 -36.5 C 30.421875 -36.039062 30.34375 -35.691406 30.34375 -35.453125 C 30.34375 -34.910156 30.726562 -34.640625 31.5 -34.640625 Z M 53.703125 -34.640625 "/></g></g></g><g fill="#0a0019" fill-opacity="1"><g transform="translate(626.690458, 242.784437)"><g><path d="M 57.78125 -67.421875 C 55.6875 -69.828125 53.242188 -71.707031 50.453125 -73.0625 C 47.660156 -74.414062 44.09375 -75.09375 39.75 -75.09375 C 34.632812 -75.09375 30.703125 -74.101562 27.953125 -72.125 C 25.203125 -70.15625 23.828125 -67.460938 23.828125 -64.046875 C 23.828125 -59.328125 27.273438 -55.878906 34.171875 -53.703125 L 52.078125 -48.359375 C 65.484375 -44.328125 72.1875 -36.382812 72.1875 -24.53125 C 72.1875 -19.332031 70.828125 -14.796875 68.109375 -10.921875 C 65.398438 -7.046875 61.546875 -4.0625 56.546875 -1.96875 C 51.554688 0.113281 45.648438 1.15625 38.828125 1.15625 C 31.234375 1.15625 24.453125 -0.140625 18.484375 -2.734375 C 12.515625 -5.328125 7.976562 -8.988281 4.875 -13.71875 C 4.570312 -14.488281 4.421875 -14.953125 4.421875 -15.109375 C 4.421875 -15.734375 4.804688 -16.316406 5.578125 -16.859375 L 12.90625 -21.96875 C 13.757812 -22.4375 14.414062 -22.671875 14.875 -22.671875 C 15.5 -22.671875 16.003906 -22.398438 16.390625 -21.859375 C 19.410156 -17.898438 22.453125 -15.109375 25.515625 -13.484375 C 28.578125 -11.859375 32.664062 -11.046875 37.78125 -11.046875 C 43.363281 -11.046875 47.742188 -11.972656 50.921875 -13.828125 C 54.097656 -15.691406 55.6875 -18.519531 55.6875 -22.3125 C 55.6875 -24.800781 54.890625 -26.894531 53.296875 -28.59375 C 51.710938 -30.300781 48.90625 -31.8125 44.875 -33.125 L 27.3125 -38.484375 C 20.882812 -40.421875 15.960938 -43.5 12.546875 -47.71875 C 9.140625 -51.945312 7.4375 -56.695312 7.4375 -61.96875 C 7.4375 -66.925781 8.753906 -71.320312 11.390625 -75.15625 C 14.023438 -78.988281 17.765625 -81.988281 22.609375 -84.15625 C 27.453125 -86.332031 33.050781 -87.421875 39.40625 -87.421875 C 45.53125 -87.421875 51.164062 -86.351562 56.3125 -84.21875 C 61.46875 -82.09375 65.5625 -79.171875 68.59375 -75.453125 C 69.050781 -74.828125 69.28125 -74.320312 69.28125 -73.9375 C 69.28125 -73.550781 69.050781 -73.160156 68.59375 -72.765625 L 60.328125 -66.609375 C 60.023438 -66.378906 59.71875 -66.265625 59.40625 -66.265625 C 59.019531 -66.265625 58.476562 -66.648438 57.78125 -67.421875 Z M 57.78125 -67.421875 "/></g></g></g></svg>